<?xml version="1.0" encoding="iso-8859-1"?>
<!-- Generator: Adobe Illustrator 17.1.0, SVG Export Plug-In . SVG Version: 6.00 Build 0)  -->
<!DOCTYPE svg PUBLIC "-//W3C//DTD SVG 1.1//EN" "http://www.w3.org/Graphics/SVG/1.1/DTD/svg11.dtd">
<svg version="1.1" xmlns="http://www.w3.org/2000/svg" xmlns:xlink="http://www.w3.org/1999/xlink" x="0px" y="0px"
	 viewBox="0 0 34 34" style="enable-background:new 0 0 34 34;" xml:space="preserve">
<g id="BLOCKS" style="display:none;">
	<rect x="0.026" y="0.022" style="display:inline;fill:#CCCACB;" width="34" height="34"/>
</g>
<g id="INNER_GUDIES">
</g>
<g id="MAIN_GUIDES">
</g>
<g id="ICONS">
	<g>
		<path d="M29.024,22.887c-0.001-0.354-0.046-0.717-0.133-1.06c-0.492-1.939-1.655-3.405-3.214-4.577
			c-1.277-0.96-2.705-1.603-4.235-2.019c-0.024-0.007-0.052-0.01-0.081-0.01c-0.103,0-0.225,0.04-0.298,0.099
			c-1.192,0.962-2.608,1.454-4.029,1.454c-1.277,0-2.557-0.398-3.678-1.208c-0.277-0.2-0.515-0.286-0.767-0.286
			c-0.168,0-0.343,0.038-0.541,0.105c-2.045,0.695-3.89,1.699-5.294,3.402c-1.014,1.229-1.733,2.589-1.73,4.249
			c0.005,2.863,0.003,5.568,0.003,8.431c0,0.146,0,0.292,0,0.463c8.026,0,16,0,23.986,0c0.005-0.096,0.013-0.169,0.013-0.241
			C29.028,28.702,29.033,25.873,29.024,22.887z"/>
		<path d="M17.01,1.924c-3.531,0-6.421,2.894-6.419,6.437c0.003,3.532,2.898,6.422,6.434,6.422c0,0,0.001,0,0.002,0
			c3.539-0.001,6.433-2.889,6.435-6.422c0.002-3.542-2.865-6.417-6.417-6.436C17.033,1.924,17.022,1.924,17.01,1.924"/>
	</g>
</g>
<g id="TITLES">
</g>
</svg>
