<?xml version="1.0" encoding="iso-8859-1"?>
<!-- Generator: Adobe Illustrator 17.1.0, SVG Export Plug-In . SVG Version: 6.00 Build 0)  -->
<!DOCTYPE svg PUBLIC "-//W3C//DTD SVG 1.1//EN" "http://www.w3.org/Graphics/SVG/1.1/DTD/svg11.dtd">
<svg version="1.1" xmlns="http://www.w3.org/2000/svg" xmlns:xlink="http://www.w3.org/1999/xlink" x="0px" y="0px"
	 viewBox="0 0 34 34" style="enable-background:new 0 0 34 34;" xml:space="preserve">
<g id="BLOCKS" style="display:none;">
	<rect x="0.023" y="0.022" style="display:inline;fill:#CCCACB;" width="34" height="34"/>
</g>
<g id="INNER_GUDIES">
</g>
<g id="MAIN_GUIDES">
</g>
<g id="ICONS">
	<g>
		<g>
			<path d="M12.449,17.444c1.375,0.925,2.953,1.412,4.584,1.412c1.613,0,3.216-0.493,4.591-1.401
				c1.089,0.364,2.034,0.852,2.874,1.483c1.347,1.013,2.135,2.115,2.479,3.47c0.045,0.179,0.07,0.375,0.07,0.568
				c0.008,2.375,0.006,4.592,0.005,6.967l0,0.069H7.001l0-0.85c0-2.016,0-4.031-0.003-6.047c-0.002-0.983,0.39-1.897,1.271-2.963
				C9.233,18.983,10.554,18.122,12.449,17.444 M21.359,15.304c-0.103,0-0.225,0.04-0.298,0.099
				c-1.192,0.962-2.608,1.454-4.029,1.454c-1.277,0-2.557-0.398-3.678-1.208c-0.277-0.2-0.515-0.286-0.767-0.286
				c-0.168,0-0.343,0.038-0.541,0.105c-2.045,0.695-3.89,1.699-5.294,3.402c-1.014,1.229-1.733,2.589-1.73,4.249
				c0.005,2.863,0.003,5.568,0.003,8.431c0,0.146,0,0.292,0,0.463c8.026,0,16,0,23.986,0c0.005-0.096,0.013-0.169,0.013-0.241
				c0.001-2.986,0.006-5.815-0.003-8.801c-0.001-0.354-0.046-0.717-0.133-1.06c-0.492-1.939-1.655-3.405-3.214-4.577
				c-1.277-0.96-2.705-1.603-4.235-2.019C21.415,15.307,21.388,15.304,21.359,15.304L21.359,15.304z"/>
		</g>
		<g>
			<path d="M17.007,2.008 M17.031,4.008c2.443,0.013,4.43,2.003,4.428,4.435c-0.002,2.439-1.991,4.423-4.437,4.424
				c-2.443,0-4.432-1.984-4.434-4.423c-0.001-1.179,0.461-2.292,1.3-3.133c0.838-0.84,1.945-1.302,3.119-1.303 M17.007,2.008
				 M17.007,2.008c-3.531,0-6.421,2.894-6.419,6.437c0.003,3.532,2.898,6.422,6.434,6.422c0,0,0.001,0,0.002,0
				c3.539-0.001,6.433-2.889,6.435-6.422c0.002-3.542-2.865-6.417-6.417-6.436C17.03,2.008,17.019,2.008,17.007,2.008L17.007,2.008z
				"/>
		</g>
	</g>
</g>
<g id="TITLES">
</g>
</svg>
