<?xml version="1.0" encoding="iso-8859-1"?>
<!-- Generator: Adobe Illustrator 17.1.0, SVG Export Plug-In . SVG Version: 6.00 Build 0)  -->
<!DOCTYPE svg PUBLIC "-//W3C//DTD SVG 1.1//EN" "http://www.w3.org/Graphics/SVG/1.1/DTD/svg11.dtd">
<svg version="1.1" xmlns="http://www.w3.org/2000/svg" xmlns:xlink="http://www.w3.org/1999/xlink" x="0px" y="0px"
	 viewBox="0 0 34 34" style="enable-background:new 0 0 34 34;" xml:space="preserve">
<g id="BLOCKS" style="display:none;">
	<rect x="0.027" y="0.022" style="display:inline;fill:#CCCACB;" width="34" height="34"/>
</g>
<g id="INNER_GUDIES">
</g>
<g id="MAIN_GUIDES">
</g>
<g id="ICONS">
	<g>
		<path d="M15.895,25.965c0.053,0.006,0.112,0.012,0.177,0.019c0.26,0.026,0.527,0.039,0.796,0.039c0.406,0,0.706-0.074,0.826-0.202
			c0.137-0.148,0.201-0.325,0.201-0.557v-6.741v-0.5h0.5h7.443c0.006-0.053,0.012-0.112,0.019-0.177
			c0.026-0.26,0.039-0.527,0.039-0.796c0-0.406-0.074-0.706-0.202-0.826c-0.148-0.137-0.325-0.201-0.557-0.201h-6.741h-0.5v-0.5
			V8.078c-0.053-0.006-0.112-0.013-0.178-0.019c-0.262-0.025-0.53-0.037-0.795-0.037c-0.406,0-0.707,0.073-0.826,0.201
			c-0.137,0.148-0.201,0.326-0.201,0.558v6.742v0.5h-0.5H7.951c-0.006,0.053-0.013,0.112-0.019,0.178
			c-0.025,0.262-0.037,0.53-0.037,0.795c0,0.406,0.073,0.707,0.201,0.826c0.148,0.137,0.326,0.201,0.558,0.201h6.742h0.5v0.5V25.965
			z"/>
	</g>
</g>
<g id="TITLES">
</g>
</svg>
