<?xml version="1.0" encoding="iso-8859-1"?>
<!-- Generator: Adobe Illustrator 17.1.0, SVG Export Plug-In . SVG Version: 6.00 Build 0)  -->
<!DOCTYPE svg PUBLIC "-//W3C//DTD SVG 1.1//EN" "http://www.w3.org/Graphics/SVG/1.1/DTD/svg11.dtd">
<svg version="1.1" xmlns="http://www.w3.org/2000/svg" xmlns:xlink="http://www.w3.org/1999/xlink" x="0px" y="0px"
	 viewBox="0 0 34 34" style="enable-background:new 0 0 34 34;" xml:space="preserve">
<g id="BLOCKS" style="display:none;">
	<rect x="0.026" y="0.022" style="display:inline;fill:#CCCACB;" width="34" height="34"/>
</g>
<g id="INNER_GUDIES">
</g>
<g id="MAIN_GUIDES">
</g>
<g id="ICONS">
	<g>
		<path d="M33.584,28.664L19.018,2.516c-0.493-0.852-1.159-1.321-1.874-1.321c-0.715,0-1.381,0.47-1.874,1.321L0.456,28.664
			c-0.493,0.853-0.568,1.662-0.212,2.28c0.356,0.619,1.098,0.961,2.086,0.961h29.38c0.988,0,1.729-0.342,2.086-0.961
			C34.153,30.327,34.078,29.517,33.584,28.664z M15.916,11.672c0.226-0.204,0.577-0.303,1.075-0.303
			c0.251,0,0.501,0.014,0.743,0.042c0.246,0.029,0.432,0.057,0.558,0.085l0.079,0.017l-0.522,8.111
			c-0.016,0.191-0.084,0.355-0.208,0.502c-0.13,0.155-0.344,0.23-0.651,0.23c-0.231,0-0.492-0.05-0.774-0.149l-0.06-0.021
			l-0.583-7.751C15.575,12.133,15.689,11.876,15.916,11.672z M18.258,25.715c-0.341,0.341-0.759,0.512-1.252,0.512
			c-0.474,0-0.882-0.171-1.224-0.512c-0.342-0.342-0.513-0.75-0.513-1.224c0-0.493,0.171-0.911,0.513-1.252
			c0.341-0.342,0.749-0.513,1.224-0.513c0.493,0,0.91,0.171,1.252,0.513c0.342,0.341,0.512,0.759,0.512,1.252
			C18.77,24.965,18.6,25.373,18.258,25.715z"/>
	</g>
</g>
<g id="TITLES">
</g>
</svg>
