<?xml version="1.0" encoding="iso-8859-1"?>
<!-- Generator: Adobe Illustrator 17.1.0, SVG Export Plug-In . SVG Version: 6.00 Build 0)  -->
<!DOCTYPE svg PUBLIC "-//W3C//DTD SVG 1.1//EN" "http://www.w3.org/Graphics/SVG/1.1/DTD/svg11.dtd">
<svg version="1.1" xmlns="http://www.w3.org/2000/svg" xmlns:xlink="http://www.w3.org/1999/xlink" x="0px" y="0px"
	 viewBox="0 0 34 34" style="enable-background:new 0 0 34 34;" xml:space="preserve">
<g id="BLOCKS" style="display:none;">
	<rect x="0.027" y="0.022" style="display:inline;fill:#CCCACB;" width="34" height="34"/>
</g>
<g id="INNER_GUDIES">
</g>
<g id="MAIN_GUIDES">
</g>
<g id="ICONS">
	<g>
		<path d="M33.586,28.748L19.02,2.599c-0.493-0.852-1.159-1.321-1.874-1.321c-0.715,0-1.381,0.47-1.874,1.321L0.458,28.748
			c-0.493,0.853-0.568,1.662-0.212,2.28c0.356,0.619,1.098,0.961,2.086,0.961h29.38c0.988,0,1.729-0.342,2.086-0.961
			C34.154,30.41,34.079,29.6,33.586,28.748z M31.712,29.984H2.332c-0.101,0-0.183-0.007-0.247-0.016
			c0.024-0.06,0.059-0.131,0.107-0.216L17.006,3.604c0.052-0.089,0.1-0.157,0.14-0.208c0.04,0.051,0.088,0.119,0.14,0.208
			l14.566,26.147c0.049,0.086,0.083,0.157,0.107,0.217C31.895,29.977,31.813,29.984,31.712,29.984z"/>
		<path d="M16.219,20.29c0.282,0.098,0.544,0.149,0.774,0.149c0.308,0,0.521-0.075,0.651-0.23c0.123-0.147,0.191-0.311,0.208-0.502
			l0.522-8.111l-0.079-0.017c-0.127-0.028-0.312-0.056-0.558-0.085c-0.242-0.028-0.492-0.042-0.743-0.042
			c-0.498,0-0.85,0.099-1.075,0.303c-0.227,0.204-0.342,0.461-0.342,0.763l0.583,7.751L16.219,20.29z"/>
		<path d="M17.008,22.81c-0.474,0-0.882,0.171-1.224,0.513c-0.342,0.341-0.513,0.759-0.513,1.252c0,0.474,0.171,0.882,0.513,1.224
			c0.341,0.341,0.749,0.512,1.224,0.512c0.493,0,0.91-0.171,1.252-0.512c0.342-0.342,0.512-0.75,0.512-1.224
			c0-0.493-0.171-0.911-0.512-1.252C17.919,22.98,17.501,22.81,17.008,22.81z"/>
	</g>
</g>
<g id="TITLES">
</g>
</svg>
