<?xml version="1.0" encoding="iso-8859-1"?>
<!-- Generator: Adobe Illustrator 17.1.0, SVG Export Plug-In . SVG Version: 6.00 Build 0)  -->
<!DOCTYPE svg PUBLIC "-//W3C//DTD SVG 1.1//EN" "http://www.w3.org/Graphics/SVG/1.1/DTD/svg11.dtd">
<svg version="1.1" xmlns="http://www.w3.org/2000/svg" xmlns:xlink="http://www.w3.org/1999/xlink" x="0px" y="0px"
	 viewBox="0 0 34 34" style="enable-background:new 0 0 34 34;" xml:space="preserve">
<g id="BLOCKS" style="display:none;">
	<rect x="0.026" y="0.022" style="display:inline;fill:#CCCACB;" width="34" height="34"/>
</g>
<g id="INNER_GUDIES">
</g>
<g id="MAIN_GUIDES">
</g>
<g id="ICONS">
	<g>
		<path d="M16.865,1.014c-8.837,0-16,7.163-16,16s7.163,16,16,16s16-7.163,16-16S25.701,1.014,16.865,1.014z M7.918,14.498
			c0-0.102,0.057-0.331,0.442-0.716c0.187-0.187,0.386-0.368,0.588-0.536c0.051-0.042,0.098-0.079,0.14-0.112l0.484,0.484
			l6.747,6.747l0.354,0.354l0.354-0.354l6.981-6.981l0.496-0.496c0.042,0.033,0.088,0.07,0.138,0.111
			c0.204,0.169,0.403,0.35,0.59,0.537c0.384,0.384,0.442,0.613,0.442,0.725v0c-0.008,0.198-0.086,0.366-0.247,0.53l-0.124,0.127
			l-7.922,7.921c-0.189,0.189-0.44,0.293-0.707,0.293s-0.518-0.104-0.707-0.293l-7.619-7.618l-0.183-0.188
			c-0.16-0.164-0.238-0.331-0.246-0.526"/>
	</g>
</g>
<g id="TITLES">
</g>
</svg>
