<?xml version="1.0" encoding="iso-8859-1"?>
<!-- Generator: Adobe Illustrator 17.1.0, SVG Export Plug-In . SVG Version: 6.00 Build 0)  -->
<!DOCTYPE svg PUBLIC "-//W3C//DTD SVG 1.1//EN" "http://www.w3.org/Graphics/SVG/1.1/DTD/svg11.dtd">
<svg version="1.1" xmlns="http://www.w3.org/2000/svg" xmlns:xlink="http://www.w3.org/1999/xlink" x="0px" y="0px"
	 viewBox="0 0 34 34" style="enable-background:new 0 0 34 34;" xml:space="preserve">
<g id="BLOCKS" style="display:none;">
	<rect x="0.027" y="0.022" style="display:inline;fill:#CCCACB;" width="34" height="34"/>
</g>
<g id="INNER_GUDIES">
</g>
<g id="MAIN_GUIDES">
</g>
<g id="ICONS">
	<path style="fill:#010101;" d="M22,6.231c-0.195,0.008-0.363,0.086-0.526,0.246L21.286,6.66L11.218,16.729
		c-0.189,0.189-0.293,0.44-0.293,0.707s0.104,0.518,0.293,0.707l10.134,10.134l0.127,0.124c0.163,0.161,0.332,0.24,0.53,0.247
		c0,0,0,0,0,0c0.112,0,0.341-0.058,0.725-0.442c0.187-0.187,0.368-0.386,0.537-0.59c0.041-0.05,0.078-0.096,0.111-0.138
		l-0.496-0.496l-9.193-9.193l-0.354-0.354l0.354-0.354l9.198-9.198l0.484-0.484c-0.033-0.042-0.07-0.089-0.112-0.14
		c-0.167-0.202-0.348-0.401-0.536-0.588c-0.385-0.385-0.613-0.442-0.716-0.442"/>
</g>
<g id="TITLES">
</g>
</svg>
