<?xml version="1.0" encoding="iso-8859-1"?>
<!-- Generator: Adobe Illustrator 17.1.0, SVG Export Plug-In . SVG Version: 6.00 Build 0)  -->
<!DOCTYPE svg PUBLIC "-//W3C//DTD SVG 1.1//EN" "http://www.w3.org/Graphics/SVG/1.1/DTD/svg11.dtd">
<svg version="1.1" xmlns="http://www.w3.org/2000/svg" xmlns:xlink="http://www.w3.org/1999/xlink" x="0px" y="0px"
	 viewBox="0 0 34 34" style="enable-background:new 0 0 34 34;" xml:space="preserve">
<g id="BLOCKS" style="display:none;">
	<rect x="0.027" y="0.022" style="display:inline;fill:#CCCACB;" width="34" height="34"/>
</g>
<g id="INNER_GUDIES">
</g>
<g id="MAIN_GUIDES">
</g>
<g id="ICONS">
	<g>
		<path d="M16.866,3.022c7.72,0,14,6.28,14,14s-6.28,14-14,14s-14-6.28-14-14S9.147,3.022,16.866,3.022 M16.866,1.022
			c-8.837,0-16,7.163-16,16s7.163,16,16,16c8.837,0,16-7.163,16-16S25.703,1.022,16.866,1.022L16.866,1.022z"/>
		<path d="M20.684,24.981c-0.169,0.204-0.35,0.403-0.537,0.59c-0.384,0.384-0.613,0.442-0.725,0.442h0
			c-0.198-0.008-0.366-0.086-0.53-0.247l-0.127-0.124l-7.921-7.922c-0.189-0.189-0.293-0.44-0.293-0.707s0.104-0.518,0.293-0.707
			l7.618-7.619l0.188-0.183c0.164-0.16,0.331-0.238,0.526-0.246l0.005-0.248c0.002,0,0.003,0.001,0.005,0.001v0.247
			c0.102,0,0.331,0.057,0.716,0.442c0.187,0.187,0.368,0.386,0.536,0.588c0.042,0.051,0.079,0.098,0.112,0.14l-0.484,0.484
			l-6.747,6.747l-0.354,0.354l0.354,0.354l6.981,6.981l0.496,0.496C20.762,24.885,20.726,24.931,20.684,24.981z"/>
	</g>
</g>
<g id="TITLES">
</g>
</svg>
