<?xml version="1.0" encoding="iso-8859-1"?>
<!-- Generator: Adobe Illustrator 17.1.0, SVG Export Plug-In . SVG Version: 6.00 Build 0)  -->
<!DOCTYPE svg PUBLIC "-//W3C//DTD SVG 1.1//EN" "http://www.w3.org/Graphics/SVG/1.1/DTD/svg11.dtd">
<svg version="1.1" xmlns="http://www.w3.org/2000/svg" xmlns:xlink="http://www.w3.org/1999/xlink" x="0px" y="0px"
	 viewBox="0 0 34 34" style="enable-background:new 0 0 34 34;" xml:space="preserve">
<g id="BLOCKS" style="display:none;">
	<rect x="0.027" y="0.022" style="display:inline;fill:#CCCACB;" width="34" height="34"/>
</g>
<g id="INNER_GUDIES">
</g>
<g id="MAIN_GUIDES">
</g>
<g id="ICONS">
	<g>
		<path d="M16.866,3.022c7.72,0,14,6.28,14,14s-6.28,14-14,14s-14-6.28-14-14S9.147,3.022,16.866,3.022 M16.866,1.022
			c-8.837,0-16,7.163-16,16s7.163,16,16,16c8.837,0,16-7.163,16-16S25.703,1.022,16.866,1.022L16.866,1.022z"/>
		<path d="M26.048,19.65h-0.247c0,0.102-0.057,0.331-0.442,0.716c-0.187,0.187-0.386,0.368-0.588,0.536
			c-0.051,0.042-0.098,0.079-0.14,0.112l-0.484-0.484L17.4,13.782l-0.354-0.354l-0.354,0.354l-6.981,6.981l-0.496,0.496
			c-0.042-0.033-0.088-0.07-0.138-0.111c-0.204-0.169-0.403-0.35-0.59-0.537c-0.384-0.384-0.442-0.613-0.442-0.725v0
			c0.008-0.198,0.086-0.366,0.247-0.53l0.124-0.127l7.922-7.921c0.189-0.189,0.44-0.293,0.707-0.293s0.518,0.104,0.707,0.293
			l7.619,7.618l0.183,0.188c0.16,0.164,0.238,0.331,0.246,0.526l0.248,0.005C26.049,19.647,26.049,19.648,26.048,19.65z"/>
	</g>
</g>
<g id="TITLES">
</g>
</svg>
