<?xml version="1.0" encoding="iso-8859-1"?>
<!-- Generator: Adobe Illustrator 17.1.0, SVG Export Plug-In . SVG Version: 6.00 Build 0)  -->
<!DOCTYPE svg PUBLIC "-//W3C//DTD SVG 1.1//EN" "http://www.w3.org/Graphics/SVG/1.1/DTD/svg11.dtd">
<svg version="1.1" xmlns="http://www.w3.org/2000/svg" xmlns:xlink="http://www.w3.org/1999/xlink" x="0px" y="0px"
	 viewBox="0 0 34 34" style="enable-background:new 0 0 34 34;" xml:space="preserve">
<g id="BLOCKS" style="display:none;">
	<rect x="0.023" y="0.022" style="display:inline;fill:#CCCACB;" width="34" height="34"/>
</g>
<g id="INNER_GUDIES">
</g>
<g id="MAIN_GUIDES">
</g>
<g id="ICONS">
	<g>
		<path d="M16.862,3.022c7.72,0,14,6.28,14,14s-6.28,14-14,14s-14-6.28-14-14S9.142,3.022,16.862,3.022 M16.862,1.022
			c-8.837,0-16,7.163-16,16s7.163,16,16,16c8.837,0,16-7.163,16-16S25.699,1.022,16.862,1.022L16.862,1.022z"/>
		<path d="M22.498,17.72l-7.921,7.922l-0.127,0.124c-0.163,0.161-0.332,0.24-0.53,0.247h0c-0.112,0-0.341-0.058-0.725-0.442
			c-0.187-0.187-0.368-0.386-0.537-0.59c-0.041-0.05-0.078-0.096-0.111-0.138l0.496-0.496l6.981-6.981l0.354-0.354l-0.354-0.354
			l-6.747-6.747l-0.484-0.484c0.033-0.042,0.07-0.089,0.112-0.14c0.167-0.202,0.348-0.401,0.536-0.588
			c0.385-0.385,0.613-0.442,0.716-0.442V8.011c0.002,0,0.004-0.001,0.005-0.001l0.005,0.248c0.195,0.008,0.363,0.086,0.526,0.246
			l0.188,0.183l7.618,7.619c0.189,0.189,0.293,0.44,0.293,0.707S22.687,17.531,22.498,17.72z"/>
	</g>
</g>
<g id="TITLES">
</g>
</svg>
