<?xml version="1.0" encoding="iso-8859-1"?>
<!-- Generator: Adobe Illustrator 17.1.0, SVG Export Plug-In . SVG Version: 6.00 Build 0)  -->
<!DOCTYPE svg PUBLIC "-//W3C//DTD SVG 1.1//EN" "http://www.w3.org/Graphics/SVG/1.1/DTD/svg11.dtd">
<svg version="1.1" xmlns="http://www.w3.org/2000/svg" xmlns:xlink="http://www.w3.org/1999/xlink" x="0px" y="0px"
	 viewBox="0 0 34 34" style="enable-background:new 0 0 34 34;" xml:space="preserve">
<g id="BLOCKS" style="display:none;">
	<rect x="0.027" y="0.022" style="display:inline;fill:#CCCACB;" width="34" height="34"/>
</g>
<g id="INNER_GUDIES">
</g>
<g id="MAIN_GUIDES">
</g>
<g id="ICONS">
	<path d="M28.438,22.211c-0.008-0.195-0.086-0.363-0.246-0.526l-0.189-0.194L17.94,11.428c-0.189-0.189-0.44-0.293-0.707-0.293
		s-0.518,0.104-0.707,0.293L6.392,21.561l-0.125,0.128c-0.161,0.163-0.24,0.332-0.247,0.53c-0.006,0.173,0.155,0.438,0.442,0.725
		c0.187,0.187,0.386,0.368,0.59,0.537c0.05,0.042,0.096,0.078,0.138,0.111l0.496-0.496l9.193-9.193l0.354-0.354l0.354,0.354
		l9.198,9.198l0.484,0.484c0.042-0.033,0.089-0.07,0.14-0.112c0.203-0.168,0.401-0.348,0.588-0.536
		C28.283,22.649,28.444,22.385,28.438,22.211z"/>
</g>
<g id="TITLES">
</g>
</svg>
