<?xml version="1.0" encoding="iso-8859-1"?>
<!-- Generator: Adobe Illustrator 17.1.0, SVG Export Plug-In . SVG Version: 6.00 Build 0)  -->
<!DOCTYPE svg PUBLIC "-//W3C//DTD SVG 1.1//EN" "http://www.w3.org/Graphics/SVG/1.1/DTD/svg11.dtd">
<svg version="1.1" xmlns="http://www.w3.org/2000/svg" xmlns:xlink="http://www.w3.org/1999/xlink" x="0px" y="0px"
	 viewBox="0 0 34 34" style="enable-background:new 0 0 34 34;" xml:space="preserve">
<g id="BLOCKS" style="display:none;">
	<rect x="0.026" y="0.022" style="display:inline;fill:#CCCACB;" width="34" height="34"/>
</g>
<g id="INNER_GUDIES">
</g>
<g id="MAIN_GUIDES">
</g>
<g id="ICONS">
	<g>
		<path d="M27.895,6.894l-0.081-0.078l0.004-0.004l-4.54-4.54l-0.073-0.055c-0.19-0.182-0.436-0.283-0.693-0.283V1.879v0l0,0.055
			H8.628c-0.707,0-1.316,0.232-1.81,0.689C6.295,3.108,6.041,3.838,6.041,4.855v24.167c0,1.019,0.254,1.749,0.777,2.234
			c0.493,0.457,1.102,0.689,1.81,0.689l6.401,0.001l10.59-0.001c0.708,0,1.317-0.232,1.81-0.688
			c0.523-0.485,0.777-1.215,0.777-2.232V7.616C28.207,7.343,28.096,7.087,27.895,6.894z M23.383,24.184
			c-0.018,0.184-0.039,0.324-0.063,0.42h-0.742h-0.008h-11c-0.238,0-0.438-0.074-0.599-0.223c-0.16-0.149-0.241-0.414-0.241-0.795
			c0-0.19,0.009-0.378,0.026-0.562c0.018-0.184,0.039-0.324,0.063-0.42h0.75h11.008v0.001c0.234,0.002,0.431,0.075,0.591,0.222
			c0.16,0.149,0.24,0.414,0.24,0.795C23.41,23.812,23.401,23.999,23.383,24.184z M23.383,19.684
			c-0.018,0.184-0.039,0.324-0.063,0.42h-0.742h-0.008h-11c-0.238,0-0.438-0.074-0.599-0.223c-0.16-0.149-0.241-0.414-0.241-0.795
			c0-0.19,0.009-0.378,0.026-0.562c0.018-0.184,0.039-0.324,0.063-0.42h0.75h11.008v0.001c0.234,0.002,0.431,0.075,0.591,0.222
			c0.16,0.149,0.24,0.414,0.24,0.795C23.41,19.312,23.401,19.499,23.383,19.684z M23.383,15.184
			c-0.018,0.184-0.039,0.324-0.063,0.42h-0.742h-0.008h-11c-0.238,0-0.438-0.074-0.599-0.223c-0.16-0.149-0.241-0.414-0.241-0.795
			c0-0.19,0.009-0.378,0.026-0.562c0.018-0.184,0.039-0.324,0.063-0.42h0.75h11.008v0.001c0.234,0.002,0.431,0.075,0.591,0.222
			c0.16,0.149,0.24,0.414,0.24,0.795C23.41,14.812,23.401,14.999,23.383,15.184z M21.737,8.408V3.532l4.927,4.875H21.737z"/>
	</g>
</g>
<g id="TITLES">
</g>
</svg>
