<?xml version="1.0" encoding="iso-8859-1"?>
<!-- Generator: Adobe Illustrator 17.1.0, SVG Export Plug-In . SVG Version: 6.00 Build 0)  -->
<!DOCTYPE svg PUBLIC "-//W3C//DTD SVG 1.1//EN" "http://www.w3.org/Graphics/SVG/1.1/DTD/svg11.dtd">
<svg version="1.1" xmlns="http://www.w3.org/2000/svg" xmlns:xlink="http://www.w3.org/1999/xlink" x="0px" y="0px"
	 viewBox="0 0 34 34" style="enable-background:new 0 0 34 34;" xml:space="preserve">
<g id="BLOCKS" style="display:none;">
	<rect x="0.027" y="0.022" style="display:inline;fill:#CCCACB;" width="34" height="34"/>
</g>
<g id="INNER_GUDIES">
</g>
<g id="MAIN_GUIDES">
</g>
<g id="ICONS">
	<g>
		<path d="M27.897,6.977l-0.081-0.078l0.004-0.004l-4.54-4.54L23.208,2.3c-0.19-0.182-0.436-0.283-0.693-0.283l0-0.055l0,0l0,0.055
			H8.63c-0.707,0-1.316,0.232-1.81,0.689C6.297,3.192,6.043,3.922,6.043,4.938v24.167c0,1.019,0.254,1.749,0.777,2.234
			c0.493,0.457,1.102,0.689,1.81,0.689l6.401,0.001l10.591-0.001c0.708,0,1.317-0.232,1.81-0.688
			c0.523-0.485,0.777-1.215,0.777-2.232V7.7C28.209,7.427,28.098,7.17,27.897,6.977z M26.196,10.007v19.098
			c0,0.438-0.073,0.673-0.112,0.736l-0.008,0.013l-0.011,0.01c-0.117,0.107-0.245,0.151-0.443,0.151l-10.591,0.001L8.63,30.015
			c-0.191,0-0.324-0.043-0.43-0.138c-0.075-0.098-0.144-0.346-0.144-0.774V4.94c0-0.437,0.073-0.672,0.112-0.735l0.008-0.013
			l0.011-0.01C8.305,4.074,8.433,4.03,8.63,4.03h11.55h0.11v0.11v5.757h5.796h0.11V10.007z"/>
		<path d="M22.581,13.688v-0.001H11.572h-0.75c-0.024,0.096-0.045,0.235-0.063,0.42c-0.017,0.185-0.027,0.372-0.027,0.562
			c0,0.381,0.08,0.646,0.241,0.795c0.161,0.149,0.361,0.223,0.599,0.223h11h0.008h0.742c0.024-0.096,0.045-0.235,0.063-0.42
			c0.017-0.185,0.026-0.372,0.026-0.562c0-0.381-0.08-0.646-0.241-0.795C23.012,13.763,22.815,13.69,22.581,13.688z"/>
		<path d="M22.581,18.188v-0.001H11.572h-0.75c-0.024,0.096-0.045,0.235-0.063,0.42c-0.017,0.185-0.027,0.372-0.027,0.562
			c0,0.381,0.08,0.646,0.241,0.795c0.161,0.149,0.361,0.223,0.599,0.223h11h0.008h0.742c0.024-0.096,0.045-0.235,0.063-0.42
			c0.017-0.185,0.026-0.372,0.026-0.562c0-0.381-0.08-0.646-0.241-0.795C23.012,18.263,22.815,18.19,22.581,18.188z"/>
		<path d="M22.581,22.688v-0.001H11.572h-0.75c-0.024,0.096-0.045,0.235-0.063,0.42c-0.017,0.185-0.027,0.372-0.027,0.562
			c0,0.381,0.08,0.646,0.241,0.795c0.161,0.149,0.361,0.223,0.599,0.223h11h0.008h0.742c0.024-0.096,0.045-0.235,0.063-0.42
			c0.017-0.185,0.026-0.372,0.026-0.562c0-0.381-0.08-0.646-0.241-0.795C23.012,22.763,22.815,22.69,22.581,22.688z"/>
	</g>
</g>
<g id="TITLES">
</g>
</svg>
