<?xml version="1.0" encoding="iso-8859-1"?>
<!-- Generator: Adobe Illustrator 17.1.0, SVG Export Plug-In . SVG Version: 6.00 Build 0)  -->
<!DOCTYPE svg PUBLIC "-//W3C//DTD SVG 1.1//EN" "http://www.w3.org/Graphics/SVG/1.1/DTD/svg11.dtd">
<svg version="1.1" xmlns="http://www.w3.org/2000/svg" xmlns:xlink="http://www.w3.org/1999/xlink" x="0px" y="0px"
	 viewBox="0 0 44 44" style="enable-background:new 0 0 44 44;" xml:space="preserve">
<g id="BLOCKS" style="display:none;">
	<rect x="0.123" y="0" style="display:inline;fill:#CCCACB;" width="44" height="44"/>
</g>
<g id="INNER_GUDIES">
</g>
<g id="MAIN_GUIDES">
</g>
<g id="ICONS">
	<g>
		<path style="fill:#121212;" d="M34.641,12.831c-0.73-0.673-1.631-1.199-2.678-1.561c-1.053-0.365-2.254-0.549-3.571-0.549h-3.429
			c-0.514,0-0.865,0.092-0.987,0.26c-0.142,0.197-0.214,0.463-0.214,0.791v13.665c0,0.329,0.072,0.595,0.214,0.792
			c0.122,0.167,0.472,0.26,0.986,0.26h3.354c1.346,0,2.565-0.213,3.624-0.633c1.057-0.419,1.968-0.995,2.71-1.711
			c0.738-0.714,1.308-1.565,1.694-2.529c0.386-0.967,0.582-2.022,0.582-3.135c0-1.179-0.2-2.258-0.594-3.208
			C35.939,14.326,35.37,13.505,34.641,12.831z M34.027,21.052c-0.312,0.747-0.745,1.379-1.287,1.877
			c-0.54,0.496-1.179,0.875-1.901,1.128c-0.718,0.25-1.491,0.377-2.298,0.377h-2.227h-0.25v-0.25V13.023v-0.25h0.25h2.177
			c0.823,0,1.607,0.122,2.331,0.364c0.73,0.243,1.374,0.609,1.914,1.088c0.542,0.481,0.975,1.083,1.288,1.787
			c0.313,0.705,0.472,1.518,0.472,2.417C34.498,19.425,34.339,20.308,34.027,21.052z"/>
		<g>
			<polygon style="fill:#121212;" points="11.421,20.223 11.417,20.235 11.547,20.235 			"/>
			<polygon style="fill:#121212;" points="16.562,20.235 16.573,20.235 16.533,20.112 			"/>
			<path style="fill:#121212;" d="M15.869,11.385c-0.099-0.162-0.225-0.299-0.375-0.406c-0.149-0.106-0.341-0.186-0.571-0.239
				c-0.235-0.052-0.556-0.079-0.926-0.079c-0.281,0-0.576,0.016-0.875,0.047c-0.258,0.028-0.523,0.075-0.786,0.14L6.9,26.52
				c0.122,0.048,0.27,0.088,0.449,0.119c0.282,0.048,0.542,0.073,0.774,0.073c0.319,0,0.587-0.045,0.817-0.136
				c0.186-0.074,0.337-0.269,0.449-0.58l1.102-3.301l0.114-0.342l0.023-0.068H10.7h0.36h5.837h0.359h0.072l0.023,0.068l0.115,0.34
				l1.121,3.324c0.105,0.303,0.271,0.5,0.48,0.567c0.261,0.084,0.574,0.126,0.93,0.126c0.196,0,0.411-0.031,0.658-0.094
				c0.163-0.042,0.317-0.089,0.459-0.139l-4.94-14.424C16.082,11.793,15.979,11.568,15.869,11.385z M16.668,20.203l0.043,0.131
				h-0.138h-0.691h-3.771h-0.694h-0.139l0.044-0.132l0.22-0.658l1.896-5.685l0.477-1.43l0.095-0.286l0.094,0.286l0.472,1.432
				l1.875,5.685L16.668,20.203z"/>
			<polygon style="fill:#121212;" points="21.182,26.555 21.192,26.554 21.191,26.552 			"/>
		</g>
		<g>
			<path style="fill:#121212;" d="M40.129,5.843c0.551,0,1,0.449,1,1v24c0,0.551-0.449,1-1,1H36.92h-2v2v5.609l-12.905-7.347
				l-0.46-0.262h-0.529H4.129c-0.551,0-1-0.449-1-1v-24c0-0.551,0.449-1,1-1H40.129 M40.129,3.843h-36c-1.654,0-3,1.346-3,3v24
				c0,1.654,1.346,3,3,3h16.897l13.895,7.911c0.096,0.024,0.235,0.044,0.419,0.063c0.185,0.017,0.372,0.026,0.562,0.026
				c0.381,0,0.646-0.08,0.795-0.241c0.149-0.161,0.223-0.361,0.223-0.598v-7.161h3.209c1.654,0,3-1.346,3-3v-24
				C43.129,5.189,41.783,3.843,40.129,3.843L40.129,3.843z"/>
		</g>
	</g>
</g>
<g id="TITLES">
</g>
</svg>
