<?xml version="1.0" encoding="iso-8859-1"?>
<!-- Generator: Adobe Illustrator 17.1.0, SVG Export Plug-In . SVG Version: 6.00 Build 0)  -->
<!DOCTYPE svg PUBLIC "-//W3C//DTD SVG 1.1//EN" "http://www.w3.org/Graphics/SVG/1.1/DTD/svg11.dtd">
<svg version="1.1" xmlns="http://www.w3.org/2000/svg" xmlns:xlink="http://www.w3.org/1999/xlink" x="0px" y="0px"
	 viewBox="0 0 34 34" style="enable-background:new 0 0 34 34;" xml:space="preserve">
<g id="BLOCKS" style="display:none;">
	<rect x="0.026" y="0.022" style="display:inline;fill:#CCCACB;" width="34" height="34"/>
</g>
<g id="INNER_GUDIES">
</g>
<g id="MAIN_GUIDES">
</g>
<g id="ICONS">
	<g>
		<path d="M31.785,13.986c-0.154-0.142-0.346-0.212-0.57-0.218v-0.005H2.818v0.008c-0.216,0.01-0.402,0.077-0.551,0.215
			c-0.16,0.149-0.24,0.414-0.24,0.795c0,0.19,0.009,0.378,0.026,0.562c0.018,0.184,0.039,0.324,0.063,0.42h0.703h0.047h0.75
			l2.762,15.456l0.017-0.003c0.038,0.184,0.095,0.339,0.196,0.432c0.154,0.142,0.346,0.212,0.57,0.218v0.005h3.534H23.38h3.534
			v-0.005c0.224-0.006,0.416-0.076,0.57-0.218c0.1-0.093,0.158-0.248,0.196-0.432l0.017,0.003l2.762-15.456h0.728h0.029h0.721
			c0.023-0.096,0.045-0.235,0.063-0.42c0.017-0.185,0.026-0.372,0.026-0.562C32.026,14.4,31.946,14.135,31.785,13.986z
			 M27.637,23.827h-5.515v6.705h-2v-6.705h-6.087v6.979h-2v-6.979H6.47v-2h5.565v-6.323h2v6.323h6.087v-6.566h2v6.566h5.515V23.827z
			"/>
		<path d="M18.068,5.778v-0.75c-0.096-0.024-0.235-0.045-0.42-0.063c-0.185-0.017-0.372-0.027-0.562-0.027
			c-0.381,0-0.646,0.08-0.795,0.241c-0.149,0.161-0.223,0.361-0.223,0.599v5.985h2V5.778z"/>
	</g>
</g>
<g id="TITLES">
</g>
</svg>
