<?xml version="1.0" encoding="iso-8859-1"?>
<!-- Generator: Adobe Illustrator 17.1.0, SVG Export Plug-In . SVG Version: 6.00 Build 0)  -->
<!DOCTYPE svg PUBLIC "-//W3C//DTD SVG 1.1//EN" "http://www.w3.org/Graphics/SVG/1.1/DTD/svg11.dtd">
<svg version="1.1" xmlns="http://www.w3.org/2000/svg" xmlns:xlink="http://www.w3.org/1999/xlink" x="0px" y="0px"
	 viewBox="0 0 59 34" style="enable-background:new 0 0 59 34;" xml:space="preserve">
<g id="BLOCKS" style="display:none;">
	<rect x="-0.025" y="0.065" style="display:inline;fill:#CCCACB;" width="59.174" height="34.02"/>
</g>
<g id="INNER_GUDIES">
</g>
<g id="MAIN_GUIDES">
</g>
<g id="ICONS">
	<g>
		<g>
			<path style="fill:#121212;" d="M12.527,24.822c-0.196,0-0.735,0-0.735,0c-0.122,0-0.539,0.122-0.906,0.66
				c-0.367,0.538-2.033,3.276-2.327,3.79c-0.319,0.513-0.22,0.734,0.122,0.734h0.735c0.343,0,0.662-0.391,0.784-0.66
				c0.172-0.244,2.131-3.423,2.45-3.887C12.919,24.993,12.748,24.822,12.527,24.822z M7.407,27.291c-0.172,0,1.078,0.025,1.74-1.369
				c0.612-1.271-0.466-1.173-0.661-1.198c-0.931-0.122-2.67-0.074-3.993,0c-0.27,0-0.588,0.367-0.76,0.587
				c-0.122,0.244-2.156,3.52-2.45,3.985c-0.319,0.489,0,0.685,0.319,0.709c0.931,0.049,2.107,0.049,3.503,0
				c1.25-0.049,2.082-0.098,3.062-1.882C8.583,27.315,7.407,27.291,7.407,27.291z M6.182,28.293
				c-0.343,0.709-0.98,0.734-1.347,0.734h-0.98c-0.122,0-0.245,0-0.122-0.269c0.172-0.22,0.416-0.611,0.515-0.758
				c0.098-0.171,0.196-0.22,0.416-0.22c0,0,0.833,0,1.054,0C5.913,27.78,6.427,27.755,6.182,28.293z M7.089,26.191
				c-0.343,0.708-1.004,0.708-1.347,0.708H5.154c-0.098,0-0.269,0-0.098-0.22c0.172-0.245,0.367-0.66,0.49-0.807
				c0.122-0.147,0.221-0.22,0.392-0.22c0,0,0.514,0,0.71,0C6.844,25.653,7.359,25.653,7.089,26.191z M47.167,26.069
				c-0.612,0.024-0.759,0-1.274,0.709l-1.617,2.567c-0.343,0.538-0.049,0.66,0.122,0.66h0.711c0.269,0,0.466-0.025,0.882-0.66
				l1.617-2.616C48.049,26.02,47.51,26.069,47.167,26.069z M51.528,27.707c-0.588,0-1.372-0.024-1.372,0
				c-0.196,0-0.269-0.196-0.147-0.391c0.147-0.195,0.416-0.367,0.612-0.367h1.936c0.122,0,0.514-0.073,0.539-0.342
				c0.073-0.587-1.078-0.514-1.764-0.514c-1.715,0-2.303,0.44-2.303,0.44c-0.196,0.147-0.466,0.416-0.613,0.636
				c-0.539,0.782-0.637,1.247,0.073,1.247c0.71,0,1.494,0,1.494,0c0.196,0,0.269,0.244,0.122,0.44
				c-0.122,0.22-0.392,0.391-0.588,0.391H47.51c-0.196,0-0.441,0.097-0.514,0.195c-0.049,0.123,0,0.343,0.147,0.465
				c0,0,0.073,0.171,1.666,0.171c1.739,0,2.278-0.44,2.278-0.44c0.221-0.122,0.49-0.44,0.612-0.635
				C52.361,28.098,52.14,27.682,51.528,27.707z M56.451,26.093c-1.935,0-2.352,0.636-2.646,1.125
				c-0.294,0.465-1.249,1.98-1.298,2.299c-0.025,0.293-0.147,0.562,1.813,0.562c2.181,0,2.573-0.464,2.597-0.734
				c0.024-0.073-0.147-0.098-0.416-0.098c-0.269,0-1.862,0-1.862,0c-0.147,0-0.221-0.22-0.098-0.416l0.931-1.443
				c0.122-0.244,0.392-0.416,0.588-0.416h1.568c0.416,0,0.514-0.269,0.514-0.366C58.166,26.508,58.264,26.093,56.451,26.093z
				 M47.559,24.601c-0.392,0-0.514,0.269-0.588,0.391c-0.074,0.098-0.123,0.172-0.196,0.318c-0.098,0.171-0.098,0.342,0.098,0.342
				h1.004c0.269,0,0.49-0.073,0.588-0.22c0.073-0.147,0.122-0.244,0.269-0.44c0.123-0.244-0.049-0.391-0.196-0.391H47.559z
				 M20.219,27.413l-0.98,0c-0.367,0-0.514,0.245-0.588,0.367c-0.049,0.098-0.122,0.171-0.221,0.342
				c-0.074,0.171-0.049,0.342,0.049,0.342h1.053c0.319,0,0.49-0.098,0.588-0.244c0.098-0.171,0.122-0.22,0.27-0.465
				C20.562,27.51,20.342,27.413,20.219,27.413z M42.855,24.822c-2.107,0-2.744,0.098-2.744,0.098c-0.22,0-0.514,0.195-0.636,0.44
				l-2.548,4.107c-0.147,0.244-0.098,0.44,0.098,0.489c0,0,0.612,0.049,2.719,0.049c2.891,0,3.16-0.538,3.846-1.589
				c0.637-1.027,0.245-0.392,1.151-1.834C45.624,25.115,44.227,24.822,42.855,24.822z M42.733,26.582c0,0-1.102,1.736-1.176,1.834
				c-0.098,0.147-0.441,0.611-0.955,0.611h-1.078c-0.196,0-0.294-0.025-0.171-0.22l1.764-2.812c0.074-0.098,0.196-0.171,0.343-0.171
				h1.053C42.855,25.824,42.954,26.191,42.733,26.582z M29.21,28.978l1.127-1.834c0.123-0.196,0.172-0.538,0.049-0.733
				c0,0-0.147-0.342-1.886-0.342c-1.715,0-2.401,0.269-2.401,0.269c-0.196,0.098-0.441,0.269-0.514,0.367
				c-0.049,0.146,0.049,0.244,0.245,0.244h2.548c0.196,0,0.27,0.172,0.172,0.342c-0.22,0.294-0.588,0.318-0.588,0.318h-1.25
				c-0.612,0-0.808,0.048-1.347,0.073c-0.221,0-0.514,0.171-0.637,0.415l-0.514,0.88c-0.637,1.002,0.735,1.076,1.813,1.076
				c1.74,0,2.572-0.489,2.572-0.489C28.818,29.467,29.088,29.198,29.21,28.978z M27.691,28.807v0.025
				c-0.172,0.245-0.515,0.465-0.71,0.465h-0.98c-0.196,0-0.27-0.22-0.098-0.465v-0.025c0.172-0.269,0.514-0.489,0.71-0.489h0.98
				C27.789,28.318,27.863,28.538,27.691,28.807z M25.291,26.631c0.025-0.391-0.808-0.489-1.127-0.489
				c-1.151,0-1.788,0.049-2.45,1.027c-0.514,0.782-1.029,1.589-1.372,2.176c-0.294,0.538-0.024,0.66,0.147,0.66h0.71
				c0.269,0,0.466-0.024,0.882-0.66l1.25-2.029c0.171-0.245,0.441-0.416,0.637-0.416h0.784C24.874,26.9,25.266,26.875,25.291,26.631
				z M18.211,26.802c0.392-0.635,0.074-0.709-0.196-0.709c-0.27,0-0.613,0-0.613,0c-0.367,0-0.735,0.489-0.882,0.709
				c-0.564,0.905-1.201,2.005-1.201,2.005c-0.171,0.196-0.441,0.391-0.661,0.391h-0.857c-0.22,0-0.294-0.195-0.147-0.391
				l1.249-2.029c0.441-0.685-0.074-0.685-0.466-0.685c-0.588,0-0.637,0.074-0.637,0.074c-0.22,0.098-0.392,0.244-0.612,0.611
				l-1.372,2.201c-0.637,1.076,0.759,1.076,1.837,1.076c1.127,0,2.205,0,2.67-0.513c0,0-0.171,0.465,0.147,0.465h0.465
				c0.294,0,0.465-0.049,0.563-0.22c0.122-0.146,0.147-0.244,0.269-0.489c0.147-0.22-0.024-0.367-0.147-0.367h-0.392
				c-0.122,0-0.269-0.098-0.122-0.293L18.211,26.802z M36.069,26.166c-0.563,0-0.661,0.073-0.661,0.073
				c-0.196,0.098-0.49,0.367-0.613,0.611l-1.225,1.956c-0.123,0.196-0.441,0.391-0.612,0.391h-0.833
				c-0.196,0-0.245-0.195-0.098-0.391l1.176-1.956c0.515-0.782-0.073-0.685-0.441-0.685c-0.564,0-0.662,0.025-0.662,0.073
				c-0.171,0.098-0.441,0.367-0.612,0.611l-1.323,2.127c-0.636,1.076,0.784,1.076,1.813,1.076c0.319,0,0.588,0,0.857-0.049
				l-0.417,0.611c-0.122,0.245-0.392,0.44-0.612,0.44l-0.417-0.024h-2.033c-0.27,0-0.49,0.122-0.514,0.293
				c-0.024,0.196,0.074,0.342,0.172,0.367c0.098,0.073,0.024,0.171,1.617,0.22h0.245c1.715,0,2.572-0.489,2.572-0.489
				c0.196-0.122,0.465-0.391,0.612-0.612l1.298-2.103c0.049-0.122,0.073-0.147,0.122-0.22l1.029-1.639
				C37.025,26.069,36.388,26.166,36.069,26.166z M23.257,14.846c7.3,0,15.066-1.174,15.066-3.374c0-2.078-7.643-3.325-15.066-3.325
				c-2.474,0-4.9,0.318-5.586,0.44c0.661-1.027,3.454-4.768,3.454-4.792c0.049-0.049,0.049-0.049,0.049-0.073V3.673
				c-0.049-0.025-0.073-0.049-0.122-0.049l-7.863,0c-0.049,0-0.049,0.025-0.074,0.049c-2.131,2.983-3.381,4.963-4.704,7.408
				L8.265,11.35L8.24,11.448c-0.122,0.245-0.098,0.513,0.074,0.734C9.097,13.404,13.483,14.846,23.257,14.846z M23.257,10.397
				c4.458,0,7.202,0.636,7.202,1.076c0,0.489-2.744,1.1-7.202,1.1c-4.459,0-7.227-0.611-7.227-1.1
				C16.031,11.032,18.799,10.397,23.257,10.397z M30.632,2.231c7.177,0,18.839,2.86,18.471,9.022
				c-0.294,4.988-9.407,10.855-30.377,10.855c-0.098,0-0.196,0.098-0.196,0.171c0,0.074,0.073,0.147,0.196,0.171
				c1.249,0.024,36.404,1.247,37.188-11.198C56.55,0.959,30.68,1.937,30.68,1.937c-0.049,0-0.22,0-0.22,0.122
				C30.46,2.206,30.533,2.231,30.632,2.231z M51.209,22.768v-1.222h0.637v-0.147h-1.568v0.147h0.686v1.222H51.209z M53.83,22.768
				v-1.369h-0.294l-0.539,1.149l-0.515-1.149h-0.294v1.369h0.196v-1.125l0.514,1.125h0.196l0.514-1.125h0.024v1.125H53.83z"/>
		</g>
	</g>
</g>
<g id="TITLES">
</g>
</svg>
