<?xml version="1.0" encoding="iso-8859-1"?>
<!-- Generator: Adobe Illustrator 17.1.0, SVG Export Plug-In . SVG Version: 6.00 Build 0)  -->
<!DOCTYPE svg PUBLIC "-//W3C//DTD SVG 1.1//EN" "http://www.w3.org/Graphics/SVG/1.1/DTD/svg11.dtd">
<svg version="1.1" xmlns="http://www.w3.org/2000/svg" xmlns:xlink="http://www.w3.org/1999/xlink" x="0px" y="0px"
	 viewBox="0 0 44 34" style="enable-background:new 0 0 44 34;" xml:space="preserve">
<g id="BLOCKS" style="display:none;">
	<rect x="-0.011" y="0" style="display:inline;fill:#CCCACB;" width="44" height="34"/>
</g>
<g id="INNER_GUDIES">
</g>
<g id="MAIN_GUIDES">
</g>
<g id="ICONS">
	<g>
		<path style="fill:#121212;" d="M13.788,10.826h-2.35h-0.25v0.25v6.075v0.25h0.25h2.125c1.358,0,2.374-0.3,3.019-0.891
			c0.651-0.597,0.981-1.416,0.981-2.434c0-1.038-0.332-1.85-0.987-2.414C15.931,11.107,14.993,10.826,13.788,10.826z"/>
		<path style="fill:#121212;" d="M39.483,1.786h-35c-1.93,0-3.5,1.57-3.5,3.5v23c0,1.93,1.57,3.5,3.5,3.5h35
			c1.93,0,3.5-1.57,3.5-3.5v-23C42.983,3.356,41.413,1.786,39.483,1.786z M19.52,16.203c-0.276,0.647-0.676,1.21-1.188,1.675
			c-0.514,0.467-1.143,0.837-1.867,1.1c-0.726,0.264-1.551,0.397-2.452,0.397h-2.575h-0.25v0.25v4.125
			c0,0.271-0.08,0.489-0.246,0.668c-0.157,0.169-0.478,0.258-0.93,0.258c-0.258,0-0.514-0.012-0.764-0.037
			c-0.14-0.013-0.261-0.028-0.361-0.044V9.826c0-0.327,0.072-0.593,0.215-0.791c0.07-0.097,0.291-0.259,0.985-0.259h3.675
			c1.033,0,1.952,0.138,2.73,0.411c0.773,0.272,1.42,0.649,1.925,1.121c0.503,0.472,0.886,1.034,1.139,1.672
			c0.254,0.644,0.382,1.341,0.382,2.071C19.937,14.83,19.797,15.554,19.52,16.203z M35.587,23.232
			c-0.839,0.486-1.709,0.87-2.586,1.143c-0.916,0.283-1.972,0.426-3.139,0.426c-1.192,0-2.289-0.22-3.261-0.654
			c-0.973-0.433-1.816-1.028-2.507-1.767c-0.691-0.739-1.233-1.616-1.612-2.606c-0.379-0.992-0.571-2.06-0.571-3.173
			c0-1.113,0.196-2.167,0.582-3.133c0.386-0.964,0.931-1.811,1.621-2.518c0.69-0.706,1.534-1.272,2.506-1.682
			c0.973-0.41,2.055-0.618,3.215-0.618c0.93,0,1.889,0.099,2.85,0.295c0.902,0.184,1.734,0.471,2.475,0.856v0.175
			c0,0.463-0.095,0.836-0.281,1.109c-0.169,0.246-0.428,0.366-0.794,0.366c-0.19,0-0.386-0.033-0.583-0.099
			c-0.227-0.076-0.497-0.16-0.808-0.252c-0.314-0.093-0.698-0.18-1.141-0.257c-0.444-0.077-0.988-0.116-1.618-0.116
			c-0.811,0-1.566,0.141-2.245,0.418c-0.678,0.279-1.274,0.677-1.771,1.181c-0.498,0.508-0.891,1.129-1.167,1.848
			c-0.276,0.717-0.417,1.533-0.417,2.428c0,0.877,0.14,1.704,0.415,2.46c0.276,0.759,0.666,1.422,1.162,1.97
			c0.497,0.549,1.097,0.985,1.782,1.297c0.689,0.314,1.451,0.473,2.266,0.473c0.719,0,1.347-0.075,1.868-0.222
			c0.514-0.146,1.002-0.342,1.45-0.583l0.132-0.071v-0.149v-3.75v-0.25h-0.25h-3.125c-0.237,0-0.423-0.065-0.569-0.198
			c-0.094-0.086-0.206-0.294-0.206-0.802c0-0.337,0.024-0.63,0.073-0.875h5.052c0.694,0,0.915,0.162,0.985,0.259
			c0.143,0.198,0.215,0.464,0.215,0.791V23.232z"/>
	</g>
</g>
<g id="TITLES">
</g>
</svg>
