<?xml version="1.0" encoding="iso-8859-1"?>
<!-- Generator: Adobe Illustrator 17.1.0, SVG Export Plug-In . SVG Version: 6.00 Build 0)  -->
<!DOCTYPE svg PUBLIC "-//W3C//DTD SVG 1.1//EN" "http://www.w3.org/Graphics/SVG/1.1/DTD/svg11.dtd">
<svg version="1.1" xmlns="http://www.w3.org/2000/svg" xmlns:xlink="http://www.w3.org/1999/xlink" x="0px" y="0px"
	 viewBox="0 0 44 34" style="enable-background:new 0 0 44 34;" xml:space="preserve">
<g id="BLOCKS" style="display:none;">
	<rect x="-0.016" y="0" style="display:inline;fill:#CCCACB;" width="44" height="34"/>
</g>
<g id="INNER_GUDIES">
</g>
<g id="MAIN_GUIDES">
</g>
<g id="ICONS">
	<g>
		<path style="fill:#121212;" d="M39.479,1.869h-35c-1.93,0-3.5,1.57-3.5,3.5v23c0,1.93,1.57,3.5,3.5,3.5h35
			c1.93,0,3.5-1.57,3.5-3.5v-23C42.978,3.439,41.409,1.869,39.479,1.869z M2.978,28.369v-23c0-0.827,0.673-1.5,1.5-1.5h35.001
			c0.827,0,1.5,0.673,1.5,1.5v23c0,0.827-0.673,1.5-1.5,1.5H4.478C3.651,29.869,2.978,29.196,2.978,28.369z"/>
		<path style="fill:#121212;" d="M18.412,10.391c-0.504-0.472-1.152-0.85-1.925-1.121c-0.778-0.272-1.696-0.411-2.73-0.411h-3.675
			c-0.694,0-0.915,0.162-0.985,0.259C8.955,9.316,8.883,9.582,8.883,9.909v14.77c0.101,0.016,0.222,0.03,0.361,0.044
			c0.25,0.025,0.506,0.037,0.764,0.037c0.451,0,0.773-0.089,0.93-0.258c0.165-0.179,0.246-0.397,0.246-0.668v-4.125v-0.25h0.25
			h2.575c0.902,0,1.727-0.134,2.452-0.397c0.725-0.263,1.353-0.634,1.867-1.1c0.512-0.465,0.912-1.028,1.188-1.675
			c0.277-0.65,0.417-1.374,0.417-2.152c0-0.731-0.129-1.428-0.382-2.071C19.298,11.426,18.915,10.863,18.412,10.391z M16.577,16.593
			c-0.645,0.591-1.661,0.891-3.019,0.891h-2.125h-0.25v-0.25v-6.075v-0.25h0.25h2.35c1.206,0,2.144,0.281,2.788,0.836
			c0.655,0.564,0.987,1.376,0.987,2.414C17.558,15.177,17.228,15.996,16.577,16.593z"/>
		<path style="fill:#121212;" d="M29.833,8.734c-1.161,0-2.242,0.208-3.215,0.618c-0.973,0.41-1.816,0.975-2.506,1.682
			c-0.69,0.706-1.236,1.553-1.621,2.518c-0.386,0.966-0.582,2.02-0.582,3.133c0,1.114,0.192,2.182,0.571,3.173
			c0.379,0.99,0.921,1.867,1.612,2.606c0.69,0.739,1.534,1.333,2.507,1.767c0.972,0.434,2.069,0.654,3.261,0.654
			c1.167,0,2.223-0.143,3.139-0.426c0.878-0.272,1.747-0.656,2.586-1.143v-6.282c0-0.327-0.072-0.593-0.215-0.791
			c-0.07-0.096-0.291-0.259-0.985-0.259H29.33c-0.048,0.245-0.073,0.538-0.073,0.875c0,0.508,0.112,0.717,0.206,0.802
			c0.146,0.133,0.332,0.198,0.569,0.198h3.125h0.25v0.25v3.75v0.149l-0.132,0.071c-0.448,0.241-0.936,0.437-1.45,0.583
			c-0.521,0.148-1.149,0.222-1.868,0.222c-0.815,0-1.578-0.159-2.266-0.473c-0.685-0.312-1.285-0.748-1.782-1.297
			c-0.496-0.548-0.886-1.211-1.162-1.97c-0.275-0.756-0.415-1.583-0.415-2.46c0-0.894,0.14-1.711,0.417-2.428
			c0.276-0.718,0.669-1.34,1.167-1.848c0.497-0.505,1.093-0.902,1.771-1.181c0.679-0.278,1.434-0.418,2.245-0.418
			c0.63,0,1.174,0.039,1.618,0.116c0.443,0.077,0.827,0.163,1.141,0.257c0.312,0.093,0.581,0.177,0.808,0.252
			c0.198,0.066,0.394,0.099,0.583,0.099c0.365,0,0.625-0.12,0.794-0.366c0.186-0.273,0.281-0.646,0.281-1.109V9.885
			c-0.741-0.384-1.572-0.672-2.475-0.856C31.722,8.833,30.763,8.734,29.833,8.734z"/>
	</g>
</g>
<g id="TITLES">
</g>
</svg>
