<?xml version="1.0" encoding="iso-8859-1"?>
<!-- Generator: Adobe Illustrator 17.1.0, SVG Export Plug-In . SVG Version: 6.00 Build 0)  -->
<!DOCTYPE svg PUBLIC "-//W3C//DTD SVG 1.1//EN" "http://www.w3.org/Graphics/SVG/1.1/DTD/svg11.dtd">
<svg version="1.1" xmlns="http://www.w3.org/2000/svg" xmlns:xlink="http://www.w3.org/1999/xlink" x="0px" y="0px"
	 viewBox="0 0 44 34" style="enable-background:new 0 0 44 34;" xml:space="preserve">
<g id="BLOCKS" style="display:none;">
	<rect x="-0.016" y="0" style="display:inline;fill:#CCCACB;" width="44" height="34"/>
</g>
<g id="INNER_GUDIES">
</g>
<g id="MAIN_GUIDES">
</g>
<g id="ICONS">
	<g>
		<path style="fill:#121212;" d="M39.479,1.869h-35c-1.93,0-3.5,1.57-3.5,3.5v23c0,1.93,1.57,3.5,3.5,3.5h35
			c1.93,0,3.5-1.57,3.5-3.5v-23C42.978,3.439,41.409,1.869,39.479,1.869z M2.978,28.369v-23c0-0.827,0.673-1.5,1.5-1.5h35.001
			c0.827,0,1.5,0.673,1.5,1.5v23c0,0.827-0.673,1.5-1.5,1.5H4.478C3.651,29.869,2.978,29.196,2.978,28.369z"/>
		<path style="fill:#121212;" d="M14.735,24.679c0.103,0.016,0.228,0.031,0.373,0.044c0.258,0.025,0.52,0.037,0.777,0.037
			c0.451,0,0.773-0.089,0.929-0.258c0.165-0.179,0.246-0.397,0.246-0.668V8.859h-1.867l-3.548,1.725
			c-0.489,0.28-0.734,0.659-0.734,1.15c0,0.21,0.058,0.433,0.173,0.664c0.095,0.189,0.216,0.351,0.366,0.491l2.928-1.381
			l0.357-0.168v0.394V24.679z"/>
		<path style="fill:#121212;" d="M23.892,24.468c0.849,0.242,1.797,0.365,2.818,0.365c1.002,0,1.886-0.134,2.629-0.398
			c0.739-0.263,1.366-0.632,1.863-1.097c0.495-0.463,0.869-1.013,1.113-1.634c0.246-0.627,0.37-1.316,0.37-2.046
			c0-0.628-0.124-1.239-0.368-1.815c-0.244-0.573-0.595-1.084-1.044-1.518c-0.449-0.433-1.007-0.785-1.658-1.047
			c-0.649-0.261-1.391-0.394-2.207-0.394c-0.713,0-1.283,0.086-1.693,0.255c-0.421,0.175-0.822,0.394-1.192,0.649l-0.459,0.318
			l0.069-0.554l0.554-4.474l0.027-0.219h0.221h6.1c0.25,0,0.446-0.074,0.599-0.227c0.148-0.148,0.227-0.442,0.227-0.849
			c0-0.363-0.025-0.673-0.073-0.925h-8.8l-0.832,8.23l1.616,0.567c0.416-0.293,0.851-0.533,1.295-0.715
			c0.495-0.203,1.132-0.306,1.895-0.306c0.955,0,1.765,0.267,2.408,0.794c0.658,0.538,0.992,1.289,0.992,2.23
			c0,0.933-0.304,1.696-0.902,2.269c-0.596,0.568-1.537,0.856-2.798,0.856c-0.519,0-0.986-0.044-1.389-0.131
			c-0.391-0.083-0.751-0.173-1.07-0.267c-0.312-0.092-0.59-0.181-0.834-0.265c-0.213-0.074-0.409-0.111-0.582-0.111
			c-0.306,0-0.557,0.128-0.766,0.393c-0.203,0.255-0.314,0.646-0.331,1.163C22.349,23.935,23.089,24.239,23.892,24.468z"/>
	</g>
</g>
<g id="TITLES">
</g>
</svg>
