<?xml version="1.0" encoding="iso-8859-1"?>
<!-- Generator: Adobe Illustrator 17.1.0, SVG Export Plug-In . SVG Version: 6.00 Build 0)  -->
<!DOCTYPE svg PUBLIC "-//W3C//DTD SVG 1.1//EN" "http://www.w3.org/Graphics/SVG/1.1/DTD/svg11.dtd">
<svg version="1.1" xmlns="http://www.w3.org/2000/svg" xmlns:xlink="http://www.w3.org/1999/xlink" x="0px" y="0px"
	 viewBox="0 0 44 34" style="enable-background:new 0 0 44 34;" xml:space="preserve">
<g id="BLOCKS" style="display:none;">
	<rect x="-0.011" y="0" style="display:inline;fill:#CCCACB;" width="44" height="34"/>
</g>
<g id="INNER_GUDIES">
</g>
<g id="MAIN_GUIDES">
</g>
<g id="ICONS">
	<g>
		<path style="fill:#121212;" d="M39.483,1.869h-35c-1.93,0-3.5,1.57-3.5,3.5v23c0,1.93,1.57,3.5,3.5,3.5h35
			c1.93,0,3.5-1.57,3.5-3.5v-23C42.983,3.439,41.413,1.869,39.483,1.869z M40.983,28.369c0,0.827-0.673,1.5-1.5,1.5H4.482
			c-0.827,0-1.5-0.673-1.5-1.5v-23c0-0.827,0.673-1.5,1.5-1.5h35.001c0.827,0,1.5,0.673,1.5,1.5V28.369z"/>
		<path style="fill:#121212;" d="M17.413,8.845c-0.252-0.024-0.509-0.036-0.763-0.036c-0.452,0-0.773,0.089-0.93,0.257
			c-0.165,0.179-0.246,0.397-0.246,0.668v8.4c0,0.95,0.143,1.848,0.424,2.669c0.28,0.815,0.696,1.539,1.238,2.153
			c0.539,0.611,1.213,1.099,2.002,1.45c0.79,0.35,1.719,0.528,2.761,0.528c1.026,0,1.956-0.178,2.763-0.529
			c0.804-0.351,1.486-0.839,2.025-1.449c0.543-0.615,0.964-1.34,1.251-2.155c0.289-0.821,0.436-1.718,0.436-2.667V8.89
			c-0.098-0.016-0.216-0.031-0.35-0.044c-0.243-0.024-0.496-0.036-0.75-0.036c-0.452,0-0.773,0.089-0.93,0.257
			C26.18,9.245,26.1,9.464,26.1,9.734v8.475c0,1.406-0.378,2.552-1.124,3.403c-0.754,0.861-1.78,1.297-3.05,1.297
			c-1.322,0-2.358-0.438-3.08-1.302c-0.71-0.851-1.07-1.995-1.07-3.399V8.89C17.674,8.874,17.553,8.859,17.413,8.845z"/>
	</g>
</g>
<g id="TITLES">
</g>
</svg>
