<?xml version="1.0" encoding="iso-8859-1"?>
<!-- Generator: Adobe Illustrator 17.1.0, SVG Export Plug-In . SVG Version: 6.00 Build 0)  -->
<!DOCTYPE svg PUBLIC "-//W3C//DTD SVG 1.1//EN" "http://www.w3.org/Graphics/SVG/1.1/DTD/svg11.dtd">
<svg version="1.1" xmlns="http://www.w3.org/2000/svg" xmlns:xlink="http://www.w3.org/1999/xlink" x="0px" y="0px"
	 viewBox="0 0 44 34" style="enable-background:new 0 0 44 34;" xml:space="preserve">
<g id="BLOCKS" style="display:none;">
	<rect x="-0.011" y="0" style="display:inline;fill:#CCCACB;" width="44" height="34"/>
</g>
<g id="INNER_GUDIES">
</g>
<g id="MAIN_GUIDES">
</g>
<g id="ICONS">
	<g>
		<path style="fill:#121212;" d="M39.483,1.786h-35c-1.93,0-3.5,1.57-3.5,3.5v23c0,1.93,1.57,3.5,3.5,3.5h35
			c1.93,0,3.5-1.57,3.5-3.5v-23C42.983,3.356,41.413,1.786,39.483,1.786z M17.065,23.75c0,0.271-0.08,0.489-0.246,0.668
			c-0.156,0.169-0.477,0.258-0.929,0.258c-0.257,0-0.519-0.012-0.777-0.037c-0.145-0.013-0.27-0.028-0.373-0.044V11.651v-0.394
			l-0.357,0.168l-2.928,1.381c-0.151-0.14-0.271-0.302-0.366-0.491c-0.115-0.23-0.173-0.454-0.173-0.664
			c0-0.491,0.245-0.87,0.734-1.15l3.548-1.725h1.867V23.75z M32.319,21.622c-0.244,0.621-0.619,1.17-1.113,1.634
			c-0.497,0.466-1.124,0.835-1.863,1.097c-0.743,0.264-1.627,0.398-2.629,0.398c-1.021,0-1.969-0.123-2.818-0.365
			c-0.802-0.229-1.543-0.533-2.204-0.903c0.017-0.517,0.128-0.908,0.331-1.163c0.209-0.264,0.46-0.393,0.766-0.393
			c0.173,0,0.368,0.037,0.582,0.111c0.244,0.084,0.522,0.173,0.834,0.265c0.319,0.095,0.679,0.185,1.07,0.267
			c0.403,0.087,0.87,0.131,1.389,0.131c1.261,0,2.202-0.288,2.798-0.856c0.599-0.572,0.902-1.336,0.902-2.269
			c0-0.942-0.334-1.692-0.992-2.23c-0.643-0.527-1.453-0.794-2.408-0.794c-0.762,0-1.4,0.103-1.895,0.306
			c-0.444,0.182-0.879,0.422-1.295,0.715l-1.616-0.567l0.833-8.23h8.8c0.049,0.251,0.073,0.561,0.073,0.925
			c0,0.407-0.078,0.7-0.227,0.849c-0.152,0.152-0.348,0.227-0.599,0.227h-6.1h-0.221l-0.027,0.219l-0.554,4.474l-0.069,0.554
			l0.459-0.318c0.369-0.256,0.77-0.474,1.192-0.649c0.41-0.169,0.979-0.255,1.692-0.255c0.816,0,1.558,0.133,2.207,0.394
			c0.651,0.262,1.208,0.615,1.658,1.047c0.449,0.434,0.8,0.945,1.044,1.518c0.244,0.576,0.368,1.187,0.368,1.815
			C32.69,20.306,32.565,20.995,32.319,21.622z"/>
	</g>
</g>
<g id="TITLES">
</g>
</svg>
