<?xml version="1.0" encoding="iso-8859-1"?>
<!-- Generator: Adobe Illustrator 17.1.0, SVG Export Plug-In . SVG Version: 6.00 Build 0)  -->
<!DOCTYPE svg PUBLIC "-//W3C//DTD SVG 1.1//EN" "http://www.w3.org/Graphics/SVG/1.1/DTD/svg11.dtd">
<svg version="1.1" xmlns="http://www.w3.org/2000/svg" xmlns:xlink="http://www.w3.org/1999/xlink" x="0px" y="0px"
	 viewBox="0 0 44 34" style="enable-background:new 0 0 44 34;" xml:space="preserve">
<g id="BLOCKS" style="display:none;">
	<rect x="-0.011" y="0" style="display:inline;fill:#CCCACB;" width="44" height="34"/>
</g>
<g id="INNER_GUDIES">
</g>
<g id="MAIN_GUIDES">
</g>
<g id="ICONS">
	<g>
		<path style="fill:#121212;" d="M39.483,1.786h-35c-1.93,0-3.5,1.57-3.5,3.5v23c0,1.93,1.57,3.5,3.5,3.5h35
			c1.93,0,3.499-1.57,3.499-3.5v-23C42.983,3.356,41.413,1.786,39.483,1.786z M17.268,23.616c0,0.271-0.08,0.489-0.246,0.668
			c-0.157,0.169-0.478,0.258-0.93,0.258c-0.257,0-0.519-0.012-0.777-0.037c-0.16-0.015-0.281-0.03-0.373-0.044V11.516v-0.394
			l-0.357,0.168l-2.929,1.381c-0.151-0.14-0.271-0.302-0.366-0.492c-0.115-0.23-0.173-0.453-0.173-0.664
			c0-0.491,0.245-0.87,0.734-1.15l3.548-1.725h1.868V23.616z M32.161,24.17c-0.162,0.149-0.365,0.221-0.619,0.221h-9.945
			c-0.012-0.079-0.023-0.167-0.031-0.262c-0.016-0.187-0.024-0.386-0.024-0.596c0-0.261,0.055-0.576,0.165-0.936
			c0.102-0.341,0.272-0.607,0.527-0.818l4.496-4.023c0.472-0.406,0.905-0.796,1.285-1.158c0.384-0.367,0.695-0.713,0.952-1.056
			c0.262-0.349,0.466-0.704,0.607-1.057c0.144-0.362,0.217-0.755,0.217-1.168c0-0.866-0.269-1.569-0.8-2.09
			c-0.529-0.521-1.337-0.785-2.4-0.785c-0.523,0-1,0.072-1.419,0.214c-0.407,0.139-0.773,0.296-1.088,0.467l-0.836,0.449
			c-0.212,0.113-0.408,0.17-0.583,0.17c-0.284,0-0.5-0.127-0.678-0.399c-0.184-0.279-0.297-0.669-0.338-1.16
			c0.55-0.42,1.248-0.81,2.076-1.159c0.872-0.369,1.878-0.555,2.991-0.555c1.726,0,3.074,0.44,4.004,1.308
			c0.926,0.864,1.396,2.022,1.396,3.442c0,0.553-0.084,1.072-0.249,1.542c-0.166,0.474-0.403,0.933-0.706,1.363
			c-0.305,0.434-0.665,0.851-1.069,1.239c-0.41,0.393-0.866,0.782-1.366,1.166l-3.9,3.375l-0.507,0.439h0.671h7.326
			c0.049,0.254,0.074,0.573,0.074,0.95C32.393,23.727,32.313,24.03,32.161,24.17z"/>
	</g>
</g>
<g id="TITLES">
</g>
</svg>
