<?xml version="1.0" encoding="iso-8859-1"?>
<!-- Generator: Adobe Illustrator 17.1.0, SVG Export Plug-In . SVG Version: 6.00 Build 0)  -->
<!DOCTYPE svg PUBLIC "-//W3C//DTD SVG 1.1//EN" "http://www.w3.org/Graphics/SVG/1.1/DTD/svg11.dtd">
<svg version="1.1" xmlns="http://www.w3.org/2000/svg" xmlns:xlink="http://www.w3.org/1999/xlink" x="0px" y="0px"
	 viewBox="0 0 44 34" style="enable-background:new 0 0 44 34;" xml:space="preserve">
<g id="BLOCKS" style="display:none;">
	<rect x="-0.016" y="0" style="display:inline;fill:#CCCACB;" width="44" height="34"/>
</g>
<g id="INNER_GUDIES">
</g>
<g id="MAIN_GUIDES">
</g>
<g id="ICONS">
	<g>
		<path style="fill:#121212;" d="M39.479,1.869h-35c-1.93,0-3.5,1.57-3.5,3.5v23c0,1.93,1.57,3.5,3.5,3.5h35
			c1.93,0,3.5-1.57,3.5-3.5v-23C42.978,3.439,41.409,1.869,39.479,1.869z M2.978,28.369v-23c0-0.827,0.673-1.5,1.5-1.5h35.001
			c0.827,0,1.5,0.673,1.5,1.5v23c0,0.827-0.673,1.5-1.5,1.5H4.478C3.651,29.869,2.978,29.196,2.978,28.369z"/>
		<path style="fill:#121212;" d="M14.939,24.544c0.092,0.014,0.213,0.029,0.373,0.044c0.258,0.025,0.52,0.037,0.777,0.037
			c0.451,0,0.773-0.089,0.93-0.258c0.165-0.178,0.246-0.397,0.246-0.668V8.724h-1.868l-3.548,1.725
			c-0.489,0.281-0.734,0.659-0.734,1.15c0,0.21,0.058,0.434,0.173,0.664c0.095,0.189,0.215,0.351,0.366,0.492l2.929-1.381
			l0.357-0.168v0.394V24.544z"/>
		<path style="fill:#121212;" d="M32.157,24.253c0.151-0.139,0.232-0.443,0.232-0.878c0-0.377-0.025-0.696-0.074-0.95h-7.326h-0.671
			l0.507-0.439l3.9-3.375c0.5-0.384,0.956-0.774,1.366-1.166c0.404-0.388,0.763-0.805,1.069-1.239
			c0.302-0.43,0.54-0.889,0.706-1.363c0.165-0.471,0.249-0.99,0.249-1.542c0-1.42-0.47-2.578-1.396-3.442
			c-0.931-0.868-2.278-1.308-4.004-1.308c-1.112,0-2.118,0.187-2.991,0.555c-0.828,0.349-1.526,0.739-2.076,1.159
			c0.041,0.491,0.154,0.881,0.338,1.16c0.179,0.272,0.394,0.399,0.678,0.399c0.174,0,0.371-0.057,0.583-0.17l0.836-0.449
			c0.315-0.171,0.681-0.328,1.088-0.467c0.419-0.142,0.896-0.214,1.419-0.214c1.063,0,1.871,0.264,2.4,0.785
			c0.531,0.521,0.8,1.224,0.8,2.09c0,0.413-0.073,0.806-0.217,1.168c-0.141,0.353-0.346,0.709-0.607,1.057
			c-0.257,0.343-0.568,0.688-0.952,1.056c-0.381,0.363-0.813,0.752-1.285,1.158l-4.496,4.023c-0.254,0.212-0.424,0.477-0.527,0.818
			c-0.109,0.36-0.165,0.675-0.165,0.936c0,0.21,0.008,0.409,0.024,0.596c0.008,0.095,0.019,0.183,0.031,0.262h9.945
			C31.792,24.474,31.995,24.402,32.157,24.253z"/>
	</g>
</g>
<g id="TITLES">
</g>
</svg>
