<?xml version="1.0" encoding="iso-8859-1"?>
<!-- Generator: Adobe Illustrator 17.1.0, SVG Export Plug-In . SVG Version: 6.00 Build 0)  -->
<!DOCTYPE svg PUBLIC "-//W3C//DTD SVG 1.1//EN" "http://www.w3.org/Graphics/SVG/1.1/DTD/svg11.dtd">
<svg version="1.1" xmlns="http://www.w3.org/2000/svg" xmlns:xlink="http://www.w3.org/1999/xlink" x="0px" y="0px"
	 viewBox="0 0 44 34" style="enable-background:new 0 0 44 34;" xml:space="preserve">
<g id="BLOCKS" style="display:none;">
	<rect x="-0.011" y="0" style="display:inline;fill:#CCCACB;" width="44" height="34"/>
</g>
<g id="INNER_GUDIES">
</g>
<g id="MAIN_GUIDES">
</g>
<g id="ICONS">
	<g>
		<path style="fill:#121212;" d="M27.23,15.576c0.956,0,1.729-0.242,2.298-0.721c0.582-0.489,0.876-1.129,0.876-1.904
			c0-0.774-0.283-1.402-0.84-1.867c-0.545-0.453-1.33-0.683-2.335-0.683c-1.004,0-1.793,0.229-2.346,0.682
			c-0.567,0.465-0.854,1.093-0.854,1.868c0,0.776,0.3,1.417,0.891,1.906C25.498,15.334,26.275,15.576,27.23,15.576z"/>
		<path style="fill:#121212;" d="M29.961,18.116c-0.297-0.271-0.679-0.49-1.135-0.652c-0.45-0.158-0.987-0.239-1.596-0.239
			c-0.624,0-1.172,0.08-1.632,0.238c-0.463,0.16-0.849,0.38-1.149,0.652c-0.302,0.274-0.525,0.591-0.664,0.943
			c-0.136,0.344-0.205,0.712-0.205,1.092c0,0.828,0.339,1.516,1.006,2.045c0.65,0.518,1.539,0.78,2.643,0.78
			c0.522,0,1.005-0.067,1.435-0.198c0.438-0.134,0.822-0.329,1.142-0.579c0.325-0.251,0.583-0.551,0.767-0.891
			c0.186-0.343,0.28-0.732,0.28-1.156c0-0.383-0.074-0.752-0.22-1.097C30.489,18.705,30.262,18.39,29.961,18.116z"/>
		<path style="fill:#121212;" d="M39.483,1.786h-35c-1.93,0-3.5,1.57-3.5,3.5v23c0,1.93,1.57,3.5,3.5,3.5h35
			c1.93,0,3.5-1.57,3.5-3.5v-23C42.983,3.356,41.413,1.786,39.483,1.786z M16.481,23.75c0,0.271-0.08,0.489-0.245,0.668
			c-0.157,0.169-0.479,0.258-0.93,0.258c-0.257,0-0.519-0.012-0.777-0.037c-0.16-0.015-0.281-0.03-0.372-0.044V11.651v-0.394
			l-0.357,0.168l-2.929,1.381c-0.151-0.141-0.273-0.306-0.366-0.492c-0.115-0.229-0.174-0.453-0.174-0.663
			c0-0.491,0.245-0.87,0.734-1.15l3.548-1.725h1.868V23.75z M32.828,22.133c-0.249,0.537-0.625,1.007-1.116,1.397
			c-0.499,0.396-1.128,0.714-1.869,0.944c-0.748,0.233-1.627,0.351-2.613,0.351c-1.002,0-1.89-0.118-2.638-0.351
			c-0.743-0.231-1.372-0.549-1.869-0.944c-0.491-0.39-0.867-0.86-1.116-1.397c-0.25-0.54-0.377-1.132-0.377-1.758
			c0-0.986,0.259-1.812,0.771-2.457c0.516-0.649,1.232-1.121,2.13-1.405l0.67-0.211l-0.652-0.259
			c-0.311-0.123-0.612-0.29-0.896-0.496c-0.278-0.2-0.529-0.447-0.747-0.735c-0.217-0.287-0.395-0.619-0.527-0.984
			c-0.131-0.363-0.198-0.768-0.198-1.203c0-0.529,0.107-1.046,0.318-1.538c0.209-0.488,0.536-0.929,0.972-1.31
			c0.44-0.385,1.01-0.701,1.693-0.939c0.687-0.24,1.517-0.361,2.467-0.361s1.781,0.121,2.467,0.361
			c0.683,0.238,1.248,0.554,1.679,0.938c0.428,0.382,0.752,0.823,0.962,1.312c0.21,0.491,0.317,1.008,0.317,1.538
			c0,0.452-0.066,0.861-0.196,1.214c-0.132,0.358-0.309,0.68-0.525,0.958c-0.217,0.279-0.474,0.528-0.762,0.74
			c-0.294,0.214-0.592,0.385-0.887,0.509l-0.628,0.264l0.65,0.205c0.897,0.283,1.613,0.759,2.129,1.416
			c0.512,0.652,0.772,1.467,0.772,2.421C33.205,20.994,33.079,21.594,32.828,22.133z"/>
	</g>
</g>
<g id="TITLES">
</g>
</svg>
