<?xml version="1.0" encoding="iso-8859-1"?>
<!-- Generator: Adobe Illustrator 17.1.0, SVG Export Plug-In . SVG Version: 6.00 Build 0)  -->
<!DOCTYPE svg PUBLIC "-//W3C//DTD SVG 1.1//EN" "http://www.w3.org/Graphics/SVG/1.1/DTD/svg11.dtd">
<svg version="1.1" xmlns="http://www.w3.org/2000/svg" xmlns:xlink="http://www.w3.org/1999/xlink" x="0px" y="0px"
	 viewBox="0 0 44 34" style="enable-background:new 0 0 44 34;" xml:space="preserve">
<g id="BLOCKS" style="display:none;">
	<rect x="-0.011" y="0" style="display:inline;fill:#CCCACB;" width="44" height="34"/>
</g>
<g id="INNER_GUDIES">
</g>
<g id="MAIN_GUIDES">
</g>
<g id="ICONS">
	<g>
		<path style="fill:#121212;" d="M39.483,1.786h-35c-1.93,0-3.5,1.57-3.5,3.5v23c0,1.93,1.57,3.5,3.5,3.5h35
			c1.93,0,3.5-1.57,3.5-3.5v-23C42.983,3.356,41.413,1.786,39.483,1.786z M28.375,18.051c0,0.949-0.147,1.846-0.436,2.667
			c-0.288,0.815-0.709,1.54-1.251,2.155c-0.539,0.61-1.221,1.098-2.025,1.449c-0.807,0.351-1.736,0.529-2.763,0.529
			c-1.042,0-1.971-0.178-2.761-0.528c-0.789-0.351-1.463-0.839-2.002-1.45c-0.542-0.614-0.959-1.338-1.238-2.153
			c-0.281-0.821-0.424-1.719-0.424-2.669v-8.4c0-0.271,0.081-0.489,0.246-0.668c0.156-0.168,0.478-0.257,0.93-0.257
			c0.254,0,0.511,0.012,0.763,0.036c0.14,0.014,0.261,0.029,0.362,0.045v9.319c0,1.404,0.36,2.547,1.07,3.399
			c0.721,0.864,1.758,1.302,3.08,1.302c1.27,0,2.296-0.436,3.05-1.297c0.746-0.852,1.124-1.997,1.124-3.403V9.651
			c0-0.271,0.081-0.489,0.246-0.668c0.156-0.168,0.478-0.257,0.93-0.257c0.254,0,0.506,0.012,0.75,0.036
			c0.135,0.014,0.252,0.028,0.35,0.044V18.051z"/>
	</g>
</g>
<g id="TITLES">
</g>
</svg>
