<?xml version="1.0" encoding="iso-8859-1"?>
<!-- Generator: Adobe Illustrator 17.1.0, SVG Export Plug-In . SVG Version: 6.00 Build 0)  -->
<!DOCTYPE svg PUBLIC "-//W3C//DTD SVG 1.1//EN" "http://www.w3.org/Graphics/SVG/1.1/DTD/svg11.dtd">
<svg version="1.1" xmlns="http://www.w3.org/2000/svg" xmlns:xlink="http://www.w3.org/1999/xlink" x="0px" y="0px"
	 viewBox="0 0 34 34" style="enable-background:new 0 0 34 34;" xml:space="preserve">
<g id="BLOCKS" style="display:none;">
	<rect x="0.027" y="0.022" style="display:inline;fill:#CCCACB;" width="34" height="34"/>
</g>
<g id="INNER_GUDIES">
</g>
<g id="MAIN_GUIDES">
</g>
<g id="ICONS">
	<path d="M28.984,8.478H5.002c-1.647,0-2.981,1.335-2.981,2.981v12.252c0,1.647,1.335,2.981,2.981,2.981h3.254v4.483l0.009,0.004
		c0.007,0.475,0.392,0.859,0.868,0.859c0.254,0,0.478-0.113,0.637-0.287l0.014,0.005l5.063-5.063h14.135
		c1.647,0,2.981-1.335,2.981-2.981V11.459C31.965,9.812,30.63,8.478,28.984,8.478z M29.965,23.711c0,0.541-0.44,0.981-0.981,0.981
		H14.036l-3.8,3.8v-3.8H5.002c-0.541,0-0.981-0.44-0.981-0.981V11.459c0-0.541,0.44-0.981,0.981-0.981h23.981
		c0.541,0,0.981,0.44,0.981,0.981V23.711z"/>
</g>
<g id="TITLES">
</g>
</svg>
