<?xml version="1.0" encoding="iso-8859-1"?>
<!-- Generator: Adobe Illustrator 17.1.0, SVG Export Plug-In . SVG Version: 6.00 Build 0)  -->
<!DOCTYPE svg PUBLIC "-//W3C//DTD SVG 1.1//EN" "http://www.w3.org/Graphics/SVG/1.1/DTD/svg11.dtd">
<svg version="1.1" xmlns="http://www.w3.org/2000/svg" xmlns:xlink="http://www.w3.org/1999/xlink" x="0px" y="0px"
	 viewBox="0 0 34 34" style="enable-background:new 0 0 34 34;" xml:space="preserve">
<g id="BLOCKS" style="display:none;">
	<rect x="0.025" y="0.022" style="display:inline;fill:#CCCACB;" width="34" height="34"/>
</g>
<g id="INNER_GUDIES">
</g>
<g id="MAIN_GUIDES">
</g>
<g id="ICONS">
	<g>
		<path style="fill:none;" d="M21.115,15.394h-7.157c-0.492,0-0.883,0.37-0.953,0.842"/>
		<path style="fill:none;" d="M13.958,13.394h7.185V8.003c0-0.541-0.44-0.981-0.981-0.981h-15.1c-0.541,0-0.981,0.44-0.981,0.981
			v7.252c0,0.541,0.44,0.981,0.981,0.981h2.762v3.8l3.152-3.152v-0.509C10.976,14.729,12.311,13.394,13.958,13.394z"/>
		<path style="fill:none;" d="M12.976,18.237v5.391c0,0.541,0.44,0.981,0.981,0.981h8.537l3.8,3.8v-3.8h2.762
			c0.541,0,0.981-0.44,0.981-0.981v-7.252c0-0.541-0.44-0.981-0.981-0.981h-5.929"/>
		<path d="M29.057,13.394h-5.914V8.003c0-1.647-1.335-2.981-2.981-2.981h-15.1c-1.647,0-2.981,1.335-2.981,2.981v7.252
			c0,1.647,1.335,2.981,2.981,2.981h0.783v4.483l0.009,0.004c0.007,0.475,0.392,0.859,0.868,0.859c0.254,0,0.478-0.113,0.637-0.287
			L7.373,23.3l3.603-3.603v3.93c0,1.647,1.335,2.981,2.981,2.981h7.725l5.063,5.063l0.014-0.005
			c0.159,0.174,0.383,0.287,0.637,0.287c0.477,0,0.862-0.384,0.868-0.859l0.009-0.004v-4.483h0.783c1.647,0,2.981-1.335,2.981-2.981
			v-7.252C32.039,14.729,30.704,13.394,29.057,13.394z M7.824,20.037v-3.8H5.062c-0.541,0-0.981-0.44-0.981-0.981V8.003
			c0-0.541,0.44-0.981,0.981-0.981h15.1c0.541,0,0.981,0.44,0.981,0.981v5.391h-7.185c-1.647,0-2.981,1.335-2.981,2.981v0.509
			L7.824,20.037z M23.129,15.394h5.929c0.541,0,0.981,0.44,0.981,0.981v7.252c0,0.541-0.44,0.981-0.981,0.981h-2.762v3.8l-3.8-3.8
			h-8.537c-0.541,0-0.981-0.44-0.981-0.981v-5.391l0.028-2c0.07-0.473,0.461-0.842,0.953-0.842h7.157H23.129z"/>
	</g>
</g>
<g id="TITLES">
</g>
</svg>
