<?xml version="1.0" encoding="iso-8859-1"?>
<!-- Generator: Adobe Illustrator 17.1.0, SVG Export Plug-In . SVG Version: 6.00 Build 0)  -->
<!DOCTYPE svg PUBLIC "-//W3C//DTD SVG 1.1//EN" "http://www.w3.org/Graphics/SVG/1.1/DTD/svg11.dtd">
<svg version="1.1" xmlns="http://www.w3.org/2000/svg" xmlns:xlink="http://www.w3.org/1999/xlink" x="0px" y="0px"
	 viewBox="0 0 34 34" style="enable-background:new 0 0 34 34;" xml:space="preserve">
<g id="BLOCKS" style="display:none;">
	<rect x="0.026" y="0.022" style="display:inline;fill:#CCCACB;" width="34" height="34"/>
</g>
<g id="INNER_GUDIES">
</g>
<g id="MAIN_GUIDES">
</g>
<g id="ICONS">
	<g>
		<path d="M23.144,11.576V7.92c0-1.647-1.335-2.981-2.981-2.981h-15.1c-1.646,0-2.981,1.335-2.981,2.981v7.252
			c0,1.647,1.335,2.981,2.981,2.981h0.783v4.483l0.009,0.004c0.007,0.475,0.392,0.859,0.868,0.859c0.254,0,0.478-0.113,0.637-0.287
			l0.013,0.005l2.38-2.38v-5.261c0-2.209,1.791-4,4-4H23.144z"/>
		<path d="M21.693,26.534l5.055,5.055l0.013-0.005c0.159,0.174,0.383,0.287,0.637,0.287c0.477,0,0.862-0.384,0.868-0.859
			l0.009-0.004v-4.474l0.548-0.009h0.217h0.019c0.023,0,0.043-0.008,0.065-0.008c0.207-0.006,0.408-0.032,0.603-0.078
			c0.092-0.021,0.178-0.053,0.266-0.083c0.125-0.042,0.245-0.089,0.362-0.147c0.088-0.043,0.174-0.088,0.257-0.139
			c0.116-0.072,0.223-0.154,0.328-0.241c0.064-0.053,0.132-0.1,0.191-0.158c0.153-0.149,0.29-0.312,0.408-0.491
			c0.006-0.01,0.016-0.017,0.022-0.026c-0.005,0.006-0.011,0.01-0.016,0.015c0.311-0.473,0.494-1.036,0.494-1.644v-6.991
			c0-1.657-1.343-3-3-3H14.713c-1.657,0-3,1.343-3,3v6.991c0,1.657,1.343,3,3,3h6.979"/>
	</g>
</g>
<g id="TITLES">
</g>
</svg>
