<?xml version="1.0" encoding="iso-8859-1"?>
<!-- Generator: Adobe Illustrator 17.1.0, SVG Export Plug-In . SVG Version: 6.00 Build 0)  -->
<!DOCTYPE svg PUBLIC "-//W3C//DTD SVG 1.1//EN" "http://www.w3.org/Graphics/SVG/1.1/DTD/svg11.dtd">
<svg version="1.1" xmlns="http://www.w3.org/2000/svg" xmlns:xlink="http://www.w3.org/1999/xlink" x="0px" y="0px"
	 viewBox="0 0 34 34" style="enable-background:new 0 0 34 34;" xml:space="preserve">
<g id="BLOCKS" style="display:none;">
	<rect x="0.026" y="0.022" style="display:inline;fill:#CCCACB;" width="34" height="34"/>
</g>
<g id="INNER_GUDIES">
</g>
<g id="MAIN_GUIDES">
</g>
<g id="ICONS">
	<g>
		<path d="M29.457,9.727c-0.152,0-0.295,0.067-0.401,0.19l-0.029,0.034L29.02,9.95l-1.204,1.206l-0.199,0.157l-9.793,9.794
			l-3.347,0.634c-1.285,0-2.351-1.031-2.377-2.299l-0.009-0.256l0.688-3.146L23.423,5.396l0.566-0.578
			c0.124-0.106,0.192-0.249,0.192-0.402c0-0.296-0.24-0.536-0.536-0.536H6.651c-2.578,0-4.676,2.098-4.676,4.676v18.72
			c0,2.578,2.098,4.676,4.676,4.676h18.667c2.578,0,4.676-2.098,4.676-4.676V10.449l0.001-0.202
			C29.994,9.965,29.748,9.727,29.457,9.727z"/>
		<path d="M31.05,2.625c-0.362-0.363-0.812-0.579-1.204-0.579c-0.141,0-0.341,0.031-0.486,0.177l-0.74,0.737l2.292,2.292
			l0.738-0.738C32,4.165,31.816,3.39,31.249,2.823L31.05,2.625z"/>
		<path d="M27.205,4.349L16.977,14.608l-0.089,0.089l-2.394,2.393l-0.505,2.315l0,0.021l-0.001,0.021l-0.009,0.035
			c0.004,0.191,0.189,0.376,0.416,0.376l0.039-0.003l2.349-0.477L29.495,6.638L27.205,4.349z"/>
	</g>
</g>
<g id="TITLES">
</g>
</svg>
