<?xml version="1.0" encoding="iso-8859-1"?>
<!-- Generator: Adobe Illustrator 17.1.0, SVG Export Plug-In . SVG Version: 6.00 Build 0)  -->
<!DOCTYPE svg PUBLIC "-//W3C//DTD SVG 1.1//EN" "http://www.w3.org/Graphics/SVG/1.1/DTD/svg11.dtd">
<svg version="1.1" xmlns="http://www.w3.org/2000/svg" xmlns:xlink="http://www.w3.org/1999/xlink" x="0px" y="0px"
	 viewBox="0 0 34 34" style="enable-background:new 0 0 34 34;" xml:space="preserve">
<g id="BLOCKS" style="display:none;">
	<rect x="0.027" y="0.022" style="display:inline;fill:#CCCACB;" width="34" height="34"/>
</g>
<g id="INNER_GUDIES">
</g>
<g id="MAIN_GUIDES">
</g>
<g id="ICONS">
	<circle cx="10.155" cy="16.078" r="2.5"/>
	<g>
		<path d="M10.122,11.324L10.122,11.324c0.913,0,1.833,0.298,2.813,0.911c1.266,0.792,2.573,1.193,3.886,1.193
			c1.314,0,2.632-0.403,3.917-1.199c0.983-0.609,1.901-0.905,2.807-0.905c0.231,0,0.467,0.02,0.701,0.058
			c0.879,0.144,1.597,0.578,2.261,1.363c1.137,1.346,1.972,3.059,2.552,5.237c0.449,1.687,0.657,3.405,0.616,5.104l-0.001,0.053
			l0.002,0.053c0.017,0.572,0.013,2.025-0.382,3.163l-0.012,0.034l-0.01,0.034c-0.16,0.521-0.321,0.535-0.563,0.555
			c-0.04,0-0.123,0-0.255-0.12l-0.418-0.377c-1.094-0.986-2.128-1.918-3.045-2.938c-1.139-1.267-2.488-1.884-4.124-1.884
			l-0.142,0.001c-1.111,0.023-2.285,0.034-3.693,0.034c-1.156,0-2.313-0.007-3.469-0.015l-1.152-0.007
			c-1.307,0-2.417,0.492-3.393,1.503c-1.087,1.127-2.299,2.308-3.704,3.611c-0.196,0.182-0.31,0.191-0.37,0.191
			c-0.003,0-0.006,0-0.009,0c-0.325-0.017-0.363-0.102-0.411-0.209l-0.196-0.438c-0.465-1.219-0.499-2.919-0.467-3.545
			c0.147-3.538,0.981-6.491,2.547-9.026c0.928-1.501,1.908-2.242,3.178-2.403C9.764,11.335,9.945,11.324,10.122,11.324
			 M10.122,9.324c-0.259,0-0.522,0.016-0.788,0.05c-2.138,0.271-3.55,1.591-4.628,3.336c-1.887,3.054-2.695,6.408-2.844,9.994
			c0,0-0.162,2.903,0.835,4.882l0.001,0c0.397,0.89,1.164,1.341,2.133,1.391c0.041,0.002,0.082,0.003,0.123,0.003
			c0.674,0,1.252-0.291,1.72-0.725c1.291-1.198,2.561-2.422,3.783-3.689c0.559-0.579,1.152-0.892,1.954-0.892
			c0.006,0,0.011,0,0.017,0c1.534,0.009,3.069,0.021,4.603,0.021c1.245,0,2.49-0.008,3.734-0.034c0.034-0.001,0.067-0.001,0.1-0.001
			c1.099,0,1.884,0.384,2.637,1.221c1.112,1.237,2.372,2.343,3.609,3.461c0.44,0.398,0.982,0.636,1.597,0.636
			c0.072,0,0.145-0.003,0.218-0.01c1.114-0.1,1.888-0.762,2.256-1.957c0.49-1.411,0.516-3.069,0.492-3.878
			c0.045-1.899-0.183-3.789-0.683-5.666c-0.585-2.198-1.474-4.258-2.957-6.013c-0.911-1.078-2.043-1.812-3.465-2.046
			c-0.348-0.057-0.69-0.084-1.025-0.084c-1.384,0-2.664,0.464-3.86,1.204c-0.964,0.597-1.914,0.899-2.864,0.899
			c-0.937,0-1.874-0.294-2.825-0.889C12.802,9.793,11.513,9.324,10.122,9.324L10.122,9.324z"/>
	</g>
	<path style="fill:#010101;" d="M24.139,19.376c0.137-0.148,0.201-0.325,0.201-0.558l0-1.241l0-0.5h0.5h1.943
		c0.006-0.053,0.012-0.112,0.019-0.177c0.026-0.261,0.039-0.528,0.039-0.796c0-0.543-0.122-0.746-0.195-0.818
		c-0.156-0.144-0.333-0.208-0.565-0.209l-1.241,0l-0.5,0v-0.5l0-1.943c-0.053-0.006-0.113-0.013-0.178-0.019
		c-0.262-0.025-0.53-0.037-0.795-0.037c-0.406,0-0.707,0.073-0.826,0.201c-0.137,0.148-0.201,0.326-0.201,0.558v1.241v0.5h-0.5
		h-1.944c-0.006,0.053-0.013,0.112-0.019,0.178c-0.025,0.262-0.037,0.53-0.037,0.795c0,0.544,0.121,0.746,0.194,0.818
		c0.156,0.144,0.333,0.208,0.565,0.208l1.242,0h0.5l0,0.5l0,1.944c0.053,0.006,0.112,0.012,0.177,0.019
		c0.26,0.026,0.527,0.039,0.796,0.039C23.719,19.579,24.02,19.505,24.139,19.376z"/>
</g>
<g id="TITLES">
</g>
</svg>
