<?xml version="1.0" encoding="iso-8859-1"?>
<!-- Generator: Adobe Illustrator 17.1.0, SVG Export Plug-In . SVG Version: 6.00 Build 0)  -->
<!DOCTYPE svg PUBLIC "-//W3C//DTD SVG 1.1//EN" "http://www.w3.org/Graphics/SVG/1.1/DTD/svg11.dtd">
<svg version="1.1" xmlns="http://www.w3.org/2000/svg" xmlns:xlink="http://www.w3.org/1999/xlink" x="0px" y="0px"
	 viewBox="0 0 34 34" style="enable-background:new 0 0 34 34;" xml:space="preserve">
<g id="BLOCKS" style="display:none;">
	<rect x="0.026" y="0.022" style="display:inline;fill:#CCCACB;" width="34" height="34"/>
</g>
<g id="INNER_GUDIES">
</g>
<g id="MAIN_GUIDES">
</g>
<g id="ICONS">
	<g>
		<path d="M16.865,1.014c-8.837,0-16,7.163-16,16s7.163,16,16,16s16-7.163,16-16S25.701,1.014,16.865,1.014z M18.788,17.388
			l5.827,5.827c0.164,0.164,0.244,0.335,0.252,0.536c0.007,0.175-0.154,0.44-0.441,0.727c-0.19,0.19-0.388,0.37-0.59,0.536
			c-0.051,0.042-0.096,0.079-0.138,0.112l-6.324-6.324l-0.354-0.354l-0.354,0.354l-5.828,5.828
			c-0.164,0.164-0.335,0.244-0.547,0.252c-0.102,0-0.331-0.057-0.716-0.442c-0.188-0.187-0.368-0.386-0.536-0.588
			c-0.042-0.051-0.079-0.098-0.112-0.14l6.324-6.324l0.354-0.354l-0.354-0.354l-5.827-5.827c-0.164-0.164-0.244-0.335-0.252-0.537
			c-0.006-0.174,0.155-0.439,0.442-0.726C9.802,9.403,10,9.223,10.203,9.055c0.051-0.042,0.098-0.079,0.14-0.112l6.323,6.324
			l0.354,0.354l0.354-0.354L23.2,9.439c0.164-0.164,0.335-0.244,0.547-0.252c0.103,0,0.333,0.057,0.716,0.441
			c0.19,0.19,0.37,0.388,0.536,0.591c0.042,0.05,0.079,0.096,0.112,0.138l-6.324,6.324l-0.354,0.354L18.788,17.388z"/>
	</g>
</g>
<g id="TITLES">
</g>
</svg>
