<?xml version="1.0" encoding="iso-8859-1"?>
<!-- Generator: Adobe Illustrator 17.1.0, SVG Export Plug-In . SVG Version: 6.00 Build 0)  -->
<!DOCTYPE svg PUBLIC "-//W3C//DTD SVG 1.1//EN" "http://www.w3.org/Graphics/SVG/1.1/DTD/svg11.dtd">
<svg version="1.1" xmlns="http://www.w3.org/2000/svg" xmlns:xlink="http://www.w3.org/1999/xlink" x="0px" y="0px"
	 viewBox="0 0 34 34" style="enable-background:new 0 0 34 34;" xml:space="preserve">
<g id="BLOCKS" style="display:none;">
	<rect x="0.025" y="0.022" style="display:inline;fill:#CCCACB;" width="34" height="34"/>
</g>
<g id="INNER_GUDIES">
</g>
<g id="MAIN_GUIDES">
</g>
<g id="ICONS">
	<g>
		<path d="M24.866,23.835c-0.008-0.202-0.088-0.372-0.252-0.536l-5.827-5.827l-0.354-0.354l0.354-0.354l6.324-6.324
			c-0.033-0.042-0.07-0.088-0.112-0.138c-0.166-0.202-0.346-0.4-0.536-0.591c-0.384-0.384-0.614-0.441-0.716-0.441
			c-0.212,0.008-0.383,0.088-0.547,0.252l-5.827,5.827l-0.354,0.354l-0.354-0.354l-6.324-6.324c-0.042,0.033-0.089,0.07-0.14,0.112
			C9.999,9.306,9.801,9.487,9.613,9.674C9.326,9.961,9.165,10.226,9.172,10.4c0.008,0.202,0.088,0.373,0.252,0.537l5.827,5.827
			l0.354,0.354l-0.354,0.354l-6.324,6.324c0.033,0.042,0.07,0.089,0.112,0.14c0.168,0.203,0.348,0.401,0.536,0.588
			c0.384,0.385,0.613,0.442,0.716,0.442c0.212-0.008,0.383-0.088,0.547-0.252l5.828-5.828l0.354-0.354l0.354,0.354l6.324,6.324
			c0.042-0.033,0.088-0.07,0.138-0.112c0.203-0.166,0.401-0.346,0.59-0.536C24.711,24.275,24.872,24.01,24.866,23.835z"/>
		<path d="M16.864,3.022c7.72,0,14,6.28,14,14s-6.28,14-14,14s-14-6.28-14-14S9.144,3.022,16.864,3.022 M16.864,1.022
			c-8.837,0-16,7.163-16,16s7.163,16,16,16c8.837,0,16-7.163,16-16S25.7,1.022,16.864,1.022L16.864,1.022z"/>
	</g>
</g>
<g id="TITLES">
</g>
</svg>
