<?xml version="1.0" encoding="iso-8859-1"?>
<!-- Generator: Adobe Illustrator 17.1.0, SVG Export Plug-In . SVG Version: 6.00 Build 0)  -->
<!DOCTYPE svg PUBLIC "-//W3C//DTD SVG 1.1//EN" "http://www.w3.org/Graphics/SVG/1.1/DTD/svg11.dtd">
<svg version="1.1" xmlns="http://www.w3.org/2000/svg" xmlns:xlink="http://www.w3.org/1999/xlink" x="0px" y="0px"
	 viewBox="0 0 34 34" style="enable-background:new 0 0 34 34;" xml:space="preserve">
<g id="BLOCKS" style="display:none;">
	<rect x="0.025" y="0.022" style="display:inline;fill:#CCCACB;" width="34" height="34"/>
</g>
<g id="INNER_GUDIES">
</g>
<g id="MAIN_GUIDES">
</g>
<g id="ICONS">
	<g>
		<path style="fill:#010101;" d="M25.775,24.857c-0.008-0.202-0.088-0.372-0.252-0.537l-6.534-6.534l-0.354-0.354l0.354-0.354
			l7.031-7.031c-0.033-0.042-0.07-0.088-0.112-0.138c-0.166-0.203-0.346-0.401-0.536-0.59c-0.384-0.384-0.614-0.441-0.716-0.441
			c-0.212,0.008-0.383,0.088-0.547,0.252l-6.534,6.534l-0.354,0.354l-0.354-0.354L9.836,8.634c-0.042,0.033-0.089,0.07-0.14,0.112
			C9.494,8.914,9.295,9.095,9.108,9.282C8.821,9.569,8.66,9.834,8.667,10.008c0.008,0.202,0.088,0.373,0.252,0.537l6.534,6.534
			l0.354,0.354l-0.354,0.354l-7.031,7.031c0.033,0.042,0.07,0.089,0.112,0.14c0.168,0.203,0.349,0.401,0.536,0.588
			c0.384,0.384,0.613,0.442,0.716,0.442c0.212-0.008,0.383-0.088,0.547-0.252l6.535-6.535l0.354-0.354l0.354,0.354l7.031,7.031
			c0.042-0.033,0.088-0.07,0.138-0.112c0.202-0.166,0.4-0.346,0.59-0.536C25.621,25.297,25.781,25.032,25.775,24.857z"/>
	</g>
</g>
<g id="TITLES">
</g>
</svg>
