<?xml version="1.0" encoding="iso-8859-1"?>
<!-- Generator: Adobe Illustrator 17.1.0, SVG Export Plug-In . SVG Version: 6.00 Build 0)  -->
<!DOCTYPE svg PUBLIC "-//W3C//DTD SVG 1.1//EN" "http://www.w3.org/Graphics/SVG/1.1/DTD/svg11.dtd">
<svg version="1.1" xmlns="http://www.w3.org/2000/svg" xmlns:xlink="http://www.w3.org/1999/xlink" x="0px" y="0px"
	 viewBox="0 0 34 34" style="enable-background:new 0 0 34 34;" xml:space="preserve">
<g id="BLOCKS" style="display:none;">
	<rect x="0.027" y="0.022" style="display:inline;fill:#CCCACB;" width="34" height="34"/>
</g>
<g id="INNER_GUDIES">
</g>
<g id="MAIN_GUIDES">
</g>
<g id="ICONS">
	<g>
		<path d="M10.738,15.431c0.164-0.2,0.343-0.398,0.534-0.588c0.383-0.383,0.613-0.441,0.726-0.441c0,0,0,0,0,0
			c0.202,0.008,0.373,0.088,0.537,0.252l0.17,0.17l0.804,0.804l1.587,1.587l0.854,0.854l0-1.208l-0.004-9.621V6.537
			c0.053-0.006,0.111-0.013,0.176-0.019c0.263-0.025,0.531-0.037,0.797-0.037c0.406,0,0.707,0.073,0.825,0.201
			c0.138,0.149,0.202,0.326,0.202,0.558v9.622v1.207l0.854-0.854l1.588-1.588l1.47-1.47c0.042,0.033,0.089,0.071,0.14,0.113
			c0.2,0.164,0.398,0.344,0.589,0.534c0.287,0.287,0.448,0.552,0.441,0.726c-0.008,0.202-0.088,0.373-0.252,0.537l-0.171,0.171
			l-0.803,0.803l-4.146,4.146c-0.189,0.189-0.44,0.293-0.707,0.293s-0.518-0.104-0.707-0.293l-4.95-4.949l-0.667-0.667
			C10.658,15.529,10.695,15.482,10.738,15.431z M27.908,25.905c0,0.554-0.451,1.004-1.004,1.004h-5.025h-7.467H6.949
			c-0.554,0-1.005-0.451-1.005-1.004v-4.423l0.004-0.359c0.002-0.222,0.058-0.38,0.179-0.511c0.043-0.046,0.281-0.166,0.857-0.166
			c0.322,0,0.649,0.015,0.969,0.044l0,0.623v2.835v0.652v0.3h1.3h0.652h3.055h0.478l6.206,0l3.206,0h0.478h0.618h1.652h0.3v-0.3
			v-0.652l0-2.835V20.49c0.322-0.029,0.648-0.044,0.969-0.044c0.577,0,0.814,0.119,0.856,0.165c0.122,0.132,0.177,0.29,0.18,0.514
			l0.004,0.222V25.905z"/>
	</g>
</g>
<g id="TITLES">
</g>
</svg>
