<?xml version="1.0" encoding="iso-8859-1"?>
<!-- Generator: Adobe Illustrator 17.1.0, SVG Export Plug-In . SVG Version: 6.00 Build 0)  -->
<!DOCTYPE svg PUBLIC "-//W3C//DTD SVG 1.1//EN" "http://www.w3.org/Graphics/SVG/1.1/DTD/svg11.dtd">
<svg version="1.1" xmlns="http://www.w3.org/2000/svg" xmlns:xlink="http://www.w3.org/1999/xlink" x="0px" y="0px"
	 viewBox="0 0 65 34" style="enable-background:new 0 0 65 34;" xml:space="preserve">
<g id="BLOCKS" style="display:none;">
	<rect x="-0.002" y="0.065" style="display:inline;fill:#CCCACB;" width="64.971" height="34.02"/>
</g>
<g id="INNER_GUDIES">
</g>
<g id="MAIN_GUIDES">
</g>
<g id="ICONS">
	<path style="fill:#121212;" d="M29.664,28.057c-3.774,0-6.799-0.644-6.799-1.429c0-0.784,3.024-1.428,6.799-1.428
		c3.746,0,6.772,0.643,6.772,1.428C36.437,27.414,33.41,28.057,29.664,28.057L29.664,28.057z M36.852,7.673
		c0,0-4.33,5.265-4.108,5.6c0.307-0.335-1.555-5.657-1.555-5.657s-0.388-1.12-1.607-4.786h-4.413V2.801L14.458,2.83H6.382
		L5.575,6.273h6.08h1.443c3.911,0,6.299,1.596,5.632,4.425c-0.721,3.08-4.134,4.396-7.77,4.396H9.6l1.748-7.532H5.27L2.69,18.564
		h8.631c6.494,0,12.654-3.443,13.765-7.866c0.194-0.812,0.167-2.857-0.332-4.061c0-0.029-0.028-0.084-0.056-0.167
		c-0.028-0.029-0.056-0.225,0.056-0.253c0.055-0.028,0.166,0.084,0.166,0.113c0,0,0.056,0.141,0.111,0.253l5.494,15.651
		L44.513,6.301l5.91-0.028h1.444c3.914,0,6.328,1.596,5.661,4.425c-0.723,3.08-4.161,4.396-7.798,4.396h-1.389l1.777-7.532h-6.078
		L41.46,18.564h8.631c6.493,0,12.709-3.443,13.736-7.866c1.054-4.425-3.497-7.868-10.047-7.868h-5.715h-7.161
		C37.492,6.888,36.852,7.673,36.852,7.673L36.852,7.673z M0.971,26.545c0,2.351,13.321,4.256,29.748,4.256
		c16.457,0,29.78-1.905,29.78-4.256c0-2.353-13.323-4.257-29.78-4.257C14.291,22.289,0.971,24.193,0.971,26.545L0.971,26.545z
		 M58.221,29.932V29.82h-0.666l-0.028,0.112h0.277l-0.112,0.869h0.14l0.11-0.869H58.221L58.221,29.932z M59.219,30.801V29.82h-0.11
		l-0.361,0.673l-0.165-0.673h-0.111l-0.307,0.981h0.113l0.248-0.756l0.167,0.756l0.389-0.756h0.026v0.756H59.219L59.219,30.801z"/>
</g>
<g id="TITLES">
</g>
</svg>
