<?xml version="1.0" encoding="iso-8859-1"?>
<!-- Generator: Adobe Illustrator 17.1.0, SVG Export Plug-In . SVG Version: 6.00 Build 0)  -->
<!DOCTYPE svg PUBLIC "-//W3C//DTD SVG 1.1//EN" "http://www.w3.org/Graphics/SVG/1.1/DTD/svg11.dtd">
<svg version="1.1" xmlns="http://www.w3.org/2000/svg" xmlns:xlink="http://www.w3.org/1999/xlink" x="0px" y="0px"
	 viewBox="0 0 34 34" style="enable-background:new 0 0 34 34;" xml:space="preserve">
<g id="BLOCKS" style="display:none;">
	<rect x="0.026" y="0.022" style="display:inline;fill:#CCCACB;" width="34" height="34"/>
</g>
<g id="INNER_GUDIES">
</g>
<g id="MAIN_GUIDES">
</g>
<g id="ICONS">
	<g>
		<path d="M16.859,23.7c1.142,0,2.211-0.441,3.013-1.243l8.7-8.7H5.119l8.669,8.668C14.61,23.247,15.701,23.7,16.859,23.7z"/>
		<path d="M30.803,14.354l-9.517,9.517c-1.179,1.179-2.751,1.829-4.427,1.829c-1.692,0-3.285-0.661-4.485-1.86l-9.287-9.286
			c-0.59,0.545-0.966,1.318-0.966,2.185V28.99c0,1.647,1.335,2.981,2.981,2.981h23.926c1.647,0,2.981-1.335,2.981-2.981V16.739
			C32.011,15.759,31.532,14.898,30.803,14.354z"/>
	</g>
</g>
<g id="TITLES">
</g>
</svg>
