<?xml version="1.0" encoding="iso-8859-1"?>
<!-- Generator: Adobe Illustrator 17.1.0, SVG Export Plug-In . SVG Version: 6.00 Build 0)  -->
<!DOCTYPE svg PUBLIC "-//W3C//DTD SVG 1.1//EN" "http://www.w3.org/Graphics/SVG/1.1/DTD/svg11.dtd">
<svg version="1.1" xmlns="http://www.w3.org/2000/svg" xmlns:xlink="http://www.w3.org/1999/xlink" x="0px" y="0px"
	 viewBox="0 0 34 34" style="enable-background:new 0 0 34 34;" xml:space="preserve">
<g id="BLOCKS" style="display:none;">
	<rect x="0.027" y="0.022" style="display:inline;fill:#CCCACB;" width="34" height="34"/>
</g>
<g id="INNER_GUDIES">
</g>
<g id="MAIN_GUIDES">
</g>
<g id="ICONS">
	<g>
		<path d="M29.031,13.841H5.104c-1.647,0-2.981,1.335-2.981,2.981v12.252c0,1.647,1.335,2.981,2.981,2.981h23.926
			c1.647,0,2.981-1.335,2.981-2.981V16.822C32.012,15.175,30.677,13.841,29.031,13.841z M26.573,15.841l-6.7,6.7
			c-0.801,0.801-1.871,1.243-3.013,1.243c-1.158,0-2.249-0.453-3.07-1.275L7.12,15.841H26.573z M30.012,29.074
			c0,0.541-0.44,0.981-0.981,0.981H5.104c-0.541,0-0.981-0.44-0.981-0.981V16.822c0-0.314,0.158-0.582,0.389-0.762l7.864,7.863
			c1.2,1.2,2.792,1.86,4.485,1.86c1.676,0,3.248-0.649,4.427-1.829l8.052-8.052c0.388,0.131,0.673,0.487,0.673,0.919V29.074z"/>
	</g>
</g>
<g id="TITLES">
</g>
</svg>
