<?xml version="1.0" encoding="iso-8859-1"?>
<!-- Generator: Adobe Illustrator 17.1.0, SVG Export Plug-In . SVG Version: 6.00 Build 0)  -->
<!DOCTYPE svg PUBLIC "-//W3C//DTD SVG 1.1//EN" "http://www.w3.org/Graphics/SVG/1.1/DTD/svg11.dtd">
<svg version="1.1" xmlns="http://www.w3.org/2000/svg" xmlns:xlink="http://www.w3.org/1999/xlink" x="0px" y="0px"
	 viewBox="0 0 34 34" style="enable-background:new 0 0 34 34;" xml:space="preserve">
<g id="BLOCKS" style="display:none;">
	<rect x="0.027" y="0.021" style="display:inline;fill:#CCCACB;" width="34" height="34"/>
</g>
<g id="INNER_GUDIES">
</g>
<g id="MAIN_GUIDES">
</g>
<g id="ICONS">
	<g>
		<path d="M16.866,1.013c-8.837,0-16,7.163-16,16s7.163,16,16,16s16-7.163,16-16S25.703,1.013,16.866,1.013z M17.679,17.701
			l-5.515,5.492c-0.851,0.848-2.093,1.852-3.168,0.781V9.903c1.075-1.071,2.317-0.067,3.168,0.781l5.515,5.492
			C18.102,16.597,18.102,17.279,17.679,17.701z M27.079,17.701l-5.515,5.492c-0.851,0.848-2.093,1.852-3.168,0.781V9.903
			c1.075-1.071,2.317-0.067,3.168,0.781l5.515,5.492C27.502,16.597,27.502,17.279,27.079,17.701z"/>
	</g>
</g>
<g id="TITLES">
</g>
</svg>
