<?xml version="1.0" encoding="iso-8859-1"?>
<!-- Generator: Adobe Illustrator 17.1.0, SVG Export Plug-In . SVG Version: 6.00 Build 0)  -->
<!DOCTYPE svg PUBLIC "-//W3C//DTD SVG 1.1//EN" "http://www.w3.org/Graphics/SVG/1.1/DTD/svg11.dtd">
<svg version="1.1" xmlns="http://www.w3.org/2000/svg" xmlns:xlink="http://www.w3.org/1999/xlink" x="0px" y="0px"
	 viewBox="0 0 34 34" style="enable-background:new 0 0 34 34;" xml:space="preserve">
<g id="BLOCKS" style="display:none;">
	<rect x="0.027" y="0.022" style="display:inline;fill:#CCCACB;" width="34" height="34"/>
</g>
<g id="INNER_GUDIES">
</g>
<g id="MAIN_GUIDES">
</g>
<g id="ICONS">
	<g>
		<path d="M16.866,3.022c7.72,0,14,6.28,14,14s-6.28,14-14,14s-14-6.28-14-14S9.147,3.022,16.866,3.022 M16.866,1.022
			c-8.837,0-16,7.163-16,16s7.163,16,16,16c8.837,0,16-7.163,16-16S25.703,1.022,16.866,1.022L16.866,1.022z"/>
		<g>
			<g id="Play_10_">
				<path id="play__x28_compound_x29__10_" d="M27.079,17.785l-5.515,5.492c-0.851,0.848-2.093,1.852-3.168,0.781V9.987
					c1.075-1.071,2.317-0.067,3.168,0.781l5.515,5.492C27.502,16.681,27.502,17.363,27.079,17.785z"/>
			</g>
			<g id="Play_9_">
				<path id="play__x28_compound_x29__9_" d="M17.679,17.785l-5.515,5.492c-0.851,0.848-2.093,1.852-3.168,0.781V9.987
					c1.075-1.071,2.317-0.067,3.168,0.781l5.515,5.492C18.102,16.681,18.102,17.363,17.679,17.785z"/>
			</g>
		</g>
	</g>
</g>
<g id="TITLES">
</g>
</svg>
