<?xml version="1.0" encoding="iso-8859-1"?>
<!-- Generator: Adobe Illustrator 17.1.0, SVG Export Plug-In . SVG Version: 6.00 Build 0)  -->
<!DOCTYPE svg PUBLIC "-//W3C//DTD SVG 1.1//EN" "http://www.w3.org/Graphics/SVG/1.1/DTD/svg11.dtd">
<svg version="1.1" xmlns="http://www.w3.org/2000/svg" xmlns:xlink="http://www.w3.org/1999/xlink" x="0px" y="0px"
	 viewBox="0 0 34 34" style="enable-background:new 0 0 34 34;" xml:space="preserve">
<g id="BLOCKS" style="display:none;">
	<rect x="0.026" y="0.022" style="display:inline;fill:#CCCACB;" width="34" height="34"/>
</g>
<g id="INNER_GUDIES">
</g>
<g id="MAIN_GUIDES">
</g>
<g id="ICONS">
	<g>
		<path d="M17.032,18.22c-2.206,0-4,1.794-4,4c0,2.206,1.794,4,4,4c2.206,0,4-1.794,4-4C21.032,20.015,19.237,18.22,17.032,18.22z"
			/>
		<path d="M29.026,13.758h-5.555l-1.762-1.776c-0.583-0.589-1.352-1.236-2.123-1.244v-0.015h-5.127v0.015c-0.005,0-0.01,0-0.016,0
			c-0.776,0-1.55,0.652-2.137,1.244l-1.762,1.776H5.026c-0.88,0-1.665,0.392-2.214,1.005H2.809v0.003
			c-0.482,0.539-0.783,1.245-0.783,2.027v12.142c0,1.674,1.346,3.036,3,3.036h24c1.654,0,3-1.362,3-3.036V16.794
			C32.026,15.12,30.68,13.758,29.026,13.758z M17.032,16.22c3.314,0,6,2.686,6,6s-2.686,6-6,6s-6-2.686-6-6
			S13.718,16.22,17.032,16.22z M24.782,19.283c0-0.966,0.783-1.75,1.75-1.75c0.966,0,1.75,0.784,1.75,1.75s-0.784,1.75-1.75,1.75
			C25.565,21.033,24.782,20.249,24.782,19.283z"/>
	</g>
</g>
<g id="TITLES">
</g>
</svg>
