<?xml version="1.0" encoding="iso-8859-1"?>
<!-- Generator: Adobe Illustrator 17.1.0, SVG Export Plug-In . SVG Version: 6.00 Build 0)  -->
<!DOCTYPE svg PUBLIC "-//W3C//DTD SVG 1.1//EN" "http://www.w3.org/Graphics/SVG/1.1/DTD/svg11.dtd">
<svg version="1.1" xmlns="http://www.w3.org/2000/svg" xmlns:xlink="http://www.w3.org/1999/xlink" x="0px" y="0px"
	 viewBox="0 0 34 34" style="enable-background:new 0 0 34 34;" xml:space="preserve">
<g id="BLOCKS" style="display:none;">
	<rect x="0.027" y="0.022" style="display:inline;fill:#CCCACB;" width="34" height="34"/>
</g>
<g id="INNER_GUDIES">
</g>
<g id="MAIN_GUIDES">
</g>
<g id="ICONS">
	<g>
		<path d="M29.027,13.841h-5.555l-1.762-1.776c-0.584-0.589-1.352-1.236-2.123-1.244v-0.015H14.46v0.015c-0.005,0-0.011,0-0.016,0
			c-0.776,0-1.55,0.652-2.137,1.244l-1.763,1.776H5.028c-1.654,0-3,1.362-3,3.036v12.142c0,1.674,1.346,3.036,3,3.036h24
			c1.654,0,3-1.362,3-3.036V16.877C32.027,15.203,30.682,13.841,29.027,13.841z M30.027,29.019c0,0.571-0.449,1.036-1,1.036h-24
			c-0.551,0-1-0.465-1-1.036V16.877c0-0.571,0.449-1.036,1-1.036h5.517h0.833l0.587-0.591l1.763-1.777
			c0.465-0.469,0.713-0.612,0.799-0.652l1.934,0.008v-0.023h1.709l1.318,0.014c0.084,0.038,0.332,0.179,0.803,0.654l1.762,1.776
			l0.587,0.591h0.833h5.555c0.551,0,1,0.465,1,1.036V29.019z"/>
		<path d="M17.033,16.304c-3.314,0-6,2.686-6,6s2.686,6,6,6s6-2.686,6-6S20.347,16.304,17.033,16.304z M17.033,26.304
			c-2.206,0-4-1.794-4-4c0-2.206,1.794-4,4-4s4,1.794,4,4C21.033,24.509,19.239,26.304,17.033,26.304z"/>
		<circle cx="26.533" cy="19.366" r="1.75"/>
	</g>
</g>
<g id="TITLES">
</g>
</svg>
