<?xml version="1.0" encoding="iso-8859-1"?>
<!-- Generator: Adobe Illustrator 17.1.0, SVG Export Plug-In . SVG Version: 6.00 Build 0)  -->
<!DOCTYPE svg PUBLIC "-//W3C//DTD SVG 1.1//EN" "http://www.w3.org/Graphics/SVG/1.1/DTD/svg11.dtd">
<svg version="1.1" xmlns="http://www.w3.org/2000/svg" xmlns:xlink="http://www.w3.org/1999/xlink" x="0px" y="0px"
	 viewBox="0 0 34 34" style="enable-background:new 0 0 34 34;" xml:space="preserve">
<g id="BLOCKS" style="display:none;">
	<rect x="0.027" y="0.021" style="display:inline;fill:#CCCACB;" width="34" height="34"/>
</g>
<g id="INNER_GUDIES">
</g>
<g id="MAIN_GUIDES">
</g>
<g id="ICONS">
	<g>
		<polygon style="fill:#221F1F;" points="31.809,15.394 27.869,15.394 27.869,11.454 25.855,11.454 25.855,15.394 21.915,15.394 
			21.915,17.32 25.855,17.32 25.855,21.26 27.869,21.26 27.869,17.32 31.809,17.32 		"/>
		<path style="fill:#221F1F;" d="M17.721,19.099l-1.435-1.095c-0.437-0.354-1.034-0.825-1.034-1.686
			c0-0.863,0.597-1.414,1.114-1.923c1.671-1.292,3.343-2.667,3.343-5.567c0-2.982-1.813-4.421-2.728-5.166h2.359l2.577-1.576
			l-8.297-0.002c-2.15,0-5.05,0.222-7.319,2.065C4.59,5.599,4.029,7.73,4.029,9.533c0,3.056,2.388,6.155,6.606,6.155
			c0.399,0,0.835-0.039,1.274-0.078c-0.198,0.47-0.398,0.863-0.398,1.529c0,1.215,0.636,1.959,1.195,2.665
			c-1.79,0.119-5.135,0.315-7.601,1.804C2.754,22.983,2.04,24.98,2.04,26.393c0,2.903,2.671,5.636,8.443,5.636
			c6.844,0,10.58-3.753,10.58-7.438C21.062,21.884,19.471,20.55,17.721,19.099z M12.507,14.689c-3.423,0-4.976-4.353-4.976-6.979
			c0-1.021,0.198-2.176,0.874-3c0.639-0.785,1.752-1.196,2.788-1.196c3.302,0,5.013,4.392,5.013,7.215
			c0,0.706-0.079,1.86-0.994,2.764C14.574,14.121,13.501,14.689,12.507,14.689z M12.541,30.355c-4.258,0-7.005-2.001-7.005-4.785
			c0-2.784,2.547-3.725,3.422-4.038c1.671-0.549,3.822-0.629,4.181-0.629c0.396,0,0.596,0,0.913,0.04
			c3.027,2.118,4.34,3.174,4.34,5.177C18.392,28.548,16.361,30.355,12.541,30.355z"/>
	</g>
</g>
<g id="TITLES">
</g>
</svg>
