<?xml version="1.0" encoding="iso-8859-1"?>
<!-- Generator: Adobe Illustrator 17.1.0, SVG Export Plug-In . SVG Version: 6.00 Build 0)  -->
<!DOCTYPE svg PUBLIC "-//W3C//DTD SVG 1.1//EN" "http://www.w3.org/Graphics/SVG/1.1/DTD/svg11.dtd">
<svg version="1.1" xmlns="http://www.w3.org/2000/svg" xmlns:xlink="http://www.w3.org/1999/xlink" x="0px" y="0px"
	 viewBox="0 0 34 34" style="enable-background:new 0 0 34 34;" xml:space="preserve">
<g id="BLOCKS" style="display:none;">
	<rect x="0.027" y="0.022" style="display:inline;fill:#CCCACB;" width="34" height="34"/>
</g>
<g id="INNER_GUDIES">
</g>
<g id="MAIN_GUIDES">
</g>
<g id="ICONS">
	<g>
		<g>
			<g>
				<path d="M13.192,4.095c0.388,0,0.703,0.316,0.703,0.704v8.555c0,0.387-0.315,0.702-0.703,0.702H4.637
					c-0.388,0-0.703-0.315-0.703-0.702V4.799c0-0.388,0.315-0.704,0.703-0.704H13.192 M13.192,2.095H4.637
					c-1.49,0-2.703,1.213-2.703,2.704v8.555c0,1.49,1.213,2.702,2.703,2.702h8.555c1.49,0,2.703-1.212,2.703-2.702V4.799
					C15.895,3.308,14.682,2.095,13.192,2.095L13.192,2.095z"/>
			</g>
			<g>
				<path d="M13.192,20.029c0.388,0,0.703,0.316,0.703,0.704v8.556c0,0.387-0.315,0.702-0.703,0.702H4.637
					c-0.388,0-0.703-0.315-0.703-0.702v-8.556c0-0.388,0.315-0.704,0.703-0.704H13.192 M13.192,18.029H4.637
					c-1.49,0-2.703,1.213-2.703,2.704v8.556c0,1.49,1.213,2.702,2.703,2.702h8.555c1.49,0,2.703-1.212,2.703-2.702v-8.556
					C15.895,19.242,14.682,18.029,13.192,18.029L13.192,18.029z"/>
			</g>
		</g>
		<g>
			<g>
				<path d="M29.192,4.095c0.388,0,0.703,0.316,0.703,0.704v8.555c0,0.387-0.315,0.702-0.703,0.702h-8.555
					c-0.388,0-0.703-0.315-0.703-0.702V4.799c0-0.388,0.315-0.704,0.703-0.704H29.192 M29.192,2.095h-8.555
					c-1.49,0-2.703,1.213-2.703,2.704v8.555c0,1.49,1.213,2.702,2.703,2.702h8.555c1.49,0,2.703-1.212,2.703-2.702V4.799
					C31.895,3.308,30.682,2.095,29.192,2.095L29.192,2.095z"/>
			</g>
			<g>
				<path d="M29.192,20.029c0.388,0,0.703,0.316,0.703,0.704v8.556c0,0.387-0.315,0.702-0.703,0.702h-8.555
					c-0.388,0-0.703-0.315-0.703-0.702v-8.556c0-0.388,0.315-0.704,0.703-0.704H29.192 M29.192,18.029h-8.555
					c-1.49,0-2.703,1.213-2.703,2.704v8.556c0,1.49,1.213,2.702,2.703,2.702h8.555c1.49,0,2.703-1.212,2.703-2.702v-8.556
					C31.895,19.242,30.682,18.029,29.192,18.029L29.192,18.029z"/>
			</g>
		</g>
	</g>
</g>
<g id="TITLES">
</g>
</svg>
