<?xml version="1.0" encoding="iso-8859-1"?>
<!-- Generator: Adobe Illustrator 17.1.0, SVG Export Plug-In . SVG Version: 6.00 Build 0)  -->
<!DOCTYPE svg PUBLIC "-//W3C//DTD SVG 1.1//EN" "http://www.w3.org/Graphics/SVG/1.1/DTD/svg11.dtd">
<svg version="1.1" xmlns="http://www.w3.org/2000/svg" xmlns:xlink="http://www.w3.org/1999/xlink" x="0px" y="0px"
	 viewBox="0 0 44 34" style="enable-background:new 0 0 44 34;" xml:space="preserve">
<g id="BLOCKS" style="display:none;">
	<rect x="-0.011" y="-0.026" style="display:inline;fill:#CCCACB;" width="44" height="34"/>
</g>
<g id="INNER_GUDIES">
</g>
<g id="MAIN_GUIDES">
</g>
<g id="ICONS">
	<g>
		<path style="fill:#121212;" d="M39.483,1.786h-35c-1.93,0-3.5,1.57-3.5,3.5v23c0,1.93,1.57,3.5,3.5,3.5h35
			c1.93,0,3.5-1.57,3.5-3.5v-23C42.983,3.356,41.413,1.786,39.483,1.786z M20.154,23.778c0,0.272-0.081,0.492-0.247,0.671
			c-0.157,0.17-0.48,0.259-0.933,0.259c-0.259,0-0.522-0.012-0.78-0.037c-0.146-0.013-0.272-0.028-0.375-0.044v-6.771v-0.25h-0.25
			h-7.63h-0.25v0.25v5.922c0,0.272-0.081,0.492-0.247,0.671c-0.157,0.17-0.48,0.259-0.933,0.259c-0.259,0-0.517-0.012-0.767-0.037
			c-0.141-0.013-0.262-0.028-0.363-0.044V9.623c0-0.272,0.081-0.492,0.247-0.671c0.156-0.169,0.479-0.258,0.933-0.258
			c0.255,0,0.513,0.012,0.766,0.036c0.141,0.014,0.263,0.029,0.364,0.045v6.646v0.25h0.25h7.63h0.25v-0.25V9.623
			c0-0.272,0.081-0.491,0.247-0.671c0.156-0.169,0.479-0.258,0.933-0.258c0.255,0,0.518,0.012,0.78,0.036
			c0.147,0.014,0.273,0.029,0.376,0.045V23.778z M37.264,19.669c-0.387,0.966-0.958,1.82-1.698,2.537
			c-0.744,0.719-1.658,1.296-2.717,1.716c-1.061,0.422-2.284,0.635-3.635,0.635h-3.363c-0.697,0-0.919-0.163-0.99-0.261
			c-0.143-0.197-0.216-0.464-0.216-0.794V9.799c0-0.329,0.073-0.596,0.216-0.794c0.07-0.097,0.293-0.26,0.99-0.26h3.438
			c1.321,0,2.526,0.185,3.582,0.551c1.05,0.363,1.953,0.89,2.686,1.566c0.73,0.674,1.301,1.498,1.695,2.447
			c0.395,0.952,0.596,2.034,0.596,3.217C37.848,17.642,37.651,18.7,37.264,19.669z"/>
		<path style="fill:#121212;" d="M33.646,12.259c-0.542-0.48-1.188-0.848-1.919-1.091c-0.726-0.242-1.512-0.365-2.338-0.365h-2.183
			h-0.25v0.25v11.194v0.25h0.25h2.233c0.81,0,1.585-0.127,2.304-0.378c0.723-0.253,1.364-0.634,1.906-1.132
			c0.543-0.501,0.978-1.134,1.291-1.882c0.313-0.745,0.471-1.631,0.471-2.631c0-0.902-0.159-1.717-0.473-2.423
			C34.625,13.346,34.19,12.743,33.646,12.259z"/>
	</g>
</g>
<g id="TITLES">
</g>
</svg>
