<?xml version="1.0" encoding="iso-8859-1"?>
<!-- Generator: Adobe Illustrator 17.1.0, SVG Export Plug-In . SVG Version: 6.00 Build 0)  -->
<!DOCTYPE svg PUBLIC "-//W3C//DTD SVG 1.1//EN" "http://www.w3.org/Graphics/SVG/1.1/DTD/svg11.dtd">
<svg version="1.1" xmlns="http://www.w3.org/2000/svg" xmlns:xlink="http://www.w3.org/1999/xlink" x="0px" y="0px"
	 viewBox="0 0 44 34" style="enable-background:new 0 0 44 34;" xml:space="preserve">
<g id="BLOCKS" style="display:none;">
	<rect x="-0.011" y="0.05" style="display:inline;fill:#CCCACB;" width="44" height="34"/>
</g>
<g id="INNER_GUDIES">
</g>
<g id="MAIN_GUIDES">
</g>
<g id="ICONS">
	<g>
		<path d="M17.819,24.709c0.104,0.016,0.229,0.031,0.375,0.044c0.259,0.025,0.521,0.037,0.78,0.037c0.453,0,0.776-0.09,0.933-0.259
			c0.166-0.179,0.247-0.399,0.247-0.671V8.858c-0.103-0.016-0.229-0.031-0.376-0.045c-0.262-0.024-0.524-0.036-0.78-0.036
			c-0.454,0-0.777,0.089-0.933,0.258c-0.166,0.18-0.247,0.4-0.247,0.671v5.798v0.25h-0.25h-7.63h-0.25v-0.25V8.857
			C9.588,8.841,9.466,8.826,9.325,8.812C9.072,8.789,8.814,8.776,8.559,8.776c-0.454,0-0.777,0.089-0.933,0.258
			c-0.166,0.18-0.247,0.399-0.247,0.671V24.71c0.101,0.016,0.222,0.031,0.363,0.044c0.251,0.025,0.508,0.037,0.767,0.037
			c0.453,0,0.776-0.09,0.933-0.259c0.166-0.179,0.247-0.399,0.247-0.671v-5.922v-0.25h0.25h7.63h0.25v0.25V24.709z"/>
		<path d="M35.557,10.943c-0.732-0.676-1.636-1.203-2.686-1.566c-1.056-0.365-2.262-0.551-3.582-0.551h-3.438
			c-0.697,0-0.919,0.163-0.99,0.26c-0.143,0.198-0.216,0.465-0.216,0.794v13.703c0,0.33,0.073,0.597,0.216,0.794
			c0.071,0.098,0.293,0.261,0.99,0.261h3.363c1.35,0,2.573-0.214,3.635-0.635c1.059-0.42,1.973-0.997,2.717-1.716
			c0.74-0.717,1.312-1.571,1.698-2.537c0.388-0.969,0.584-2.027,0.584-3.144c0-1.182-0.2-2.265-0.596-3.217
			C36.858,12.441,36.287,11.618,35.557,10.943z M34.94,19.188c-0.313,0.748-0.747,1.381-1.291,1.882
			c-0.542,0.498-1.184,0.878-1.906,1.132c-0.719,0.251-1.494,0.378-2.304,0.378h-2.233h-0.25v-0.25V11.136v-0.25h0.25h2.183
			c0.825,0,1.612,0.123,2.338,0.365c0.731,0.244,1.377,0.611,1.919,1.091c0.544,0.484,0.979,1.087,1.292,1.792
			c0.314,0.706,0.473,1.521,0.473,2.423C35.412,17.558,35.253,18.443,34.94,19.188z"/>
		<path style="fill:#121212;" d="M39.483,1.868h-35c-1.93,0-3.5,1.57-3.5,3.5v23c0,1.93,1.57,3.5,3.5,3.5h35
			c1.93,0,3.5-1.57,3.5-3.5v-23C42.983,3.439,41.413,1.868,39.483,1.868z M2.983,28.368v-23c0-0.827,0.673-1.5,1.5-1.5h35.001
			c0.827,0,1.5,0.673,1.5,1.5v23c0,0.827-0.673,1.5-1.5,1.5H4.482C3.656,29.868,2.983,29.195,2.983,28.368z"/>
	</g>
</g>
<g id="TITLES">
</g>
</svg>
