<?xml version="1.0" encoding="iso-8859-1"?>
<!-- Generator: Adobe Illustrator 17.1.0, SVG Export Plug-In . SVG Version: 6.00 Build 0)  -->
<!DOCTYPE svg PUBLIC "-//W3C//DTD SVG 1.1//EN" "http://www.w3.org/Graphics/SVG/1.1/DTD/svg11.dtd">
<svg version="1.1" xmlns="http://www.w3.org/2000/svg" xmlns:xlink="http://www.w3.org/1999/xlink" x="0px" y="0px"
	 viewBox="0 0 34 34" style="enable-background:new 0 0 34 34;" xml:space="preserve">
<g id="BLOCKS" style="display:none;">
	<rect x="0.026" y="0.022" style="display:inline;fill:#CCCACB;" width="34" height="34"/>
</g>
<g id="INNER_GUDIES">
</g>
<g id="MAIN_GUIDES">
</g>
<g id="ICONS">
	<g>
		<path d="M16.865,1.014c-8.837,0-16,7.163-16,16s7.163,16,16,16s16-7.163,16-16S25.701,1.014,16.865,1.014z M17.614,26.334
			c-0.342,0.341-0.759,0.512-1.252,0.512c-0.474,0-0.882-0.171-1.224-0.512c-0.341-0.342-0.513-0.75-0.513-1.224
			c0-0.493,0.171-0.911,0.513-1.252c0.342-0.342,0.749-0.513,1.224-0.513c0.493,0,0.91,0.171,1.252,0.513
			c0.341,0.341,0.512,0.759,0.512,1.252C18.126,25.584,17.956,25.992,17.614,26.334z M22.821,13.79
			c-0.139,0.383-0.319,0.73-0.535,1.032c-0.217,0.303-0.471,0.57-0.753,0.792c-0.293,0.231-0.592,0.427-0.893,0.585
			c-0.499,0.277-0.938,0.527-1.318,0.749c-0.388,0.228-0.73,0.464-1.015,0.701c-0.296,0.247-0.536,0.518-0.715,0.806
			c-0.183,0.295-0.306,0.648-0.364,1.036c-0.027,0.131-0.109,0.263-0.245,0.392c-0.127,0.12-0.343,0.181-0.643,0.181
			c-0.242,0-0.508-0.044-0.792-0.131c-0.009-0.088-0.016-0.174-0.022-0.258c-0.009-0.132-0.013-0.26-0.013-0.384
			c0-0.64,0.112-1.187,0.333-1.629c0.224-0.449,0.513-0.844,0.86-1.174c0.354-0.336,0.739-0.631,1.146-0.879
			c0.427-0.26,0.826-0.516,1.199-0.766c0.387-0.261,0.711-0.547,0.963-0.848c0.277-0.33,0.418-0.733,0.418-1.197
			c0-0.72-0.277-1.311-0.825-1.756c-0.532-0.431-1.278-0.649-2.216-0.649c-0.624,0-1.169,0.053-1.618,0.159
			c-0.441,0.103-0.834,0.223-1.169,0.356l-0.858,0.346c-0.218,0.089-0.442,0.134-0.665,0.134c-0.301,0-0.55-0.15-0.761-0.457
			c-0.212-0.31-0.335-0.743-0.365-1.289c0.623-0.395,1.416-0.745,2.361-1.04c1.003-0.313,2.037-0.472,3.075-0.472
			c0.908,0,1.729,0.112,2.44,0.333c0.702,0.22,1.296,0.53,1.766,0.921c0.465,0.387,0.824,0.85,1.065,1.376
			c0.242,0.527,0.364,1.11,0.364,1.734C23.026,12.979,22.957,13.415,22.821,13.79z"/>
	</g>
</g>
<g id="TITLES">
</g>
</svg>
