<?xml version="1.0" encoding="iso-8859-1"?>
<!-- Generator: Adobe Illustrator 17.1.0, SVG Export Plug-In . SVG Version: 6.00 Build 0)  -->
<!DOCTYPE svg PUBLIC "-//W3C//DTD SVG 1.1//EN" "http://www.w3.org/Graphics/SVG/1.1/DTD/svg11.dtd">
<svg version="1.1" xmlns="http://www.w3.org/2000/svg" xmlns:xlink="http://www.w3.org/1999/xlink" x="0px" y="0px"
	 viewBox="0 0 34 34" style="enable-background:new 0 0 34 34;" xml:space="preserve">
<g id="BLOCKS" style="display:none;">
	<rect x="0.027" y="0.022" style="display:inline;fill:#CCCACB;" width="34" height="34"/>
</g>
<g id="INNER_GUDIES">
</g>
<g id="MAIN_GUIDES">
</g>
<g id="ICONS">
	<g>
		<path d="M16.866,3.022c7.72,0,14,6.28,14,14s-6.28,14-14,14s-14-6.28-14-14S9.147,3.022,16.866,3.022 M16.866,1.022
			c-8.837,0-16,7.163-16,16s7.163,16,16,16c8.837,0,16-7.163,16-16S25.703,1.022,16.866,1.022L16.866,1.022z"/>
		<path d="M17.595,18.539c0.179-0.288,0.42-0.56,0.715-0.806c0.285-0.238,0.626-0.474,1.015-0.701
			c0.379-0.222,0.818-0.472,1.318-0.749c0.301-0.159,0.599-0.355,0.893-0.585c0.282-0.222,0.535-0.489,0.753-0.792
			c0.215-0.302,0.395-0.649,0.535-1.032c0.136-0.375,0.206-0.811,0.206-1.295c0-0.623-0.122-1.207-0.364-1.734
			c-0.242-0.526-0.6-0.989-1.065-1.376c-0.469-0.392-1.063-0.701-1.766-0.921c-0.711-0.221-1.532-0.333-2.44-0.333
			c-1.038,0-2.073,0.159-3.075,0.472c-0.945,0.295-1.738,0.645-2.361,1.04c0.031,0.546,0.153,0.979,0.365,1.289
			c0.211,0.308,0.459,0.457,0.761,0.457c0.224,0,0.448-0.045,0.665-0.134l0.858-0.346c0.336-0.133,0.728-0.253,1.169-0.356
			c0.449-0.105,0.994-0.159,1.618-0.159c0.938,0,1.684,0.219,2.216,0.649c0.548,0.445,0.825,1.036,0.825,1.756
			c0,0.464-0.141,0.866-0.418,1.197c-0.252,0.301-0.576,0.587-0.963,0.848c-0.373,0.25-0.771,0.506-1.199,0.766
			c-0.407,0.247-0.792,0.543-1.146,0.879c-0.347,0.33-0.636,0.725-0.86,1.174c-0.221,0.441-0.333,0.989-0.333,1.629
			c0,0.123,0.004,0.252,0.013,0.384c0.006,0.084,0.013,0.17,0.022,0.258c0.284,0.087,0.55,0.131,0.792,0.131
			c0.3,0,0.517-0.061,0.643-0.181c0.136-0.129,0.218-0.261,0.245-0.392C17.289,19.187,17.412,18.834,17.595,18.539z"/>
		<g>
			<path d="M16.364,26.929c-0.474,0-0.882-0.171-1.224-0.512c-0.342-0.342-0.513-0.75-0.513-1.224c0-0.493,0.171-0.911,0.513-1.252
				c0.342-0.342,0.749-0.513,1.224-0.513c0.493,0,0.91,0.171,1.252,0.513c0.342,0.341,0.512,0.759,0.512,1.252
				c0,0.474-0.171,0.882-0.512,1.224C17.274,26.758,16.857,26.929,16.364,26.929z"/>
		</g>
	</g>
</g>
<g id="TITLES">
</g>
</svg>
