<?xml version="1.0" encoding="iso-8859-1"?>
<!-- Generator: Adobe Illustrator 17.1.0, SVG Export Plug-In . SVG Version: 6.00 Build 0)  -->
<!DOCTYPE svg PUBLIC "-//W3C//DTD SVG 1.1//EN" "http://www.w3.org/Graphics/SVG/1.1/DTD/svg11.dtd">
<svg version="1.1" xmlns="http://www.w3.org/2000/svg" xmlns:xlink="http://www.w3.org/1999/xlink" x="0px" y="0px"
	 viewBox="0 0 34 34" style="enable-background:new 0 0 34 34;" xml:space="preserve">
<g id="BLOCKS" style="display:none;">
	<rect x="0.026" y="0.022" style="display:inline;fill:#CCCACB;" width="34" height="34"/>
</g>
<g id="INNER_GUDIES">
</g>
<g id="MAIN_GUIDES">
</g>
<g id="ICONS">
	<path d="M30.668,16.949c-0.003-0.235-0.047-0.387-0.126-0.525c-0.08-0.183-0.195-0.354-0.35-0.513L18.152,2.529
		c-0.361-0.364-0.834-0.546-1.308-0.546c-0.473,0-0.947,0.182-1.308,0.546L3.76,15.648c-0.303,0.311-0.466,0.666-0.482,1.07
		c-0.002,0.048-0.001,13.286-0.001,13.286v1.467c0,0,0.115,0.387,0.345,0.387c0.058,0,7.9,0,7.952,0c0.009,0,0.021-0.011,0.03-0.012
		c0.541-0.029,0.935-0.161,1.163-0.408c0.255-0.279,0.422-0.626,0.422-1.042c0,0-0.007-8.671,0-10.104c2.386,0,5.197,0,7.582,0
		c0,0,0.001,11.125,0.001,11.217c0,0.322,0.267,0.349,0.355,0.349c0.018,0,0.028-0.001,0.028-0.001l7.667,0.01
		c0.228,0,0.444-0.047,0.646-0.123c0.1-0.029,0.171-0.078,0.252-0.12c0.058-0.033,0.116-0.064,0.17-0.103
		c0.041-0.031,0.104-0.047,0.138-0.083c0.017-0.019,0.023-0.044,0.039-0.064c0.369-0.341,0.604-0.826,0.604-1.37L30.668,16.949z"/>
</g>
<g id="TITLES">
</g>
</svg>
