<?xml version="1.0" encoding="iso-8859-1"?>
<!-- Generator: Adobe Illustrator 17.1.0, SVG Export Plug-In . SVG Version: 6.00 Build 0)  -->
<!DOCTYPE svg PUBLIC "-//W3C//DTD SVG 1.1//EN" "http://www.w3.org/Graphics/SVG/1.1/DTD/svg11.dtd">
<svg version="1.1" xmlns="http://www.w3.org/2000/svg" xmlns:xlink="http://www.w3.org/1999/xlink" x="0px" y="0px"
	 viewBox="0 0 34 34" style="enable-background:new 0 0 34 34;" xml:space="preserve">
<g id="BLOCKS" style="display:none;">
	<rect x="0.027" y="0.022" style="display:inline;fill:#CCCACB;" width="34" height="34"/>
</g>
<g id="INNER_GUDIES">
</g>
<g id="MAIN_GUIDES">
</g>
<g id="ICONS">
	<g>
		<path d="M16.866,3.022c7.72,0,14,6.28,14,14s-6.28,14-14,14s-14-6.28-14-14S9.147,3.022,16.866,3.022 M16.866,1.022
			c-8.837,0-16,7.163-16,16s7.163,16,16,16c8.837,0,16-7.163,16-16S25.703,1.022,16.866,1.022L16.866,1.022z"/>
		<path d="M16.864,13.389c-0.468,0-0.794,0.086-0.943,0.248c-0.165,0.178-0.241,0.395-0.241,0.681V26.54
			c0.093,0.013,0.198,0.026,0.314,0.037c0.269,0.026,0.543,0.04,0.814,0.04c0.614,0,0.868-0.135,0.972-0.248
			c0.164-0.178,0.24-0.394,0.24-0.681V13.468c-0.093-0.013-0.198-0.026-0.314-0.038C17.429,13.403,17.146,13.389,16.864,13.389z"/>
		<path d="M16.864,7.179c-0.474,0-0.882,0.171-1.223,0.513c-0.342,0.341-0.513,0.759-0.513,1.252c0,0.474,0.171,0.882,0.513,1.224
			c0.342,0.341,0.749,0.512,1.223,0.512c0.493,0,0.91-0.171,1.252-0.512c0.342-0.342,0.512-0.75,0.512-1.224
			c0-0.493-0.171-0.911-0.512-1.252C17.774,7.349,17.357,7.179,16.864,7.179L16.864,7.179z"/>
	</g>
</g>
<g id="TITLES">
</g>
</svg>
