<?xml version="1.0" encoding="iso-8859-1"?>
<!-- Generator: Adobe Illustrator 17.1.0, SVG Export Plug-In . SVG Version: 6.00 Build 0)  -->
<!DOCTYPE svg PUBLIC "-//W3C//DTD SVG 1.1//EN" "http://www.w3.org/Graphics/SVG/1.1/DTD/svg11.dtd">
<svg version="1.1" xmlns="http://www.w3.org/2000/svg" xmlns:xlink="http://www.w3.org/1999/xlink" x="0px" y="0px"
	 viewBox="0 0 34 34" style="enable-background:new 0 0 34 34;" xml:space="preserve">
<g id="BLOCKS" style="display:none;">
	<rect x="0.026" y="0.022" style="display:inline;fill:#CCCACB;" width="34" height="34"/>
</g>
<g id="INNER_GUDIES">
</g>
<g id="MAIN_GUIDES">
</g>
<g id="ICONS">
	<g>
		<path d="M16.865,1.014c-8.837,0-16,7.163-16,16s7.163,16,16,16s16-7.163,16-16S25.701,1.014,16.865,1.014z M18.018,25.606
			c0,0.287-0.076,0.503-0.24,0.681c-0.105,0.113-0.359,0.248-0.972,0.248c-0.27,0-0.544-0.013-0.813-0.04
			c-0.117-0.012-0.222-0.024-0.314-0.037V14.235c0-0.287,0.077-0.503,0.241-0.681c0.149-0.162,0.476-0.248,0.943-0.248
			c0.282,0,0.565,0.014,0.841,0.041c0.117,0.012,0.222,0.025,0.314,0.038V25.606z M18.114,10.084
			c-0.342,0.341-0.759,0.512-1.252,0.512c-0.474,0-0.882-0.171-1.224-0.512c-0.342-0.342-0.513-0.75-0.513-1.224
			c0-0.493,0.171-0.911,0.513-1.252c0.341-0.342,0.749-0.513,1.224-0.513c0.493,0,0.91,0.171,1.252,0.513
			c0.342,0.341,0.512,0.759,0.512,1.252C18.626,9.334,18.456,9.742,18.114,10.084z"/>
	</g>
</g>
<g id="TITLES">
</g>
</svg>
