<?xml version="1.0" encoding="iso-8859-1"?>
<!-- Generator: Adobe Illustrator 17.1.0, SVG Export Plug-In . SVG Version: 6.00 Build 0)  -->
<!DOCTYPE svg PUBLIC "-//W3C//DTD SVG 1.1//EN" "http://www.w3.org/Graphics/SVG/1.1/DTD/svg11.dtd">
<svg version="1.1" xmlns="http://www.w3.org/2000/svg" xmlns:xlink="http://www.w3.org/1999/xlink" x="0px" y="0px"
	 viewBox="0 0 34 34" style="enable-background:new 0 0 34 34;" xml:space="preserve">
<g id="BLOCKS" style="display:none;">
	<rect x="0.027" y="0.021" style="display:inline;fill:#CCCACB;" width="34" height="34"/>
</g>
<g id="INNER_GUDIES">
</g>
<g id="MAIN_GUIDES">
</g>
<g id="ICONS">
	<g>
		<path style="fill:#231F20;" d="M28.438,14.712h-2.612c0.19,0.739,0.303,1.511,0.303,2.309c0,5.1-4.133,9.233-9.232,9.233
			c-5.099,0-9.232-4.133-9.232-9.233c0-0.798,0.113-1.57,0.303-2.309H5.356v12.695c0,0.636,0.517,1.153,1.155,1.153h20.772
			c0.638,0,1.155-0.516,1.155-1.153V14.712z M28.438,6.634c0-0.637-0.517-1.154-1.155-1.154h-3.461
			c-0.638,0-1.154,0.517-1.154,1.154v3.463c0,0.637,0.516,1.154,1.154,1.154h3.461c0.638,0,1.155-0.517,1.155-1.154V6.634z
			 M16.897,11.251c-3.187,0-5.77,2.583-5.77,5.77c0,3.187,2.583,5.771,5.77,5.771s5.771-2.584,5.771-5.771
			C22.668,13.833,20.084,11.251,16.897,11.251 M28.438,32.023H5.356c-1.911,0-3.461-1.55-3.461-3.464V5.48
			c0-1.912,1.55-3.461,3.461-3.461h23.083c1.912,0,3.461,1.55,3.461,3.461v23.08C31.9,30.473,30.35,32.023,28.438,32.023"/>
	</g>
</g>
<g id="TITLES">
</g>
</svg>
