<?xml version="1.0" encoding="iso-8859-1"?>
<!-- Generator: Adobe Illustrator 17.1.0, SVG Export Plug-In . SVG Version: 6.00 Build 0)  -->
<!DOCTYPE svg PUBLIC "-//W3C//DTD SVG 1.1//EN" "http://www.w3.org/Graphics/SVG/1.1/DTD/svg11.dtd">
<svg version="1.1" xmlns="http://www.w3.org/2000/svg" xmlns:xlink="http://www.w3.org/1999/xlink" x="0px" y="0px"
	 viewBox="0 0 34 34" style="enable-background:new 0 0 34 34;" xml:space="preserve">
<g id="BLOCKS" style="display:none;">
	<rect x="0.023" y="0.021" style="display:inline;fill:#CCCACB;" width="34" height="34"/>
</g>
<g id="INNER_GUDIES">
</g>
<g id="MAIN_GUIDES">
</g>
<g id="ICONS">
	<g>
		<path d="M16.862,3.021c7.72,0,14,6.28,14,14s-6.28,14-14,14s-14-6.28-14-14S9.142,3.021,16.862,3.021 M16.862,1.021
			c-8.837,0-16,7.163-16,16s7.163,16,16,16c8.837,0,16-7.163,16-16S25.699,1.021,16.862,1.021L16.862,1.021z"/>
		<g>
			<path d="M17.144,17.203l-0.142-0.164l0.142-0.164l6.325-7.277c-0.152-0.06-0.323-0.111-0.512-0.153
				c-0.321-0.071-0.61-0.106-0.859-0.106c-0.427,0-0.755,0.055-0.978,0.162c-0.225,0.109-0.445,0.292-0.654,0.546l-5.752,6.778
				l-0.3,0.354l0.299,0.345l6.051,7c0.226,0.257,0.466,0.452,0.712,0.579c0.239,0.123,0.583,0.185,1.023,0.185
				c0.261,0,0.556-0.04,0.878-0.118c0.197-0.049,0.378-0.105,0.54-0.17L17.144,17.203z"/>
			<path d="M14.273,17.689v-0.343v-0.681V9.419c-0.1-0.016-0.221-0.031-0.361-0.045c-0.252-0.024-0.51-0.036-0.764-0.036
				c-0.452,0-0.773,0.089-0.929,0.257c-0.165,0.179-0.246,0.398-0.246,0.668v14.945c0.101,0.016,0.222,0.03,0.361,0.044
				c0.25,0.025,0.506,0.037,0.764,0.037c0.452,0,0.773-0.089,0.929-0.258c0.166-0.178,0.246-0.396,0.246-0.668V17.689z"/>
		</g>
	</g>
</g>
<g id="TITLES">
</g>
</svg>
