<?xml version="1.0" encoding="iso-8859-1"?>
<!-- Generator: Adobe Illustrator 17.1.0, SVG Export Plug-In . SVG Version: 6.00 Build 0)  -->
<!DOCTYPE svg PUBLIC "-//W3C//DTD SVG 1.1//EN" "http://www.w3.org/Graphics/SVG/1.1/DTD/svg11.dtd">
<svg version="1.1" xmlns="http://www.w3.org/2000/svg" xmlns:xlink="http://www.w3.org/1999/xlink" x="0px" y="0px"
	 viewBox="0 0 34 34" style="enable-background:new 0 0 34 34;" xml:space="preserve">
<g id="BLOCKS" style="display:none;">
	<rect x="0.026" y="0.021" style="display:inline;fill:#CCCACB;" width="34" height="34"/>
</g>
<g id="INNER_GUDIES">
</g>
<g id="MAIN_GUIDES">
</g>
<g id="ICONS">
	<g>
		<path d="M16.865,1.013c-8.837,0-16,7.163-16,16s7.163,16,16,16s16-7.163,16-16S25.701,1.013,16.865,1.013z M14.276,16.581v0.681
			v0.343v6.675c0,0.272-0.08,0.49-0.246,0.668c-0.156,0.169-0.477,0.258-0.929,0.258c-0.258,0-0.514-0.012-0.764-0.037
			c-0.14-0.013-0.26-0.028-0.361-0.044V10.18c0-0.27,0.081-0.489,0.246-0.668c0.156-0.168,0.477-0.257,0.929-0.257
			c0.254,0,0.511,0.012,0.764,0.036c0.14,0.014,0.261,0.029,0.361,0.045V16.581z M23.38,25.088
			c-0.322,0.078-0.618,0.118-0.878,0.118c-0.44,0-0.784-0.062-1.023-0.185c-0.246-0.126-0.486-0.322-0.712-0.579l-6.051-7
			l-0.299-0.345l0.3-0.354l5.752-6.778c0.209-0.254,0.429-0.438,0.655-0.546c0.222-0.108,0.551-0.162,0.978-0.162
			c0.249,0,0.538,0.036,0.859,0.106c0.188,0.042,0.359,0.093,0.512,0.153l-6.325,7.277l-0.142,0.164l0.142,0.164l6.773,7.798
			C23.757,24.982,23.577,25.039,23.38,25.088z"/>
	</g>
</g>
<g id="TITLES">
</g>
</svg>
