<?xml version="1.0" encoding="iso-8859-1"?>
<!-- Generator: Adobe Illustrator 17.1.0, SVG Export Plug-In . SVG Version: 6.00 Build 0)  -->
<!DOCTYPE svg PUBLIC "-//W3C//DTD SVG 1.1//EN" "http://www.w3.org/Graphics/SVG/1.1/DTD/svg11.dtd">
<svg version="1.1" xmlns="http://www.w3.org/2000/svg" xmlns:xlink="http://www.w3.org/1999/xlink" x="0px" y="0px"
	 viewBox="0 0 34 34" style="enable-background:new 0 0 34 34;" xml:space="preserve">
<g id="BLOCKS" style="display:none;">
	<rect x="0.027" y="0.021" style="display:inline;fill:#CCCACB;" width="34" height="34"/>
</g>
<g id="INNER_GUDIES">
</g>
<g id="MAIN_GUIDES">
</g>
<g id="ICONS">
	<g>
		<path d="M31.776,25.903c-0.018-0.184-0.039-0.324-0.063-0.42h-0.703h-0.047h-2.141c0.066-0.17,0.106-0.353,0.106-0.545V8.927
			c0-0.833-0.677-1.51-1.511-1.51H6.386c-0.834,0-1.51,0.677-1.51,1.51v16.011c0,0.193,0.04,0.376,0.106,0.545H2.698H2.669H1.948
			c-0.024,0.096-0.045,0.235-0.063,0.42c-0.017,0.185-0.026,0.372-0.026,0.562c0,0.381,0.08,0.646,0.241,0.795
			c0.154,0.142,0.346,0.212,0.57,0.218v0.005h28.341v-0.008c0.216-0.01,0.402-0.077,0.551-0.215c0.16-0.149,0.241-0.414,0.241-0.795
			C31.802,26.276,31.793,26.088,31.776,25.903z M17.965,26.46h-2v-1h2V26.46z M26.928,24.449H6.876V9.417h20.052V24.449z"/>
	</g>
</g>
<g id="TITLES">
</g>
</svg>
