<?xml version="1.0" encoding="iso-8859-1"?>
<!-- Generator: Adobe Illustrator 17.1.0, SVG Export Plug-In . SVG Version: 6.00 Build 0)  -->
<!DOCTYPE svg PUBLIC "-//W3C//DTD SVG 1.1//EN" "http://www.w3.org/Graphics/SVG/1.1/DTD/svg11.dtd">
<svg version="1.1" xmlns="http://www.w3.org/2000/svg" xmlns:xlink="http://www.w3.org/1999/xlink" x="0px" y="0px"
	 viewBox="0 0 34 34" style="enable-background:new 0 0 34 34;" xml:space="preserve">
<g id="BLOCKS" style="display:none;">
	<rect x="0.027" y="0.022" style="display:inline;fill:#CCCACB;" width="34" height="34"/>
</g>
<g id="INNER_GUDIES">
</g>
<g id="MAIN_GUIDES">
</g>
<g id="ICONS">
	<g>
		<path style="fill:#010101;" d="M30.601,19.973v-2.082c0-0.833-0.677-1.51-1.511-1.51h-0.037V8.928c0-0.833-0.677-1.51-1.511-1.51
			H6.511c-0.834,0-1.51,0.677-1.51,1.51v16.011c0,0.193,0.04,0.376,0.106,0.545H2.948H2.919H2.198
			c-0.024,0.096-0.045,0.235-0.063,0.42c-0.017,0.185-0.026,0.372-0.026,0.562c0,0.381,0.08,0.646,0.241,0.795
			c0.154,0.142,0.346,0.212,0.57,0.218v0.005h9.63v0.417c0,0.833,0.676,1.51,1.51,1.51h10.917v1.093c0,0.834,0.677,1.51,1.51,1.51
			h4.011c0.833,0,1.51-0.676,1.51-1.51v-9.032C32.006,20.675,31.385,20.028,30.601,19.973z M7.001,24.449V9.418h20.052v6.963H14.058
			c-0.834,0-1.51,0.677-1.51,1.51v6.559H7.001z M24.975,21.473v5.939H14.549v-9.031h14v1.582h-2.064
			C25.652,19.962,24.975,20.639,24.975,21.473z M30.006,30.026h-3.031v-8.064h3.031V30.026z"/>
	</g>
</g>
<g id="TITLES">
</g>
</svg>
