<?xml version="1.0" encoding="iso-8859-1"?>
<!-- Generator: Adobe Illustrator 17.1.0, SVG Export Plug-In . SVG Version: 6.00 Build 0)  -->
<!DOCTYPE svg PUBLIC "-//W3C//DTD SVG 1.1//EN" "http://www.w3.org/Graphics/SVG/1.1/DTD/svg11.dtd">
<svg version="1.1" xmlns="http://www.w3.org/2000/svg" xmlns:xlink="http://www.w3.org/1999/xlink" x="0px" y="0px"
	 viewBox="0 0 34 34" style="enable-background:new 0 0 34 34;" xml:space="preserve">
<g id="BLOCKS" style="display:none;">
	<rect x="0.027" y="0.021" style="display:inline;fill:#CCCACB;" width="34" height="34"/>
</g>
<g id="INNER_GUDIES">
</g>
<g id="MAIN_GUIDES">
</g>
<g id="ICONS">
	<g>
		<path d="M5.272,3.195c2.213,0,3.578,1.458,3.62,3.368c0,1.87-1.409,3.364-3.667,3.364h-0.04c-2.173,0-3.58-1.493-3.58-3.364
			C1.605,4.653,3.054,3.195,5.272,3.195L5.272,3.195z M24.362,12.134c4.262,0,7.454,2.781,7.454,8.764v11.173h-6.474V21.65
			c0-2.62-0.94-4.406-3.284-4.406c-1.789,0-2.849,1.201-3.316,2.367c-0.172,0.414-0.219,0.997-0.219,1.58v10.881h-6.473
			c0,0,0.084-17.653,0-19.479h6.473v2.76C19.384,14.025,20.922,12.134,24.362,12.134L24.362,12.134z M1.988,12.59h6.475v19.482
			H1.988V12.59z"/>
	</g>
</g>
<g id="TITLES">
</g>
</svg>
