<?xml version="1.0" encoding="iso-8859-1"?>
<!-- Generator: Adobe Illustrator 17.1.0, SVG Export Plug-In . SVG Version: 6.00 Build 0)  -->
<!DOCTYPE svg PUBLIC "-//W3C//DTD SVG 1.1//EN" "http://www.w3.org/Graphics/SVG/1.1/DTD/svg11.dtd">
<svg version="1.1" xmlns="http://www.w3.org/2000/svg" xmlns:xlink="http://www.w3.org/1999/xlink" x="0px" y="0px"
	 viewBox="0 0 34 34" style="enable-background:new 0 0 34 34;" xml:space="preserve">
<g id="BLOCKS" style="display:none;">
	<rect x="0.027" y="0.022" style="display:inline;fill:#CCCACB;" width="34" height="34"/>
</g>
<g id="INNER_GUDIES">
</g>
<g id="MAIN_GUIDES">
</g>
<g id="ICONS">
	<g>
		<g>
			<path d="M7.965,9.953h18.008v2H7.965V9.953z"/>
			<path d="M25.965,9.953c0.238,0,0.437,0.074,0.598,0.223c0.16,0.149,0.241,0.414,0.241,0.795c0,0.19-0.009,0.378-0.026,0.562
				c-0.018,0.184-0.039,0.324-0.063,0.42h-0.75L25.965,9.953z"/>
			<path d="M7.965,11.953c-0.238,0-0.437-0.074-0.599-0.223c-0.16-0.149-0.241-0.414-0.241-0.795c0-0.19,0.009-0.378,0.027-0.562
				c0.018-0.184,0.039-0.324,0.063-0.42h0.75V11.953z"/>
		</g>
		<g>
			<path d="M7.965,15.953h18.008v2H7.965V15.953z"/>
			<path d="M25.965,15.953c0.238,0,0.437,0.074,0.598,0.223c0.16,0.149,0.241,0.414,0.241,0.795c0,0.19-0.009,0.378-0.026,0.562
				c-0.018,0.184-0.039,0.324-0.063,0.42h-0.75L25.965,15.953z"/>
			<path d="M7.965,17.953c-0.238,0-0.437-0.074-0.599-0.223c-0.16-0.149-0.241-0.414-0.241-0.795c0-0.19,0.009-0.378,0.027-0.562
				c0.018-0.184,0.039-0.324,0.063-0.42h0.75V17.953z"/>
		</g>
		<g>
			<path d="M7.965,21.953h18.008v2H7.965V21.953z"/>
			<path d="M25.965,21.953c0.238,0,0.437,0.074,0.598,0.223c0.16,0.149,0.241,0.414,0.241,0.795c0,0.19-0.009,0.378-0.026,0.562
				c-0.018,0.184-0.039,0.324-0.063,0.42h-0.75L25.965,21.953z"/>
			<path d="M7.965,23.953c-0.238,0-0.437-0.074-0.599-0.223c-0.16-0.149-0.241-0.414-0.241-0.795c0-0.19,0.009-0.378,0.027-0.562
				c0.018-0.184,0.039-0.324,0.063-0.42h0.75V23.953z"/>
		</g>
	</g>
</g>
<g id="TITLES">
</g>
</svg>
