<?xml version="1.0" encoding="iso-8859-1"?>
<!-- Generator: Adobe Illustrator 17.1.0, SVG Export Plug-In . SVG Version: 6.00 Build 0)  -->
<!DOCTYPE svg PUBLIC "-//W3C//DTD SVG 1.1//EN" "http://www.w3.org/Graphics/SVG/1.1/DTD/svg11.dtd">
<svg version="1.1" xmlns="http://www.w3.org/2000/svg" xmlns:xlink="http://www.w3.org/1999/xlink" x="0px" y="0px"
	 viewBox="0 0 34 34" style="enable-background:new 0 0 34 34;" xml:space="preserve">
<g id="BLOCKS" style="display:none;">
	<rect x="0.026" y="0.022" style="display:inline;fill:#CCCACB;" width="34" height="34"/>
</g>
<g id="INNER_GUDIES">
</g>
<g id="MAIN_GUIDES">
</g>
<g id="ICONS">
	<g>
		<path d="M16.865,1.014c-8.837,0-16,7.163-16,16s7.163,16,16,16s16-7.163,16-16S25.701,1.014,16.865,1.014z M25.776,23.45
			c-0.018,0.184-0.039,0.324-0.063,0.42h-0.742h-0.008h-16c-0.238,0-0.437-0.074-0.599-0.223c-0.16-0.149-0.24-0.414-0.24-0.795
			c0-0.19,0.009-0.378,0.026-0.562c0.018-0.184,0.039-0.324,0.063-0.42h0.75h16.008v0.001c0.234,0.002,0.431,0.075,0.59,0.222
			c0.16,0.149,0.24,0.414,0.24,0.795C25.802,23.078,25.794,23.265,25.776,23.45z M25.776,17.45c-0.018,0.184-0.039,0.324-0.063,0.42
			h-0.742h-0.008h-16c-0.238,0-0.437-0.074-0.599-0.223c-0.16-0.149-0.24-0.414-0.24-0.795c0-0.19,0.009-0.378,0.026-0.562
			c0.018-0.184,0.039-0.324,0.063-0.42h0.75h16.008v0.001c0.234,0.002,0.431,0.075,0.59,0.222c0.16,0.149,0.24,0.414,0.24,0.795
			C25.802,17.078,25.794,17.265,25.776,17.45z M25.776,11.45c-0.018,0.184-0.039,0.324-0.063,0.42h-0.742h-0.008h-16
			c-0.238,0-0.437-0.074-0.599-0.223c-0.16-0.149-0.24-0.414-0.24-0.795c0-0.19,0.009-0.378,0.026-0.562
			c0.018-0.184,0.039-0.324,0.063-0.42h0.75h16.008v0.001c0.234,0.002,0.431,0.075,0.59,0.222c0.16,0.149,0.24,0.414,0.24,0.795
			C25.802,11.078,25.794,11.265,25.776,11.45z"/>
	</g>
</g>
<g id="TITLES">
</g>
</svg>
