<?xml version="1.0" encoding="iso-8859-1"?>
<!-- Generator: Adobe Illustrator 17.1.0, SVG Export Plug-In . SVG Version: 6.00 Build 0)  -->
<!DOCTYPE svg PUBLIC "-//W3C//DTD SVG 1.1//EN" "http://www.w3.org/Graphics/SVG/1.1/DTD/svg11.dtd">
<svg version="1.1" xmlns="http://www.w3.org/2000/svg" xmlns:xlink="http://www.w3.org/1999/xlink" x="0px" y="0px"
	 viewBox="0 0 34 34" style="enable-background:new 0 0 34 34;" xml:space="preserve">
<g id="BLOCKS" style="display:none;">
	<rect x="0.027" y="0.022" style="display:inline;fill:#CCCACB;" width="34" height="34"/>
</g>
<g id="INNER_GUDIES">
</g>
<g id="MAIN_GUIDES">
</g>
<g id="ICONS">
	<g>
		<path d="M16.895,4.044c4.678,0,8.484,3.806,8.484,8.484c0,3.756-2.412,7.017-6.003,8.113l-1.058,0.323l-0.289,1.067l-1.115,4.12
			l-1.061-4.079l-0.285-1.093l-1.083-0.321c-3.576-1.058-6.073-4.402-6.073-8.13C8.411,7.85,12.217,4.044,16.895,4.044
			 M16.895,2.044c-5.79,0-10.484,4.694-10.484,10.484c0,4.754,3.167,8.764,7.505,10.048l2.37,9.108h0.017
			c0.086,0.243,0.311,0.42,0.584,0.42c0.273,0,0.498-0.177,0.584-0.42h0.017l2.472-9.13c4.294-1.311,7.419-5.302,7.419-10.026
			C27.378,6.738,22.684,2.044,16.895,2.044L16.895,2.044z"/>
	</g>
</g>
<g id="TITLES">
</g>
</svg>
