<?xml version="1.0" encoding="iso-8859-1"?>
<!-- Generator: Adobe Illustrator 17.1.0, SVG Export Plug-In . SVG Version: 6.00 Build 0)  -->
<!DOCTYPE svg PUBLIC "-//W3C//DTD SVG 1.1//EN" "http://www.w3.org/Graphics/SVG/1.1/DTD/svg11.dtd">
<svg version="1.1" xmlns="http://www.w3.org/2000/svg" xmlns:xlink="http://www.w3.org/1999/xlink" x="0px" y="0px"
	 viewBox="0 0 34 34" style="enable-background:new 0 0 34 34;" xml:space="preserve">
<g id="BLOCKS" style="display:none;">
	<rect x="0.026" y="0.022" style="display:inline;fill:#CCCACB;" width="34" height="34"/>
</g>
<g id="INNER_GUDIES">
</g>
<g id="MAIN_GUIDES">
</g>
<g id="ICONS">
	<g>
		<path d="M26.463,13.138H25.98c0.142-0.642,0.224-1.305,0.224-1.99c0-5.086-4.123-9.21-9.21-9.21s-9.21,4.123-9.21,9.21
			c0,0.684,0.083,1.348,0.224,1.99H7.526c-1.381,0-2.5,1.119-2.5,2.5v13.807c0,1.381,1.119,2.5,2.5,2.5h18.938
			c1.381,0,2.5-1.119,2.5-2.5V15.638C28.963,14.257,27.844,13.138,26.463,13.138z M9.785,11.148c0-3.975,3.234-7.21,7.21-7.21
			c3.976,0,7.21,3.234,7.21,7.21c0,0.691-0.108,1.356-0.291,1.99H10.075C9.893,12.505,9.785,11.84,9.785,11.148z M18.085,21.59
			v4.567h-0.001c-0.002,0.234-0.075,0.431-0.222,0.59c-0.149,0.16-0.414,0.241-0.795,0.241c-0.19,0-0.378-0.009-0.562-0.026
			c-0.184-0.018-0.324-0.039-0.419-0.063v-0.742v-0.008V21.59c-0.595-0.346-1-0.984-1-1.723c0-1.105,0.895-2,2-2
			c1.104,0,2,0.895,2,2C19.085,20.606,18.68,21.243,18.085,21.59z"/>
	</g>
</g>
<g id="TITLES">
</g>
</svg>
