<?xml version="1.0" encoding="iso-8859-1"?>
<!-- Generator: Adobe Illustrator 17.1.0, SVG Export Plug-In . SVG Version: 6.00 Build 0)  -->
<!DOCTYPE svg PUBLIC "-//W3C//DTD SVG 1.1//EN" "http://www.w3.org/Graphics/SVG/1.1/DTD/svg11.dtd">
<svg version="1.1" xmlns="http://www.w3.org/2000/svg" xmlns:xlink="http://www.w3.org/1999/xlink" x="0px" y="0px"
	 viewBox="0 0 34 34" style="enable-background:new 0 0 34 34;" xml:space="preserve">
<g id="BLOCKS" style="display:none;">
	<rect x="0.026" y="0.022" style="display:inline;fill:#CCCACB;" width="34" height="34"/>
</g>
<g id="INNER_GUDIES">
</g>
<g id="MAIN_GUIDES">
</g>
<g id="ICONS">
	<g>
		<path d="M17.085,17.951c-1.105,0-2,0.895-2,2c0,0.738,0.405,1.376,1,1.723v4.558v0.008v0.742c0.096,0.024,0.235,0.045,0.42,0.063
			c0.185,0.017,0.372,0.026,0.562,0.026c0.381,0,0.646-0.08,0.795-0.241c0.147-0.159,0.22-0.356,0.222-0.59h0.001v-4.567
			c0.595-0.346,1-0.984,1-1.723C19.085,18.846,18.189,17.951,17.085,17.951z"/>
		<path d="M26.463,13.221H25.98c0.142-0.642,0.224-1.305,0.224-1.99c0-5.086-4.123-9.21-9.21-9.21s-9.21,4.123-9.21,9.21
			c0,0.684,0.083,1.348,0.224,1.99H7.526c-1.381,0-2.5,1.119-2.5,2.5v13.807c0,1.381,1.119,2.5,2.5,2.5h18.938
			c1.381,0,2.5-1.119,2.5-2.5V15.721C28.963,14.341,27.844,13.221,26.463,13.221z M9.785,11.232c0-3.975,3.234-7.21,7.21-7.21
			c3.976,0,7.21,3.234,7.21,7.21c0,0.691-0.108,1.356-0.291,1.99H10.075C9.893,12.588,9.785,11.923,9.785,11.232z M26.963,29.528
			c0,0.276-0.224,0.5-0.5,0.5H7.526c-0.276,0-0.5-0.224-0.5-0.5V15.721c0-0.276,0.224-0.5,0.5-0.5h18.938c0.276,0,0.5,0.224,0.5,0.5
			V29.528z"/>
	</g>
</g>
<g id="TITLES">
</g>
</svg>
