<?xml version="1.0" encoding="iso-8859-1"?>
<!-- Generator: Adobe Illustrator 17.1.0, SVG Export Plug-In . SVG Version: 6.00 Build 0)  -->
<!DOCTYPE svg PUBLIC "-//W3C//DTD SVG 1.1//EN" "http://www.w3.org/Graphics/SVG/1.1/DTD/svg11.dtd">
<svg version="1.1" xmlns="http://www.w3.org/2000/svg" xmlns:xlink="http://www.w3.org/1999/xlink" x="0px" y="0px"
	 viewBox="0 0 34 34" style="enable-background:new 0 0 34 34;" xml:space="preserve">
<g id="BLOCKS" style="display:none;">
	<rect x="0.023" y="0.022" style="display:inline;fill:#CCCACB;" width="34" height="34"/>
</g>
<g id="INNER_GUDIES">
</g>
<g id="MAIN_GUIDES">
</g>
<g id="ICONS">
	<g>
		<g>
			<path d="M14.079,5.029l-0.203-0.002v0l-7.994,0c-0.545,0-0.988,0.443-0.988,0.988v8.13l0.002,0.101
				c0.002,0.23,0.071,0.415,0.21,0.566c0.136,0.147,0.405,0.222,0.797,0.222c0.219,0,0.436-0.01,0.649-0.031
				c0.124-0.012,0.23-0.025,0.317-0.04l0-0.726l0-5.328v-0.48l0.341,0.338l6.459,6.392c0.071-0.053,0.154-0.12,0.248-0.199
				c0.164-0.138,0.324-0.285,0.479-0.441c0.274-0.276,0.419-0.524,0.418-0.716c-0.001-0.197-0.074-0.364-0.222-0.512L8.581,7.344
				L8.237,7.002h0.485l5.359,0l0.713,0c0.014-0.088,0.027-0.194,0.04-0.318c0.02-0.212,0.031-0.429,0.031-0.648
				c0-0.392-0.075-0.661-0.222-0.797C14.493,5.1,14.308,5.032,14.079,5.029z"/>
		</g>
		<g>
			<path d="M19.68,28.99l0.203,0.002v0l7.994,0c0.545,0,0.988-0.443,0.988-0.988v-8.13l-0.002-0.101
				c-0.002-0.23-0.071-0.415-0.21-0.566c-0.136-0.147-0.405-0.222-0.797-0.222c-0.219,0-0.436,0.01-0.649,0.031
				c-0.124,0.012-0.23,0.025-0.317,0.04l0,0.726l0,5.328v0.48l-0.341-0.338l-6.459-6.392c-0.071,0.053-0.154,0.12-0.248,0.199
				c-0.164,0.138-0.324,0.285-0.479,0.441c-0.274,0.276-0.419,0.524-0.418,0.716c0.001,0.197,0.074,0.364,0.222,0.512l6.012,5.948
				l0.345,0.342h-0.485l-5.359,0l-0.713,0c-0.014,0.088-0.027,0.194-0.04,0.318c-0.02,0.212-0.031,0.429-0.031,0.648
				c0,0.392,0.075,0.661,0.222,0.797C19.266,28.919,19.451,28.988,19.68,28.99z"/>
		</g>
	</g>
</g>
<g id="TITLES">
</g>
</svg>
