<?xml version="1.0" encoding="iso-8859-1"?>
<!-- Generator: Adobe Illustrator 17.1.0, SVG Export Plug-In . SVG Version: 6.00 Build 0)  -->
<!DOCTYPE svg PUBLIC "-//W3C//DTD SVG 1.1//EN" "http://www.w3.org/Graphics/SVG/1.1/DTD/svg11.dtd">
<svg version="1.1" xmlns="http://www.w3.org/2000/svg" xmlns:xlink="http://www.w3.org/1999/xlink" x="0px" y="0px"
	 viewBox="0 0 34 34" style="enable-background:new 0 0 34 34;" xml:space="preserve">
<g id="BLOCKS" style="display:none;">
	<rect x="0.026" y="0.022" style="display:inline;fill:#CCCACB;" width="34" height="34"/>
</g>
<g id="INNER_GUDIES">
</g>
<g id="MAIN_GUIDES">
</g>
<g id="ICONS">
	<g>
		<path style="fill:#121212;" d="M29.107,1.996H5.065c-1.657,0-3.005,1.348-3.005,3.005v24.043c0,1.657,1.348,3.005,3.005,3.005
			h24.042c1.657,0,3.005-1.348,3.005-3.005V5.001C32.113,3.344,30.764,1.996,29.107,1.996z M14.836,6.601
			c-0.012,0.124-0.026,0.23-0.04,0.318l-0.713,0l-5.359,0H8.24l0.345,0.342l6.012,5.948c0.149,0.148,0.221,0.315,0.222,0.512
			c0.001,0.192-0.144,0.439-0.418,0.716c-0.155,0.156-0.315,0.303-0.479,0.441c-0.094,0.08-0.177,0.146-0.248,0.199L7.214,8.684
			L6.873,8.346v0.48l0,5.328l0,0.726c-0.088,0.014-0.194,0.027-0.317,0.04c-0.213,0.02-0.43,0.031-0.649,0.031
			c-0.392,0-0.661-0.075-0.797-0.222c-0.14-0.151-0.208-0.336-0.21-0.566l-0.002-0.101v-8.13c0-0.545,0.443-0.988,0.988-0.988
			l7.994,0v0l0.203,0.002c0.229,0.002,0.414,0.071,0.563,0.209c0.147,0.137,0.222,0.405,0.222,0.797
			C14.867,6.172,14.856,6.388,14.836,6.601z M28.867,27.922c0,0.545-0.443,0.988-0.988,0.988l-7.994,0v0l-0.203-0.002
			c-0.229-0.002-0.414-0.071-0.563-0.209c-0.147-0.137-0.222-0.405-0.222-0.797c0-0.219,0.01-0.436,0.031-0.648
			c0.012-0.124,0.026-0.23,0.04-0.318l0.713,0l5.359,0h0.485l-0.345-0.342l-6.012-5.948c-0.149-0.148-0.221-0.315-0.222-0.512
			c-0.001-0.192,0.144-0.439,0.418-0.716c0.155-0.156,0.315-0.303,0.479-0.441c0.094-0.08,0.177-0.146,0.248-0.199l6.459,6.392
			l0.341,0.338v-0.48l0-5.328l0-0.726c0.088-0.014,0.194-0.027,0.317-0.04c0.213-0.02,0.43-0.031,0.649-0.031
			c0.392,0,0.661,0.075,0.797,0.222c0.14,0.151,0.208,0.336,0.21,0.566l0.002,0.101V27.922z"/>
	</g>
</g>
<g id="TITLES">
</g>
</svg>
