<?xml version="1.0" encoding="iso-8859-1"?>
<!-- Generator: Adobe Illustrator 17.1.0, SVG Export Plug-In . SVG Version: 6.00 Build 0)  -->
<!DOCTYPE svg PUBLIC "-//W3C//DTD SVG 1.1//EN" "http://www.w3.org/Graphics/SVG/1.1/DTD/svg11.dtd">
<svg version="1.1" xmlns="http://www.w3.org/2000/svg" xmlns:xlink="http://www.w3.org/1999/xlink" x="0px" y="0px"
	 viewBox="0 0 34 34" style="enable-background:new 0 0 34 34;" xml:space="preserve">
<g id="BLOCKS" style="display:none;">
	<rect x="0.026" y="0.022" style="display:inline;fill:#CCCACB;" width="34" height="34"/>
</g>
<g id="INNER_GUDIES">
</g>
<g id="MAIN_GUIDES">
</g>
<g id="ICONS">
	<g>
		<path d="M16.865,1.014c-8.837,0-16,7.163-16,16s7.163,16,16,16s16-7.163,16-16S25.701,1.014,16.865,1.014z M25.854,17.762
			c-0.006,0.065-0.012,0.124-0.019,0.177H8.651c-0.232,0-0.409-0.064-0.558-0.201c-0.128-0.119-0.201-0.42-0.201-0.826
			c0-0.265,0.013-0.533,0.037-0.795c0.007-0.066,0.013-0.125,0.02-0.178l17.184,0c0.232,0,0.409,0.064,0.557,0.201
			c0.128,0.119,0.202,0.42,0.202,0.826C25.893,17.234,25.88,17.502,25.854,17.762z"/>
	</g>
</g>
<g id="TITLES">
</g>
</svg>
