<?xml version="1.0" encoding="iso-8859-1"?>
<!-- Generator: Adobe Illustrator 17.1.0, SVG Export Plug-In . SVG Version: 6.00 Build 0)  -->
<!DOCTYPE svg PUBLIC "-//W3C//DTD SVG 1.1//EN" "http://www.w3.org/Graphics/SVG/1.1/DTD/svg11.dtd">
<svg version="1.1" xmlns="http://www.w3.org/2000/svg" xmlns:xlink="http://www.w3.org/1999/xlink" x="0px" y="0px"
	 viewBox="0 0 34 34" style="enable-background:new 0 0 34 34;" xml:space="preserve">
<g id="BLOCKS" style="display:none;">
	<rect x="0.027" y="0.022" style="display:inline;fill:#CCCACB;" width="34" height="34"/>
</g>
<g id="INNER_GUDIES">
</g>
<g id="MAIN_GUIDES">
</g>
<g id="ICONS">
	<path style="fill:#010101;" d="M22.069,7.388H12.058c-0.833,0-1.51,0.677-1.51,1.511v21.655c0,0.834,0.677,1.51,1.51,1.51h10.011
		c0.833,0,1.51-0.676,1.51-1.51V8.899C23.58,8.065,22.903,7.388,22.069,7.388z M17.175,30.772c-0.414,0-0.75-0.336-0.75-0.75
		s0.336-0.75,0.75-0.75c0.414,0,0.75,0.336,0.75,0.75S17.589,30.772,17.175,30.772z M21.58,28.076h-9.031V9.388h9.031V28.076z"/>
</g>
<g id="TITLES">
</g>
</svg>
