<?xml version="1.0" encoding="iso-8859-1"?>
<!-- Generator: Adobe Illustrator 17.1.0, SVG Export Plug-In . SVG Version: 6.00 Build 0)  -->
<!DOCTYPE svg PUBLIC "-//W3C//DTD SVG 1.1//EN" "http://www.w3.org/Graphics/SVG/1.1/DTD/svg11.dtd">
<svg version="1.1" xmlns="http://www.w3.org/2000/svg" xmlns:xlink="http://www.w3.org/1999/xlink" x="0px" y="0px"
	 viewBox="0 0 34 34" style="enable-background:new 0 0 34 34;" xml:space="preserve">
<g id="BLOCKS" style="display:none;">
	<rect x="0.026" y="0.022" style="display:inline;fill:#CCCACB;" width="34" height="34"/>
</g>
<g id="INNER_GUDIES">
</g>
<g id="MAIN_GUIDES">
</g>
<g id="ICONS">
	<path style="fill:#121212;" d="M24.534,2.369L11.869,7.318l-0.612,0.239c-0.005,0.002-0.01,0.008-0.015,0.01
		c-0.331,0.134-0.568,0.469-0.568,0.868l-0.008,0.001v16.199c-1.013-0.433-2.275-0.471-3.511,0.02
		c-2.278,0.903-3.574,3.206-2.896,5.143c0.679,1.937,3.076,2.776,5.354,1.873c1.974-0.783,3.205-2.616,3.059-4.351h0.006V12.511
		l12.134-4.808v11.25c-1.012-0.433-2.273-0.471-3.509,0.018c-2.278,0.901-3.576,3.203-2.899,5.141
		c0.678,1.938,3.074,2.778,5.352,1.876c1.971-0.78,3.202-2.607,3.062-4.341h0.005V7.906V2.978V2.399
		C26.063,1.974,25.153,2.126,24.534,2.369z"/>
</g>
<g id="TITLES">
</g>
</svg>
