<?xml version="1.0" encoding="iso-8859-1"?>
<!-- Generator: Adobe Illustrator 17.1.0, SVG Export Plug-In . SVG Version: 6.00 Build 0)  -->
<!DOCTYPE svg PUBLIC "-//W3C//DTD SVG 1.1//EN" "http://www.w3.org/Graphics/SVG/1.1/DTD/svg11.dtd">
<svg version="1.1" xmlns="http://www.w3.org/2000/svg" xmlns:xlink="http://www.w3.org/1999/xlink" x="0px" y="0px"
	 viewBox="0 0 34 34" style="enable-background:new 0 0 34 34;" xml:space="preserve">
<g id="BLOCKS" style="display:none;">
	<rect x="0.027" y="0.022" style="display:inline;fill:#CCCACB;" width="34" height="34"/>
</g>
<g id="INNER_GUDIES">
</g>
<g id="MAIN_GUIDES">
</g>
<g id="ICONS">
	<g>
		<path d="M22.851,22.361l-5.066-4.899c0.012-0.062,0.032-0.119,0.033-0.187h0.001V9.109V9.052V8.339
			c-0.098-0.024-0.242-0.046-0.431-0.064c-0.19-0.018-0.382-0.027-0.577-0.027c-0.391,0-0.663,0.082-0.816,0.247
			c-0.14,0.152-0.208,0.34-0.22,0.558h-0.01v8.214v0.008v0.762l0.001,0c0.009,0.205,0.094,0.385,0.239,0.546l-0.007,0.007
			l5.394,5.217l0.006,0.006l0.539,0.539c0.087-0.052,0.203-0.138,0.35-0.259c0.147-0.122,0.29-0.251,0.427-0.389
			c0.277-0.277,0.411-0.527,0.402-0.752C23.109,22.729,23.019,22.533,22.851,22.361L22.851,22.361z"/>
		<path d="M30.124,17.488c0-6.473-4.667-11.869-10.81-13.021c-0.112-1.26-1.157-2.252-2.446-2.252c-1.289,0-2.334,0.992-2.446,2.252
			c-6.144,1.152-10.81,6.548-10.81,13.021c0,4.145,1.915,7.849,4.903,10.281l-2.338,2.338l0.001,0.001
			c-0.169,0.171-0.259,0.367-0.268,0.59c-0.008,0.225,0.126,0.475,0.402,0.752c0.138,0.138,0.281,0.268,0.427,0.389
			c0.147,0.121,0.264,0.207,0.35,0.259l0.539-0.539l0.006-0.006l2.603-2.603c1.953,1.134,4.214,1.795,6.63,1.795
			c2.429,0,4.7-0.668,6.66-1.813l2.597,2.597l0.006,0.006l0.539,0.539c0.087-0.052,0.203-0.138,0.35-0.259
			c0.147-0.122,0.29-0.251,0.427-0.389c0.277-0.277,0.411-0.527,0.402-0.752c-0.009-0.222-0.099-0.419-0.268-0.59l0.001-0.001
			l-2.334-2.334C28.222,25.315,30.124,21.62,30.124,17.488z M5.556,17.488c0-6.237,5.074-11.311,11.312-11.311
			c6.237,0,11.311,5.074,11.311,11.311s-5.074,11.311-11.311,11.311C10.631,28.799,5.556,23.725,5.556,17.488z"/>
		<path d="M10.064,3.823c-0.46-0.619-1.076-1.12-1.798-1.406C4.53,0.938,1.008,4.261,2.113,7.972
			c0.253,0.85,0.767,1.593,1.443,2.141C4.927,7.334,7.231,5.099,10.064,3.823z"/>
		<path d="M25.566,2.417c-0.722,0.286-1.338,0.787-1.798,1.406c2.833,1.277,5.137,3.511,6.509,6.291
			c0.676-0.548,1.19-1.291,1.443-2.141C32.824,4.261,29.301,0.938,25.566,2.417z"/>
	</g>
</g>
<g id="TITLES">
</g>
</svg>
