<?xml version="1.0" encoding="iso-8859-1"?>
<!-- Generator: Adobe Illustrator 17.1.0, SVG Export Plug-In . SVG Version: 6.00 Build 0)  -->
<!DOCTYPE svg PUBLIC "-//W3C//DTD SVG 1.1//EN" "http://www.w3.org/Graphics/SVG/1.1/DTD/svg11.dtd">
<svg version="1.1" xmlns="http://www.w3.org/2000/svg" xmlns:xlink="http://www.w3.org/1999/xlink" x="0px" y="0px"
	 viewBox="0 0 34 34" style="enable-background:new 0 0 34 34;" xml:space="preserve">
<g id="BLOCKS" style="display:none;">
	<rect x="0.026" y="0.022" style="display:inline;fill:#CCCACB;" width="34" height="34"/>
</g>
<g id="INNER_GUDIES">
</g>
<g id="MAIN_GUIDES">
</g>
<g id="ICONS">
	<g>
		<path d="M30.123,17.404c0-6.473-4.667-11.869-10.81-13.021c-0.112-1.26-1.157-2.252-2.446-2.252c-1.289,0-2.334,0.992-2.446,2.252
			C8.276,5.536,3.61,10.931,3.61,17.404c0,4.145,1.915,7.849,4.903,10.281l-2.338,2.338l0.001,0.001
			c-0.169,0.171-0.259,0.367-0.268,0.59c-0.008,0.225,0.126,0.475,0.402,0.752c0.138,0.138,0.281,0.268,0.427,0.389
			c0.147,0.121,0.264,0.207,0.35,0.259l0.539-0.539l0.006-0.006l2.603-2.603c1.953,1.134,4.214,1.795,6.63,1.795
			c2.429,0,4.7-0.668,6.66-1.813l2.597,2.597l0.006,0.006l0.539,0.539c0.087-0.052,0.203-0.138,0.35-0.259
			c0.147-0.122,0.29-0.251,0.427-0.389c0.277-0.277,0.411-0.527,0.402-0.752c-0.009-0.222-0.099-0.419-0.268-0.59l0.001-0.001
			l-2.334-2.334C28.22,25.232,30.123,21.537,30.123,17.404z M22.714,23.62c-0.138,0.138-0.281,0.268-0.427,0.389
			c-0.147,0.121-0.264,0.207-0.35,0.259l-0.539-0.539l-0.006-0.006l-5.394-5.217l0.007-0.007c-0.145-0.161-0.229-0.341-0.239-0.546
			l-0.001,0v-0.762v-0.008V8.969h0.01c0.012-0.218,0.079-0.407,0.219-0.558c0.153-0.165,0.425-0.247,0.816-0.247
			c0.195,0,0.388,0.009,0.577,0.027c0.189,0.018,0.333,0.04,0.431,0.064v0.714v0.056v8.166h-0.001c0,0.068-0.021,0.125-0.033,0.187
			l5.066,4.899l-0.001,0.001c0.169,0.171,0.259,0.367,0.268,0.59C23.124,23.093,22.991,23.343,22.714,23.62z"/>
		<path d="M10.062,3.739c-0.46-0.619-1.076-1.12-1.798-1.406C4.529,0.855,1.006,4.177,2.111,7.889
			c0.253,0.85,0.767,1.593,1.443,2.141C4.926,7.251,7.229,5.016,10.062,3.739z"/>
		<path d="M25.564,2.334c-0.722,0.286-1.338,0.787-1.798,1.406c2.833,1.277,5.137,3.511,6.509,6.291
			c0.676-0.548,1.19-1.291,1.443-2.141C32.822,4.177,29.3,0.855,25.564,2.334z"/>
	</g>
</g>
<g id="TITLES">
</g>
</svg>
