<?xml version="1.0" encoding="iso-8859-1"?>
<!-- Generator: Adobe Illustrator 17.1.0, SVG Export Plug-In . SVG Version: 6.00 Build 0)  -->
<!DOCTYPE svg PUBLIC "-//W3C//DTD SVG 1.1//EN" "http://www.w3.org/Graphics/SVG/1.1/DTD/svg11.dtd">
<svg version="1.1" xmlns="http://www.w3.org/2000/svg" xmlns:xlink="http://www.w3.org/1999/xlink" x="0px" y="0px"
	 viewBox="0 0 34 34" style="enable-background:new 0 0 34 34;" xml:space="preserve">
<g id="BLOCKS" style="display:none;">
	<rect x="0.027" y="0.021" style="display:inline;fill:#CCCACB;" width="34" height="34"/>
</g>
<g id="INNER_GUDIES">
</g>
<g id="MAIN_GUIDES">
</g>
<g id="ICONS">
	<g>
		<g>
			<g id="Play_5_">
				<path id="play__x28_compound_x29__3_" d="M19.084,17.775l-5.515,5.492c-0.851,0.848-2.093,1.852-3.168,0.781V9.977
					c1.075-1.072,2.317-0.067,3.168,0.781l5.515,5.492C19.507,16.671,19.507,17.354,19.084,17.775z"/>
			</g>
		</g>
	</g>
	<g>
		<path id="pause__x28_compound_x29__3_" d="M22.373,24.503c-0.286,0-0.567-0.014-0.843-0.041c-0.277-0.026-0.487-0.057-0.63-0.093
			V10.781c0-0.357,0.111-0.656,0.335-0.898c0.223-0.241,0.62-0.361,1.192-0.361c0.285,0,0.567,0.014,0.844,0.04
			c0.276,0.027,0.486,0.059,0.629,0.094v13.587c0,0.358-0.112,0.657-0.335,0.898C23.342,24.381,22.944,24.503,22.373,24.503z"/>
	</g>
</g>
<g id="TITLES">
</g>
</svg>
