<?xml version="1.0" encoding="iso-8859-1"?>
<!-- Generator: Adobe Illustrator 17.1.0, SVG Export Plug-In . SVG Version: 6.00 Build 0)  -->
<!DOCTYPE svg PUBLIC "-//W3C//DTD SVG 1.1//EN" "http://www.w3.org/Graphics/SVG/1.1/DTD/svg11.dtd">
<svg version="1.1" xmlns="http://www.w3.org/2000/svg" xmlns:xlink="http://www.w3.org/1999/xlink" x="0px" y="0px"
	 viewBox="0 0 34 34" style="enable-background:new 0 0 34 34;" xml:space="preserve">
<g id="BLOCKS" style="display:none;">
	<rect x="0.014" y="0.022" style="display:inline;fill:#CCCACB;" width="34" height="34"/>
</g>
<g id="INNER_GUDIES">
</g>
<g id="MAIN_GUIDES">
</g>
<g id="ICONS">
	<g>
		<path d="M16.931,24.954c0.871,0,1.675-0.11,2.389-0.327c0.708-0.215,1.314-0.524,1.803-0.919c0.483-0.391,0.864-0.879,1.131-1.451
			c0.266-0.573,0.401-1.224,0.401-1.935c0-0.999-0.297-1.826-0.884-2.458c-0.593-0.64-1.344-1.044-2.235-1.201l-1.012-0.178
			l0.981-0.306c0.798-0.249,1.438-0.671,1.905-1.253c0.461-0.576,0.695-1.292,0.695-2.128c0-0.564-0.095-1.1-0.284-1.596
			c-0.185-0.484-0.478-0.909-0.871-1.263c-0.398-0.358-0.92-0.647-1.55-0.86c-0.638-0.215-1.41-0.324-2.295-0.324
			c-1.137,0-2.148,0.131-3.003,0.389c-0.801,0.242-1.512,0.529-2.116,0.854c0.03,0.494,0.139,0.887,0.327,1.167
			c0.188,0.282,0.416,0.414,0.717,0.414c0.204,0,0.411-0.037,0.616-0.11c0.235-0.084,0.503-0.176,0.805-0.277
			c0.302-0.101,0.652-0.196,1.038-0.282c0.39-0.087,0.867-0.131,1.417-0.131c0.543,0,1.005,0.068,1.373,0.203
			c0.371,0.136,0.681,0.317,0.921,0.538c0.247,0.228,0.425,0.498,0.53,0.803c0.1,0.293,0.15,0.598,0.15,0.906
			c0,0.827-0.276,1.465-0.819,1.896c-0.533,0.423-1.361,0.629-2.53,0.629h-2.403c-0.048,0.237-0.072,0.514-0.072,0.825
			c0,0.363,0.068,0.615,0.201,0.749c0.136,0.136,0.299,0.202,0.498,0.202h2c1.279,0,2.162,0.252,2.699,0.77
			c0.532,0.513,0.801,1.137,0.801,1.855c0,0.821-0.288,1.497-0.857,2.01c-0.561,0.507-1.409,0.765-2.518,0.765
			c-0.601,0-1.125-0.053-1.558-0.157c-0.426-0.102-0.803-0.21-1.122-0.319c-0.321-0.11-0.608-0.215-0.862-0.317
			c-0.219-0.088-0.44-0.132-0.657-0.132c-0.287,0-0.508,0.125-0.696,0.393c-0.186,0.266-0.295,0.659-0.324,1.168
			c0.665,0.389,1.407,0.717,2.209,0.976C14.716,24.815,15.746,24.954,16.931,24.954z"/>
		<path d="M16.853,3.022c7.72,0,14,6.28,14,14s-6.28,14-14,14s-14-6.28-14-14S9.134,3.022,16.853,3.022 M16.853,1.022
			c-8.837,0-16,7.163-16,16s7.163,16,16,16c8.837,0,16-7.163,16-16S25.69,1.022,16.853,1.022L16.853,1.022z"/>
	</g>
</g>
<g id="TITLES">
</g>
</svg>
