<?xml version="1.0" encoding="iso-8859-1"?>
<!-- Generator: Adobe Illustrator 17.1.0, SVG Export Plug-In . SVG Version: 6.00 Build 0)  -->
<!DOCTYPE svg PUBLIC "-//W3C//DTD SVG 1.1//EN" "http://www.w3.org/Graphics/SVG/1.1/DTD/svg11.dtd">
<svg version="1.1" xmlns="http://www.w3.org/2000/svg" xmlns:xlink="http://www.w3.org/1999/xlink" x="0px" y="0px"
	 viewBox="0 0 34 34" style="enable-background:new 0 0 34 34;" xml:space="preserve">
<g id="BLOCKS" style="display:none;">
	<rect x="0.027" y="0.022" style="display:inline;fill:#CCCACB;" width="34" height="34"/>
</g>
<g id="INNER_GUDIES">
</g>
<g id="MAIN_GUIDES">
</g>
<g id="ICONS">
	<g>
		<path d="M22.351,22.077c0.246-0.625,0.37-1.314,0.37-2.046c0-0.63-0.124-1.241-0.368-1.814c-0.244-0.573-0.595-1.084-1.044-1.519
			c-0.45-0.434-1.007-0.786-1.658-1.047c-0.651-0.262-1.393-0.395-2.208-0.395c-0.713,0-1.282,0.086-1.692,0.256
			c-0.425,0.177-0.826,0.395-1.19,0.649l-0.46,0.32l0.069-0.556l0.553-4.475l0.027-0.219h0.221h6.1c0.25,0,0.445-0.074,0.599-0.227
			c0.148-0.148,0.226-0.441,0.226-0.848c0-0.363-0.025-0.673-0.073-0.925h-8.8L12.19,17.46l1.616,0.568
			c0.418-0.294,0.853-0.534,1.295-0.715c0.496-0.204,1.134-0.307,1.896-0.307c0.954,0,1.765,0.267,2.408,0.795
			c0.658,0.539,0.991,1.289,0.991,2.23c0,0.934-0.304,1.697-0.903,2.269c-0.596,0.568-1.537,0.856-2.798,0.856
			c-0.518,0-0.985-0.044-1.389-0.131c-0.394-0.083-0.754-0.174-1.069-0.268c-0.312-0.092-0.591-0.181-0.836-0.266
			c-0.215-0.074-0.411-0.111-0.581-0.111c-0.305,0-0.556,0.129-0.766,0.394c-0.203,0.254-0.314,0.645-0.331,1.163
			c0.663,0.371,1.403,0.675,2.204,0.903c0.849,0.242,1.797,0.365,2.819,0.365c0.999,0,1.884-0.134,2.628-0.398
			c0.739-0.263,1.366-0.632,1.863-1.097C21.732,23.249,22.106,22.699,22.351,22.077z"/>
		<path d="M16.866,3.022c7.72,0,14,6.28,14,14s-6.28,14-14,14s-14-6.28-14-14S9.147,3.022,16.866,3.022 M16.866,1.022
			c-8.837,0-16,7.163-16,16s7.163,16,16,16c8.837,0,16-7.163,16-16S25.703,1.022,16.866,1.022L16.866,1.022z"/>
	</g>
</g>
<g id="TITLES">
</g>
</svg>
