<?xml version="1.0" encoding="iso-8859-1"?>
<!-- Generator: Adobe Illustrator 17.1.0, SVG Export Plug-In . SVG Version: 6.00 Build 0)  -->
<!DOCTYPE svg PUBLIC "-//W3C//DTD SVG 1.1//EN" "http://www.w3.org/Graphics/SVG/1.1/DTD/svg11.dtd">
<svg version="1.1" xmlns="http://www.w3.org/2000/svg" xmlns:xlink="http://www.w3.org/1999/xlink" x="0px" y="0px"
	 viewBox="0 0 34 34" style="enable-background:new 0 0 34 34;" xml:space="preserve">
<g id="BLOCKS" style="display:none;">
	<rect x="0.027" y="0.022" style="display:inline;fill:#CCCACB;" width="34" height="34"/>
</g>
<g id="INNER_GUDIES">
</g>
<g id="MAIN_GUIDES">
</g>
<g id="ICONS">
	<g>
		<path d="M14.131,24.949c0.704,0.154,1.43,0.232,2.159,0.232c2.132,0,3.819-0.682,5.013-2.028c1.202-1.354,1.812-3.431,1.812-6.172
			c0-2.694-0.549-4.731-1.631-6.054c-1.07-1.308-2.565-1.971-4.444-1.971c-0.884,0-1.677,0.133-2.359,0.395
			c-0.682,0.262-1.268,0.631-1.74,1.095c-0.474,0.465-0.842,1.017-1.094,1.64c-0.253,0.624-0.381,1.312-0.381,2.044
			c0,0.671,0.104,1.312,0.31,1.905c0.204,0.589,0.519,1.115,0.935,1.562c0.416,0.447,0.946,0.809,1.577,1.077
			c0.631,0.269,1.389,0.406,2.252,0.406c0.861,0,1.601-0.136,2.199-0.404c0.606-0.271,1.173-0.643,1.685-1.107l0.444-0.402
			l-0.027,0.599c-0.086,1.918-0.508,3.308-1.252,4.131c-0.754,0.834-1.864,1.257-3.299,1.257c-0.349,0-0.664-0.026-0.934-0.079
			c-0.262-0.051-0.505-0.102-0.732-0.152c-0.227-0.05-0.445-0.1-0.655-0.152c-0.186-0.044-0.381-0.067-0.578-0.067
			c-0.451,0-1.05,0.155-1.05,1.5c0,0.03,0.003,0.083,0.01,0.159C12.881,24.611,13.48,24.807,14.131,24.949z M20.667,15.933
			c-0.487,0.487-1.022,0.858-1.591,1.103c-0.569,0.245-1.254,0.37-2.036,0.37c-1.086,0-1.918-0.309-2.472-0.919
			c-0.549-0.603-0.828-1.396-0.828-2.356c0-0.981,0.311-1.789,0.924-2.402c0.612-0.612,1.412-0.923,2.376-0.923
			c0.64,0,1.197,0.123,1.655,0.367c0.459,0.242,0.843,0.594,1.141,1.045c0.289,0.438,0.511,0.965,0.659,1.565
			c0.145,0.59,0.227,1.252,0.244,1.967l0.003,0.107L20.667,15.933z"/>
		<path d="M16.866,3.022c7.72,0,14,6.28,14,14s-6.28,14-14,14s-14-6.28-14-14S9.147,3.022,16.866,3.022 M16.866,1.022
			c-8.837,0-16,7.163-16,16s7.163,16,16,16c8.837,0,16-7.163,16-16S25.703,1.022,16.866,1.022L16.866,1.022z"/>
	</g>
</g>
<g id="TITLES">
</g>
</svg>
