<?xml version="1.0" encoding="iso-8859-1"?>
<!-- Generator: Adobe Illustrator 17.1.0, SVG Export Plug-In . SVG Version: 6.00 Build 0)  -->
<!DOCTYPE svg PUBLIC "-//W3C//DTD SVG 1.1//EN" "http://www.w3.org/Graphics/SVG/1.1/DTD/svg11.dtd">
<svg version="1.1" xmlns="http://www.w3.org/2000/svg" xmlns:xlink="http://www.w3.org/1999/xlink" x="0px" y="0px"
	 viewBox="0 0 34 34" style="enable-background:new 0 0 34 34;" xml:space="preserve">
<g id="BLOCKS" style="display:none;">
	<rect x="0.042" y="0.022" style="display:inline;fill:#CCCACB;" width="34" height="34"/>
</g>
<g id="INNER_GUDIES">
</g>
<g id="MAIN_GUIDES">
</g>
<g id="ICONS">
	<g>
		<path d="M17.89,25.05c0.098,0.016,0.216,0.031,0.35,0.044c0.234,0.024,0.486,0.036,0.75,0.036c0.433,0,0.736-0.083,0.876-0.241
			c0.15-0.17,0.224-0.378,0.224-0.634v-2.649v-0.25h0.25h1.575c0.223,0,0.41-0.07,0.572-0.213c0.149-0.131,0.228-0.412,0.228-0.813
			c0-0.349-0.025-0.651-0.073-0.899H20.34h-0.25v-0.25v-9.95h-2.571l-6.727,9.519c-0.219,0.313-0.377,0.603-0.468,0.863
			c-0.09,0.255-0.136,0.521-0.136,0.792c0,0.252,0.016,0.474,0.047,0.659c0.018,0.107,0.035,0.204,0.053,0.291h7.352h0.25v0.25
			V25.05z M17.64,19.456h-4.699h-0.483l0.279-0.394l4.699-6.649l0.454-0.643v0.787v6.649v0.25H17.64z"/>
		<path d="M16.881,3.022c7.72,0,14,6.28,14,14s-6.28,14-14,14s-14-6.28-14-14S9.161,3.022,16.881,3.022 M16.881,1.022
			c-8.837,0-16,7.163-16,16s7.163,16,16,16c8.837,0,16-7.163,16-16S25.717,1.022,16.881,1.022L16.881,1.022z"/>
	</g>
</g>
<g id="TITLES">
</g>
</svg>
