<?xml version="1.0" encoding="iso-8859-1"?>
<!-- Generator: Adobe Illustrator 17.1.0, SVG Export Plug-In . SVG Version: 6.00 Build 0)  -->
<!DOCTYPE svg PUBLIC "-//W3C//DTD SVG 1.1//EN" "http://www.w3.org/Graphics/SVG/1.1/DTD/svg11.dtd">
<svg version="1.1" xmlns="http://www.w3.org/2000/svg" xmlns:xlink="http://www.w3.org/1999/xlink" x="0px" y="0px"
	 viewBox="0 0 34 34" style="enable-background:new 0 0 34 34;" xml:space="preserve">
<g id="BLOCKS" style="display:none;">
	<rect x="0.026" y="0.022" style="display:inline;fill:#CCCACB;" width="34" height="34"/>
</g>
<g id="INNER_GUDIES">
</g>
<g id="MAIN_GUIDES">
</g>
<g id="ICONS">
	<g>
		<path d="M20.494,13.7c-0.148-0.601-0.37-1.127-0.659-1.565c-0.298-0.451-0.682-0.802-1.141-1.045
			c-0.459-0.244-1.016-0.367-1.655-0.367c-0.964,0-1.764,0.31-2.376,0.923c-0.613,0.613-0.924,1.421-0.924,2.402
			c0,0.96,0.279,1.753,0.828,2.356c0.554,0.61,1.386,0.919,2.472,0.919c0.782,0,1.467-0.125,2.036-0.37
			c0.569-0.245,1.104-0.616,1.591-1.103l0.076-0.076l-0.003-0.107C20.722,14.952,20.639,14.29,20.494,13.7z"/>
		<path d="M16.865,1.014c-8.837,0-16,7.163-16,16s7.163,16,16,16s16-7.163,16-16S25.701,1.014,16.865,1.014z M21.302,23.069
			c-1.195,1.346-2.881,2.028-5.013,2.028c-0.729,0-1.455-0.078-2.159-0.232c-0.652-0.142-1.25-0.338-1.781-0.584
			c-0.007-0.076-0.01-0.129-0.01-0.159c0-1.345,0.599-1.5,1.05-1.5c0.197,0,0.392,0.023,0.578,0.067
			c0.21,0.051,0.428,0.101,0.655,0.152c0.227,0.05,0.47,0.1,0.732,0.152c0.27,0.052,0.585,0.079,0.934,0.079
			c1.435,0,2.545-0.423,3.299-1.257c0.744-0.823,1.166-2.213,1.252-4.131l0.027-0.599l-0.444,0.402
			c-0.512,0.463-1.079,0.835-1.685,1.107c-0.598,0.268-1.337,0.404-2.199,0.404c-0.863,0-1.62-0.137-2.252-0.406
			c-0.631-0.268-1.161-0.63-1.577-1.077c-0.416-0.447-0.731-0.973-0.935-1.562c-0.206-0.594-0.31-1.235-0.31-1.905
			c0-0.732,0.128-1.42,0.381-2.044c0.252-0.623,0.62-1.175,1.094-1.64c0.472-0.465,1.057-0.833,1.74-1.095
			c0.682-0.262,1.476-0.395,2.359-0.395c1.879,0,3.374,0.663,4.444,1.971c1.082,1.323,1.631,3.359,1.631,6.054
			C23.114,19.638,22.504,21.715,21.302,23.069z"/>
	</g>
</g>
<g id="TITLES">
</g>
</svg>
