<?xml version="1.0" encoding="iso-8859-1"?>
<!-- Generator: Adobe Illustrator 17.1.0, SVG Export Plug-In . SVG Version: 6.00 Build 0)  -->
<!DOCTYPE svg PUBLIC "-//W3C//DTD SVG 1.1//EN" "http://www.w3.org/Graphics/SVG/1.1/DTD/svg11.dtd">
<svg version="1.1" xmlns="http://www.w3.org/2000/svg" xmlns:xlink="http://www.w3.org/1999/xlink" x="0px" y="0px"
	 viewBox="0 0 34 34" style="enable-background:new 0 0 34 34;" xml:space="preserve">
<g id="BLOCKS" style="display:none;">
	<rect x="0.026" y="0.022" style="display:inline;fill:#CCCACB;" width="34" height="34"/>
</g>
<g id="INNER_GUDIES">
</g>
<g id="MAIN_GUIDES">
</g>
<g id="ICONS">
	<g>
		<path d="M16.865,1.014c-8.837,0-16,7.163-16,16s7.163,16,16,16s16-7.163,16-16S25.701,1.014,16.865,1.014z M22.214,24.374
			c-0.162,0.149-0.365,0.222-0.618,0.222h-9.945c-0.013-0.08-0.023-0.168-0.031-0.263c-0.016-0.187-0.023-0.385-0.023-0.596
			c0-0.262,0.055-0.577,0.164-0.936c0.102-0.341,0.273-0.607,0.527-0.818l4.496-4.023c0.475-0.409,0.908-0.799,1.285-1.159
			c0.376-0.36,0.697-0.715,0.952-1.055c0.261-0.348,0.465-0.703,0.607-1.057c0.145-0.363,0.218-0.756,0.218-1.168
			c0-0.866-0.269-1.569-0.8-2.09c-0.53-0.521-1.337-0.785-2.4-0.785c-0.525,0-1.002,0.072-1.419,0.214
			c-0.403,0.138-0.769,0.295-1.088,0.467l-0.837,0.449c-0.211,0.113-0.407,0.171-0.581,0.171c-0.284,0-0.499-0.127-0.679-0.401
			c-0.184-0.278-0.297-0.667-0.338-1.16c0.547-0.419,1.245-0.809,2.076-1.16c0.873-0.368,1.879-0.555,2.991-0.555
			c1.726,0,3.073,0.44,4.004,1.308c0.926,0.863,1.395,2.021,1.395,3.442c0,0.553-0.083,1.072-0.248,1.542
			c-0.167,0.475-0.405,0.934-0.707,1.364c-0.304,0.432-0.663,0.849-1.068,1.238c-0.411,0.394-0.867,0.784-1.366,1.167l-3.9,3.375
			l-0.507,0.439h0.671h7.327c0.049,0.254,0.074,0.573,0.074,0.95C22.446,23.93,22.366,24.234,22.214,24.374z"/>
	</g>
</g>
<g id="TITLES">
</g>
</svg>
