<?xml version="1.0" encoding="iso-8859-1"?>
<!-- Generator: Adobe Illustrator 17.1.0, SVG Export Plug-In . SVG Version: 6.00 Build 0)  -->
<!DOCTYPE svg PUBLIC "-//W3C//DTD SVG 1.1//EN" "http://www.w3.org/Graphics/SVG/1.1/DTD/svg11.dtd">
<svg version="1.1" xmlns="http://www.w3.org/2000/svg" xmlns:xlink="http://www.w3.org/1999/xlink" x="0px" y="0px"
	 viewBox="0 0 34 34" style="enable-background:new 0 0 34 34;" xml:space="preserve">
<g id="BLOCKS" style="display:none;">
	<rect x="0.026" y="0.022" style="display:inline;fill:#CCCACB;" width="34" height="34"/>
</g>
<g id="INNER_GUDIES">
</g>
<g id="MAIN_GUIDES">
</g>
<g id="ICONS">
	<g>
		<polygon points="12.721,18.978 12.442,19.372 12.925,19.372 17.624,19.372 17.874,19.372 17.874,19.122 17.874,12.473 
			17.874,11.686 17.42,12.329 		"/>
		<path d="M16.865,1.014c-8.837,0-16,7.163-16,16s7.163,16,16,16s16-7.163,16-16S25.701,1.014,16.865,1.014z M22.471,21.06
			c-0.162,0.143-0.349,0.213-0.572,0.213h-1.575h-0.25v0.25v2.649c0,0.256-0.073,0.464-0.224,0.634
			c-0.14,0.157-0.443,0.241-0.876,0.241c-0.264,0-0.516-0.012-0.75-0.036c-0.135-0.014-0.252-0.029-0.351-0.044v-3.444v-0.25h-0.25
			h-7.352c-0.018-0.087-0.036-0.184-0.053-0.291c-0.031-0.186-0.047-0.407-0.047-0.659c0-0.271,0.046-0.537,0.136-0.792
			c0.092-0.26,0.249-0.551,0.468-0.863l6.727-9.519h2.571v9.95v0.25h0.25h2.302c0.049,0.248,0.073,0.55,0.073,0.899
			C22.699,20.648,22.621,20.929,22.471,21.06z"/>
	</g>
</g>
<g id="TITLES">
</g>
</svg>
