<?xml version="1.0" encoding="iso-8859-1"?>
<!-- Generator: Adobe Illustrator 17.1.0, SVG Export Plug-In . SVG Version: 6.00 Build 0)  -->
<!DOCTYPE svg PUBLIC "-//W3C//DTD SVG 1.1//EN" "http://www.w3.org/Graphics/SVG/1.1/DTD/svg11.dtd">
<svg version="1.1" xmlns="http://www.w3.org/2000/svg" xmlns:xlink="http://www.w3.org/1999/xlink" x="0px" y="0px"
	 viewBox="0 0 34 34" style="enable-background:new 0 0 34 34;" xml:space="preserve">
<g id="BLOCKS" style="display:none;">
	<rect x="0.025" y="0.022" style="display:inline;fill:#CCCACB;" width="34" height="34"/>
</g>
<g id="INNER_GUDIES">
</g>
<g id="MAIN_GUIDES">
</g>
<g id="ICONS">
	<g>
		<path d="M17.664,9.056c-0.982,0-1.889,0.162-2.696,0.482c-0.8,0.316-1.5,0.811-2.079,1.47c-0.582,0.662-1.04,1.515-1.361,2.535
			c-0.324,1.027-0.488,2.268-0.488,3.688c0,1.335,0.156,2.522,0.464,3.526c0.305,0.998,0.736,1.84,1.279,2.503
			c0.539,0.658,1.189,1.16,1.933,1.493c0.747,0.333,1.579,0.503,2.473,0.503c0.914,0,1.732-0.145,2.431-0.431
			c0.7-0.287,1.294-0.672,1.767-1.146c0.473-0.473,0.836-1.032,1.081-1.664c0.246-0.636,0.371-1.313,0.371-2.01
			c0-0.669-0.109-1.309-0.323-1.902c-0.212-0.589-0.535-1.12-0.961-1.577c-0.422-0.454-0.961-0.821-1.601-1.09
			c-0.641-0.269-1.394-0.405-2.24-0.405c-0.935,0-1.723,0.174-2.341,0.518c-0.642,0.358-1.203,0.751-1.666,1.168l-0.445,0.4
			l0.028-0.598c0.085-1.794,0.477-3.158,1.164-4.052c0.705-0.92,1.785-1.386,3.211-1.386c0.414,0,0.78,0.031,1.086,0.093
			c0.295,0.059,0.565,0.118,0.81,0.177c0.245,0.06,0.47,0.119,0.673,0.177c0.177,0.052,0.363,0.078,0.556,0.078
			c0.321,0,0.563-0.111,0.74-0.34c0.189-0.245,0.285-0.636,0.285-1.16V9.914c-0.559-0.259-1.174-0.465-1.83-0.613
			C19.272,9.138,18.491,9.056,17.664,9.056z M13.469,18.346c0.415-0.379,0.921-0.743,1.506-1.082
			c0.61-0.354,1.363-0.534,2.237-0.534c1.01,0,1.828,0.279,2.431,0.828c0.609,0.555,0.919,1.353,0.919,2.372
			c0,1.01-0.304,1.85-0.904,2.494c-0.605,0.65-1.428,0.98-2.446,0.98c-1.143,0-2.063-0.432-2.734-1.283
			c-0.655-0.829-1.022-2.034-1.091-3.581l-0.005-0.117L13.469,18.346z"/>
		<path d="M16.864,3.022c7.72,0,14,6.28,14,14s-6.28,14-14,14s-14-6.28-14-14S9.144,3.022,16.864,3.022 M16.864,1.022
			c-8.837,0-16,7.163-16,16s7.163,16,16,16c8.837,0,16-7.163,16-16S25.7,1.022,16.864,1.022L16.864,1.022z"/>
	</g>
</g>
<g id="TITLES">
</g>
</svg>
