<?xml version="1.0" encoding="iso-8859-1"?>
<!-- Generator: Adobe Illustrator 17.1.0, SVG Export Plug-In . SVG Version: 6.00 Build 0)  -->
<!DOCTYPE svg PUBLIC "-//W3C//DTD SVG 1.1//EN" "http://www.w3.org/Graphics/SVG/1.1/DTD/svg11.dtd">
<svg version="1.1" xmlns="http://www.w3.org/2000/svg" xmlns:xlink="http://www.w3.org/1999/xlink" x="0px" y="0px"
	 viewBox="0 0 34 34" style="enable-background:new 0 0 34 34;" xml:space="preserve">
<g id="BLOCKS" style="display:none;">
	<rect x="0.027" y="0.022" style="display:inline;fill:#CCCACB;" width="34" height="34"/>
</g>
<g id="INNER_GUDIES">
</g>
<g id="MAIN_GUIDES">
</g>
<g id="ICONS">
	<g>
		<path d="M12.638,23.985c0.498,0.396,1.126,0.713,1.868,0.945c0.749,0.233,1.636,0.351,2.639,0.351
			c0.985,0,1.865-0.118,2.613-0.351c0.741-0.231,1.37-0.548,1.869-0.944c0.492-0.39,0.867-0.86,1.116-1.397
			c0.25-0.539,0.376-1.138,0.376-1.783c0-0.955-0.259-1.769-0.771-2.421c-0.516-0.656-1.233-1.133-2.129-1.416l-0.65-0.205
			l0.628-0.264c0.295-0.124,0.593-0.295,0.887-0.509c0.288-0.211,0.544-0.46,0.762-0.74c0.216-0.278,0.393-0.601,0.525-0.958
			c0.13-0.355,0.196-0.764,0.196-1.213c0-0.531-0.107-1.049-0.317-1.539c-0.209-0.487-0.533-0.929-0.962-1.312
			c-0.432-0.384-0.997-0.7-1.678-0.938c-0.687-0.24-1.517-0.361-2.467-0.361c-0.951,0-1.781,0.121-2.467,0.361
			c-0.683,0.238-1.253,0.554-1.693,0.939c-0.437,0.383-0.764,0.824-0.972,1.31c-0.211,0.49-0.318,1.008-0.318,1.539
			c0,0.434,0.067,0.839,0.198,1.202c0.133,0.367,0.31,0.698,0.527,0.984c0.218,0.288,0.469,0.535,0.747,0.737
			c0.282,0.204,0.583,0.37,0.896,0.495l0.652,0.259l-0.67,0.211c-0.897,0.283-1.614,0.756-2.13,1.404
			c-0.511,0.644-0.771,1.471-0.771,2.458c0,0.628,0.127,1.219,0.377,1.757C11.77,23.125,12.145,23.595,12.638,23.985z
			 M13.945,13.406c0-0.775,0.287-1.404,0.854-1.868c0.552-0.452,1.341-0.682,2.346-0.682c1.005,0,1.79,0.23,2.335,0.683
			c0.557,0.465,0.84,1.093,0.84,1.867c0,0.774-0.295,1.415-0.876,1.904c-0.569,0.478-1.343,0.721-2.299,0.721
			c-0.956,0-1.733-0.242-2.31-0.72C14.244,14.822,13.945,14.181,13.945,13.406z M13.7,19.514c0.139-0.351,0.362-0.668,0.665-0.943
			c0.298-0.271,0.684-0.491,1.149-0.652c0.458-0.158,1.007-0.238,1.632-0.238c0.608,0,1.145,0.08,1.596,0.239
			c0.454,0.161,0.836,0.38,1.135,0.651c0.299,0.272,0.526,0.587,0.674,0.937c0.146,0.346,0.22,0.715,0.22,1.097
			c0,0.422-0.094,0.811-0.28,1.156c-0.183,0.338-0.441,0.637-0.767,0.891c-0.322,0.25-0.706,0.445-1.143,0.579
			c-0.43,0.132-0.913,0.198-1.435,0.198c-1.103,0-1.992-0.262-2.643-0.779c-0.669-0.531-1.008-1.22-1.008-2.046
			C13.495,20.227,13.564,19.859,13.7,19.514z"/>
		<path d="M16.866,3.022c7.72,0,14,6.28,14,14s-6.28,14-14,14s-14-6.28-14-14S9.147,3.022,16.866,3.022 M16.866,1.022
			c-8.837,0-16,7.163-16,16s7.163,16,16,16c8.837,0,16-7.163,16-16S25.703,1.022,16.866,1.022L16.866,1.022z"/>
	</g>
</g>
<g id="TITLES">
</g>
</svg>
