<?xml version="1.0" encoding="iso-8859-1"?>
<!-- Generator: Adobe Illustrator 17.1.0, SVG Export Plug-In . SVG Version: 6.00 Build 0)  -->
<!DOCTYPE svg PUBLIC "-//W3C//DTD SVG 1.1//EN" "http://www.w3.org/Graphics/SVG/1.1/DTD/svg11.dtd">
<svg version="1.1" xmlns="http://www.w3.org/2000/svg" xmlns:xlink="http://www.w3.org/1999/xlink" x="0px" y="0px"
	 viewBox="0 0 34 34" style="enable-background:new 0 0 34 34;" xml:space="preserve">
<g id="BLOCKS" style="display:none;">
	<rect x="0.026" y="0.022" style="display:inline;fill:#CCCACB;" width="34" height="34"/>
</g>
<g id="INNER_GUDIES">
</g>
<g id="MAIN_GUIDES">
</g>
<g id="ICONS">
	<g>
		<path d="M16.865,1.014c-8.837,0-16,7.163-16,16s7.163,16,16,16s16-7.163,16-16S25.701,1.014,16.865,1.014z M22.265,22.173
			c-0.267,0.572-0.647,1.061-1.131,1.451c-0.489,0.395-1.096,0.704-1.803,0.919c-0.715,0.217-1.518,0.327-2.389,0.327
			c-1.185,0-2.215-0.139-3.061-0.413c-0.801-0.259-1.544-0.587-2.209-0.976c0.029-0.509,0.138-0.901,0.324-1.168
			c0.188-0.268,0.409-0.393,0.696-0.393c0.217,0,0.438,0.044,0.657,0.132c0.253,0.102,0.541,0.207,0.862,0.317
			c0.319,0.109,0.697,0.217,1.122,0.319c0.433,0.104,0.958,0.157,1.558,0.157c1.109,0,1.957-0.257,2.518-0.765
			c0.569-0.513,0.857-1.19,0.857-2.01c0-0.718-0.269-1.342-0.801-1.855c-0.537-0.518-1.42-0.77-2.699-0.77h-2
			c-0.199,0-0.362-0.066-0.498-0.202c-0.133-0.133-0.201-0.385-0.201-0.749c0-0.311,0.024-0.587,0.072-0.825h2.403
			c1.169,0,1.997-0.206,2.53-0.629c0.544-0.431,0.819-1.069,0.819-1.896c0-0.308-0.05-0.613-0.15-0.906
			c-0.105-0.305-0.283-0.575-0.53-0.803c-0.24-0.221-0.55-0.403-0.921-0.538c-0.368-0.135-0.83-0.203-1.373-0.203
			c-0.55,0-1.026,0.044-1.417,0.131c-0.386,0.086-0.735,0.181-1.038,0.282c-0.302,0.101-0.57,0.193-0.805,0.277
			c-0.205,0.073-0.412,0.11-0.616,0.11c-0.301,0-0.529-0.131-0.717-0.414c-0.187-0.281-0.297-0.673-0.327-1.167
			c0.604-0.326,1.315-0.613,2.116-0.854c0.855-0.258,1.866-0.389,3.003-0.389c0.885,0,1.657,0.109,2.295,0.324
			c0.63,0.213,1.152,0.502,1.55,0.86c0.393,0.354,0.687,0.78,0.871,1.263c0.188,0.495,0.284,1.032,0.284,1.596
			c0,0.836-0.234,1.552-0.695,2.128c-0.466,0.582-1.107,1.004-1.905,1.253L18.536,16.4l1.012,0.178
			c0.891,0.157,1.642,0.561,2.235,1.201c0.586,0.633,0.884,1.46,0.884,2.458C22.667,20.949,22.532,21.6,22.265,22.173z"/>
	</g>
</g>
<g id="TITLES">
</g>
</svg>
