<?xml version="1.0" encoding="iso-8859-1"?>
<!-- Generator: Adobe Illustrator 17.1.0, SVG Export Plug-In . SVG Version: 6.00 Build 0)  -->
<!DOCTYPE svg PUBLIC "-//W3C//DTD SVG 1.1//EN" "http://www.w3.org/Graphics/SVG/1.1/DTD/svg11.dtd">
<svg version="1.1" xmlns="http://www.w3.org/2000/svg" xmlns:xlink="http://www.w3.org/1999/xlink" x="0px" y="0px"
	 viewBox="0 0 34 34" style="enable-background:new 0 0 34 34;" xml:space="preserve">
<g id="BLOCKS" style="display:none;">
	<rect x="0.026" y="0.022" style="display:inline;fill:#CCCACB;" width="34" height="34"/>
</g>
<g id="INNER_GUDIES">
</g>
<g id="MAIN_GUIDES">
</g>
<g id="ICONS">
	<g>
		<path d="M16.865,1.014c-8.837,0-16,7.163-16,16s7.163,16,16,16s16-7.163,16-16S25.701,1.014,16.865,1.014z M22.842,20.623
			c-0.312,1.012-0.759,1.866-1.327,2.537c-0.565,0.668-1.24,1.175-2.008,1.507c-0.773,0.335-1.626,0.505-2.538,0.505
			c-0.912,0-1.761-0.17-2.525-0.504c-0.759-0.332-1.422-0.838-1.97-1.505c-0.551-0.669-0.989-1.524-1.304-2.54
			c-0.316-1.02-0.476-2.231-0.476-3.601s0.16-2.581,0.476-3.601c0.314-1.015,0.753-1.87,1.304-2.54
			c0.546-0.665,1.209-1.172,1.969-1.505c0.764-0.334,1.614-0.503,2.525-0.503s1.765,0.17,2.538,0.504
			c0.769,0.333,1.445,0.841,2.008,1.507c0.568,0.672,1.015,1.526,1.327,2.538c0.317,1.022,0.477,2.233,0.477,3.601
			S23.159,19.601,22.842,20.623z"/>
		<path d="M16.969,10.723c-1.233,0-2.211,0.525-2.908,1.561c-0.675,1.005-1.017,2.599-1.017,4.739c0,2.141,0.342,3.735,1.017,4.74
			c0.696,1.035,1.675,1.56,2.908,1.56c1.231,0,2.226-0.532,2.955-1.582c0.71-1.021,1.07-2.609,1.07-4.718
			c0-2.108-0.36-3.695-1.07-4.718C19.194,11.255,18.199,10.723,16.969,10.723z"/>
	</g>
</g>
<g id="TITLES">
</g>
</svg>
