<?xml version="1.0" encoding="iso-8859-1"?>
<!-- Generator: Adobe Illustrator 17.1.0, SVG Export Plug-In . SVG Version: 6.00 Build 0)  -->
<!DOCTYPE svg PUBLIC "-//W3C//DTD SVG 1.1//EN" "http://www.w3.org/Graphics/SVG/1.1/DTD/svg11.dtd">
<svg version="1.1" xmlns="http://www.w3.org/2000/svg" xmlns:xlink="http://www.w3.org/1999/xlink" x="0px" y="0px"
	 viewBox="0 0 34 34" style="enable-background:new 0 0 34 34;" xml:space="preserve">
<g id="BLOCKS" style="display:none;">
	<rect x="0.026" y="0.022" style="display:inline;fill:#CCCACB;" width="34" height="34"/>
</g>
<g id="INNER_GUDIES">
</g>
<g id="MAIN_GUIDES">
</g>
<g id="ICONS">
	<g>
		<path d="M16.345,24.966c0.103,0.016,0.228,0.031,0.373,0.044c0.258,0.025,0.52,0.037,0.777,0.037c0.451,0,0.773-0.089,0.929-0.258
			c0.165-0.179,0.246-0.397,0.246-0.668V9.147h-1.867l-3.548,1.725c-0.489,0.28-0.734,0.659-0.734,1.15
			c0,0.21,0.058,0.433,0.173,0.664c0.095,0.189,0.216,0.351,0.366,0.491l2.928-1.381l0.357-0.168v0.394V24.966z"/>
		<path d="M16.865,3.022c7.72,0,14,6.28,14,14s-6.28,14-14,14s-14-6.28-14-14S9.145,3.022,16.865,3.022 M16.865,1.022
			c-8.837,0-16,7.163-16,16s7.163,16,16,16c8.837,0,16-7.163,16-16S25.701,1.022,16.865,1.022L16.865,1.022z"/>
	</g>
</g>
<g id="TITLES">
</g>
</svg>
