<?xml version="1.0" encoding="iso-8859-1"?>
<!-- Generator: Adobe Illustrator 17.1.0, SVG Export Plug-In . SVG Version: 6.00 Build 0)  -->
<!DOCTYPE svg PUBLIC "-//W3C//DTD SVG 1.1//EN" "http://www.w3.org/Graphics/SVG/1.1/DTD/svg11.dtd">
<svg version="1.1" xmlns="http://www.w3.org/2000/svg" xmlns:xlink="http://www.w3.org/1999/xlink" x="0px" y="0px"
	 viewBox="0 0 34 34" style="enable-background:new 0 0 34 34;" xml:space="preserve">
<g id="BLOCKS" style="display:none;">
	<rect x="0.026" y="0.022" style="display:inline;fill:#CCCACB;" width="34" height="34"/>
</g>
<g id="INNER_GUDIES">
</g>
<g id="MAIN_GUIDES">
</g>
<g id="ICONS">
	<g>
		<path d="M16.865,1.014c-8.837,0-16,7.163-16,16s7.163,16,16,16s16-7.163,16-16S25.701,1.014,16.865,1.014z M18.671,24.038
			c0,0.271-0.08,0.489-0.246,0.668c-0.156,0.169-0.477,0.258-0.929,0.258c-0.257,0-0.519-0.012-0.777-0.037
			c-0.145-0.013-0.27-0.028-0.373-0.044V11.939v-0.394l-0.357,0.168l-2.928,1.381c-0.151-0.14-0.271-0.302-0.366-0.491
			c-0.115-0.23-0.173-0.454-0.173-0.664c0-0.491,0.245-0.87,0.734-1.15l3.548-1.725h1.867V24.038z"/>
	</g>
</g>
<g id="TITLES">
</g>
</svg>
