<?xml version="1.0" encoding="iso-8859-1"?>
<!-- Generator: Adobe Illustrator 17.1.0, SVG Export Plug-In . SVG Version: 6.00 Build 0)  -->
<!DOCTYPE svg PUBLIC "-//W3C//DTD SVG 1.1//EN" "http://www.w3.org/Graphics/SVG/1.1/DTD/svg11.dtd">
<svg version="1.1" xmlns="http://www.w3.org/2000/svg" xmlns:xlink="http://www.w3.org/1999/xlink" x="0px" y="0px"
	 viewBox="0 0 34 34" style="enable-background:new 0 0 34 34;" xml:space="preserve">
<g id="BLOCKS" style="display:none;">
	<rect x="0.026" y="0.022" style="display:inline;fill:#CCCACB;" width="34" height="34"/>
</g>
<g id="INNER_GUDIES">
</g>
<g id="MAIN_GUIDES">
</g>
<g id="ICONS">
	<g>
		<path d="M16.865,1.014c-8.837,0-16,7.163-16,16s7.163,16,16,16s16-7.163,16-16S25.701,1.014,16.865,1.014z M23.249,10.715
			l-6.65,13.6c-0.156,0.326-0.352,0.53-0.6,0.624c-0.28,0.105-0.599,0.159-0.95,0.159c-0.266,0-0.549-0.028-0.841-0.083
			c-0.17-0.032-0.323-0.068-0.457-0.108l6.744-13.346l0.183-0.363h-0.406h-7.174c-0.267,0-0.466-0.07-0.61-0.214
			c-0.097-0.098-0.214-0.331-0.214-0.886c0-0.243,0.008-0.465,0.024-0.668c0.008-0.104,0.019-0.198,0.032-0.283h10.919V10.715z"/>
	</g>
</g>
<g id="TITLES">
</g>
</svg>
