<?xml version="1.0" encoding="iso-8859-1"?>
<!-- Generator: Adobe Illustrator 17.1.0, SVG Export Plug-In . SVG Version: 6.00 Build 0)  -->
<!DOCTYPE svg PUBLIC "-//W3C//DTD SVG 1.1//EN" "http://www.w3.org/Graphics/SVG/1.1/DTD/svg11.dtd">
<svg version="1.1" xmlns="http://www.w3.org/2000/svg" xmlns:xlink="http://www.w3.org/1999/xlink" x="0px" y="0px"
	 viewBox="0 0 34 34" style="enable-background:new 0 0 34 34;" xml:space="preserve">
<g id="BLOCKS" style="display:none;">
	<rect x="0.026" y="0.022" style="display:inline;fill:#CCCACB;" width="34" height="34"/>
</g>
<g id="INNER_GUDIES">
</g>
<g id="MAIN_GUIDES">
</g>
<g id="ICONS">
	<g>
		<path d="M21.515,10.967c-0.563-0.667-1.239-1.174-2.008-1.507c-0.773-0.334-1.627-0.504-2.538-0.504
			c-0.911,0-1.761,0.169-2.525,0.503c-0.76,0.333-1.423,0.84-1.969,1.505c-0.551,0.671-0.99,1.525-1.304,2.54
			c-0.316,1.02-0.476,2.231-0.476,3.601s0.16,2.581,0.476,3.601c0.314,1.016,0.753,1.871,1.304,2.54
			c0.548,0.667,1.21,1.173,1.97,1.505c0.764,0.335,1.613,0.504,2.525,0.504c0.912,0,1.766-0.17,2.538-0.505
			c0.768-0.332,1.443-0.839,2.008-1.507c0.568-0.671,1.015-1.525,1.327-2.537c0.317-1.022,0.477-2.234,0.477-3.601
			s-0.161-2.579-0.477-3.601C22.53,12.493,22.083,11.64,21.515,10.967z M19.924,21.824c-0.73,1.05-1.724,1.582-2.955,1.582
			c-1.233,0-2.211-0.525-2.908-1.56c-0.675-1.005-1.017-2.6-1.017-4.74c0-2.14,0.342-3.734,1.017-4.739
			c0.697-1.036,1.675-1.561,2.908-1.561c1.231,0,2.225,0.532,2.955,1.582c0.71,1.023,1.07,2.61,1.07,4.718
			C20.994,19.215,20.634,20.802,19.924,21.824z"/>
		<path d="M16.865,3.022c7.72,0,14,6.28,14,14s-6.28,14-14,14s-14-6.28-14-14S9.145,3.022,16.865,3.022 M16.865,1.022
			c-8.837,0-16,7.163-16,16s7.163,16,16,16c8.837,0,16-7.163,16-16S25.702,1.022,16.865,1.022L16.865,1.022z"/>
	</g>
</g>
<g id="TITLES">
</g>
</svg>
