<?xml version="1.0" encoding="iso-8859-1"?>
<!-- Generator: Adobe Illustrator 17.1.0, SVG Export Plug-In . SVG Version: 6.00 Build 0)  -->
<!DOCTYPE svg PUBLIC "-//W3C//DTD SVG 1.1//EN" "http://www.w3.org/Graphics/SVG/1.1/DTD/svg11.dtd">
<svg version="1.1" xmlns="http://www.w3.org/2000/svg" xmlns:xlink="http://www.w3.org/1999/xlink" x="0px" y="0px"
	 viewBox="0 0 34 34" style="enable-background:new 0 0 34 34;" xml:space="preserve">
<g id="BLOCKS" style="display:none;">
	<rect x="0.026" y="0.022" style="display:inline;fill:#CCCACB;" width="34" height="34"/>
</g>
<g id="INNER_GUDIES">
</g>
<g id="MAIN_GUIDES">
</g>
<g id="ICONS">
	<g>
		<path d="M17.144,15.947c0.956,0,1.729-0.242,2.299-0.721c0.581-0.489,0.876-1.13,0.876-1.904c0-0.774-0.283-1.402-0.84-1.867
			c-0.545-0.453-1.33-0.683-2.335-0.683s-1.794,0.229-2.346,0.682c-0.567,0.465-0.854,1.093-0.854,1.868
			c0,0.775,0.3,1.416,0.89,1.905C15.41,15.705,16.187,15.947,17.144,15.947z"/>
		<path d="M19.874,18.488c-0.299-0.271-0.681-0.491-1.135-0.651c-0.45-0.158-0.987-0.239-1.596-0.239
			c-0.625,0-1.174,0.08-1.632,0.238c-0.464,0.161-0.851,0.38-1.149,0.652c-0.303,0.275-0.526,0.592-0.665,0.943
			c-0.136,0.345-0.205,0.712-0.205,1.092c0,0.827,0.339,1.515,1.008,2.046c0.65,0.517,1.54,0.779,2.643,0.779
			c0.522,0,1.005-0.067,1.435-0.198c0.437-0.134,0.821-0.328,1.143-0.579c0.326-0.254,0.584-0.554,0.767-0.891
			c0.186-0.345,0.28-0.734,0.28-1.156c0-0.382-0.074-0.751-0.22-1.097C20.4,19.075,20.174,18.76,19.874,18.488z"/>
		<path d="M16.865,1.014c-8.837,0-16,7.163-16,16s7.163,16,16,16s16-7.163,16-16S25.701,1.014,16.865,1.014z M22.742,22.505
			c-0.249,0.536-0.624,1.006-1.116,1.397c-0.499,0.396-1.128,0.714-1.869,0.944c-0.749,0.233-1.628,0.351-2.613,0.351
			c-1.002,0-1.89-0.118-2.639-0.351c-0.742-0.231-1.371-0.549-1.868-0.945c-0.493-0.39-0.868-0.86-1.116-1.397
			c-0.25-0.538-0.377-1.129-0.377-1.757c0-0.987,0.259-1.814,0.771-2.458c0.516-0.649,1.233-1.121,2.13-1.404l0.67-0.211
			l-0.652-0.259c-0.312-0.124-0.614-0.291-0.896-0.495c-0.278-0.201-0.53-0.449-0.747-0.737c-0.217-0.285-0.394-0.616-0.526-0.984
			c-0.131-0.363-0.198-0.768-0.198-1.202c0-0.531,0.107-1.049,0.318-1.539c0.208-0.487,0.535-0.928,0.972-1.31
			c0.44-0.385,1.01-0.701,1.693-0.939c0.686-0.24,1.516-0.361,2.467-0.361c0.95,0,1.781,0.121,2.467,0.361
			c0.681,0.238,1.246,0.553,1.678,0.938c0.429,0.383,0.753,0.825,0.962,1.312c0.21,0.491,0.317,1.009,0.317,1.539
			c0,0.449-0.066,0.857-0.196,1.213c-0.133,0.357-0.31,0.679-0.525,0.958c-0.218,0.28-0.475,0.529-0.762,0.74
			c-0.294,0.214-0.592,0.385-0.887,0.509l-0.628,0.264l0.65,0.205c0.896,0.283,1.612,0.759,2.129,1.416
			c0.512,0.651,0.771,1.466,0.771,2.421C23.118,21.367,22.991,21.967,22.742,22.505z"/>
	</g>
</g>
<g id="TITLES">
</g>
</svg>
