<?xml version="1.0" encoding="iso-8859-1"?>
<!-- Generator: Adobe Illustrator 17.1.0, SVG Export Plug-In . SVG Version: 6.00 Build 0)  -->
<!DOCTYPE svg PUBLIC "-//W3C//DTD SVG 1.1//EN" "http://www.w3.org/Graphics/SVG/1.1/DTD/svg11.dtd">
<svg version="1.1" xmlns="http://www.w3.org/2000/svg" xmlns:xlink="http://www.w3.org/1999/xlink" x="0px" y="0px"
	 viewBox="0 0 34 34" style="enable-background:new 0 0 34 34;" xml:space="preserve">
<g id="BLOCKS" style="display:none;">
	<rect x="0.026" y="0.022" style="display:inline;fill:#CCCACB;" width="34" height="34"/>
</g>
<g id="INNER_GUDIES">
</g>
<g id="MAIN_GUIDES">
</g>
<g id="ICONS">
	<g>
		<path d="M16.865,1.014c-8.837,0-16,7.163-16,16s7.163,16,16,16s16-7.163,16-16S25.701,1.014,16.865,1.014z M22.469,21.932
			c-0.245,0.631-0.609,1.191-1.082,1.664c-0.473,0.473-1.068,0.859-1.767,1.146c-0.699,0.286-1.517,0.431-2.431,0.431
			c-0.894,0-1.726-0.169-2.473-0.503c-0.744-0.333-1.395-0.835-1.933-1.493c-0.544-0.662-0.974-1.504-1.279-2.503
			c-0.308-1.005-0.464-2.191-0.464-3.526c0-1.42,0.164-2.66,0.488-3.688c0.321-1.02,0.779-1.873,1.361-2.535
			c0.58-0.659,1.279-1.153,2.079-1.47c0.807-0.32,1.714-0.482,2.696-0.482c0.828,0,1.608,0.082,2.32,0.244
			c0.656,0.149,1.27,0.355,1.83,0.613v0.193c0,0.524-0.096,0.914-0.285,1.16c-0.177,0.229-0.419,0.34-0.74,0.34
			c-0.193,0-0.379-0.026-0.556-0.078c-0.203-0.059-0.428-0.118-0.673-0.177c-0.244-0.059-0.515-0.118-0.81-0.177
			c-0.307-0.062-0.672-0.093-1.086-0.093c-1.426,0-2.506,0.466-3.211,1.386c-0.687,0.895-1.079,2.258-1.164,4.052l-0.028,0.598
			l0.445-0.4c0.463-0.416,1.024-0.809,1.666-1.168c0.618-0.344,1.406-0.518,2.341-0.518c0.846,0,1.599,0.136,2.24,0.405
			c0.641,0.269,1.179,0.636,1.601,1.09c0.426,0.457,0.749,0.987,0.96,1.577c0.214,0.594,0.323,1.234,0.323,1.902
			C22.84,20.619,22.715,21.296,22.469,21.932z"/>
		<path d="M17.215,16.648c-0.874,0-1.627,0.18-2.237,0.534c-0.585,0.339-1.092,0.703-1.506,1.082l-0.086,0.079l0.005,0.117
			c0.069,1.547,0.436,2.752,1.091,3.581c0.672,0.851,1.592,1.283,2.734,1.283c1.018,0,1.841-0.33,2.446-0.98
			c0.6-0.645,0.904-1.484,0.904-2.494c0-1.019-0.309-1.817-0.918-2.372C19.043,16.926,18.225,16.648,17.215,16.648z"/>
	</g>
</g>
<g id="TITLES">
</g>
</svg>
