<?xml version="1.0" encoding="iso-8859-1"?>
<!-- Generator: Adobe Illustrator 17.1.0, SVG Export Plug-In . SVG Version: 6.00 Build 0)  -->
<!DOCTYPE svg PUBLIC "-//W3C//DTD SVG 1.1//EN" "http://www.w3.org/Graphics/SVG/1.1/DTD/svg11.dtd">
<svg version="1.1" xmlns="http://www.w3.org/2000/svg" xmlns:xlink="http://www.w3.org/1999/xlink" x="0px" y="0px"
	 viewBox="0 0 34 34" style="enable-background:new 0 0 34 34;" xml:space="preserve">
<g id="BLOCKS" style="display:none;">
	<rect x="0.026" y="0.022" style="display:inline;fill:#CCCACB;" width="34" height="34"/>
</g>
<g id="INNER_GUDIES">
</g>
<g id="MAIN_GUIDES">
</g>
<g id="ICONS">
	<g>
		<path d="M16.865,1.014c-8.837,0-16,7.163-16,16s7.163,16,16,16s16-7.163,16-16S25.701,1.014,16.865,1.014z M22.349,21.994
			c-0.245,0.622-0.619,1.172-1.113,1.634c-0.497,0.465-1.124,0.835-1.863,1.097c-0.745,0.264-1.629,0.398-2.628,0.398
			c-1.022,0-1.97-0.123-2.819-0.365c-0.801-0.229-1.541-0.532-2.204-0.903c0.017-0.518,0.128-0.908,0.331-1.163
			c0.21-0.265,0.461-0.394,0.766-0.394c0.17,0,0.366,0.037,0.581,0.111c0.245,0.085,0.524,0.174,0.836,0.266
			c0.315,0.094,0.675,0.184,1.069,0.268c0.404,0.087,0.872,0.131,1.389,0.131c1.261,0,2.202-0.288,2.797-0.856
			c0.599-0.571,0.903-1.335,0.903-2.269c0-0.941-0.333-1.692-0.991-2.23c-0.644-0.527-1.454-0.795-2.408-0.795
			c-0.761,0-1.399,0.103-1.896,0.307c-0.442,0.181-0.877,0.421-1.295,0.715l-1.616-0.568l0.832-8.229h8.8
			c0.049,0.251,0.073,0.561,0.073,0.925c0,0.407-0.078,0.7-0.226,0.848c-0.154,0.153-0.349,0.227-0.599,0.227h-6.1h-0.221
			l-0.027,0.219l-0.553,4.475L14.1,16.397l0.46-0.32c0.364-0.254,0.765-0.472,1.19-0.649c0.41-0.17,0.979-0.256,1.692-0.256
			c0.814,0,1.557,0.133,2.208,0.395c0.65,0.261,1.208,0.613,1.658,1.047c0.449,0.434,0.8,0.945,1.044,1.519
			c0.244,0.574,0.368,1.184,0.368,1.814C22.72,20.68,22.595,21.369,22.349,21.994z"/>
	</g>
</g>
<g id="TITLES">
</g>
</svg>
