<?xml version="1.0" encoding="iso-8859-1"?>
<!-- Generator: Adobe Illustrator 17.1.0, SVG Export Plug-In . SVG Version: 6.00 Build 0)  -->
<!DOCTYPE svg PUBLIC "-//W3C//DTD SVG 1.1//EN" "http://www.w3.org/Graphics/SVG/1.1/DTD/svg11.dtd">
<svg version="1.1" xmlns="http://www.w3.org/2000/svg" xmlns:xlink="http://www.w3.org/1999/xlink" x="0px" y="0px"
	 viewBox="0 0 34 34" style="enable-background:new 0 0 34 34;" xml:space="preserve">
<g id="BLOCKS" style="display:none;">
	<rect x="0.027" y="0.022" style="display:inline;fill:#CCCACB;" width="34" height="34"/>
</g>
<g id="INNER_GUDIES">
</g>
<g id="MAIN_GUIDES">
</g>
<g id="ICONS">
	<g>
		<path d="M31.411,26.031c-0.71-1.052-1.582-2.035-2.666-3.006c-1.346-1.204-2.988-2.567-4.971-3.547
			c-0.562-0.276-0.997-0.4-1.408-0.4c-0.624,0-1.203,0.283-1.936,0.946c-0.249,0.226-0.477,0.475-0.677,0.695l-0.012,0.013
			c-0.161,0.176-0.328,0.357-0.501,0.524c-0.304,0.296-0.504,0.41-0.712,0.41c-0.175,0-0.374-0.079-0.686-0.272
			c-1.509-0.938-2.86-2.145-4.13-3.69c-0.354-0.431-0.67-0.914-0.977-1.382l-0.024-0.037c-0.101-0.155-0.203-0.311-0.306-0.464
			c-0.22-0.328-0.196-0.607,0.08-0.907c0.1-0.108,0.207-0.214,0.31-0.316l0.009-0.009c0.139-0.138,0.282-0.28,0.413-0.431
			l0.279-0.318c0.373-0.423,0.759-0.86,1.091-1.333c0.352-0.498,0.391-1.132,0.109-1.739l-0.16-0.35
			c-0.231-0.508-0.47-1.032-0.779-1.515c-1.225-1.915-2.687-3.658-4.344-5.184C8.802,3.156,8.064,2.686,7.466,2.306
			C6.954,1.981,6.316,1.96,5.827,2.253C3.282,3.782,1.971,5.978,1.93,8.789c0.023,0.181,0.042,0.36,0.062,0.541l0.007,0.062
			c0.046,0.437,0.093,0.889,0.186,1.337c0.417,2.019,1.282,3.974,2.724,6.155c3.214,4.86,7.345,8.974,12.279,12.226
			c1.961,1.293,3.833,2.133,5.721,2.567c0.808,0.185,1.59,0.278,2.324,0.278c2.581,0,4.661-1.151,6.182-3.422
			C32.034,27.607,32.034,26.953,31.411,26.031z M11.917,12.666c-0.114,0.126-0.23,0.248-0.348,0.372
			c-0.309,0.326-0.628,0.663-0.901,1.036c-0.52,0.71-0.582,1.547-0.172,2.296c0.439,0.803,0.927,1.646,1.515,2.385
			c1.435,1.802,2.94,3.179,4.6,4.207c0.789,0.487,1.399,0.705,1.979,0.705c0.764,0,1.451-0.37,2.297-1.237
			c0.118-0.122,0.234-0.249,0.347-0.372l0.082-0.09c0.159-0.174,0.323-0.353,0.495-0.518c0.295-0.283,0.455-0.379,0.63-0.379
			c0.158,0,0.341,0.083,0.586,0.219c1.91,1.045,3.724,2.482,5.71,4.525c0.278,0.284,0.512,0.612,0.767,0.969
			c0.104,0.147,0.207,0.293,0.314,0.437c0.028,0.036,0.046,0.06-0.037,0.182c-0.878,1.284-1.844,2.035-3.041,2.363
			c-1.038,0.283-2.179,0.277-3.375-0.018c-3.003-0.738-5.479-2.448-7.3-3.855c-4.236-3.272-7.486-6.812-9.936-10.821
			C5.047,13.3,4.376,11.641,4.078,9.998C4.028,9.727,4.002,9.445,3.977,9.172L3.972,9.124C3.96,8.988,3.947,8.848,3.934,8.746
			c0.016-1.98,0.88-3.487,2.638-4.603C6.577,4.14,6.605,4.132,6.646,4.132c0.021,0,0.037,0.002,0.046,0.004
			C6.977,4.293,7.276,4.47,7.535,4.695c1.741,1.501,3.273,3.296,4.686,5.487c0.137,0.211,0.247,0.443,0.366,0.695
			c0.06,0.127,0.12,0.254,0.184,0.378c0.112,0.219,0.085,0.403-0.088,0.6c-0.142,0.161-0.293,0.318-0.426,0.454
			C12.143,12.427,12.028,12.545,11.917,12.666z"/>
	</g>
</g>
<g id="TITLES">
</g>
</svg>
