<?xml version="1.0" encoding="iso-8859-1"?>
<!-- Generator: Adobe Illustrator 17.1.0, SVG Export Plug-In . SVG Version: 6.00 Build 0)  -->
<!DOCTYPE svg PUBLIC "-//W3C//DTD SVG 1.1//EN" "http://www.w3.org/Graphics/SVG/1.1/DTD/svg11.dtd">
<svg version="1.1" xmlns="http://www.w3.org/2000/svg" xmlns:xlink="http://www.w3.org/1999/xlink" x="0px" y="0px"
	 viewBox="0 0 34 34" style="enable-background:new 0 0 34 34;" xml:space="preserve">
<g id="BLOCKS" style="display:none;">
	<rect x="0.026" y="0.022" style="display:inline;fill:#CCCACB;" width="34" height="34"/>
</g>
<g id="INNER_GUDIES">
</g>
<g id="MAIN_GUIDES">
</g>
<g id="ICONS">
	<path d="M31.41,25.947c-0.71-1.052-1.582-2.035-2.666-3.006c-1.346-1.204-2.988-2.567-4.971-3.547
		c-0.562-0.276-0.997-0.4-1.408-0.4c-0.624,0-1.203,0.283-1.936,0.946c-0.249,0.226-0.477,0.475-0.677,0.695l-0.012,0.013
		c-0.161,0.176-0.328,0.357-0.501,0.524c-0.304,0.296-0.504,0.41-0.712,0.41c-0.175,0-0.374-0.079-0.686-0.272
		c-1.509-0.938-2.86-2.145-4.13-3.69c-0.354-0.431-0.67-0.914-0.977-1.382l-0.024-0.037c-0.101-0.155-0.203-0.311-0.306-0.464
		c-0.22-0.328-0.196-0.607,0.08-0.907c0.1-0.108,0.207-0.214,0.31-0.316l0.009-0.009c0.139-0.138,0.282-0.28,0.413-0.431
		l0.279-0.318c0.373-0.423,0.759-0.86,1.091-1.333c0.352-0.498,0.391-1.132,0.109-1.739l-0.16-0.35
		c-0.231-0.508-0.47-1.032-0.779-1.515c-1.225-1.915-2.687-3.658-4.344-5.184C8.8,3.072,8.062,2.603,7.465,2.223
		C6.953,1.898,6.314,1.877,5.826,2.17C3.281,3.698,1.969,5.895,1.928,8.705c0.023,0.181,0.042,0.36,0.062,0.541l0.007,0.062
		c0.046,0.437,0.093,0.889,0.186,1.337c0.417,2.019,1.282,3.974,2.724,6.155c3.214,4.86,7.345,8.974,12.279,12.226
		c1.961,1.293,3.833,2.133,5.721,2.567c0.808,0.185,1.59,0.278,2.324,0.278c2.581,0,4.661-1.151,6.182-3.422
		C32.033,27.523,32.032,26.869,31.41,25.947z"/>
</g>
<g id="TITLES">
</g>
</svg>
