<?xml version="1.0" encoding="iso-8859-1"?>
<!-- Generator: Adobe Illustrator 17.1.0, SVG Export Plug-In . SVG Version: 6.00 Build 0)  -->
<!DOCTYPE svg PUBLIC "-//W3C//DTD SVG 1.1//EN" "http://www.w3.org/Graphics/SVG/1.1/DTD/svg11.dtd">
<svg version="1.1" xmlns="http://www.w3.org/2000/svg" xmlns:xlink="http://www.w3.org/1999/xlink" x="0px" y="0px"
	 viewBox="0 0 34 34" style="enable-background:new 0 0 34 34;" xml:space="preserve">
<g id="BLOCKS" style="display:none;">
	<rect x="0.026" y="0.021" style="display:inline;fill:#CCCACB;" width="34" height="34"/>
</g>
<g id="INNER_GUDIES">
</g>
<g id="MAIN_GUIDES">
</g>
<g id="ICONS">
	<g>
		<path d="M16.865,1.013c-8.837,0-16,7.163-16,16s7.163,16,16,16s16-7.163,16-16S25.701,1.013,16.865,1.013z M15.75,18.487
			c-0.007,0.072-0.014,0.136-0.022,0.193h-2.827v2.411c0,0.207-0.062,0.375-0.189,0.514c-0.124,0.134-0.361,0.201-0.703,0.201
			c-0.187,0-0.37-0.01-0.551-0.026c-0.123-0.012-0.225-0.025-0.307-0.04v-3.059h-0.125h-1H8.865c-0.174,0-0.315-0.051-0.428-0.156
			c-0.105-0.098-0.161-0.309-0.161-0.612c0-0.182,0.009-0.362,0.025-0.538c0.007-0.072,0.015-0.137,0.022-0.194h1.702h1h0.125v-2.41
			c0-0.207,0.063-0.375,0.19-0.514c0.124-0.134,0.36-0.201,0.703-0.201c0.187,0,0.369,0.009,0.549,0.026
			c0.124,0.012,0.227,0.025,0.308,0.039v3.059h2.285c0.175,0,0.315,0.051,0.428,0.156c0.106,0.098,0.161,0.309,0.161,0.612
			C15.776,18.131,15.767,18.31,15.75,18.487z M22.313,24.33c0,0.271-0.08,0.489-0.246,0.668c-0.156,0.169-0.477,0.258-0.929,0.258
			c-0.258,0-0.519-0.012-0.777-0.037c-0.16-0.015-0.281-0.03-0.373-0.044V12.231v-0.394l-0.357,0.168l-2.928,1.381
			c-0.151-0.14-0.271-0.302-0.366-0.491c-0.115-0.23-0.173-0.454-0.173-0.664c0-0.491,0.245-0.87,0.734-1.15l3.548-1.725h1.867
			V24.33z"/>
	</g>
</g>
<g id="TITLES">
</g>
</svg>
