<?xml version="1.0" encoding="iso-8859-1"?>
<!-- Generator: Adobe Illustrator 17.1.0, SVG Export Plug-In . SVG Version: 6.00 Build 0)  -->
<!DOCTYPE svg PUBLIC "-//W3C//DTD SVG 1.1//EN" "http://www.w3.org/Graphics/SVG/1.1/DTD/svg11.dtd">
<svg version="1.1" xmlns="http://www.w3.org/2000/svg" xmlns:xlink="http://www.w3.org/1999/xlink" x="0px" y="0px"
	 viewBox="0 0 34 34" style="enable-background:new 0 0 34 34;" xml:space="preserve">
<g id="BLOCKS" style="display:none;">
	<rect x="0.027" y="0.022" style="display:inline;fill:#CCCACB;" width="34" height="34"/>
</g>
<g id="INNER_GUDIES">
</g>
<g id="MAIN_GUIDES">
</g>
<g id="ICONS">
	<g>
		<path d="M16.866,3.022c7.72,0,14,6.28,14,14s-6.28,14-14,14s-14-6.28-14-14S9.147,3.022,16.866,3.022 M16.866,1.022
			c-8.837,0-16,7.163-16,16s7.163,16,16,16c8.837,0,16-7.163,16-16S25.703,1.022,16.866,1.022L16.866,1.022z"/>
		<path d="M19.989,25.259c0.092,0.014,0.214,0.029,0.373,0.044c0.258,0.025,0.519,0.037,0.777,0.037
			c0.451,0,0.773-0.089,0.929-0.258c0.165-0.179,0.246-0.397,0.246-0.668V9.44h-1.867l-3.548,1.725
			c-0.489,0.28-0.734,0.659-0.734,1.15c0,0.21,0.058,0.434,0.173,0.664c0.095,0.189,0.216,0.351,0.366,0.491l2.928-1.381
			l0.357-0.168v0.394V25.259z"/>
		<path d="M15.616,17.421c-0.114-0.105-0.254-0.156-0.428-0.156h-2.285v-3.059c-0.081-0.014-0.184-0.027-0.308-0.039
			c-0.18-0.018-0.362-0.026-0.549-0.026c-0.343,0-0.579,0.067-0.703,0.201c-0.128,0.139-0.19,0.307-0.19,0.514v2.41h-0.125h-1H8.326
			c-0.008,0.057-0.015,0.122-0.022,0.194c-0.017,0.176-0.025,0.356-0.025,0.538c0,0.303,0.056,0.514,0.161,0.612
			c0.114,0.105,0.254,0.156,0.428,0.156h1.161h1h0.125v3.059c0.082,0.015,0.184,0.028,0.307,0.04
			c0.181,0.017,0.364,0.026,0.551,0.026c0.342,0,0.579-0.067,0.703-0.201c0.127-0.139,0.189-0.307,0.189-0.514v-2.411h2.827
			c0.008-0.057,0.015-0.121,0.022-0.193c0.017-0.177,0.026-0.357,0.026-0.539C15.778,17.731,15.722,17.519,15.616,17.421z"/>
	</g>
</g>
<g id="TITLES">
</g>
</svg>
