<?xml version="1.0" encoding="iso-8859-1"?>
<!-- Generator: Adobe Illustrator 17.1.0, SVG Export Plug-In . SVG Version: 6.00 Build 0)  -->
<!DOCTYPE svg PUBLIC "-//W3C//DTD SVG 1.1//EN" "http://www.w3.org/Graphics/SVG/1.1/DTD/svg11.dtd">
<svg version="1.1" xmlns="http://www.w3.org/2000/svg" xmlns:xlink="http://www.w3.org/1999/xlink" x="0px" y="0px"
	 viewBox="0 0 34 34" style="enable-background:new 0 0 34 34;" xml:space="preserve">
<g id="BLOCKS" style="display:none;">
	<rect x="0.025" y="0.022" style="display:inline;fill:#CCCACB;" width="34" height="34"/>
</g>
<g id="INNER_GUDIES">
</g>
<g id="MAIN_GUIDES">
</g>
<g id="ICONS">
	<g>
		<path d="M26.201,24.522c-0.914-0.005-1.724,0.717-1.75,1.727c-0.028,1.055,0.962,1.828,1.715,1.769
			c0.956,0.038,1.782-0.783,1.784-1.717C27.953,25.319,27.197,24.528,26.201,24.522z"/>
		<path d="M19.663,2.013h-8.744c-0.804,0-1.496,0.263-2.055,0.781C8.275,3.341,7.988,4.177,7.988,5.35v5.918H7.962v6.099H5.009
			c-1.647,0-2.981,1.335-2.981,2.981v8.698c0,1.647,1.335,2.981,2.981,2.981h23.971c1.647,0,2.981-1.335,2.981-2.981v-8.698
			c0-1.647-1.335-2.981-2.981-2.981h-2.608V8.71c0-0.273-0.111-0.53-0.313-0.723l-0.258-0.248L25.81,7.73l-5.282-5.281l-0.173-0.151
			C20.165,2.114,19.919,2.014,19.663,2.013 M10.004,5.353c0-0.541,0.091-0.881,0.169-1.007l0.025-0.041l0.036-0.033
			c0.185-0.17,0.39-0.242,0.685-0.242h7.26h0.35v0.35v5.429h5.477h0.35v0.35v1.11l-0.004,6.099v2.825
			c-0.014,0.529-0.444,0.956-0.976,0.956H10.993c-0.541,0-0.981-0.44-0.981-0.981h-0.003v-0.799l-0.004-0.673h0L10.004,5.353z
			 M29.962,29.047c0,0.541-0.44,0.981-0.981,0.981H5.009c-0.541,0-0.981-0.44-0.981-0.981v-8.698c0-0.541,0.44-0.981,0.981-0.981
			h2.953v0.839h0.007c0.022,1.628,1.344,2.942,2.977,2.942h12.43c1.647,0,2.981-1.335,2.981-2.981h-0.005v-0.799h2.628
			c0.541,0,0.981,0.44,0.981,0.981V29.047z"/>
	</g>
</g>
<g id="TITLES">
</g>
</svg>
