<?xml version="1.0" encoding="iso-8859-1"?>
<!-- Generator: Adobe Illustrator 17.1.0, SVG Export Plug-In . SVG Version: 6.00 Build 0)  -->
<!DOCTYPE svg PUBLIC "-//W3C//DTD SVG 1.1//EN" "http://www.w3.org/Graphics/SVG/1.1/DTD/svg11.dtd">
<svg version="1.1" xmlns="http://www.w3.org/2000/svg" xmlns:xlink="http://www.w3.org/1999/xlink" x="0px" y="0px"
	 viewBox="0 0 34 34" style="enable-background:new 0 0 34 34;" xml:space="preserve">
<g id="BLOCKS" style="display:none;">
	<rect x="0.026" y="0.022" style="display:inline;fill:#CCCACB;" width="34" height="34"/>
</g>
<g id="INNER_GUDIES">
</g>
<g id="MAIN_GUIDES">
</g>
<g id="ICONS">
	<g>
		<path d="M28.982,17.284h-2.608V8.626c0-0.273-0.111-0.53-0.312-0.723l-0.258-0.248l0.008-0.008L20.53,2.365l-0.173-0.151
			C20.166,2.031,19.92,1.93,19.664,1.93v0H10.92c-0.804,0-1.496,0.263-2.055,0.781C8.276,3.258,7.989,4.094,7.989,5.267v5.918H7.963
			v6.099H5.011c-1.646,0-2.981,1.335-2.981,2.981v8.698c0,1.647,1.335,2.981,2.981,2.981h23.971c1.647,0,2.981-1.335,2.981-2.981
			v-8.698C31.963,18.619,30.628,17.284,28.982,17.284z M10.005,18.611L10.005,18.611l0-13.341c0-0.541,0.091-0.881,0.169-1.007
			L10.2,4.221l0.036-0.033c0.185-0.17,0.39-0.242,0.685-0.242h7.26h0.35v0.35v5.429h5.477h0.35v0.35v1.11h-0.004v6.099v2v0.825
			c-0.014,0.529-0.444,0.956-0.976,0.956H10.995c-0.541,0-0.981-0.44-0.981-0.981H10.01v-0.799L10.005,18.611z M26.167,27.936
			c-0.753,0.058-1.743-0.714-1.715-1.769c0.027-1.011,0.837-1.732,1.75-1.727c0.996,0.005,1.752,0.797,1.749,1.78
			C27.949,27.153,27.123,27.974,26.167,27.936z"/>
	</g>
</g>
<g id="TITLES">
</g>
</svg>
