<?xml version="1.0" encoding="iso-8859-1"?>
<!-- Generator: Adobe Illustrator 17.1.0, SVG Export Plug-In . SVG Version: 6.00 Build 0)  -->
<!DOCTYPE svg PUBLIC "-//W3C//DTD SVG 1.1//EN" "http://www.w3.org/Graphics/SVG/1.1/DTD/svg11.dtd">
<svg version="1.1" xmlns="http://www.w3.org/2000/svg" xmlns:xlink="http://www.w3.org/1999/xlink" x="0px" y="0px"
	 viewBox="0 0 34 34" style="enable-background:new 0 0 34 34;" xml:space="preserve">
<g id="BLOCKS" style="display:none;">
	<rect x="0.027" y="0.022" style="display:inline;fill:#CCCACB;" width="34" height="34"/>
</g>
<g id="INNER_GUDIES">
</g>
<g id="MAIN_GUIDES">
</g>
<g id="ICONS">
	<path id="star_x5F_empty_4_" style="fill:#121212;" d="M16.842,4.618l2.999,7.539l0.458,1.15l1.234,0.103l7.982,0.671l-6.148,5.507
		l-0.878,0.786l0.262,1.149l1.85,8.109l-6.683-4.268l-1.076-0.688l-1.077,0.687l-6.682,4.264l1.849-8.105l0.262-1.149l-0.878-0.786
		l-6.15-5.508l7.984-0.669l1.234-0.103l0.458-1.15L16.842,4.618 M16.842,2.063c-0.711,0-1.319,0.459-1.625,1.229l-3.232,8.126
		l-8.389,0.703c-0.794,0.067-1.4,0.529-1.619,1.236c-0.22,0.708,0.01,1.454,0.615,1.996l6.392,5.725l-1.953,8.56
		c-0.193,0.848,0.107,1.41,0.303,1.67c0.312,0.413,0.784,0.65,1.295,0.65c0.349,0,0.696-0.109,1.032-0.323l7.182-4.587l7.183,4.588
		c0.335,0.214,0.682,0.323,1.032,0.323c0.511,0,0.983-0.237,1.295-0.65c0.196-0.26,0.496-0.822,0.303-1.67l-1.953-8.561l6.392-5.725
		c0.605-0.542,0.835-1.288,0.615-1.996c-0.22-0.708-0.825-1.17-1.619-1.236L21.7,11.417l-3.233-8.126
		C18.161,2.522,17.554,2.063,16.842,2.063L16.842,2.063z"/>
</g>
<g id="TITLES">
</g>
</svg>
