<?xml version="1.0" encoding="iso-8859-1"?>
<!-- Generator: Adobe Illustrator 17.1.0, SVG Export Plug-In . SVG Version: 6.00 Build 0)  -->
<!DOCTYPE svg PUBLIC "-//W3C//DTD SVG 1.1//EN" "http://www.w3.org/Graphics/SVG/1.1/DTD/svg11.dtd">
<svg version="1.1" xmlns="http://www.w3.org/2000/svg" xmlns:xlink="http://www.w3.org/1999/xlink" x="0px" y="0px"
	 viewBox="0 0 34 34" style="enable-background:new 0 0 34 34;" xml:space="preserve">
<g id="BLOCKS" style="display:none;">
	<rect x="0.026" y="0.021" style="display:inline;fill:#CCCACB;" width="34" height="34"/>
</g>
<g id="INNER_GUDIES">
</g>
<g id="MAIN_GUIDES">
</g>
<g id="ICONS">
	<g>
		<path d="M19.723,14.602c0-0.68-0.213-1.207-0.633-1.569c-0.416-0.36-1.079-0.543-1.971-0.543h-2.337v4.366h1.968
			c1.07,0,1.816-0.197,2.279-0.604C19.49,15.848,19.723,15.293,19.723,14.602z"/>
		<path d="M16.865,1.013c-8.837,0-16,7.163-16,16s7.163,16,16,16s16-7.163,16-16S25.701,1.013,16.865,1.013z M17.661,30.14
			c-0.011,0.111-0.025,0.199-0.042,0.259L17.5,30.878l-1.237-0.014c-3.767-0.131-7.109-1.848-9.394-4.511l-0.111-0.111l0.011-0.011
			c-1.556-1.859-2.601-4.162-2.922-6.714l-0.93,0.93L2.75,20.348c-0.051-0.03-0.119-0.079-0.203-0.149
			c-0.077-0.063-0.152-0.132-0.225-0.204c-0.188-0.189-0.277-0.37-0.271-0.552c0.008-0.176,0.077-0.33,0.206-0.458l2.121-2.121
			c0.148-0.144,0.335-0.219,0.531-0.219c0.2,0,0.388,0.078,0.529,0.219l2.528,2.527l-0.102,0.168
			c-0.03,0.049-0.079,0.117-0.149,0.201c-0.062,0.076-0.131,0.152-0.205,0.225c-0.181,0.181-0.354,0.269-0.532,0.269
			c-0.19-0.007-0.349-0.078-0.477-0.206L5.89,19.435c0.763,5.326,5.374,9.395,10.823,9.395c0.055,0,0.333,0.009,0.533,0.155
			c0.034,0.021,0.081,0.056,0.126,0.096c0.201,0.188,0.301,0.448,0.301,0.779C17.673,29.955,17.67,30.049,17.661,30.14z
			 M22.138,23.615c-0.144,0.062-0.299,0.113-0.462,0.152c-0.252,0.061-0.494,0.091-0.72,0.091c-0.422,0-0.758-0.063-1-0.188
			c-0.241-0.123-0.498-0.354-0.762-0.684l-3.366-4.32h-1.046v4.307c0,0.251-0.079,0.464-0.235,0.633
			c-0.154,0.167-0.441,0.252-0.854,0.252c-0.209,0-0.424-0.011-0.639-0.031c-0.117-0.011-0.219-0.023-0.304-0.037l-0.105-0.016
			v-12.23c0-0.296,0.067-0.538,0.199-0.722c0.127-0.176,0.433-0.265,0.91-0.265h3.345c1.505,0,2.688,0.363,3.519,1.079
			c0.825,0.713,1.244,1.71,1.244,2.966c0,0.521-0.085,1.012-0.252,1.459c-0.165,0.444-0.404,0.847-0.713,1.196
			c-0.307,0.347-0.686,0.638-1.127,0.864c-0.44,0.228-0.949,0.376-1.511,0.442l-0.147,0.018l4.181,4.967L22.138,23.615z
			 M29.429,17.242c-0.148,0.144-0.335,0.219-0.531,0.219c-0.2,0-0.388-0.078-0.529-0.219l-2.528-2.527l0.102-0.168
			c0.03-0.049,0.079-0.117,0.149-0.201c0.062-0.076,0.131-0.152,0.205-0.225c0.181-0.181,0.354-0.269,0.532-0.269
			c0.19,0.007,0.349,0.078,0.477,0.206l0.613,0.613c-0.763-5.326-5.375-9.395-10.823-9.395c-0.055,0-0.333-0.009-0.533-0.155
			c-0.034-0.021-0.081-0.056-0.126-0.096c-0.201-0.188-0.301-0.448-0.301-0.779c0-0.095,0.003-0.188,0.013-0.28
			c0.011-0.111,0.025-0.199,0.042-0.259l0.118-0.479l1.237,0.014C23.97,3.464,29.17,8.286,29.961,14.588l0.93-0.93l0.167,0.099
			c0.051,0.03,0.119,0.079,0.203,0.149c0.077,0.063,0.152,0.132,0.225,0.204c0.188,0.189,0.277,0.37,0.271,0.552
			c-0.008,0.176-0.077,0.33-0.206,0.458L29.429,17.242z"/>
	</g>
</g>
<g id="TITLES">
</g>
</svg>
