<?xml version="1.0" encoding="iso-8859-1"?>
<!-- Generator: Adobe Illustrator 17.1.0, SVG Export Plug-In . SVG Version: 6.00 Build 0)  -->
<!DOCTYPE svg PUBLIC "-//W3C//DTD SVG 1.1//EN" "http://www.w3.org/Graphics/SVG/1.1/DTD/svg11.dtd">
<svg version="1.1" xmlns="http://www.w3.org/2000/svg" xmlns:xlink="http://www.w3.org/1999/xlink" x="0px" y="0px"
	 viewBox="0 0 34 34" style="enable-background:new 0 0 34 34;" xml:space="preserve">
<g id="BLOCKS" style="display:none;">
	<rect x="0.027" y="0.021" style="display:inline;fill:#CCCACB;" width="34" height="34"/>
</g>
<g id="INNER_GUDIES">
</g>
<g id="MAIN_GUIDES">
</g>
<g id="ICONS">
	<g>
		<path d="M17.047,8.766h-4.075c-0.694,0-0.915,0.162-0.985,0.259c-0.143,0.198-0.215,0.464-0.215,0.791v14.77
			c0.101,0.016,0.222,0.03,0.361,0.044c0.249,0.025,0.506,0.037,0.764,0.037c0.451,0,0.773-0.089,0.93-0.258
			c0.165-0.178,0.246-0.397,0.246-0.668v-5.149v-0.25h0.25h1.129h0.122l0.075,0.096l4.071,5.225c0.307,0.384,0.604,0.652,0.88,0.794
			c0.272,0.14,0.659,0.211,1.148,0.211c0.261,0,0.545-0.036,0.842-0.107c0.187-0.044,0.366-0.103,0.536-0.176l-4.845-5.756
			l-0.299-0.355l0.46-0.055c0.666-0.079,1.269-0.255,1.79-0.524c0.52-0.268,0.966-0.61,1.327-1.019
			c0.362-0.409,0.644-0.883,0.841-1.409c0.197-0.529,0.297-1.109,0.297-1.725c0-1.483-0.492-2.66-1.464-3.498
			C20.251,9.196,18.842,8.766,17.047,8.766z M19.499,15.667c-0.594,0.521-1.535,0.774-2.877,0.774h-2.3h-0.25v-0.25v-5.125v-0.25
			h0.25h2.75c1.123,0,1.964,0.235,2.501,0.699c0.547,0.473,0.824,1.155,0.824,2.027C20.396,14.428,20.094,15.143,19.499,15.667z"/>
		<path d="M16.866,3.021c7.72,0,14,6.28,14,14s-6.28,14-14,14s-14-6.28-14-14S9.147,3.021,16.866,3.021 M16.866,1.021
			c-8.837,0-16,7.163-16,16s7.163,16,16,16c8.837,0,16-7.163,16-16S25.703,1.021,16.866,1.021L16.866,1.021z"/>
	</g>
</g>
<g id="TITLES">
</g>
</svg>
