<?xml version="1.0" encoding="iso-8859-1"?>
<!-- Generator: Adobe Illustrator 17.1.0, SVG Export Plug-In . SVG Version: 6.00 Build 0)  -->
<!DOCTYPE svg PUBLIC "-//W3C//DTD SVG 1.1//EN" "http://www.w3.org/Graphics/SVG/1.1/DTD/svg11.dtd">
<svg version="1.1" xmlns="http://www.w3.org/2000/svg" xmlns:xlink="http://www.w3.org/1999/xlink" x="0px" y="0px"
	 viewBox="0 0 34 34" style="enable-background:new 0 0 34 34;" xml:space="preserve">
<g id="BLOCKS" style="display:none;">
	<rect x="0.027" y="0.022" style="display:inline;fill:#CCCACB;" width="34" height="34"/>
</g>
<g id="INNER_GUDIES">
</g>
<g id="MAIN_GUIDES">
</g>
<g id="ICONS">
	<g>
		<g>
			<path d="M17.662,30.141c-0.011,0.111-0.025,0.199-0.042,0.259l-0.118,0.479l-1.237-0.014c-3.767-0.131-7.109-1.848-9.394-4.511
				l-0.111-0.111l0.011-0.011c-1.556-1.859-2.601-4.162-2.922-6.714l-0.93,0.93l-0.167-0.099c-0.051-0.03-0.119-0.079-0.203-0.149
				c-0.077-0.063-0.152-0.132-0.225-0.204c-0.188-0.189-0.277-0.37-0.271-0.552c0.008-0.176,0.077-0.33,0.206-0.458l2.121-2.121
				c0.148-0.144,0.335-0.219,0.531-0.219c0.2,0,0.388,0.078,0.529,0.219l2.528,2.527l-0.102,0.168
				c-0.03,0.049-0.079,0.117-0.149,0.201c-0.062,0.076-0.131,0.152-0.205,0.225c-0.181,0.181-0.354,0.269-0.532,0.269
				c-0.19-0.007-0.349-0.078-0.477-0.206l-0.613-0.613c0.763,5.326,5.374,9.395,10.823,9.395c0.055,0,0.333,0.009,0.533,0.155
				c0.034,0.021,0.081,0.056,0.126,0.096c0.201,0.188,0.301,0.448,0.301,0.779C17.675,29.955,17.672,30.049,17.662,30.141z
				 M29.431,17.242c-0.148,0.144-0.335,0.219-0.531,0.219c-0.2,0-0.388-0.078-0.529-0.219l-2.528-2.527l0.102-0.168
				c0.03-0.049,0.079-0.117,0.149-0.201c0.062-0.076,0.131-0.152,0.205-0.225c0.181-0.181,0.354-0.269,0.532-0.269
				c0.19,0.007,0.349,0.078,0.477,0.206l0.613,0.613c-0.763-5.326-5.375-9.395-10.823-9.395c-0.055,0-0.333-0.009-0.533-0.155
				c-0.034-0.021-0.081-0.056-0.126-0.096c-0.201-0.188-0.301-0.448-0.301-0.779c0-0.095,0.003-0.188,0.013-0.28
				c0.011-0.111,0.025-0.199,0.042-0.259l0.118-0.479l1.237,0.014c6.425,0.224,11.625,5.045,12.417,11.348l0.93-0.93l0.167,0.099
				c0.051,0.03,0.119,0.079,0.203,0.149c0.077,0.063,0.152,0.132,0.225,0.204c0.188,0.189,0.277,0.37,0.271,0.552
				c-0.008,0.176-0.077,0.33-0.206,0.458L29.431,17.242z"/>
		</g>
		<path d="M18.113,18.582l0.147-0.018c0.562-0.066,1.07-0.215,1.511-0.442c0.441-0.227,0.82-0.518,1.127-0.864
			c0.309-0.35,0.548-0.752,0.713-1.196c0.167-0.447,0.252-0.938,0.252-1.459c0-1.256-0.419-2.253-1.244-2.966
			c-0.83-0.716-2.014-1.079-3.519-1.079h-3.345c-0.478,0-0.783,0.089-0.91,0.265c-0.132,0.184-0.199,0.426-0.199,0.722v12.23
			l0.105,0.016c0.085,0.014,0.187,0.026,0.304,0.037c0.215,0.021,0.43,0.031,0.639,0.031c0.413,0,0.7-0.085,0.854-0.252
			c0.156-0.169,0.235-0.382,0.235-0.633v-4.307h1.046l3.366,4.32c0.264,0.33,0.521,0.561,0.762,0.684
			c0.242,0.124,0.578,0.188,1,0.188c0.226,0,0.468-0.03,0.72-0.091c0.163-0.039,0.318-0.09,0.462-0.152l0.154-0.066L18.113,18.582z
			 M19.725,14.603c0,0.69-0.233,1.246-0.693,1.65c-0.463,0.406-1.209,0.604-2.279,0.604h-1.968v-4.366h2.337
			c0.892,0,1.555,0.183,1.971,0.543C19.512,13.396,19.725,13.923,19.725,14.603z"/>
	</g>
</g>
<g id="TITLES">
</g>
</svg>
