<?xml version="1.0" encoding="iso-8859-1"?>
<!-- Generator: Adobe Illustrator 17.1.0, SVG Export Plug-In . SVG Version: 6.00 Build 0)  -->
<!DOCTYPE svg PUBLIC "-//W3C//DTD SVG 1.1//EN" "http://www.w3.org/Graphics/SVG/1.1/DTD/svg11.dtd">
<svg version="1.1" xmlns="http://www.w3.org/2000/svg" xmlns:xlink="http://www.w3.org/1999/xlink" x="0px" y="0px"
	 viewBox="0 0 34 34" style="enable-background:new 0 0 34 34;" xml:space="preserve">
<g id="BLOCKS" style="display:none;">
	<rect x="0.026" y="0.021" style="display:inline;fill:#CCCACB;" width="34" height="34"/>
</g>
<g id="INNER_GUDIES">
</g>
<g id="MAIN_GUIDES">
</g>
<g id="ICONS">
	<g>
		<path d="M16.865,1.013c-8.837,0-16,7.163-16,16s7.163,16,16,16s16-7.163,16-16S25.701,1.013,16.865,1.013z M22.587,24.476
			c-0.298,0.071-0.581,0.107-0.842,0.107c-0.489,0-0.876-0.071-1.148-0.211c-0.276-0.141-0.572-0.409-0.88-0.794l-4.071-5.225
			l-0.075-0.096h-0.122H14.32h-0.25v0.25v5.149c0,0.271-0.08,0.489-0.246,0.668c-0.157,0.169-0.478,0.258-0.93,0.258
			c-0.258,0-0.514-0.012-0.764-0.037c-0.14-0.013-0.261-0.028-0.361-0.044V9.732c0-0.327,0.073-0.593,0.215-0.791
			c0.07-0.097,0.291-0.259,0.985-0.259h4.075c1.796,0,3.204,0.43,4.186,1.277c0.971,0.838,1.464,2.015,1.464,3.498
			c0,0.616-0.1,1.196-0.297,1.725c-0.196,0.526-0.479,1-0.841,1.409C21.197,17,20.75,17.343,20.23,17.611
			c-0.521,0.269-1.124,0.445-1.79,0.524l-0.46,0.055l0.299,0.355l4.845,5.756C22.953,24.374,22.774,24.433,22.587,24.476z"/>
		<path d="M20.395,13.458c0-0.872-0.277-1.554-0.824-2.027c-0.537-0.464-1.378-0.699-2.501-0.699h-2.75h-0.25v0.25v5.125v0.25h0.25
			h2.3c1.342,0,2.283-0.253,2.877-0.774C20.093,15.06,20.395,14.345,20.395,13.458z"/>
	</g>
</g>
<g id="TITLES">
</g>
</svg>
