<?xml version="1.0" encoding="iso-8859-1"?>
<!-- Generator: Adobe Illustrator 17.1.0, SVG Export Plug-In . SVG Version: 6.00 Build 0)  -->
<!DOCTYPE svg PUBLIC "-//W3C//DTD SVG 1.1//EN" "http://www.w3.org/Graphics/SVG/1.1/DTD/svg11.dtd">
<svg version="1.1" xmlns="http://www.w3.org/2000/svg" xmlns:xlink="http://www.w3.org/1999/xlink" x="0px" y="0px"
	 viewBox="0 0 34 34" style="enable-background:new 0 0 34 34;" xml:space="preserve">
<g id="BLOCKS" style="display:none;">
	<rect x="0.025" y="0.021" style="display:inline;fill:#CCCACB;" width="34" height="34"/>
</g>
<g id="INNER_GUDIES">
</g>
<g id="MAIN_GUIDES">
</g>
<g id="ICONS">
	<path d="M29.514,19.978c-0.148,0.144-0.335,0.219-0.531,0.219c-0.2,0-0.388-0.078-0.529-0.219l-2.528-2.527l0.102-0.168
		c0.03-0.049,0.079-0.117,0.149-0.201c0.062-0.076,0.131-0.152,0.205-0.225c0.181-0.181,0.354-0.269,0.532-0.269
		c0.19,0.007,0.349,0.078,0.477,0.206l0.631,0.631l0.086-0.001c-0.004-0.008-0.011-0.014-0.015-0.021h-0.062l-0.052-0.191
		l-0.011-0.239c0-2.935-1.136-5.684-3.199-7.747c-2.063-2.062-4.811-3.198-7.735-3.198s-5.673,1.136-7.735,3.199
		c-2.063,2.062-3.199,4.811-3.199,7.735c0,2.926,1.136,5.674,3.199,7.735c2.062,2.062,4.808,3.197,7.732,3.197l0.441-0.002v0.007
		l0.387,0.001l0.084,0.332c0.018,0.075,0.034,0.179,0.049,0.31c0.012,0.131,0.018,0.253,0.018,0.376
		c0,0.356-0.093,0.615-0.283,0.791c-0.178,0.165-0.397,0.249-0.652,0.249l-0.362-0.008c-3.354-0.082-6.503-1.43-8.869-3.797
		c-2.455-2.454-3.808-5.719-3.808-9.191s1.353-6.737,3.808-9.192c2.455-2.454,5.719-3.807,9.191-3.807s6.737,1.353,9.191,3.808
		c2.383,2.382,3.733,5.548,3.803,8.915l0.005,0.656l0.945-0.946l0.167,0.099c0.051,0.03,0.119,0.079,0.203,0.149
		c0.077,0.063,0.152,0.132,0.225,0.204c0.188,0.189,0.277,0.37,0.271,0.552c-0.008,0.176-0.077,0.33-0.206,0.458L29.514,19.978z"/>
</g>
<g id="TITLES">
</g>
</svg>
