<?xml version="1.0" encoding="iso-8859-1"?>
<!-- Generator: Adobe Illustrator 17.1.0, SVG Export Plug-In . SVG Version: 6.00 Build 0)  -->
<!DOCTYPE svg PUBLIC "-//W3C//DTD SVG 1.1//EN" "http://www.w3.org/Graphics/SVG/1.1/DTD/svg11.dtd">
<svg version="1.1" xmlns="http://www.w3.org/2000/svg" xmlns:xlink="http://www.w3.org/1999/xlink" x="0px" y="0px"
	 viewBox="0 0 34 34" style="enable-background:new 0 0 34 34;" xml:space="preserve">
<g id="BLOCKS" style="display:none;">
	<rect x="0.026" y="0.022" style="display:inline;fill:#CCCACB;" width="34" height="34"/>
</g>
<g id="INNER_GUDIES">
</g>
<g id="MAIN_GUIDES">
</g>
<g id="ICONS">
	<g>
		<path d="M16.865,1.014c-8.837,0-16,7.163-16,16s7.163,16,16,16s16-7.163,16-16S25.701,1.014,16.865,1.014z M23.153,22.729
			c-0.134,0.134-0.273,0.261-0.416,0.379c-0.143,0.117-0.257,0.201-0.341,0.252l-0.524-0.525l-0.006-0.006l-5.819-5.819l0.007-0.007
			c-0.141-0.157-0.224-0.332-0.232-0.532c0,0-0.001,0-0.001,0v-0.742v-0.008v-10h0.009c0.011-0.212,0.077-0.396,0.214-0.544
			c0.149-0.16,0.414-0.241,0.795-0.241c0.19,0,0.378,0.009,0.562,0.027c0.184,0.018,0.324,0.039,0.42,0.063v0.695v0.055v9.953
			h-0.001c-0.001,0.069-0.02,0.128-0.033,0.19l5.5,5.5l-0.001,0.001c0.164,0.167,0.252,0.358,0.261,0.574
			C23.553,22.216,23.423,22.46,23.153,22.729z"/>
	</g>
</g>
<g id="TITLES">
</g>
</svg>
