<?xml version="1.0" encoding="iso-8859-1"?>
<!-- Generator: Adobe Illustrator 17.1.0, SVG Export Plug-In . SVG Version: 6.00 Build 0)  -->
<!DOCTYPE svg PUBLIC "-//W3C//DTD SVG 1.1//EN" "http://www.w3.org/Graphics/SVG/1.1/DTD/svg11.dtd">
<svg version="1.1" xmlns="http://www.w3.org/2000/svg" xmlns:xlink="http://www.w3.org/1999/xlink" x="0px" y="0px"
	 viewBox="0 0 34 34" style="enable-background:new 0 0 34 34;" xml:space="preserve">
<g id="BLOCKS" style="display:none;">
	<rect x="0.025" y="0.022" style="display:inline;fill:#CCCACB;" width="34" height="34"/>
</g>
<g id="INNER_GUDIES">
</g>
<g id="MAIN_GUIDES">
</g>
<g id="ICONS">
	<g>
		<path d="M23.284,22.505l-5.5-5.5c0.013-0.062,0.033-0.121,0.033-0.19h0.001V6.861V6.806V6.111
			c-0.096-0.024-0.235-0.045-0.42-0.063c-0.185-0.017-0.372-0.027-0.562-0.027c-0.381,0-0.646,0.08-0.795,0.241
			c-0.137,0.148-0.203,0.332-0.214,0.544h-0.009v10v0.008v0.742c0,0,0.001,0,0.001,0c0.009,0.199,0.091,0.375,0.232,0.532
			l-0.007,0.007l5.819,5.819l0.006,0.006l0.525,0.525c0.084-0.051,0.198-0.135,0.341-0.252c0.143-0.118,0.282-0.245,0.416-0.379
			c0.27-0.27,0.4-0.513,0.392-0.732C23.535,22.864,23.447,22.673,23.284,22.505L23.284,22.505z"/>
		<path d="M16.864,1.022c-8.837,0-16,7.163-16,16s7.163,16,16,16s16-7.163,16-16S25.7,1.022,16.864,1.022z M16.864,31.022
			c-7.72,0-14-6.28-14-14s6.28-14,14-14c7.72,0,14,6.28,14,14S24.583,31.022,16.864,31.022z"/>
	</g>
</g>
<g id="TITLES">
</g>
</svg>
