<?xml version="1.0" encoding="iso-8859-1"?>
<!-- Generator: Adobe Illustrator 17.1.0, SVG Export Plug-In . SVG Version: 6.00 Build 0)  -->
<!DOCTYPE svg PUBLIC "-//W3C//DTD SVG 1.1//EN" "http://www.w3.org/Graphics/SVG/1.1/DTD/svg11.dtd">
<svg version="1.1" xmlns="http://www.w3.org/2000/svg" xmlns:xlink="http://www.w3.org/1999/xlink" x="0px" y="0px"
	 viewBox="0 0 34 34" style="enable-background:new 0 0 34 34;" xml:space="preserve">
<g id="BLOCKS" style="display:none;">
	<rect x="0.027" y="0.022" style="display:inline;fill:#CCCACB;" width="34" height="34"/>
</g>
<g id="INNER_GUDIES">
</g>
<g id="MAIN_GUIDES">
</g>
<g id="ICONS">
	<g>
		<path d="M17.248,28.986c-0.2-0.146-0.479-0.155-0.533-0.155c-5.449,0-10.06-4.069-10.823-9.395l0.613,0.613
			c0.128,0.128,0.286,0.199,0.477,0.206c0.178,0,0.352-0.088,0.532-0.269c0.074-0.073,0.143-0.149,0.205-0.225
			c0.07-0.084,0.119-0.152,0.149-0.201l0.102-0.168l-2.528-2.527c-0.142-0.142-0.329-0.219-0.529-0.219
			c-0.196,0-0.383,0.076-0.531,0.219l-2.121,2.121c-0.129,0.129-0.198,0.282-0.206,0.458c-0.007,0.183,0.082,0.363,0.271,0.552
			c0.072,0.072,0.147,0.141,0.225,0.204c0.084,0.07,0.152,0.119,0.203,0.149l0.167,0.099l0.93-0.93
			c0.32,2.552,1.365,4.855,2.922,6.714l-0.011,0.011l0.111,0.111c2.286,2.663,5.627,4.38,9.394,4.511l1.237,0.014L17.62,30.4
			c0.017-0.06,0.031-0.147,0.042-0.259c0.01-0.092,0.013-0.186,0.013-0.28c0-0.331-0.1-0.592-0.301-0.779
			C17.329,29.041,17.282,29.006,17.248,28.986z"/>
		<path d="M31.487,14.111c-0.072-0.072-0.147-0.141-0.225-0.204c-0.084-0.07-0.152-0.119-0.203-0.149l-0.167-0.099l-0.93,0.93
			C29.171,8.287,23.972,3.465,17.546,3.241l-1.237-0.014l-0.118,0.479c-0.017,0.06-0.031,0.147-0.042,0.259
			c-0.01,0.092-0.013,0.186-0.013,0.28c0,0.331,0.1,0.592,0.301,0.779c0.045,0.04,0.092,0.075,0.126,0.096
			c0.2,0.146,0.479,0.155,0.533,0.155c5.449,0,10.06,4.069,10.823,9.395l-0.613-0.613c-0.128-0.128-0.286-0.199-0.477-0.206
			c-0.178,0-0.352,0.088-0.532,0.269c-0.074,0.073-0.143,0.149-0.205,0.225c-0.07,0.084-0.119,0.152-0.149,0.201l-0.102,0.168
			l2.528,2.527c0.142,0.142,0.329,0.219,0.529,0.219c0.196,0,0.383-0.076,0.531-0.219l2.121-2.121
			c0.129-0.129,0.198-0.282,0.206-0.458C31.765,14.48,31.676,14.3,31.487,14.111z"/>
		<path d="M21.385,11.295h-9c-0.689,0-1.25,0.561-1.25,1.25v9c0,0.689,0.561,1.25,1.25,1.25h9c0.689,0,1.25-0.561,1.25-1.25v-9
			C22.635,11.856,22.074,11.295,21.385,11.295z M20.635,20.795h-7.5v-7.5h7.5V20.795z"/>
	</g>
</g>
<g id="TITLES">
</g>
</svg>
