<?xml version="1.0" encoding="iso-8859-1"?>
<!-- Generator: Adobe Illustrator 17.1.0, SVG Export Plug-In . SVG Version: 6.00 Build 0)  -->
<!DOCTYPE svg PUBLIC "-//W3C//DTD SVG 1.1//EN" "http://www.w3.org/Graphics/SVG/1.1/DTD/svg11.dtd">
<svg version="1.1" xmlns="http://www.w3.org/2000/svg" xmlns:xlink="http://www.w3.org/1999/xlink" x="0px" y="0px"
	 viewBox="0 0 34 34" style="enable-background:new 0 0 34 34;" xml:space="preserve">
<g id="BLOCKS" style="display:none;">
	<rect x="0.027" y="0.021" style="display:inline;fill:#CCCACB;" width="34" height="34"/>
</g>
<g id="INNER_GUDIES">
</g>
<g id="MAIN_GUIDES">
</g>
<g id="ICONS">
	<g>
		<rect x="13.135" y="13.294" width="7.5" height="7.5"/>
		<path d="M16.866,1.013c-8.837,0-16,7.163-16,16s7.163,16,16,16s16-7.163,16-16S25.703,1.013,16.866,1.013z M17.662,30.14
			c-0.011,0.111-0.025,0.199-0.042,0.259l-0.118,0.479l-1.237-0.014c-3.767-0.131-7.109-1.848-9.394-4.511l-0.111-0.111l0.011-0.011
			c-1.556-1.859-2.601-4.162-2.922-6.714l-0.93,0.93l-0.167-0.099c-0.051-0.03-0.119-0.079-0.203-0.149
			c-0.077-0.063-0.152-0.132-0.225-0.204c-0.188-0.189-0.277-0.37-0.271-0.552c0.008-0.176,0.077-0.33,0.206-0.458l2.121-2.121
			c0.148-0.144,0.335-0.219,0.531-0.219c0.2,0,0.388,0.078,0.529,0.219l2.528,2.527l-0.102,0.168
			c-0.03,0.049-0.079,0.117-0.149,0.201c-0.062,0.076-0.131,0.152-0.205,0.225c-0.181,0.181-0.354,0.269-0.532,0.269
			c-0.19-0.007-0.349-0.078-0.477-0.206l-0.613-0.613c0.763,5.326,5.374,9.395,10.823,9.395c0.055,0,0.333,0.009,0.533,0.155
			c0.034,0.021,0.081,0.056,0.126,0.096c0.201,0.188,0.301,0.448,0.301,0.779C17.675,29.955,17.672,30.049,17.662,30.14z
			 M22.635,21.544c0,0.689-0.561,1.25-1.25,1.25h-9c-0.689,0-1.25-0.561-1.25-1.25v-9c0-0.689,0.561-1.25,1.25-1.25h9
			c0.689,0,1.25,0.561,1.25,1.25V21.544z M29.431,17.242c-0.148,0.144-0.335,0.219-0.531,0.219c-0.2,0-0.388-0.078-0.529-0.219
			l-2.528-2.527l0.102-0.168c0.03-0.049,0.079-0.117,0.149-0.201c0.062-0.076,0.131-0.152,0.205-0.225
			c0.181-0.181,0.354-0.269,0.532-0.269c0.19,0.007,0.349,0.078,0.477,0.206l0.613,0.613c-0.763-5.326-5.375-9.395-10.823-9.395
			c-0.055,0-0.333-0.009-0.533-0.155c-0.034-0.021-0.081-0.056-0.126-0.096c-0.201-0.188-0.301-0.448-0.301-0.779
			c0-0.095,0.003-0.188,0.013-0.28c0.011-0.111,0.025-0.199,0.042-0.259l0.118-0.479l1.237,0.014
			c6.425,0.224,11.625,5.045,12.417,11.348l0.93-0.93l0.167,0.099c0.051,0.03,0.119,0.079,0.203,0.149
			c0.077,0.063,0.152,0.132,0.225,0.204c0.188,0.189,0.277,0.37,0.271,0.552c-0.008,0.176-0.077,0.33-0.206,0.458L29.431,17.242z"/>
	</g>
</g>
<g id="TITLES">
</g>
</svg>
