<?xml version="1.0" encoding="iso-8859-1"?>
<!-- Generator: Adobe Illustrator 17.1.0, SVG Export Plug-In . SVG Version: 6.00 Build 0)  -->
<!DOCTYPE svg PUBLIC "-//W3C//DTD SVG 1.1//EN" "http://www.w3.org/Graphics/SVG/1.1/DTD/svg11.dtd">
<svg version="1.1" xmlns="http://www.w3.org/2000/svg" xmlns:xlink="http://www.w3.org/1999/xlink" x="0px" y="0px"
	 viewBox="0 0 34 34" style="enable-background:new 0 0 34 34;" xml:space="preserve">
<g id="BLOCKS" style="display:none;">
	<rect x="0.026" y="0.021" style="display:inline;fill:#CCCACB;" width="34" height="34"/>
</g>
<g id="INNER_GUDIES">
</g>
<g id="MAIN_GUIDES">
</g>
<g id="ICONS">
	<g>
		<path d="M16.865,1.013c-8.837,0-16,7.163-16,16s7.163,16,16,16s16-7.163,16-16S25.701,1.013,16.865,1.013z M15.335,23.974
			c-1.075,1.072-2.317,0.067-3.168-0.781l-5.515-5.492c-0.423-0.421-0.423-1.104,0-1.526l5.515-5.492
			c0.851-0.848,2.093-1.852,3.168-0.781V23.974z M24.735,23.974c-1.075,1.072-2.317,0.067-3.168-0.781l-5.515-5.492
			c-0.422-0.421-0.422-1.104,0-1.526l5.515-5.492c0.851-0.848,2.093-1.852,3.168-0.781V23.974z"/>
	</g>
</g>
<g id="TITLES">
</g>
</svg>
