<?xml version="1.0" encoding="iso-8859-1"?>
<!-- Generator: Adobe Illustrator 17.1.0, SVG Export Plug-In . SVG Version: 6.00 Build 0)  -->
<!DOCTYPE svg PUBLIC "-//W3C//DTD SVG 1.1//EN" "http://www.w3.org/Graphics/SVG/1.1/DTD/svg11.dtd">
<svg version="1.1" xmlns="http://www.w3.org/2000/svg" xmlns:xlink="http://www.w3.org/1999/xlink" x="0px" y="0px"
	 viewBox="0 0 34 34" style="enable-background:new 0 0 34 34;" xml:space="preserve">
<g id="BLOCKS" style="display:none;">
	<rect x="0.027" y="0.022" style="display:inline;fill:#CCCACB;" width="34" height="34"/>
</g>
<g id="INNER_GUDIES">
</g>
<g id="MAIN_GUIDES">
</g>
<g id="ICONS">
	<g>
		<path d="M16.866,1.014c-8.837,0-16,7.163-16,16s7.163,16,16,16s16-7.163,16-16S25.703,1.014,16.866,1.014z M22.913,15.529
			c-0.164,0.2-0.343,0.398-0.534,0.588c-0.383,0.383-0.613,0.441-0.726,0.441h0c-0.202-0.008-0.373-0.088-0.537-0.252l-0.17-0.17
			l-0.804-0.804l-1.587-1.587l-0.854-0.854l0,1.208l0.004,9.621v0.702c-0.053,0.006-0.111,0.013-0.176,0.019
			c-0.263,0.025-0.531,0.037-0.797,0.037c-0.406,0-0.707-0.073-0.825-0.201c-0.138-0.149-0.202-0.326-0.202-0.558v-9.622v-1.207
			l-0.854,0.854l-1.588,1.588l-1.47,1.47c-0.042-0.033-0.089-0.071-0.14-0.113c-0.2-0.164-0.398-0.344-0.589-0.534
			c-0.287-0.287-0.448-0.552-0.441-0.726c0.008-0.202,0.088-0.373,0.252-0.537l0.171-0.171l0.803-0.803l4.146-4.146
			c0.189-0.189,0.44-0.293,0.707-0.293c0.267,0,0.518,0.104,0.707,0.293l4.95,4.949l0.667,0.667
			C22.993,15.431,22.956,15.478,22.913,15.529z"/>
	</g>
</g>
<g id="TITLES">
</g>
</svg>
