<?xml version="1.0" encoding="iso-8859-1"?>
<!-- Generator: Adobe Illustrator 17.1.0, SVG Export Plug-In . SVG Version: 6.00 Build 0)  -->
<!DOCTYPE svg PUBLIC "-//W3C//DTD SVG 1.1//EN" "http://www.w3.org/Graphics/SVG/1.1/DTD/svg11.dtd">
<svg version="1.1" xmlns="http://www.w3.org/2000/svg" xmlns:xlink="http://www.w3.org/1999/xlink" x="0px" y="0px"
	 viewBox="0 0 34 34" style="enable-background:new 0 0 34 34;" xml:space="preserve">
<g id="BLOCKS" style="display:none;">
	<rect x="0.027" y="0.022" style="display:inline;fill:#CCCACB;" width="34" height="34"/>
</g>
<g id="INNER_GUDIES">
</g>
<g id="MAIN_GUIDES">
</g>
<g id="ICONS">
	<g>
		<path d="M13.509,18.711l-0.804-0.804l-0.17-0.17c-0.164-0.164-0.335-0.244-0.537-0.252c0,0,0,0,0,0
			c-0.113,0-0.342,0.058-0.726,0.441c-0.191,0.191-0.37,0.389-0.534,0.588c-0.042,0.051-0.08,0.098-0.113,0.14l0.667,0.667
			l4.95,4.949c0.189,0.189,0.44,0.293,0.707,0.293s0.518-0.104,0.707-0.293l4.146-4.146l0.803-0.803l0.171-0.171
			c0.164-0.164,0.244-0.335,0.252-0.537c0.006-0.175-0.154-0.439-0.441-0.726c-0.191-0.191-0.389-0.37-0.589-0.534
			c-0.051-0.042-0.098-0.08-0.14-0.113l-1.47,1.47l-1.588,1.588l-0.854,0.854v-1.207v-9.622c0-0.232-0.064-0.41-0.202-0.558
			c-0.118-0.127-0.419-0.201-0.825-0.201c-0.265,0-0.533,0.013-0.797,0.037c-0.065,0.006-0.124,0.013-0.176,0.019v0.702l0.004,9.621
			l0,1.208l-0.854-0.854L13.509,18.711z"/>
		<path d="M16.866,3.022c7.72,0,14,6.28,14,14s-6.28,14-14,14s-14-6.28-14-14S9.147,3.022,16.866,3.022 M16.866,1.022
			c-8.837,0-16,7.163-16,16s7.163,16,16,16c8.837,0,16-7.163,16-16S25.703,1.022,16.866,1.022L16.866,1.022z"/>
	</g>
</g>
<g id="TITLES">
</g>
</svg>
