<?xml version="1.0" encoding="iso-8859-1"?>
<!-- Generator: Adobe Illustrator 17.1.0, SVG Export Plug-In . SVG Version: 6.00 Build 0)  -->
<!DOCTYPE svg PUBLIC "-//W3C//DTD SVG 1.1//EN" "http://www.w3.org/Graphics/SVG/1.1/DTD/svg11.dtd">
<svg version="1.1" xmlns="http://www.w3.org/2000/svg" xmlns:xlink="http://www.w3.org/1999/xlink" x="0px" y="0px"
	 viewBox="0 0 34 34" style="enable-background:new 0 0 34 34;" xml:space="preserve">
<g id="BLOCKS" style="display:none;">
	<rect x="0.026" y="0.022" style="display:inline;fill:#CCCACB;" width="34" height="34"/>
</g>
<g id="INNER_GUDIES">
</g>
<g id="MAIN_GUIDES">
</g>
<g id="ICONS">
	<g>
		<path d="M16.865,1.014c-8.837,0-16,7.163-16,16s7.163,16,16,16s16-7.163,16-16S25.701,1.014,16.865,1.014z M22.773,19.067
			l-0.171,0.171l-0.803,0.803l-4.146,4.146c-0.189,0.189-0.44,0.293-0.707,0.293c-0.267,0-0.518-0.104-0.707-0.293l-4.95-4.949
			l-0.667-0.667c0.033-0.042,0.071-0.089,0.114-0.14c0.164-0.2,0.343-0.398,0.534-0.588c0.383-0.383,0.613-0.441,0.726-0.441h0
			c0.202,0.008,0.373,0.088,0.537,0.252l0.17,0.17l0.804,0.804l1.587,1.587l0.854,0.854l0-1.208l-0.004-9.621V9.537
			c0.053-0.006,0.111-0.013,0.176-0.019c0.263-0.025,0.531-0.037,0.797-0.037c0.406,0,0.707,0.073,0.825,0.201
			c0.138,0.149,0.202,0.326,0.202,0.558v9.622v1.207l0.854-0.854l1.588-1.588l1.47-1.47c0.042,0.033,0.089,0.071,0.14,0.113
			c0.2,0.164,0.398,0.344,0.589,0.534c0.287,0.287,0.448,0.552,0.441,0.726C23.017,18.732,22.937,18.903,22.773,19.067z"/>
	</g>
</g>
<g id="TITLES">
</g>
</svg>
