<?xml version="1.0" encoding="iso-8859-1"?>
<!-- Generator: Adobe Illustrator 17.1.0, SVG Export Plug-In . SVG Version: 6.00 Build 0)  -->
<!DOCTYPE svg PUBLIC "-//W3C//DTD SVG 1.1//EN" "http://www.w3.org/Graphics/SVG/1.1/DTD/svg11.dtd">
<svg version="1.1" xmlns="http://www.w3.org/2000/svg" xmlns:xlink="http://www.w3.org/1999/xlink" x="0px" y="0px"
	 viewBox="0 0 44 34" style="enable-background:new 0 0 44 34;" xml:space="preserve">
<g id="BLOCKS" style="display:none;">
	<rect x="-0.011" y="-0.026" style="display:inline;fill:#CCCACB;" width="44" height="34"/>
</g>
<g id="INNER_GUDIES">
</g>
<g id="MAIN_GUIDES">
</g>
<g id="ICONS">
	<g>
		<path style="fill:#121212;" d="M39.483,1.786h-35c-1.93,0-3.5,1.57-3.5,3.5v23c0,1.93,1.57,3.5,3.5,3.5h35
			c1.93,0,3.5-1.57,3.5-3.5v-23C42.983,3.356,41.413,1.786,39.483,1.786z M19.156,22.033c-0.225,0.56-0.585,1.05-1.069,1.455
			c-0.491,0.412-1.119,0.737-1.868,0.968c-0.759,0.234-1.687,0.352-2.758,0.352c-0.802,0-1.686-0.083-2.627-0.247
			c-0.893-0.155-1.817-0.387-2.749-0.69c-0.001-0.011-0.003-0.021-0.005-0.032c-0.006-0.038-0.009-0.083-0.009-0.134
			c0-0.505,0.09-0.913,0.266-1.215c0.156-0.266,0.398-0.39,0.762-0.39c0.198,0,0.441,0.032,0.723,0.094l0.47,0.104l0.544,0.121
			c0.383,0.086,0.811,0.163,1.272,0.229c0.468,0.068,0.99,0.102,1.552,0.102c1.226,0,2.086-0.224,2.63-0.686
			c0.55-0.465,0.828-1.06,0.828-1.77c0-0.355-0.069-0.668-0.204-0.93c-0.134-0.259-0.328-0.482-0.576-0.662
			c-0.235-0.171-0.52-0.321-0.848-0.446c-0.323-0.121-0.687-0.241-1.086-0.357l-2.081-0.577c-1.578-0.435-2.686-1.039-3.292-1.795
			c-0.604-0.752-0.91-1.627-0.91-2.6c0-0.489,0.088-0.998,0.262-1.512c0.17-0.501,0.469-0.961,0.889-1.366
			c0.424-0.409,1.003-0.753,1.719-1.024c0.72-0.272,1.643-0.41,2.744-0.41c0.749,0,1.565,0.075,2.426,0.222
			c0.812,0.14,1.664,0.361,2.536,0.659V9.67c0,0.52-0.085,0.923-0.252,1.199c-0.147,0.243-0.378,0.355-0.726,0.355
			c-0.201,0-0.422-0.027-0.659-0.081c-0.262-0.059-0.558-0.119-0.889-0.179c-0.328-0.058-0.703-0.117-1.125-0.177
			c-0.43-0.059-0.914-0.089-1.438-0.089c-0.607,0-1.119,0.058-1.522,0.172c-0.415,0.117-0.756,0.28-1.013,0.482
			c-0.265,0.208-0.458,0.446-0.575,0.709c-0.114,0.257-0.172,0.523-0.172,0.791c0,0.631,0.223,1.12,0.663,1.452
			c0.404,0.306,1.092,0.591,2.1,0.869l2.21,0.628c2.826,0.743,4.199,2.156,4.199,4.319C19.502,20.82,19.386,21.464,19.156,22.033z
			 M35.459,19.702c-0.386,0.965-0.957,1.817-1.696,2.533c-0.743,0.718-1.656,1.294-2.713,1.714c-1.06,0.421-2.281,0.634-3.629,0.634
			h-3.358c-0.696,0-0.918-0.163-0.988-0.26c-0.143-0.197-0.216-0.464-0.216-0.793V9.846c0-0.328,0.073-0.595,0.216-0.793
			c0.07-0.097,0.292-0.26,0.988-0.26h3.433c1.319,0,2.523,0.185,3.577,0.55c1.048,0.363,1.951,0.889,2.682,1.564
			c0.729,0.673,1.299,1.496,1.693,2.444c0.395,0.951,0.595,2.031,0.595,3.212C36.042,17.678,35.846,18.734,35.459,19.702z"/>
		<path style="fill:#121212;" d="M31.847,12.303c-0.542-0.48-1.186-0.846-1.916-1.09c-0.725-0.242-1.511-0.364-2.335-0.364h-2.18
			h-0.25v0.25v11.178v0.25h0.25h2.23c0.809,0,1.583-0.127,2.301-0.377c0.722-0.253,1.362-0.633,1.904-1.13
			c0.543-0.5,0.976-1.133,1.289-1.88c0.312-0.745,0.471-1.629,0.471-2.627c0-0.901-0.159-1.715-0.473-2.42
			C32.824,13.388,32.39,12.786,31.847,12.303z"/>
	</g>
</g>
<g id="TITLES">
</g>
</svg>
