<?xml version="1.0" encoding="iso-8859-1"?>
<!-- Generator: Adobe Illustrator 17.1.0, SVG Export Plug-In . SVG Version: 6.00 Build 0)  -->
<!DOCTYPE svg PUBLIC "-//W3C//DTD SVG 1.1//EN" "http://www.w3.org/Graphics/SVG/1.1/DTD/svg11.dtd">
<svg version="1.1" xmlns="http://www.w3.org/2000/svg" xmlns:xlink="http://www.w3.org/1999/xlink" x="0px" y="0px"
	 viewBox="0 0 44 34" style="enable-background:new 0 0 44 34;" xml:space="preserve">
<g id="BLOCKS" style="display:none;">
	<rect x="-0.016" y="0.05" style="display:inline;fill:#CCCACB;" width="44" height="34"/>
</g>
<g id="INNER_GUDIES">
</g>
<g id="MAIN_GUIDES">
</g>
<g id="ICONS">
	<g>
		<path d="M8.082,23.954c0.932,0.303,1.856,0.536,2.749,0.69c0.94,0.164,1.824,0.247,2.627,0.247c1.071,0,1.999-0.118,2.758-0.352
			c0.748-0.231,1.377-0.556,1.868-0.968c0.484-0.406,0.843-0.895,1.069-1.455c0.229-0.569,0.346-1.212,0.346-1.912
			c0-2.164-1.374-3.577-4.199-4.319l-2.21-0.628c-1.008-0.278-1.696-0.562-2.1-0.869c-0.44-0.332-0.663-0.821-0.663-1.452
			c0-0.268,0.058-0.534,0.172-0.791c0.117-0.263,0.311-0.501,0.575-0.709c0.257-0.203,0.598-0.365,1.013-0.482
			c0.403-0.114,0.915-0.172,1.522-0.172c0.524,0,1.008,0.03,1.438,0.089c0.422,0.059,0.796,0.119,1.125,0.177
			c0.331,0.06,0.627,0.119,0.889,0.179c0.237,0.054,0.459,0.081,0.659,0.081c0.348,0,0.579-0.113,0.726-0.355
			c0.167-0.276,0.252-0.679,0.252-1.199V9.58c-0.872-0.298-1.724-0.519-2.536-0.659C15.298,8.775,14.482,8.7,13.733,8.7
			c-1.101,0-2.024,0.138-2.744,0.41C10.272,9.38,9.694,9.725,9.27,10.134c-0.42,0.405-0.72,0.864-0.889,1.366
			c-0.174,0.514-0.262,1.022-0.262,1.512c0,0.973,0.306,1.848,0.91,2.6c0.607,0.756,1.714,1.36,3.292,1.795l2.081,0.577
			c0.399,0.116,0.764,0.236,1.086,0.357c0.328,0.125,0.614,0.275,0.848,0.446c0.248,0.181,0.441,0.404,0.576,0.662
			c0.135,0.262,0.204,0.574,0.204,0.93c0,0.71-0.279,1.305-0.828,1.77c-0.544,0.461-1.404,0.686-2.63,0.686
			c-0.561,0-1.084-0.034-1.552-0.102c-0.461-0.067-0.889-0.144-1.272-0.229l-0.544-0.121l-0.47-0.104
			c-0.282-0.062-0.525-0.094-0.723-0.094c-0.364,0-0.606,0.124-0.762,0.39c-0.177,0.301-0.266,0.71-0.266,1.215
			c0,0.051,0.002,0.096,0.009,0.134C8.079,23.932,8.08,23.943,8.082,23.954z"/>
		<path d="M33.75,10.989c-0.731-0.675-1.633-1.201-2.682-1.564c-1.055-0.365-2.258-0.55-3.577-0.55h-3.433
			c-0.696,0-0.918,0.163-0.988,0.26c-0.143,0.198-0.216,0.465-0.216,0.793v13.684c0,0.329,0.073,0.596,0.216,0.793
			c0.07,0.097,0.292,0.26,0.988,0.26h3.358c1.349,0,2.57-0.213,3.629-0.634c1.057-0.419,1.97-0.996,2.713-1.714
			c0.739-0.716,1.31-1.568,1.696-2.533c0.387-0.968,0.583-2.024,0.583-3.14c0-1.181-0.2-2.261-0.595-3.212
			C35.049,12.485,34.48,11.663,33.75,10.989z M33.135,19.222c-0.312,0.747-0.746,1.38-1.289,1.88
			c-0.542,0.497-1.182,0.877-1.904,1.13c-0.718,0.25-1.492,0.377-2.301,0.377h-2.23h-0.25v-0.25V11.181v-0.25h0.25h2.18
			c0.824,0,1.609,0.123,2.335,0.364c0.73,0.243,1.375,0.61,1.916,1.09c0.543,0.483,0.977,1.085,1.29,1.79
			c0.314,0.705,0.473,1.519,0.473,2.42C33.606,17.594,33.448,18.478,33.135,19.222z"/>
		<path style="fill:#121212;" d="M39.479,1.868h-35c-1.93,0-3.5,1.57-3.5,3.5v23c0,1.93,1.57,3.5,3.5,3.5h35
			c1.93,0,3.5-1.57,3.5-3.5v-23C42.978,3.439,41.409,1.868,39.479,1.868z M2.978,28.368v-23c0-0.827,0.673-1.5,1.5-1.5h35.001
			c0.827,0,1.5,0.673,1.5,1.5v23c0,0.827-0.673,1.5-1.5,1.5H4.478C3.651,29.868,2.978,29.195,2.978,28.368z"/>
	</g>
</g>
<g id="TITLES">
</g>
</svg>
