<?xml version="1.0" encoding="iso-8859-1"?>
<!-- Generator: Adobe Illustrator 17.1.0, SVG Export Plug-In . SVG Version: 6.00 Build 0)  -->
<!DOCTYPE svg PUBLIC "-//W3C//DTD SVG 1.1//EN" "http://www.w3.org/Graphics/SVG/1.1/DTD/svg11.dtd">
<svg version="1.1" xmlns="http://www.w3.org/2000/svg" xmlns:xlink="http://www.w3.org/1999/xlink" x="0px" y="0px"
	 viewBox="0 0 34 34" style="enable-background:new 0 0 34 34;" xml:space="preserve">
<g id="BLOCKS" style="display:none;">
	<rect x="0.027" y="0.021" style="display:inline;fill:#CCCACB;" width="34" height="34"/>
</g>
<g id="INNER_GUDIES">
</g>
<g id="MAIN_GUIDES">
</g>
<g id="ICONS">
	<path style="fill:#121212;" d="M22.111,20.027c1.432-1.884,2.292-4.226,2.292-6.775c0-6.196-5.023-11.219-11.219-11.219
		S1.965,7.056,1.965,13.252c0,6.196,5.023,11.219,11.219,11.219c2.564,0,4.92-0.87,6.81-2.318l6.188,6.188
		c1.729,1.729,4.081,2.309,5.862,1.62L22.111,20.027z M3.965,13.252c0-5.083,4.135-9.219,9.219-9.219s9.219,4.135,9.219,9.219
		s-4.135,9.219-9.219,9.219S3.965,18.335,3.965,13.252z"/>
</g>
<g id="TITLES">
</g>
</svg>
