<?xml version="1.0" encoding="iso-8859-1"?>
<!-- Generator: Adobe Illustrator 17.1.0, SVG Export Plug-In . SVG Version: 6.00 Build 0)  -->
<!DOCTYPE svg PUBLIC "-//W3C//DTD SVG 1.1//EN" "http://www.w3.org/Graphics/SVG/1.1/DTD/svg11.dtd">
<svg version="1.1" xmlns="http://www.w3.org/2000/svg" xmlns:xlink="http://www.w3.org/1999/xlink" x="0px" y="0px"
	 viewBox="0 0 34 34" style="enable-background:new 0 0 34 34;" xml:space="preserve">
<g id="BLOCKS" style="display:none;">
	<rect x="0.026" y="0.022" style="display:inline;fill:#CCCACB;" width="34" height="34"/>
</g>
<g id="INNER_GUDIES">
</g>
<g id="MAIN_GUIDES">
</g>
<g id="ICONS">
	<g>
		<path d="M13.498,7.271c-3.495,0-6.339,2.844-6.339,6.339c0,3.496,2.844,6.34,6.339,6.34c3.496,0,6.34-2.844,6.34-6.34
			C19.837,10.115,16.994,7.271,13.498,7.271z"/>
		<path d="M16.865,1.014c-8.837,0-16,7.163-16,16s7.163,16,16,16s16-7.163,16-16S25.701,1.014,16.865,1.014z M27.069,25.787
			c-0.376,0.146-0.785,0.219-1.216,0.219c-1.149,0-2.331-0.522-3.241-1.434l-4.27-4.27c-1.422,1.032-3.092,1.577-4.845,1.577
			c-4.56,0-8.269-3.71-8.269-8.27s3.709-8.269,8.269-8.269s8.27,3.709,8.27,8.269c0,1.74-0.538,3.401-1.56,4.818l7.22,7.22
			L27.069,25.787z"/>
	</g>
</g>
<g id="TITLES">
</g>
</svg>
