<?xml version="1.0" encoding="iso-8859-1"?>
<!-- Generator: Adobe Illustrator 17.1.0, SVG Export Plug-In . SVG Version: 6.00 Build 0)  -->
<!DOCTYPE svg PUBLIC "-//W3C//DTD SVG 1.1//EN" "http://www.w3.org/Graphics/SVG/1.1/DTD/svg11.dtd">
<svg version="1.1" xmlns="http://www.w3.org/2000/svg" xmlns:xlink="http://www.w3.org/1999/xlink" x="0px" y="0px"
	 viewBox="0 0 34 34" style="enable-background:new 0 0 34 34;" xml:space="preserve">
<g id="BLOCKS" style="display:none;">
	<rect x="0.027" y="0.022" style="display:inline;fill:#CCCACB;" width="34" height="34"/>
</g>
<g id="INNER_GUDIES">
</g>
<g id="MAIN_GUIDES">
</g>
<g id="ICONS">
	<g>
		<path d="M2.028,24.915c0,0.102,0.129,0.256,0.491,0.389l13.039,4.736c0.355,0.13,0.833,0.201,1.346,0.201s0.99-0.071,1.345-0.201
			l13.04-4.736c0.361-0.133,0.49-0.287,0.49-0.389c0-0.101-0.129-0.255-0.49-0.388l-6.872-2.496l-5.045,1.832
			c-0.901,0.33-1.839,0.399-2.467,0.399c-0.628,0-1.567-0.069-2.472-0.4L9.39,22.032l-6.872,2.496
			C2.157,24.661,2.028,24.815,2.028,24.915z M9.39,23.894l0.042,0.016l4.397,1.598c1.145,0.418,2.303,0.506,3.073,0.506
			c0.769,0,1.925-0.088,3.064-0.504l4.448-1.615l2.814,1.022l-9.583,3.479c-0.117,0.044-0.383,0.096-0.744,0.096
			c-0.378,0-0.648-0.061-0.748-0.097l-9.579-3.479L9.39,23.894z"/>
		<path d="M31.288,16.602l-6.966-2.53L19.37,15.87c-0.901,0.33-1.839,0.399-2.467,0.399c-0.628,0-1.567-0.069-2.472-0.4
			l-4.947-1.797l-6.966,2.53c-0.361,0.132-0.49,0.287-0.49,0.388s0.129,0.256,0.491,0.389l13.039,4.736
			c0.358,0.13,0.836,0.201,1.346,0.201s0.988-0.071,1.346-0.201l13.04-4.736c0.361-0.133,0.49-0.288,0.49-0.389
			S31.649,16.734,31.288,16.602z M17.647,20.47c-0.121,0.044-0.389,0.096-0.744,0.096c-0.378,0-0.648-0.061-0.748-0.097L6.577,16.99
			l2.908-1.056l0.042,0.016l4.303,1.563c1.145,0.418,2.303,0.506,3.073,0.506c0.769,0,1.925-0.088,3.064-0.504l4.354-1.581
			l2.908,1.056L17.647,20.47z"/>
		<path d="M31.287,8.565L18.249,3.829c-0.355-0.13-0.833-0.201-1.346-0.201s-0.99,0.071-1.345,0.201L2.518,8.565
			c-0.361,0.132-0.49,0.287-0.49,0.388s0.129,0.256,0.491,0.389l13.039,4.735c0.357,0.13,0.835,0.202,1.346,0.202
			s0.988-0.072,1.345-0.202l13.04-4.735c0.361-0.133,0.49-0.288,0.49-0.389S31.649,8.697,31.287,8.565z M17.648,12.433
			c-0.122,0.044-0.39,0.096-0.745,0.096c-0.356,0-0.626-0.053-0.749-0.098L6.577,8.953l9.582-3.48
			c0.121-0.044,0.388-0.095,0.745-0.095c0.36,0,0.628,0.052,0.749,0.097l9.578,3.479L17.648,12.433z"/>
	</g>
</g>
<g id="TITLES">
</g>
</svg>
