<?xml version="1.0" encoding="iso-8859-1"?>
<!-- Generator: Adobe Illustrator 17.1.0, SVG Export Plug-In . SVG Version: 6.00 Build 0)  -->
<!DOCTYPE svg PUBLIC "-//W3C//DTD SVG 1.1//EN" "http://www.w3.org/Graphics/SVG/1.1/DTD/svg11.dtd">
<svg version="1.1" xmlns="http://www.w3.org/2000/svg" xmlns:xlink="http://www.w3.org/1999/xlink" x="0px" y="0px"
	 viewBox="0 0 34 34" style="enable-background:new 0 0 34 34;" xml:space="preserve">
<g id="BLOCKS" style="display:none;">
	<rect x="0.027" y="0.021" style="display:inline;fill:#CCCACB;" width="34" height="34"/>
</g>
<g id="INNER_GUDIES">
</g>
<g id="MAIN_GUIDES">
</g>
<g id="ICONS">
	<g>
		<path d="M31.288,24.444l-6.872-2.496L19.37,23.78c-0.901,0.33-1.839,0.399-2.467,0.399c-0.628,0-1.567-0.069-2.472-0.4
			L9.39,21.948l-6.872,2.496c-0.361,0.133-0.49,0.287-0.49,0.388c0,0.102,0.129,0.256,0.491,0.389l13.039,4.736
			c0.355,0.13,0.833,0.201,1.346,0.201s0.99-0.071,1.345-0.201l13.04-4.736c0.361-0.133,0.49-0.287,0.49-0.389
			C31.778,24.731,31.649,24.577,31.288,24.444z"/>
		<path d="M2.519,17.294l13.039,4.736c0.358,0.13,0.836,0.201,1.346,0.201s0.988-0.071,1.346-0.201l13.04-4.736
			c0.361-0.133,0.49-0.288,0.49-0.389s-0.129-0.256-0.49-0.388l-6.966-2.53l-4.951,1.798c-0.901,0.33-1.839,0.399-2.467,0.399
			c-0.628,0-1.567-0.069-2.472-0.4l-4.947-1.797l-6.966,2.53c-0.361,0.132-0.49,0.287-0.49,0.388S2.157,17.162,2.519,17.294z"/>
		<path d="M2.519,9.257l13.039,4.735c0.357,0.13,0.835,0.202,1.346,0.202s0.988-0.072,1.345-0.202l13.04-4.735
			c0.361-0.133,0.49-0.288,0.49-0.389s-0.129-0.256-0.49-0.388L18.249,3.745c-0.355-0.13-0.833-0.201-1.346-0.201
			s-0.99,0.071-1.345,0.201L2.518,8.481c-0.361,0.132-0.49,0.287-0.49,0.388S2.157,9.124,2.519,9.257z"/>
	</g>
</g>
<g id="TITLES">
</g>
</svg>
