<?xml version="1.0" encoding="iso-8859-1"?>
<!-- Generator: Adobe Illustrator 17.1.0, SVG Export Plug-In . SVG Version: 6.00 Build 0)  -->
<!DOCTYPE svg PUBLIC "-//W3C//DTD SVG 1.1//EN" "http://www.w3.org/Graphics/SVG/1.1/DTD/svg11.dtd">
<svg version="1.1" xmlns="http://www.w3.org/2000/svg" xmlns:xlink="http://www.w3.org/1999/xlink" x="0px" y="0px"
	 viewBox="0 0 34 34" style="enable-background:new 0 0 34 34;" xml:space="preserve">
<g id="BLOCKS" style="display:none;">
	<rect x="0.027" y="0.021" style="display:inline;fill:#CCCACB;" width="34" height="34"/>
</g>
<g id="INNER_GUDIES">
</g>
<g id="MAIN_GUIDES">
</g>
<g id="ICONS">
	<g>
		<path d="M16.866,1.013c-8.837,0-16,7.163-16,16s7.163,16,16,16s16-7.163,16-16S25.703,1.013,16.866,1.013z M17.757,9.991
			l0.001,3.437c0,0,0.002,0,0.003,0v0.702l-0.001,2.741l0.001,2.741v0.702c-0.001,0-0.002,0-0.002,0l-0.002,3.437l0,1.208
			l0.854-0.854l1.587-1.587l0.804-0.804l0.17-0.17c0.164-0.164,0.335-0.244,0.537-0.252h0c0.113,0,0.342,0.058,0.726,0.441
			c0.191,0.191,0.37,0.389,0.534,0.588c0.042,0.051,0.08,0.098,0.114,0.14l-0.667,0.667l-4.95,4.949
			c-0.189,0.189-0.44,0.293-0.707,0.293s-0.518-0.104-0.707-0.293l-4.146-4.146l-0.803-0.803l-0.171-0.171
			c-0.164-0.164-0.244-0.335-0.252-0.537c-0.006-0.175,0.154-0.439,0.441-0.726c0.191-0.191,0.389-0.37,0.589-0.534
			c0.051-0.042,0.098-0.08,0.14-0.113l1.47,1.47l1.588,1.588l0.854,0.854v-1.207v-4.14V14.13V9.99V8.783l-0.854,0.854l-1.588,1.588
			l-1.47,1.47c-0.042-0.033-0.089-0.071-0.14-0.113c-0.2-0.164-0.398-0.344-0.589-0.534c-0.287-0.287-0.448-0.552-0.441-0.726
			c0.008-0.202,0.088-0.373,0.252-0.537l0.171-0.171l0.803-0.803l4.146-4.146c0.189-0.189,0.44-0.293,0.707-0.293
			s0.518,0.104,0.707,0.293l4.95,4.949l0.667,0.667c-0.033,0.042-0.071,0.089-0.114,0.14c-0.164,0.2-0.344,0.398-0.534,0.588
			c-0.383,0.383-0.613,0.441-0.726,0.441h0c-0.202-0.008-0.373-0.088-0.537-0.252l-0.17-0.17l-0.804-0.804l-1.587-1.587
			l-0.854-0.854L17.757,9.991z"/>
	</g>
</g>
<g id="TITLES">
</g>
</svg>
