<?xml version="1.0" encoding="iso-8859-1"?>
<!-- Generator: Adobe Illustrator 17.1.0, SVG Export Plug-In . SVG Version: 6.00 Build 0)  -->
<!DOCTYPE svg PUBLIC "-//W3C//DTD SVG 1.1//EN" "http://www.w3.org/Graphics/SVG/1.1/DTD/svg11.dtd">
<svg version="1.1" xmlns="http://www.w3.org/2000/svg" xmlns:xlink="http://www.w3.org/1999/xlink" x="0px" y="0px"
	 viewBox="0 0 34 34" style="enable-background:new 0 0 34 34;" xml:space="preserve">
<g id="BLOCKS" style="display:none;">
	<rect x="0.027" y="0.022" style="display:inline;fill:#CCCACB;" width="34" height="34"/>
</g>
<g id="INNER_GUDIES">
</g>
<g id="MAIN_GUIDES">
</g>
<g id="ICONS">
	<g>
		<path d="M16.397,31.717c0.191,0.191,0.446,0.297,0.716,0.297s0.525-0.105,0.716-0.297l7.863-7.863l0.059-0.062
			c0.167-0.169,0.252-0.355,0.26-0.569c0.008-0.21-0.131-0.459-0.412-0.74c-0.15-0.15-0.309-0.295-0.472-0.43
			c-0.11-0.09-0.205-0.163-0.283-0.218l-0.53,0.53l-5.997,5.996l-0.248,0.247v-0.35V5.769v-0.35l0.248,0.247l6.006,6.006
			l0.521,0.521c0.078-0.055,0.173-0.128,0.284-0.218c0.163-0.135,0.322-0.28,0.472-0.429c0.281-0.281,0.419-0.53,0.412-0.74
			c-0.008-0.211-0.093-0.397-0.258-0.566l-0.101-0.103l0,0l-7.818-7.818c-0.191-0.191-0.446-0.297-0.716-0.297
			c-0.271,0-0.525,0.105-0.716,0.297l-7.865,7.866L8.48,10.242c-0.167,0.169-0.252,0.355-0.26,0.569
			c-0.008,0.21,0.131,0.459,0.411,0.74c0.15,0.15,0.309,0.295,0.472,0.43c0.11,0.09,0.205,0.163,0.283,0.218l0.53-0.53l5.893-5.893
			l0.248-0.247v0.35v22.286v0.35l-0.248-0.247l-5.902-5.902l-0.521-0.521c-0.078,0.055-0.173,0.128-0.284,0.218
			c-0.163,0.135-0.322,0.28-0.472,0.429c-0.281,0.281-0.419,0.53-0.411,0.74c0.008,0.212,0.093,0.397,0.258,0.566l0.1,0.103
			l-0.001,0.001L16.397,31.717z"/>
	</g>
</g>
<g id="TITLES">
</g>
</svg>
