<?xml version="1.0" encoding="iso-8859-1"?>
<!-- Generator: Adobe Illustrator 17.1.0, SVG Export Plug-In . SVG Version: 6.00 Build 0)  -->
<!DOCTYPE svg PUBLIC "-//W3C//DTD SVG 1.1//EN" "http://www.w3.org/Graphics/SVG/1.1/DTD/svg11.dtd">
<svg version="1.1" xmlns="http://www.w3.org/2000/svg" xmlns:xlink="http://www.w3.org/1999/xlink" x="0px" y="0px"
	 viewBox="0 0 34 34" style="enable-background:new 0 0 34 34;" xml:space="preserve">
<g id="BLOCKS" style="display:none;">
	<rect x="0.023" y="0.022" style="display:inline;fill:#CCCACB;" width="34" height="34"/>
</g>
<g id="INNER_GUDIES">
</g>
<g id="MAIN_GUIDES">
</g>
<g id="ICONS">
	<g>
		<path d="M28.603,11.528c-0.496,0-0.857-0.301-1.103-0.92l-0.104-0.193c-0.164-0.31-0.126-0.523-0.02-0.711l0.177-0.308
			c0.239-0.413,0.486-0.839,0.661-1.284c0.459-1.168,0.253-1.99-0.712-2.84C27.22,5.025,26.93,4.787,26.639,4.55l-0.265-0.216
			c-0.393-0.324-0.854-0.481-1.411-0.481l-0.129,0.003c-0.798,0.033-1.416,0.512-2.014,0.976c-0.083,0.064-0.164,0.14-0.245,0.217
			c-0.22,0.208-0.46,0.434-0.842,0.481c-0.001,0-0.002,0-0.004,0c-0.302,0-0.58-0.139-0.849-0.273
			c-0.092-0.046-0.163-0.081-0.232-0.112c-0.165-0.072-0.324-0.266-0.369-0.45c-0.055-0.234-0.099-0.468-0.142-0.704
			c-0.057-0.31-0.117-0.631-0.205-0.937c-0.349-1.204-1.174-1.868-2.323-1.869c-0.03,0.001-0.407,0.009-0.55,0.009l-0.313-0.002
			c0,0-0.601,0-0.747,0.005c-0.813,0.028-1.43,0.388-1.783,1.04c-0.221,0.41-0.362,0.884-0.497,1.343l-0.078,0.261
			c-0.036,0.119-0.051,0.262-0.066,0.4c-0.03,0.279-0.06,0.557-0.234,0.757c-0.184,0.213-0.485,0.296-0.75,0.369
			c-0.133,0.036-0.256,0.07-0.364,0.117c-0.091,0.039-0.175,0.058-0.259,0.058c-0.181,0-0.315-0.092-0.423-0.182L11.449,5.28
			c-0.414-0.349-0.83-0.7-1.267-0.997C9.756,3.995,9.268,3.842,8.773,3.842c-0.483,0-0.927,0.146-1.286,0.422
			c-0.45,0.345-0.922,0.742-1.445,1.214C5.595,5.879,5.362,6.41,5.347,7.056C5.33,7.795,5.652,8.438,5.956,8.983
			C6.004,9.07,6.062,9.157,6.12,9.244c0.176,0.262,0.365,0.543,0.358,0.842c-0.007,0.327-0.222,0.617-0.43,0.897l-0.148,0.204
			c-0.109,0.159-0.333,0.288-0.53,0.302c-0.308,0.022-0.615,0.03-0.924,0.038l-0.074,0.002c-0.254,0.007-0.509,0.014-0.762,0.03
			c-1.053,0.067-1.905,0.803-2.12,1.831c-0.134,0.642-0.226,1.166-0.288,1.647c-0.128,0.982,0.202,1.71,1.006,2.228
			c0.374,0.241,0.76,0.489,1.158,0.582c0.965,0.224,1.412,0.764,1.408,1.699c-0.002,0.28-0.048,0.483-0.278,0.694l-0.29,0.263
			c-0.45,0.405-0.914,0.824-1.28,1.3c-0.542,0.706-0.581,1.517-0.115,2.346c0.209,0.37,0.423,0.736,0.638,1.102l0.207,0.355
			c0.281,0.48,0.711,0.803,1.28,0.959c0.223,0.06,0.448,0.09,0.686,0.09c0.554,0,1.1-0.168,1.514-0.315
			c0.094-0.034,0.191-0.076,0.288-0.12c0.241-0.106,0.489-0.216,0.738-0.216c0.051,0,0.101,0.005,0.15,0.015
			c0.324,0.064,0.574,0.329,0.816,0.585l0.17,0.176c0.136,0.134,0.22,0.382,0.198,0.585c-0.031,0.257-0.077,0.512-0.124,0.766
			c-0.041,0.225-0.08,0.439-0.109,0.654c-0.133,0.997,0.212,2.328,1.624,2.8c0.223,0.075,0.444,0.156,0.664,0.237
			c0.24,0.089,0.479,0.176,0.721,0.255c0.246,0.081,0.497,0.122,0.747,0.122c0.671,0,1.285-0.296,1.728-0.834l0.161-0.19
			c0.212-0.247,0.43-0.501,0.524-0.771c0.257-0.734,0.751-1.091,1.509-1.091c0.126,0,0.265,0.01,0.425,0.03
			c0.234,0.031,0.409,0.1,0.562,0.35l0.135,0.221c0.296,0.486,0.602,0.988,0.952,1.44c0.426,0.548,1.036,0.849,1.719,0.849
			c0.249,0,0.498-0.04,0.741-0.12c0.521-0.169,1.041-0.366,1.544-0.557c0.683-0.258,1.133-0.737,1.377-1.462
			c0.198-0.59,0.203-1.221,0.014-1.825c-0.291-0.927-0.052-1.587,0.753-2.078C25.32,26.063,25.459,26,25.624,26
			c0.094,0,0.189,0.021,0.3,0.065c0.68,0.274,1.382,0.558,2.13,0.583l0.113,0.002c0.811,0,1.436-0.311,1.856-0.925
			c0.356-0.519,0.657-1.07,0.985-1.685c0.373-0.701,0.36-1.4-0.039-2.022c-0.291-0.454-0.648-0.958-1.087-1.255
			c-0.812-0.547-1.047-1.21-0.737-2.084c0.088-0.272,0.168-0.437,0.446-0.53c0.42-0.139,0.866-0.294,1.29-0.484
			c1.286-0.578,1.853-1.467,1.683-2.643c-0.095-0.656-0.183-1.153-0.285-1.611c-0.205-0.92-0.74-1.498-1.589-1.718
			c-0.371-0.096-0.758-0.142-1.133-0.186l-0.938,0.024 M30.221,16.002c-0.36,0.14-0.722,0.272-1.084,0.405l-0.633,0.234
			c-0.208,0.079-0.414,0.164-0.621,0.249c-0.238,0.098-0.341,0.248-0.383,0.555c-0.114,0.828-0.272,1.722-0.481,2.733
			c-0.061,0.298-0.01,0.477,0.183,0.64l0.436,0.367c0.451,0.379,0.903,0.758,1.347,1.145c0.545,0.476,0.576,0.655,0.225,1.279
			c-0.001,0.002-0.431,0.741-0.52,0.902c-0.163,0.294-0.381,0.356-0.536,0.356c-0.063,0-0.131-0.011-0.201-0.032l-1.7-0.55
			c-0.387-0.122-0.773-0.245-1.196-0.333c-0.033,0.003-0.151,0.058-0.233,0.125c-0.42,0.342-0.835,0.689-1.249,1.037
			c-0.356,0.298-0.711,0.596-1.07,0.891c-0.173,0.141-0.232,0.293-0.197,0.508l0.158,0.938c0.084,0.49,0.168,0.98,0.242,1.472
			c0.098,0.652,0.006,0.807-0.615,1.042c-0.293,0.11-0.586,0.216-0.881,0.32c-0.164,0.058-0.296,0.085-0.415,0.085
			c-0.288,0-0.499-0.15-0.705-0.502c-0.388-0.662-0.774-1.325-1.153-1.992c-0.147-0.258-0.321-0.359-0.618-0.359l-0.051,0.001
			c-0.442,0.016-0.886,0.024-1.331,0.024c-0.494,0-0.989-0.009-1.523-0.026c-0.266,0-0.434,0.097-0.573,0.335l-1.152,1.987
			c-0.15,0.257-0.34,0.531-0.706,0.531c-0.124,0-0.267-0.031-0.465-0.099c-0.283-0.098-0.567-0.199-0.849-0.305
			c-0.616-0.232-0.707-0.388-0.61-1.044c0.066-0.441,0.144-0.879,0.223-1.318l0.118-0.668l0.03-0.137
			c0.021-0.088,0.042-0.184,0.03-0.242c-0.032-0.158-0.1-0.427-0.221-0.544c-0.732-0.712-1.553-1.329-2.299-1.934
			c-0.065-0.053-0.183-0.11-0.318-0.11c-0.327,0.082-0.669,0.197-0.97,0.298c-0.168,0.056-0.748,0.243-0.748,0.243
			c-0.373,0.119-0.758,0.241-1.206,0.335c-0.003,0-0.006,0-0.009,0c-0.221,0-0.455-0.12-0.555-0.266
			c-0.183-0.271-0.345-0.559-0.502-0.837l-0.218-0.381c-0.177-0.302-0.106-0.598,0.211-0.879c0.299-0.266,0.607-0.523,0.915-0.78
			l0.41-0.344c0.062-0.053,0.119-0.102,0.181-0.144c0.581-0.384,0.733-0.811,0.523-1.475c-0.193-0.611-0.268-1.26-0.341-1.887
			l-0.057-0.481c-0.031-0.241-0.129-0.373-0.338-0.455c-0.279-0.109-0.559-0.213-0.84-0.317l-0.152-0.056
			c-0.207-0.077-0.413-0.154-0.619-0.233c-0.26-0.1-0.601-0.235-0.939-0.395c-0.33-0.156-0.461-0.425-0.378-0.78
			c0.084-0.351,0.15-0.736,0.197-1.144c0.051-0.439,0.313-0.662,0.779-0.665l1.258-0.001l1.389-0.064
			c0.191-0.01,0.298-0.086,0.408-0.292c0.504-0.943,0.95-1.717,1.402-2.437c0.187-0.298,0.197-0.511,0.035-0.788
			c-0.446-0.764-0.808-1.4-1.138-2.002C7.01,7.167,7.052,6.949,7.56,6.511c0.22-0.188,0.442-0.372,0.666-0.555
			c0.257-0.209,0.439-0.294,0.629-0.294c0.197,0,0.385,0.09,0.65,0.311c0.553,0.46,1.102,0.925,1.649,1.392
			c0.185,0.157,0.337,0.225,0.51,0.225c0.115,0,0.24-0.03,0.384-0.093c0.8-0.349,1.628-0.621,2.549-0.916
			c0.279-0.09,0.4-0.21,0.443-0.445l0.421-2.258c0.024-0.122,0.06-0.241,0.12-0.436c0.095-0.315,0.321-0.476,0.672-0.476
			c0.221,0.007,0.436,0.013,0.651,0.013c0.175,0,0.35-0.004,0.592-0.018h0.001c0.393,0,0.648,0.215,0.726,0.606l0.084,0.406
			c0.104,0.493,0.211,1.003,0.266,1.516c0.082,0.76,0.378,1.109,1.056,1.246c0.681,0.137,1.331,0.405,2.096,0.765
			c0.138,0.065,0.26,0.096,0.372,0.096c0.17,0,0.324-0.07,0.517-0.234c0.538-0.459,1.078-0.916,1.621-1.369
			c0.248-0.206,0.447-0.334,0.674-0.334c0.223,0,0.418,0.122,0.661,0.32c0.096,0.078,0.191,0.16,0.285,0.242
			c0.139,0.12,0.279,0.24,0.426,0.351c0.377,0.281,0.449,0.652,0.21,1.074l-0.331,0.587c-0.27,0.479-0.535,0.949-0.812,1.411
			c-0.209,0.348-0.196,0.603,0.048,0.973c0.521,0.79,0.965,1.615,1.332,2.319c0.122,0.236,0.251,0.321,0.491,0.324l1.78,0.026
			c0.001,0,0.002,0,0.004,0c0.138,0,0.279,0.001,0.419,0.012c0.976,0.074,1.056,0.146,1.231,1.1
			c0.015,0.081,0.024,0.165,0.034,0.248c0.015,0.134,0.029,0.253,0.064,0.363C30.902,15.472,30.724,15.806,30.221,16.002z"/>
		<path d="M16.949,23.421c-1.828-0.005-3.54-0.718-4.819-2.008c-1.276-1.285-1.974-2.994-1.965-4.812
			c0.019-3.724,3.045-6.753,6.747-6.753c3.829,0.038,6.865,3.104,6.836,6.838c-0.029,3.714-3.07,6.735-6.778,6.735H16.949z
			 M16.953,11.922c-1.266,0-2.457,0.512-3.352,1.441c-0.909,0.945-1.425,2.226-1.379,3.425c0.073,1.91,1.761,4.557,4.74,4.557
			c1.307-0.003,2.517-0.529,3.416-1.483c0.857-0.909,1.351-2.143,1.29-3.22c0.067-1.09-0.412-2.298-1.282-3.225
			c-0.904-0.963-2.121-1.493-3.427-1.495H16.953z"/>
	</g>
</g>
<g id="TITLES">
</g>
</svg>
