<?xml version="1.0" encoding="iso-8859-1"?>
<!-- Generator: Adobe Illustrator 17.1.0, SVG Export Plug-In . SVG Version: 6.00 Build 0)  -->
<!DOCTYPE svg PUBLIC "-//W3C//DTD SVG 1.1//EN" "http://www.w3.org/Graphics/SVG/1.1/DTD/svg11.dtd">
<svg version="1.1" xmlns="http://www.w3.org/2000/svg" xmlns:xlink="http://www.w3.org/1999/xlink" x="0px" y="0px"
	 viewBox="0 0 34 34" style="enable-background:new 0 0 34 34;" xml:space="preserve">
<g id="BLOCKS" style="display:none;">
	<rect x="0.026" y="0.022" style="display:inline;fill:#CCCACB;" width="34" height="34"/>
</g>
<g id="INNER_GUDIES">
</g>
<g id="MAIN_GUIDES">
</g>
<g id="ICONS">
	<g>
		<path d="M29.592,18.064c0.42-0.139,0.866-0.294,1.29-0.484c1.286-0.578,1.853-1.467,1.683-2.643
			c-0.095-0.656-0.183-1.153-0.285-1.611c-0.205-0.92-0.74-1.498-1.589-1.718c-0.371-0.096-0.758-0.142-1.133-0.186l-0.938,0.024
			l-0.014,0c-0.496,0-0.857-0.301-1.103-0.92l-0.104-0.193c-0.164-0.31-0.126-0.523-0.02-0.711l0.177-0.308
			c0.239-0.413,0.486-0.839,0.661-1.284c0.459-1.168,0.253-1.99-0.712-2.84c-0.281-0.247-0.571-0.484-0.862-0.721l-0.265-0.216
			c-0.393-0.324-0.854-0.481-1.411-0.481l-0.129,0.003c-0.798,0.033-1.416,0.512-2.014,0.976c-0.083,0.064-0.164,0.14-0.245,0.217
			c-0.22,0.208-0.46,0.434-0.842,0.481c-0.001,0-0.002,0-0.004,0c-0.302,0-0.58-0.139-0.849-0.273
			c-0.092-0.046-0.163-0.081-0.232-0.112c-0.165-0.072-0.324-0.266-0.369-0.45c-0.055-0.234-0.099-0.468-0.142-0.704
			c-0.057-0.31-0.117-0.631-0.205-0.937c-0.349-1.204-1.174-1.868-2.323-1.869c-0.03,0.001-0.407,0.009-0.55,0.009l-0.313-0.002
			c0,0-0.601,0-0.747,0.005c-0.813,0.028-1.43,0.388-1.783,1.04c-0.221,0.41-0.362,0.884-0.497,1.343L13.644,3.76
			c-0.036,0.119-0.051,0.262-0.066,0.4c-0.03,0.279-0.06,0.557-0.234,0.757c-0.184,0.213-0.485,0.296-0.75,0.369
			c-0.133,0.036-0.256,0.07-0.364,0.117c-0.091,0.039-0.175,0.058-0.259,0.058c-0.181,0-0.315-0.092-0.423-0.182l-0.097-0.082
			c-0.414-0.349-0.83-0.7-1.267-0.997C9.758,3.911,9.271,3.759,8.776,3.759c-0.483,0-0.927,0.146-1.286,0.422
			C7.04,4.525,6.567,4.922,6.044,5.395c-0.446,0.401-0.68,0.932-0.695,1.578C5.333,7.711,5.655,8.355,5.958,8.9
			c0.048,0.087,0.106,0.173,0.165,0.26C6.3,9.423,6.488,9.703,6.481,10.002c-0.007,0.327-0.222,0.617-0.43,0.897l-0.148,0.204
			c-0.109,0.159-0.333,0.288-0.53,0.302c-0.308,0.022-0.615,0.03-0.924,0.038l-0.074,0.002c-0.254,0.007-0.509,0.014-0.762,0.03
			c-1.053,0.067-1.905,0.803-2.12,1.831c-0.134,0.642-0.226,1.166-0.288,1.647c-0.128,0.982,0.202,1.71,1.006,2.228
			c0.374,0.241,0.76,0.489,1.158,0.582c0.965,0.224,1.412,0.764,1.408,1.699c-0.002,0.28-0.048,0.483-0.278,0.694l-0.29,0.263
			c-0.45,0.405-0.914,0.824-1.28,1.3c-0.542,0.706-0.581,1.517-0.115,2.346c0.209,0.37,0.423,0.736,0.638,1.102l0.207,0.355
			c0.281,0.48,0.711,0.803,1.28,0.959c0.223,0.06,0.448,0.09,0.686,0.09c0.554,0,1.1-0.168,1.514-0.315
			c0.094-0.034,0.191-0.076,0.288-0.12c0.241-0.106,0.489-0.216,0.738-0.216c0.051,0,0.101,0.005,0.15,0.015
			c0.324,0.064,0.574,0.329,0.816,0.585l0.17,0.176c0.136,0.134,0.22,0.382,0.198,0.585c-0.031,0.257-0.077,0.512-0.124,0.766
			c-0.041,0.225-0.08,0.439-0.109,0.654c-0.133,0.997,0.212,2.328,1.624,2.8c0.223,0.075,0.444,0.156,0.664,0.237
			c0.24,0.089,0.479,0.176,0.721,0.255c0.246,0.081,0.497,0.122,0.747,0.122c0.671,0,1.285-0.296,1.728-0.834l0.161-0.19
			c0.212-0.247,0.43-0.501,0.524-0.771c0.257-0.734,0.751-1.091,1.509-1.091c0.126,0,0.265,0.01,0.425,0.03
			c0.234,0.031,0.409,0.1,0.562,0.35l0.135,0.221c0.296,0.486,0.602,0.988,0.952,1.44c0.426,0.548,1.036,0.849,1.719,0.849
			c0.249,0,0.498-0.04,0.741-0.12c0.521-0.169,1.041-0.366,1.544-0.557c0.683-0.258,1.133-0.737,1.377-1.462
			c0.198-0.59,0.203-1.221,0.014-1.825c-0.291-0.927-0.052-1.587,0.753-2.078c0.157-0.095,0.296-0.158,0.461-0.158
			c0.094,0,0.189,0.021,0.3,0.065c0.68,0.274,1.382,0.558,2.13,0.583l0.113,0.002c0.811,0,1.436-0.311,1.856-0.925
			c0.356-0.519,0.657-1.07,0.985-1.685c0.373-0.701,0.36-1.4-0.039-2.022c-0.291-0.454-0.648-0.958-1.087-1.255
			c-0.812-0.547-1.047-1.21-0.737-2.084C29.234,18.322,29.313,18.157,29.592,18.064z M16.972,23.338h-0.02
			c-1.828-0.005-3.54-0.718-4.819-2.008c-1.276-1.285-1.974-2.994-1.965-4.812c0.019-3.724,3.045-6.753,6.747-6.753
			c3.829,0.038,6.865,3.104,6.836,6.838C23.721,20.316,20.68,23.338,16.972,23.338z"/>
		<path d="M16.961,11.839h-0.005c-1.266,0-2.457,0.512-3.352,1.441c-0.909,0.945-1.425,2.226-1.379,3.425
			c0.073,1.91,1.761,4.557,4.74,4.557c1.307-0.003,2.517-0.529,3.416-1.483c0.857-0.909,1.351-2.143,1.29-3.22
			c0.067-1.09-0.412-2.298-1.282-3.225C19.484,12.371,18.267,11.841,16.961,11.839z"/>
	</g>
</g>
<g id="TITLES">
</g>
</svg>
