<?xml version="1.0" encoding="iso-8859-1"?>
<!-- Generator: Adobe Illustrator 17.1.0, SVG Export Plug-In . SVG Version: 6.00 Build 0)  -->
<!DOCTYPE svg PUBLIC "-//W3C//DTD SVG 1.1//EN" "http://www.w3.org/Graphics/SVG/1.1/DTD/svg11.dtd">
<svg version="1.1" xmlns="http://www.w3.org/2000/svg" xmlns:xlink="http://www.w3.org/1999/xlink" x="0px" y="0px"
	 viewBox="0 0 34 34" style="enable-background:new 0 0 34 34;" xml:space="preserve">
<g id="BLOCKS" style="display:none;">
	<rect x="0.027" y="0.021" style="display:inline;fill:#CCCACB;" width="34" height="34"/>
</g>
<g id="INNER_GUDIES">
</g>
<g id="MAIN_GUIDES">
</g>
<g id="ICONS">
	<g>
		<path d="M22.146,20.609c-0.755,0-1.473,0.331-1.992,0.9l-7.928-3.681c0.033-0.17,0.052-0.343,0.052-0.517
			c0-0.201-0.028-0.407-0.087-0.648l0-0.002l8.305-3.856c0.489,0.401,1.089,0.627,1.706,0.627c1.496,0,2.714-1.217,2.714-2.714
			c0-1.497-1.217-2.714-2.714-2.714c-1.497,0-2.714,1.218-2.714,2.714c0,0.096,0.014,0.189,0.027,0.281l0.007,0.053l-8.53,3.96
			c-0.431-0.269-0.92-0.416-1.427-0.416c-1.497,0-2.714,1.218-2.714,2.714c0,1.496,1.218,2.714,2.714,2.714
			c0.554,0,1.088-0.179,1.552-0.508l8.321,3.863c0.032,1.468,1.237,2.656,2.708,2.656c1.496,0,2.714-1.217,2.714-2.714
			C24.86,21.827,23.642,20.609,22.146,20.609z"/>
	</g>
</g>
<g id="TITLES">
</g>
</svg>
