<?xml version="1.0" encoding="iso-8859-1"?>
<!-- Generator: Adobe Illustrator 17.1.0, SVG Export Plug-In . SVG Version: 6.00 Build 0)  -->
<!DOCTYPE svg PUBLIC "-//W3C//DTD SVG 1.1//EN" "http://www.w3.org/Graphics/SVG/1.1/DTD/svg11.dtd">
<svg version="1.1" xmlns="http://www.w3.org/2000/svg" xmlns:xlink="http://www.w3.org/1999/xlink" x="0px" y="0px"
	 viewBox="0 0 34 34" style="enable-background:new 0 0 34 34;" xml:space="preserve">
<g id="BLOCKS" style="display:none;">
	<rect x="0.026" y="0.022" style="display:inline;fill:#CCCACB;" width="34" height="34"/>
</g>
<g id="INNER_GUDIES">
</g>
<g id="MAIN_GUIDES">
</g>
<g id="ICONS">
	<g>
		<path d="M16.865,1.014c-8.837,0-16,7.163-16,16s7.163,16,16,16s16-7.163,16-16S25.701,1.014,16.865,1.014z M12.19,16.581
			c0.059,0.241,0.087,0.447,0.087,0.648c0,0.173-0.02,0.347-0.052,0.517l7.928,3.681c0.518-0.569,1.237-0.9,1.992-0.9
			c1.496,0,2.714,1.218,2.714,2.714c0,1.496-1.218,2.714-2.714,2.714c-1.471,0-2.676-1.189-2.708-2.656l-8.321-3.863
			c-0.464,0.329-0.998,0.508-1.552,0.508c-1.497,0-2.714-1.217-2.714-2.714c0-1.497,1.218-2.714,2.714-2.714
			c0.507,0,0.996,0.148,1.427,0.416l8.53-3.96l-0.007-0.053c-0.013-0.093-0.027-0.185-0.027-0.281c0-1.497,1.218-2.714,2.714-2.714
			s2.714,1.218,2.714,2.714c0,1.496-1.217,2.714-2.714,2.714c-0.617,0-1.216-0.226-1.706-0.627l-8.305,3.856L12.19,16.581z"/>
	</g>
</g>
<g id="TITLES">
</g>
</svg>
