<?xml version="1.0" encoding="iso-8859-1"?>
<!-- Generator: Adobe Illustrator 17.1.0, SVG Export Plug-In . SVG Version: 6.00 Build 0)  -->
<!DOCTYPE svg PUBLIC "-//W3C//DTD SVG 1.1//EN" "http://www.w3.org/Graphics/SVG/1.1/DTD/svg11.dtd">
<svg version="1.1" xmlns="http://www.w3.org/2000/svg" xmlns:xlink="http://www.w3.org/1999/xlink" x="0px" y="0px"
	 viewBox="0 0 48 34" style="enable-background:new 0 0 48 34;" xml:space="preserve">
<g id="BLOCKS" style="display:none;">
	<rect x="0.022" y="0.065" style="display:inline;fill:#CCCACB;" width="48.002" height="34.02"/>
</g>
<g id="INNER_GUDIES">
</g>
<g id="MAIN_GUIDES">
</g>
<g id="ICONS">
	<path style="fill:#121212;" d="M32.771,30.462c0.379,0.194,1.148,0.425,2.113,0.449c1.661,0.036,2.565-0.595,3.236-2.076
		l8.902-19.742c-0.366-0.195-1.184-0.413-1.844-0.425c-1.148-0.024-2.686,0.207-3.663,2.538l-2.882,6.762l-5.654-9.155
		c-0.366-0.11-1.258-0.267-1.905-0.267c-2.002,0-3.114,0.728-4.274,1.979l-5.495,5.974l4.42,6.92
		c0.818,1.263,1.893,1.906,3.639,1.906c1.148,0,2.1-0.267,2.539-0.473l-5.324-7.977l3.773-3.982l6.191,9.664L32.771,30.462z
		 M21.092,22.994c0,1.457-0.574,2.295-3.432,2.295c-0.378,0-0.708-0.024-1.026-0.073V5.912c0-1.469,0.5-2.999,3.382-2.999
		c0.366,0,0.733,0.036,1.075,0.11V22.994z M15.198,20.08c0,2.719-1.783,4.699-5.41,5.088c-2.625,0.279-6.423-0.049-8.23-0.255
		c-0.061-0.291-0.11-0.655-0.11-0.947c0-2.368,1.282-2.914,2.491-2.914c1.258,0,3.236,0.218,4.701,0.218
		c1.624,0,2.112-0.546,2.112-1.068c0-0.68-0.647-0.959-1.905-1.202l-3.444-0.656c-2.857-0.546-4.384-2.513-4.384-4.601
		c0-2.537,1.807-4.662,5.361-5.051C9.068,8.4,12.34,8.728,14.136,8.947c0.061,0.303,0.098,0.595,0.098,0.911
		c0,2.367-1.258,2.878-2.467,2.878c-0.928,0-2.369-0.17-4.017-0.17c-1.673,0-2.369,0.461-2.369,1.02c0,0.595,0.659,0.838,1.71,1.02
		l3.285,0.607C13.745,15.831,15.198,17.737,15.198,20.08z"/>
</g>
<g id="TITLES">
</g>
</svg>
