<?xml version="1.0" encoding="iso-8859-1"?>
<!-- Generator: Adobe Illustrator 17.1.0, SVG Export Plug-In . SVG Version: 6.00 Build 0)  -->
<!DOCTYPE svg PUBLIC "-//W3C//DTD SVG 1.1//EN" "http://www.w3.org/Graphics/SVG/1.1/DTD/svg11.dtd">
<svg version="1.1" xmlns="http://www.w3.org/2000/svg" xmlns:xlink="http://www.w3.org/1999/xlink" x="0px" y="0px"
	 viewBox="0 0 34 34" style="enable-background:new 0 0 34 34;" xml:space="preserve">
<g id="BLOCKS" style="display:none;">
	<rect x="0.026" y="0.021" style="display:inline;fill:#CCCACB;" width="34" height="34"/>
</g>
<g id="INNER_GUDIES">
</g>
<g id="MAIN_GUIDES">
</g>
<g id="ICONS">
	<path d="M31.2,24.02c-0.374-0.077-0.749-0.171-1.108-0.302c-1.504-0.552-2.659-1.561-3.615-2.818
		c-0.474-0.624-0.876-1.293-1.189-2.013c-0.307-0.707-0.158-1.17,0.511-1.536c0.204-0.112,0.424-0.198,0.642-0.281
		c0.389-0.148,0.787-0.271,1.171-0.431c0.369-0.154,0.708-0.363,0.964-0.681c0.336-0.419,0.312-0.925-0.056-1.31
		c-0.455-0.476-1.255-0.634-1.86-0.379c-0.251,0.106-0.508,0.2-0.77,0.276c-0.277,0.08-0.566,0.113-0.844,0.003
		c-0.056-0.022-0.118-0.118-0.117-0.179c0.002-0.254,0.036-0.507,0.043-0.76c0.032-1.126,0.099-2.253,0.074-3.378
		c-0.014-0.657-0.084-1.342-0.289-1.961c-0.715-2.151-2.137-3.7-4.223-4.602c-1.849-0.8-3.778-0.88-5.728-0.483
		c-1.831,0.373-3.359,1.28-4.518,2.762C9.509,6.94,8.947,8.035,8.811,9.316c-0.106,1.001-0.111,2.002-0.064,3.006
		c0.041,0.656,0.074,1.314,0.126,1.969c0.014,0.182-0.044,0.266-0.215,0.29c-0.051,0.007-0.102,0.019-0.154,0.024
		c-0.51,0.056-0.984-0.085-1.436-0.294c-0.577-0.267-1.104-0.159-1.603,0.18c-0.232,0.157-0.403,0.37-0.46,0.655
		c-0.087,0.436,0.116,0.758,0.426,1.027c0.391,0.338,0.86,0.53,1.34,0.703c0.409,0.147,0.829,0.278,1.215,0.474
		c0.683,0.348,0.833,0.824,0.523,1.528c-0.134,0.303-0.279,0.604-0.447,0.888c-1.293,2.182-3.01,3.813-5.609,4.294
		c-0.369,0.068-0.591,0.431-0.467,0.785c0.07,0.2,0.193,0.409,0.351,0.545c0.223,0.192,0.488,0.349,0.758,0.47
		c0.856,0.384,1.773,0.551,2.691,0.701c0.152,0.025,0.215,0.091,0.246,0.224c0.085,0.354,0.168,0.708,0.26,1.06
		c0.147,0.561,0.451,0.754,1.023,0.662c0.488-0.078,0.974-0.176,1.465-0.223c1.15-0.11,2.245,0.038,3.215,0.742
		c0.527,0.382,1.059,0.762,1.617,1.094c2.129,1.267,4.29,1.3,6.444,0.072c0.637-0.363,1.23-0.806,1.834-1.226
		c0.71-0.494,1.502-0.691,2.355-0.714c0.702-0.019,1.386,0.099,2.074,0.21c0.715,0.116,1.062,0.021,1.224-0.78
		c0.062-0.306,0.147-0.606,0.22-0.91c0.03-0.126,0.089-0.194,0.234-0.212c0.277-0.033,0.556-0.076,0.824-0.151
		c0.656-0.183,1.313-0.369,1.957-0.589c0.352-0.12,0.665-0.335,0.888-0.648C32.031,24.661,31.811,24.146,31.2,24.02z"/>
</g>
<g id="TITLES">
</g>
</svg>
