<?xml version="1.0" encoding="iso-8859-1"?>
<!-- Generator: Adobe Illustrator 17.1.0, SVG Export Plug-In . SVG Version: 6.00 Build 0)  -->
<!DOCTYPE svg PUBLIC "-//W3C//DTD SVG 1.1//EN" "http://www.w3.org/Graphics/SVG/1.1/DTD/svg11.dtd">
<svg version="1.1" xmlns="http://www.w3.org/2000/svg" xmlns:xlink="http://www.w3.org/1999/xlink" x="0px" y="0px"
	 viewBox="0 0 34 34" style="enable-background:new 0 0 34 34;" xml:space="preserve">
<g id="BLOCKS" style="display:none;">
	<rect x="0.026" y="0.021" style="display:inline;fill:#CCCACB;" width="34" height="34"/>
</g>
<g id="INNER_GUDIES">
</g>
<g id="MAIN_GUIDES">
</g>
<g id="ICONS">
</g>
<g id="TITLES">
	<g>
		<g>
			<path d="M3.323,16.471c-0.064,0-0.116,0.051-0.125,0.121L2.902,19.29l0.295,2.638c0.009,0.071,0.061,0.122,0.125,0.122
				c0.063,0,0.115-0.05,0.125-0.121l0.336-2.639l-0.336-2.698C3.437,16.52,3.386,16.471,3.323,16.471z"/>
			<path d="M2.212,17.504c-0.063,0-0.112,0.048-0.12,0.118l-0.22,1.668l0.22,1.64c0.008,0.069,0.058,0.117,0.12,0.117
				c0.061,0,0.11-0.048,0.12-0.117l0.26-1.641l-0.26-1.669C2.322,17.552,2.273,17.504,2.212,17.504z"/>
			<path d="M4.503,15.942c-0.079,0-0.143,0.062-0.151,0.147l-0.28,3.201l0.28,3.084c0.008,0.086,0.071,0.148,0.151,0.148
				c0.078,0,0.141-0.062,0.15-0.147l0.319-3.085l-0.318-3.201C4.644,16.004,4.581,15.942,4.503,15.942z"/>
			<path d="M5.693,15.829c-0.093,0-0.169,0.074-0.176,0.173l-0.265,3.289l0.265,3.182c0.007,0.098,0.083,0.173,0.176,0.173
				c0.092,0,0.168-0.074,0.176-0.173l0.301-3.182l-0.301-3.29C5.861,15.903,5.785,15.829,5.693,15.829z"/>
			<polygon points="7.094,22.499 7.094,22.499 7.094,22.5 			"/>
			<path d="M7.094,16.239C7.086,16.126,7,16.041,6.892,16.041c-0.108,0-0.195,0.086-0.202,0.199l-0.25,3.051l0.25,3.208
				c0.007,0.113,0.093,0.199,0.202,0.199c0.107,0,0.194-0.086,0.202-0.199l0.283-3.208L7.094,16.239z"/>
			<path d="M8.102,14.103c-0.121,0-0.221,0.099-0.227,0.225l-0.235,4.964L7.874,22.5c0.006,0.125,0.106,0.224,0.227,0.224
				c0.12,0,0.22-0.099,0.227-0.225v0.001l0.266-3.208l-0.266-4.964C8.322,14.202,8.222,14.103,8.102,14.103z"/>
			<path d="M9.302,12.96c-0.136,0-0.247,0.11-0.253,0.251l-0.22,6.099l0.22,3.188c0.006,0.139,0.117,0.25,0.253,0.25
				c0.135,0,0.246-0.11,0.253-0.251l0,0.002l0.249-3.189l-0.248-6.099C9.548,13.07,9.437,12.96,9.302,12.96z"/>
			<path d="M10.549,12.409c-0.151,0-0.273,0.122-0.279,0.277l-0.204,6.608l0.205,3.155c0.005,0.154,0.128,0.275,0.279,0.275
				c0.15,0,0.273-0.121,0.279-0.276l0,0.002l0.231-3.156l-0.231-6.608C10.822,12.53,10.699,12.409,10.549,12.409z"/>
			<path d="M12.092,12.463c-0.005-0.17-0.139-0.303-0.304-0.303c-0.166,0-0.3,0.133-0.304,0.303l-0.189,6.831l0.189,3.136
				c0.005,0.168,0.138,0.301,0.304,0.301c0.165,0,0.299-0.133,0.304-0.302l0.213-3.134L12.092,12.463z"/>
			<polygon points="12.092,22.428 12.092,22.428 12.091,22.43 			"/>
			<path d="M13.035,12.31c-0.181,0-0.326,0.144-0.33,0.328l-0.174,6.656l0.174,3.106c0.004,0.182,0.149,0.327,0.33,0.327
				c0.18,0,0.325-0.145,0.33-0.328v0.002l0.196-3.106l-0.196-6.657C13.36,12.454,13.215,12.31,13.035,12.31z"/>
			<path d="M14.293,12.527c-0.196,0-0.352,0.156-0.356,0.354l-0.159,6.413l0.159,3.086c0.004,0.197,0.16,0.352,0.356,0.352
				c0.195,0,0.351-0.155,0.356-0.354v0.003l0.178-3.086l-0.178-6.414C14.644,12.683,14.488,12.527,14.293,12.527z"/>
			<path d="M15.771,11.349c-0.061-0.041-0.133-0.065-0.211-0.065c-0.075,0-0.146,0.023-0.205,0.062
				c-0.104,0.068-0.174,0.185-0.176,0.318l-0.001,0.072l-0.143,7.558c0,0.005,0.144,3.068,0.144,3.068
				c0,0.004,0.001,0.009,0.001,0.013c0.004,0.086,0.037,0.164,0.089,0.227c0.07,0.084,0.175,0.138,0.292,0.138
				c0.103,0,0.198-0.043,0.267-0.111c0.069-0.069,0.113-0.163,0.115-0.268l0.016-0.303l0.145-2.761l-0.161-7.632
				C15.939,11.533,15.872,11.417,15.771,11.349z"/>
			<polygon points="15.941,22.362 15.941,22.361 15.941,22.362 15.941,22.36 15.941,22.36 15.941,22.36 15.941,22.361 			"/>
			<path d="M17.029,10.625c-0.061-0.037-0.132-0.058-0.207-0.058c-0.097,0-0.187,0.035-0.257,0.093
				c-0.09,0.074-0.149,0.187-0.15,0.313l-0.001,0.042l-0.166,8.282l0.085,1.531l0.082,1.49c0.003,0.221,0.185,0.403,0.407,0.403
				c0.221,0,0.403-0.182,0.407-0.406v0.003v0l0.181-3.021v0l-0.181-8.325C17.226,10.825,17.146,10.696,17.029,10.625z"/>
			<path d="M28.219,15.356c-0.506,0-0.989,0.103-1.429,0.287c-0.294-3.33-3.087-5.942-6.493-5.942c-0.834,0-1.646,0.164-2.364,0.442
				c-0.279,0.108-0.353,0.219-0.356,0.434v11.728c0.003,0.226,0.178,0.402,0.399,0.424c0.009,0.001,10.243,0,10.243,0
				c2.041,0,3.695-1.636,3.695-3.677C31.914,17.011,30.26,15.356,28.219,15.356z"/>
		</g>
	</g>
	<path style="fill:#FFFFFF;" d="M21.989,0.755c-0.102-0.057-0.207-0.105-0.311-0.161c-0.105,0.022-0.211,0.043-0.315,0.063
		L21.989,0.755z"/>
</g>
</svg>
