<?xml version="1.0" encoding="utf-8"?>
<!-- Generator: Adobe Illustrator 17.1.0, SVG Export Plug-In . SVG Version: 6.00 Build 0)  -->
<!DOCTYPE svg PUBLIC "-//W3C//DTD SVG 1.1//EN" "http://www.w3.org/Graphics/SVG/1.1/DTD/svg11.dtd">
<svg version="1.1" id="Layer_1" xmlns="http://www.w3.org/2000/svg" xmlns:xlink="http://www.w3.org/1999/xlink" x="0px" y="0px"
	 viewBox="0 0 283.5 198.4" enable-background="new 0 0 283.5 198.4" xml:space="preserve">
<g id="BLOCKS" display="none">
	<rect x="42.7" y="0.1" display="inline" fill="#CCCACB" width="198.4" height="198.4"/>
</g>
<g id="INNER_GUDIES">
</g>
<g id="MAIN_GUIDES">
</g>
<g id="ICONS">
	<linearGradient id="SVGID_1_" gradientUnits="userSpaceOnUse" x1="101.9306" y1="174.3881" x2="182.5973" y2="9.0547">
		<stop  offset="0" style="stop-color:#FFFFFF"/>
		<stop  offset="7.076675e-02" style="stop-color:#DFDFDF"/>
		<stop  offset="0.2149" style="stop-color:#A5A5A5"/>
		<stop  offset="0.3591" style="stop-color:#737373"/>
		<stop  offset="0.4997" style="stop-color:#494949"/>
		<stop  offset="0.6363" style="stop-color:#292929"/>
		<stop  offset="0.7676" style="stop-color:#121212"/>
		<stop  offset="0.8914" style="stop-color:#050505"/>
		<stop  offset="1" style="stop-color:#000000"/>
	</linearGradient>
	<path fill="url(#SVGID_1_)" d="M214.1,104.2c-0.7,0.1-1.5,0.1-2.2,0.1c-2.1,0-3.6-0.5-4.6-1.6c-0.3-0.3-0.6-0.7-0.8-1.1h-0.4
		l-0.3-1.1l-0.1-1.4c0-17.1-6.6-33.2-18.7-45.2c-12-12-28.1-18.7-45.1-18.7s-33.1,6.6-45.1,18.7c-12,12-18.7,28.1-18.7,45.1
		c0,17.1,6.6,33.1,18.7,45.1c12,12,28.1,18.7,45.1,18.7l2.6,0v0l2.3,0l0.5,1.9c0.1,0.4,0.2,1,0.3,1.8c0.1,0.8,0.1,1.5,0.1,2.2
		c0,2.1-0.5,3.6-1.7,4.6c-1,1-2.3,1.5-3.8,1.5l-2.1,0c-19.6-0.5-38-8.3-51.8-22.2C74,138.3,66.1,119.2,66.1,99S74,59.7,88.3,45.3
		c14.3-14.3,33.4-22.2,53.6-22.2c20.3,0,39.3,7.9,53.6,22.2c13.9,13.9,21.8,32.4,22.2,52l0,6l-2,0.5
		C215.4,104,214.8,104.1,214.1,104.2z"/>
</g>
<g id="TITLES">
</g>
</svg>
