<?xml version="1.0" encoding="iso-8859-1"?>
<!-- Generator: Adobe Illustrator 17.1.0, SVG Export Plug-In . SVG Version: 6.00 Build 0)  -->
<!DOCTYPE svg PUBLIC "-//W3C//DTD SVG 1.1//EN" "http://www.w3.org/Graphics/SVG/1.1/DTD/svg11.dtd">
<svg version="1.1" xmlns="http://www.w3.org/2000/svg" xmlns:xlink="http://www.w3.org/1999/xlink" x="0px" y="0px"
	 viewBox="0 0 34 34" style="enable-background:new 0 0 34 34;" xml:space="preserve">
<g id="BLOCKS" style="display:none;">
	<rect x="0.027" y="0.022" style="display:inline;fill:#CCCACB;" width="34" height="34"/>
</g>
<g id="INNER_GUDIES">
</g>
<g id="MAIN_GUIDES">
</g>
<g id="ICONS">
	<path d="M29.392,17.847c-0.125,0.011-0.25,0.018-0.373,0.019c-0.357,0-0.616-0.092-0.793-0.28
		c-0.053-0.057-0.097-0.118-0.132-0.184h-0.062L27.98,17.21l-0.011-0.239c0-2.935-1.136-5.684-3.199-7.747
		c-2.063-2.062-4.811-3.198-7.735-3.198s-5.673,1.136-7.735,3.199C7.236,11.288,6.1,14.036,6.1,16.96
		c0,2.926,1.136,5.674,3.199,7.735c2.062,2.062,4.808,3.197,7.732,3.197l0.441-0.002v0.007l0.387,0.001l0.084,0.332
		c0.018,0.075,0.034,0.179,0.049,0.31c0.012,0.131,0.018,0.253,0.018,0.376c0,0.356-0.093,0.615-0.283,0.791
		c-0.178,0.165-0.397,0.249-0.652,0.249l-0.362-0.008c-3.354-0.082-6.503-1.43-8.869-3.797c-2.455-2.454-3.808-5.719-3.808-9.191
		s1.353-6.737,3.808-9.192c2.455-2.454,5.719-3.807,9.191-3.807s6.737,1.353,9.191,3.808c2.383,2.382,3.733,5.548,3.803,8.915
		l0.008,1.03L29.7,17.798C29.625,17.816,29.522,17.832,29.392,17.847z"/>
</g>
<g id="TITLES">
</g>
</svg>
