<?xml version="1.0" encoding="iso-8859-1"?>
<!-- Generator: Adobe Illustrator 17.1.0, SVG Export Plug-In . SVG Version: 6.00 Build 0)  -->
<!DOCTYPE svg PUBLIC "-//W3C//DTD SVG 1.1//EN" "http://www.w3.org/Graphics/SVG/1.1/DTD/svg11.dtd">
<svg version="1.1" xmlns="http://www.w3.org/2000/svg" xmlns:xlink="http://www.w3.org/1999/xlink" x="0px" y="0px"
	 viewBox="0 0 34 34" style="enable-background:new 0 0 34 34;" xml:space="preserve">
<g id="BLOCKS" style="display:none;">
	<rect x="0.023" y="0.021" style="display:inline;fill:#CCCACB;" width="34" height="34"/>
</g>
<g id="INNER_GUDIES">
</g>
<g id="MAIN_GUIDES">
</g>
<g id="ICONS">
	<path d="M22.919,13.221c-0.001-0.286-0.002-0.482-0.002-0.527c0-0.642-0.136-1.089-0.407-1.34
		c-0.255-0.236-0.572-0.351-0.944-0.365v-0.011h-0.066v0h-1.075h-2.412h-1.123h-3.536H12.28v0h-0.066v0.011
		c-0.371,0.014-0.689,0.13-0.944,0.365c-0.271,0.251-0.407,0.698-0.407,1.34c0,0.045-0.001,0.24-0.002,0.527
		c-0.013,0.269-0.014,1.986-0.01,3.782c-0.003,1.796-0.003,3.513,0.01,3.783c0.001,0.286,0.002,0.482,0.002,0.527
		c0,0.642,0.136,1.089,0.407,1.34c0.271,0.251,0.607,0.376,1.009,0.376l4.612,0l0,0h0.5h0.622l0,0l3.487,0
		c0.402,0,0.739-0.126,1.009-0.376c0.271-0.251,0.407-0.698,0.407-1.34c0-0.045,0.001-0.24,0.002-0.527
		c0.013-0.269,0.014-1.986,0.01-3.783C22.932,15.207,22.932,13.49,22.919,13.221z M12.214,11.442L12.214,11.442v-0.006V11.442z
		 M21.567,11.442v-0.006V11.442L21.567,11.442z"/>
</g>
<g id="TITLES">
</g>
</svg>
