<?xml version="1.0" encoding="iso-8859-1"?>
<!-- Generator: Adobe Illustrator 17.1.0, SVG Export Plug-In . SVG Version: 6.00 Build 0)  -->
<!DOCTYPE svg PUBLIC "-//W3C//DTD SVG 1.1//EN" "http://www.w3.org/Graphics/SVG/1.1/DTD/svg11.dtd">
<svg version="1.1" xmlns="http://www.w3.org/2000/svg" xmlns:xlink="http://www.w3.org/1999/xlink" x="0px" y="0px"
	 viewBox="0 0 34 34" style="enable-background:new 0 0 34 34;" xml:space="preserve">
<g id="BLOCKS" style="display:none;">
	<rect x="0.026" y="0.021" style="display:inline;fill:#CCCACB;" width="34" height="34"/>
</g>
<g id="INNER_GUDIES">
</g>
<g id="MAIN_GUIDES">
</g>
<g id="ICONS">
	<g>
		<path d="M16.865,1.013c-8.837,0-16,7.163-16,16s7.163,16,16,16s16-7.163,16-16S25.701,1.013,16.865,1.013z M22.921,20.703
			c-0.001,0.286-0.002,0.482-0.002,0.527c0,0.642-0.136,1.089-0.407,1.34c-0.271,0.251-0.607,0.376-1.009,0.376l-3.487,0h-0.622
			h-0.5l-4.612,0c-0.402,0-0.739-0.126-1.009-0.376c-0.271-0.251-0.407-0.698-0.407-1.34c0-0.045-0.001-0.24-0.002-0.527
			c-0.013-0.269-0.014-1.986-0.01-3.783c-0.003-1.796-0.003-3.513,0.01-3.782c0.001-0.286,0.002-0.482,0.002-0.527
			c0-0.642,0.136-1.089,0.407-1.34c0.255-0.236,0.572-0.351,0.944-0.365v-0.011h0.066v0h1.075h3.536h1.123h2.412h1.075v0h0.066
			v0.011c0.371,0.014,0.689,0.13,0.944,0.365c0.271,0.251,0.407,0.698,0.407,1.34c0,0.045,0.001,0.24,0.002,0.527
			c0.013,0.269,0.013,1.986,0.01,3.782C22.935,18.717,22.934,20.434,22.921,20.703z"/>
		<polygon points="12.217,11.359 12.217,11.352 12.216,11.359 		"/>
		<polygon points="21.569,11.359 21.57,11.359 21.569,11.352 		"/>
	</g>
</g>
<g id="TITLES">
</g>
</svg>
