<?xml version="1.0" encoding="iso-8859-1"?>
<!-- Generator: Adobe Illustrator 17.1.0, SVG Export Plug-In . SVG Version: 6.00 Build 0)  -->
<!DOCTYPE svg PUBLIC "-//W3C//DTD SVG 1.1//EN" "http://www.w3.org/Graphics/SVG/1.1/DTD/svg11.dtd">
<svg version="1.1" xmlns="http://www.w3.org/2000/svg" xmlns:xlink="http://www.w3.org/1999/xlink" x="0px" y="0px"
	 viewBox="0 0 34 34" style="enable-background:new 0 0 34 34;" xml:space="preserve">
<g id="BLOCKS" style="display:none;">
	<rect x="0.023" y="0.127" style="display:inline;fill:#CCCACB;" width="34" height="34"/>
</g>
<g id="INNER_GUDIES">
</g>
<g id="MAIN_GUIDES">
</g>
<g id="ICONS">
	<g>
		<path style="fill:#121212;" d="M28.938,1.912H4.895c-1.657,0-3.005,1.348-3.005,3.005v24.043c0,1.657,1.348,3.005,3.005,3.005
			h24.042c1.657,0,3.005-1.348,3.005-3.005V4.917C31.943,3.26,30.595,1.912,28.938,1.912z M22.735,22.032
			c-0.225,0.56-0.585,1.05-1.069,1.455c-0.491,0.412-1.119,0.737-1.868,0.968c-0.759,0.234-1.687,0.352-2.758,0.352
			c-0.802,0-1.686-0.083-2.627-0.247c-0.893-0.155-1.817-0.387-2.749-0.69c-0.001-0.011-0.003-0.021-0.005-0.032
			c-0.006-0.038-0.009-0.083-0.009-0.134c0-0.505,0.09-0.913,0.266-1.215c0.156-0.266,0.398-0.39,0.762-0.39
			c0.198,0,0.441,0.032,0.723,0.094l0.47,0.104l0.544,0.121c0.383,0.086,0.811,0.163,1.272,0.229
			c0.468,0.068,0.99,0.102,1.552,0.102c1.226,0,2.086-0.224,2.63-0.686c0.55-0.465,0.828-1.06,0.828-1.77
			c0-0.355-0.069-0.668-0.204-0.93c-0.134-0.259-0.328-0.482-0.576-0.662c-0.235-0.171-0.52-0.321-0.848-0.446
			c-0.323-0.121-0.687-0.241-1.086-0.357l-2.081-0.577c-1.578-0.435-2.686-1.039-3.292-1.795c-0.604-0.752-0.91-1.627-0.91-2.6
			c0-0.489,0.088-0.998,0.262-1.512c0.17-0.501,0.469-0.961,0.889-1.366c0.424-0.409,1.003-0.753,1.719-1.024
			c0.72-0.272,1.643-0.41,2.744-0.41c0.749,0,1.565,0.075,2.426,0.222c0.812,0.14,1.664,0.361,2.536,0.659V9.67
			c0,0.52-0.085,0.923-0.252,1.199c-0.147,0.243-0.378,0.355-0.726,0.355c-0.201,0-0.422-0.027-0.659-0.081
			c-0.262-0.059-0.558-0.119-0.889-0.179c-0.328-0.058-0.703-0.117-1.125-0.177c-0.43-0.059-0.914-0.089-1.438-0.089
			c-0.607,0-1.119,0.058-1.522,0.172c-0.415,0.117-0.756,0.28-1.013,0.482c-0.265,0.208-0.458,0.446-0.575,0.709
			c-0.114,0.257-0.172,0.523-0.172,0.791c0,0.631,0.223,1.12,0.663,1.452c0.404,0.306,1.092,0.591,2.1,0.869l2.21,0.628
			c2.826,0.743,4.199,2.156,4.199,4.319C23.081,20.82,22.965,21.463,22.735,22.032z"/>
	</g>
</g>
<g id="TITLES">
</g>
</svg>
