<?xml version="1.0" encoding="iso-8859-1"?>
<!-- Generator: Adobe Illustrator 17.1.0, SVG Export Plug-In . SVG Version: 6.00 Build 0)  -->
<!DOCTYPE svg PUBLIC "-//W3C//DTD SVG 1.1//EN" "http://www.w3.org/Graphics/SVG/1.1/DTD/svg11.dtd">
<svg version="1.1" xmlns="http://www.w3.org/2000/svg" xmlns:xlink="http://www.w3.org/1999/xlink" x="0px" y="0px"
	 viewBox="0 0 34 34" style="enable-background:new 0 0 34 34;" xml:space="preserve">
<g id="BLOCKS" style="display:none;">
	<rect x="0.027" y="0.021" style="display:inline;fill:#CCCACB;" width="34" height="34"/>
</g>
<g id="INNER_GUDIES">
</g>
<g id="MAIN_GUIDES">
</g>
<g id="ICONS">
	<path style="fill:#010101;" d="M30.413,7.438H3.381c-0.834,0-1.51,0.677-1.51,1.51v17.011c0,0.833,0.676,1.51,1.51,1.51h27.032
		c0.834,0,1.511-0.677,1.511-1.51V8.948C31.923,8.115,31.247,7.438,30.413,7.438z M28.871,25.469h-24V9.438h24V25.469z
		 M30.414,18.204c-0.414,0-0.75-0.336-0.75-0.75c0-0.414,0.336-0.75,0.75-0.75c0.414,0,0.75,0.336,0.75,0.75
		C31.164,17.868,30.828,18.204,30.414,18.204z"/>
</g>
<g id="TITLES">
</g>
</svg>
