<?xml version="1.0" encoding="iso-8859-1"?>
<!-- Generator: Adobe Illustrator 17.1.0, SVG Export Plug-In . SVG Version: 6.00 Build 0)  -->
<!DOCTYPE svg PUBLIC "-//W3C//DTD SVG 1.1//EN" "http://www.w3.org/Graphics/SVG/1.1/DTD/svg11.dtd">
<svg version="1.1" xmlns="http://www.w3.org/2000/svg" xmlns:xlink="http://www.w3.org/1999/xlink" x="0px" y="0px"
	 viewBox="0 0 34 34" style="enable-background:new 0 0 34 34;" xml:space="preserve">
<g id="BLOCKS" style="display:none;">
	<rect x="0.027" y="0.022" style="display:inline;fill:#CCCACB;" width="34" height="34"/>
</g>
<g id="INNER_GUDIES">
</g>
<g id="MAIN_GUIDES">
</g>
<g id="ICONS">
	<path style="fill:#010101;" d="M5.291,18.277c0.008,0.195,0.086,0.363,0.246,0.526l0.19,0.194l6.649,6.649
		c0.189,0.189,0.44,0.293,0.707,0.293s0.518-0.104,0.707-0.293L27.86,11.577l0.127-0.13c0.161-0.163,0.239-0.332,0.247-0.53
		c0.006-0.173-0.155-0.438-0.442-0.725c-0.187-0.187-0.386-0.368-0.59-0.537c-0.05-0.041-0.096-0.078-0.138-0.111l-0.496,0.496
		L13.437,23.171l-0.354,0.354l-0.354-0.354l-5.784-5.784l-0.484-0.484c-0.042,0.033-0.089,0.07-0.14,0.112
		c-0.203,0.168-0.401,0.348-0.588,0.535C5.446,17.838,5.285,18.102,5.291,18.277z"/>
</g>
<g id="TITLES">
</g>
</svg>
