<?xml version="1.0" encoding="iso-8859-1"?>
<!-- Generator: Adobe Illustrator 17.1.0, SVG Export Plug-In . SVG Version: 6.00 Build 0)  -->
<!DOCTYPE svg PUBLIC "-//W3C//DTD SVG 1.1//EN" "http://www.w3.org/Graphics/SVG/1.1/DTD/svg11.dtd">
<svg version="1.1" xmlns="http://www.w3.org/2000/svg" xmlns:xlink="http://www.w3.org/1999/xlink" x="0px" y="0px"
	 viewBox="0 0 34 34" style="enable-background:new 0 0 34 34;" xml:space="preserve">
<g id="BLOCKS" style="display:none;">
	<rect x="0.027" y="0.022" style="display:inline;fill:#CCCACB;" width="34" height="34"/>
</g>
<g id="INNER_GUDIES">
</g>
<g id="MAIN_GUIDES">
</g>
<g id="ICONS">
	<g>
		<path d="M6.999,18.456l5.65,5.649c0.189,0.189,0.44,0.293,0.707,0.293s0.518-0.104,0.707-0.293l12.07-12.07l0.127-0.13
			c0.161-0.163,0.239-0.332,0.247-0.53c0.006-0.173-0.155-0.438-0.442-0.725c-0.187-0.187-0.386-0.368-0.59-0.537
			c-0.05-0.041-0.096-0.078-0.138-0.111L24.841,10.5L13.709,21.631l-0.354,0.354l-0.354-0.354l-4.784-4.784l-0.484-0.484
			c-0.042,0.033-0.089,0.07-0.14,0.112c-0.202,0.167-0.401,0.348-0.589,0.536c-0.287,0.287-0.448,0.552-0.442,0.726
			c0.008,0.195,0.086,0.363,0.246,0.526L6.999,18.456z"/>
		<path d="M16.866,3.022c7.72,0,14,6.28,14,14s-6.28,14-14,14s-14-6.28-14-14S9.147,3.022,16.866,3.022 M16.866,1.022
			c-8.837,0-16,7.163-16,16s7.163,16,16,16c8.837,0,16-7.163,16-16S25.703,1.022,16.866,1.022L16.866,1.022z"/>
	</g>
</g>
<g id="TITLES">
</g>
</svg>
