<?xml version="1.0" encoding="iso-8859-1"?>
<!-- Generator: Adobe Illustrator 17.1.0, SVG Export Plug-In . SVG Version: 6.00 Build 0)  -->
<!DOCTYPE svg PUBLIC "-//W3C//DTD SVG 1.1//EN" "http://www.w3.org/Graphics/SVG/1.1/DTD/svg11.dtd">
<svg version="1.1" xmlns="http://www.w3.org/2000/svg" xmlns:xlink="http://www.w3.org/1999/xlink" x="0px" y="0px"
	 viewBox="0 0 34 34" style="enable-background:new 0 0 34 34;" xml:space="preserve">
<g id="BLOCKS" style="display:none;">
	<rect x="0.026" y="0.022" style="display:inline;fill:#CCCACB;" width="34" height="34"/>
</g>
<g id="INNER_GUDIES">
</g>
<g id="MAIN_GUIDES">
</g>
<g id="ICONS">
	<g>
		<path d="M16.865,1.014c-8.837,0-16,7.163-16,16s7.163,16,16,16s16-7.163,16-16S25.701,1.014,16.865,1.014z M26.257,11.823
			l-0.126,0.13l-12.07,12.07c-0.189,0.189-0.44,0.293-0.707,0.293s-0.518-0.104-0.707-0.293l-5.65-5.649l-0.189-0.194
			c-0.16-0.163-0.238-0.331-0.246-0.526c-0.006-0.174,0.155-0.439,0.442-0.726c0.188-0.188,0.386-0.368,0.589-0.536
			c0.051-0.042,0.098-0.079,0.14-0.112l0.484,0.484L13,21.547l0.354,0.354l0.354-0.354l11.131-11.131l0.496-0.496
			c0.042,0.033,0.088,0.07,0.138,0.111c0.204,0.169,0.402,0.349,0.59,0.537c0.287,0.287,0.448,0.552,0.442,0.725
			C26.497,11.491,26.418,11.66,26.257,11.823z"/>
	</g>
</g>
<g id="TITLES">
</g>
</svg>
