<?xml version="1.0" encoding="iso-8859-1"?>
<!-- Generator: Adobe Illustrator 17.1.0, SVG Export Plug-In . SVG Version: 6.00 Build 0)  -->
<!DOCTYPE svg PUBLIC "-//W3C//DTD SVG 1.1//EN" "http://www.w3.org/Graphics/SVG/1.1/DTD/svg11.dtd">
<svg version="1.1" xmlns="http://www.w3.org/2000/svg" xmlns:xlink="http://www.w3.org/1999/xlink" x="0px" y="0px"
	 viewBox="0 0 34 34" style="enable-background:new 0 0 34 34;" xml:space="preserve">
<g id="BLOCKS" style="display:none;">
	<rect x="0.027" y="0.022" style="display:inline;fill:#CCCACB;" width="34" height="34"/>
</g>
<g id="INNER_GUDIES">
</g>
<g id="MAIN_GUIDES">
</g>
<g id="ICONS">
	<g>
		<path d="M17.819,17.318v-6.919v-0.056V9.629c-0.098-0.024-0.242-0.046-0.431-0.064c-0.19-0.018-0.382-0.027-0.577-0.027
			c-0.391,0-0.663,0.082-0.816,0.247c-0.14,0.152-0.208,0.34-0.22,0.558h-0.01v7.08c-0.049,0.04-0.1,0.076-0.146,0.122
			c-0.341,0.341-0.513,0.759-0.513,1.252c0,0.474,0.171,0.882,0.513,1.224c0.342,0.341,0.749,0.512,1.224,0.512
			c0.493,0,0.91-0.171,1.252-0.512c0.342-0.342,0.512-0.75,0.512-1.224c0-0.493-0.171-0.911-0.512-1.252
			C18.008,17.458,17.916,17.383,17.819,17.318z"/>
		<path d="M26.082,9.268l1.834-1.834l0.006-0.006L28.46,6.89c-0.052-0.087-0.138-0.203-0.259-0.35
			c-0.122-0.147-0.251-0.29-0.389-0.427c-0.277-0.277-0.527-0.411-0.752-0.402c-0.222,0.009-0.419,0.099-0.59,0.268L26.47,5.976
			l-1.976,1.976c-1.918-1.355-4.207-2.208-6.685-2.383V4.057h2.948h0.008h0.742c0.024-0.096,0.045-0.235,0.063-0.42
			c0.017-0.185,0.026-0.372,0.026-0.562c0-0.381-0.08-0.646-0.241-0.795c-0.159-0.147-0.356-0.22-0.59-0.222V2.057h-7.758v0.005
			c-0.225,0.006-0.417,0.076-0.572,0.219c-0.16,0.149-0.241,0.414-0.241,0.795c0,0.19,0.009,0.378,0.026,0.562
			c0.018,0.184,0.039,0.324,0.063,0.42h0.723h0.027h2.775v1.518C8.994,6.118,3.611,11.826,3.611,18.778
			c0,7.31,5.947,13.257,13.257,13.257c7.31,0,13.256-5.947,13.256-13.257C30.124,15.048,28.57,11.679,26.082,9.268z M16.868,30.089
			c-6.237,0-11.312-5.074-11.312-11.311S10.631,7.467,16.868,7.467c6.237,0,11.311,5.074,11.311,11.311S23.105,30.089,16.868,30.089
			z"/>
	</g>
</g>
<g id="TITLES">
</g>
</svg>
