<?xml version="1.0" encoding="iso-8859-1"?>
<!-- Generator: Adobe Illustrator 17.1.0, SVG Export Plug-In . SVG Version: 6.00 Build 0)  -->
<!DOCTYPE svg PUBLIC "-//W3C//DTD SVG 1.1//EN" "http://www.w3.org/Graphics/SVG/1.1/DTD/svg11.dtd">
<svg version="1.1" xmlns="http://www.w3.org/2000/svg" xmlns:xlink="http://www.w3.org/1999/xlink" x="0px" y="0px"
	 viewBox="0 0 34 34" style="enable-background:new 0 0 34 34;" xml:space="preserve">
<g id="BLOCKS" style="display:none;">
	<rect x="0.026" y="0.022" style="display:inline;fill:#CCCACB;" width="34" height="34"/>
</g>
<g id="INNER_GUDIES">
</g>
<g id="MAIN_GUIDES">
</g>
<g id="ICONS">
	<g>
		<path d="M26.081,9.184l1.833-1.834l0.006-0.006l0.539-0.539C28.406,6.72,28.32,6.603,28.2,6.456
			c-0.122-0.147-0.251-0.29-0.389-0.427c-0.277-0.277-0.527-0.411-0.752-0.402c-0.222,0.009-0.419,0.099-0.59,0.268l-0.001-0.001
			l-1.976,1.976c-1.918-1.355-4.207-2.208-6.685-2.383V3.974h2.948h0.008h0.742c0.023-0.096,0.045-0.235,0.063-0.42
			c0.017-0.185,0.026-0.372,0.026-0.562c0-0.381-0.08-0.646-0.24-0.795c-0.159-0.147-0.356-0.22-0.591-0.222V1.974h-7.758v0.005
			c-0.225,0.006-0.417,0.076-0.572,0.219c-0.16,0.149-0.24,0.414-0.24,0.795c0,0.19,0.009,0.378,0.026,0.562
			c0.018,0.184,0.039,0.324,0.063,0.42h0.723h0.027h2.775v1.518C8.992,6.035,3.61,11.743,3.61,18.695
			c0,7.31,5.947,13.257,13.257,13.257c7.309,0,13.256-5.947,13.256-13.257C30.123,14.965,28.568,11.596,26.081,9.184z
			 M15.618,19.938c-0.342-0.342-0.512-0.75-0.512-1.224c0-0.493,0.171-0.911,0.512-1.252c0.046-0.047,0.097-0.082,0.146-0.122v-7.08
			h0.01c0.012-0.218,0.079-0.407,0.219-0.558c0.153-0.165,0.425-0.247,0.816-0.247c0.195,0,0.388,0.009,0.577,0.027
			c0.189,0.018,0.333,0.04,0.431,0.064v0.714v0.056v6.919c0.097,0.065,0.189,0.14,0.276,0.227c0.342,0.341,0.512,0.759,0.512,1.252
			c0,0.474-0.171,0.882-0.512,1.224c-0.341,0.341-0.759,0.512-1.252,0.512C16.367,20.449,15.959,20.279,15.618,19.938z"/>
	</g>
</g>
<g id="TITLES">
</g>
</svg>
