<?xml version="1.0" encoding="iso-8859-1"?>
<!-- Generator: Adobe Illustrator 17.1.0, SVG Export Plug-In . SVG Version: 6.00 Build 0)  -->
<!DOCTYPE svg PUBLIC "-//W3C//DTD SVG 1.1//EN" "http://www.w3.org/Graphics/SVG/1.1/DTD/svg11.dtd">
<svg version="1.1" xmlns="http://www.w3.org/2000/svg" xmlns:xlink="http://www.w3.org/1999/xlink" x="0px" y="0px"
	 viewBox="0 0 34 34" style="enable-background:new 0 0 34 34;" xml:space="preserve">
<g id="BLOCKS" style="display:none;">
	<rect x="0.026" y="0.021" style="display:inline;fill:#CCCACB;" width="34" height="34"/>
</g>
<g id="INNER_GUDIES">
</g>
<g id="MAIN_GUIDES">
</g>
<g id="ICONS">
</g>
<g id="TITLES">
	<path d="M24.539,26.01c-0.558,0.266-1.627,0.498-2.423,0.519c-2.404,0.065-2.87-1.688-2.89-2.961V14.22h6.03V9.674h-6.008v-7.65
		c0,0-4.327,0-4.399,0c-0.072,0-0.198,0.064-0.216,0.225c-0.257,2.341-1.353,6.451-5.908,8.093v3.879h3.039v9.812
		c0,3.359,2.479,8.132,9.02,8.02c2.207-0.038,4.658-0.963,5.2-1.759L24.539,26.01z"/>
</g>
</svg>
