<?xml version="1.0" encoding="iso-8859-1"?>
<!-- Generator: Adobe Illustrator 17.1.0, SVG Export Plug-In . SVG Version: 6.00 Build 0)  -->
<!DOCTYPE svg PUBLIC "-//W3C//DTD SVG 1.1//EN" "http://www.w3.org/Graphics/SVG/1.1/DTD/svg11.dtd">
<svg version="1.1" xmlns="http://www.w3.org/2000/svg" xmlns:xlink="http://www.w3.org/1999/xlink" x="0px" y="0px"
	 viewBox="0 0 44 34" style="enable-background:new 0 0 44 34;" xml:space="preserve">
<g id="BLOCKS" style="display:none;">
	<rect x="-0.011" y="-0.026" style="display:inline;fill:#CCCACB;" width="44" height="34"/>
</g>
<g id="INNER_GUDIES">
</g>
<g id="MAIN_GUIDES">
</g>
<g id="ICONS">
	<g>
		<path style="fill:#121212;" d="M31.831,12.251c-0.539-0.478-1.181-0.843-1.908-1.085c-0.722-0.241-1.504-0.363-2.324-0.363h-2.17
			h-0.25v0.25v11.124v0.25h0.25h2.219c0.805,0,1.575-0.126,2.29-0.375c0.719-0.252,1.356-0.63,1.895-1.125
			c0.54-0.498,0.972-1.127,1.283-1.871c0.311-0.741,0.469-1.621,0.469-2.615c0-0.896-0.158-1.707-0.471-2.409
			C32.803,13.331,32.371,12.732,31.831,12.251z"/>
		<path style="fill:#121212;" d="M39.483,1.786h-35c-1.93,0-3.5,1.57-3.5,3.5v23c0,1.93,1.57,3.5,3.5,3.5h35
			c1.93,0,3.499-1.57,3.499-3.5v-23C42.983,3.356,41.413,1.786,39.483,1.786z M18.918,22.056c-0.266,0.571-0.645,1.058-1.128,1.447
			c-0.488,0.394-1.093,0.702-1.799,0.917c-0.715,0.217-1.517,0.326-2.384,0.326c-1.18,0-2.207-0.139-3.053-0.413
			c-0.802-0.26-1.543-0.587-2.203-0.973c0.029-0.508,0.137-0.9,0.323-1.165c0.185-0.264,0.412-0.392,0.693-0.392
			c0.216,0,0.437,0.044,0.655,0.131c0.253,0.102,0.54,0.208,0.86,0.316c0.32,0.111,0.687,0.215,1.12,0.318
			c0.431,0.104,0.955,0.157,1.555,0.157c1.106,0,1.951-0.257,2.512-0.763c0.568-0.512,0.856-1.188,0.856-2.006
			c0-0.716-0.269-1.338-0.8-1.851c-0.529-0.51-1.435-0.769-2.692-0.769h-1.995c-0.199,0-0.362-0.066-0.497-0.2
			c-0.133-0.133-0.201-0.384-0.201-0.746c0-0.309,0.024-0.585,0.072-0.823h2.397c1.167,0,1.993-0.205,2.525-0.628
			c0.543-0.43,0.818-1.067,0.818-1.892c0-0.307-0.051-0.611-0.151-0.905c-0.105-0.305-0.283-0.574-0.528-0.8
			c-0.24-0.222-0.549-0.403-0.919-0.538c-0.367-0.134-0.828-0.202-1.37-0.202c-0.546,0-1.022,0.044-1.414,0.131
			c-0.382,0.085-0.73,0.18-1.035,0.281c-0.301,0.1-0.57,0.193-0.803,0.276c-0.206,0.073-0.413,0.11-0.615,0.11
			c-0.3,0-0.527-0.131-0.715-0.413c-0.187-0.279-0.296-0.67-0.326-1.164c0.601-0.324,1.31-0.611,2.11-0.853
			c0.856-0.257,1.864-0.388,2.996-0.388c0.883,0,1.653,0.109,2.289,0.323c0.63,0.212,1.15,0.501,1.546,0.858
			c0.393,0.354,0.685,0.778,0.869,1.261c0.188,0.492,0.283,1.027,0.283,1.591c0,0.834-0.233,1.548-0.693,2.122
			c-0.465,0.581-1.104,1.001-1.9,1.25l-0.982,0.307l1.013,0.178c0.888,0.156,1.638,0.559,2.229,1.198
			c0.585,0.632,0.882,1.457,0.882,2.452C19.318,20.835,19.184,21.484,18.918,22.056z M35.423,19.615
			c-0.384,0.96-0.952,1.808-1.688,2.52c-0.739,0.714-1.648,1.288-2.7,1.705c-1.055,0.419-2.27,0.631-3.611,0.631h-3.342
			c-0.692,0-0.912-0.162-0.982-0.258c-0.142-0.196-0.214-0.461-0.214-0.788V9.807c0-0.327,0.072-0.592,0.215-0.789
			c0.07-0.096,0.29-0.258,0.982-0.258h3.417c1.312,0,2.51,0.184,3.56,0.547c1.043,0.361,1.941,0.885,2.668,1.556
			c0.726,0.67,1.293,1.488,1.685,2.432c0.393,0.946,0.592,2.021,0.592,3.196C36.004,17.601,35.809,18.652,35.423,19.615z"/>
	</g>
</g>
<g id="TITLES">
</g>
</svg>
