<?xml version="1.0" encoding="iso-8859-1"?>
<!-- Generator: Adobe Illustrator 17.1.0, SVG Export Plug-In . SVG Version: 6.00 Build 0)  -->
<!DOCTYPE svg PUBLIC "-//W3C//DTD SVG 1.1//EN" "http://www.w3.org/Graphics/SVG/1.1/DTD/svg11.dtd">
<svg version="1.1" xmlns="http://www.w3.org/2000/svg" xmlns:xlink="http://www.w3.org/1999/xlink" x="0px" y="0px"
	 viewBox="0 0 44 34" style="enable-background:new 0 0 44 34;" xml:space="preserve">
<g id="BLOCKS" style="display:none;">
	<rect x="-0.016" y="0.05" style="display:inline;fill:#CCCACB;" width="44" height="34"/>
</g>
<g id="INNER_GUDIES">
</g>
<g id="MAIN_GUIDES">
</g>
<g id="ICONS">
	<g>
		<path d="M13.603,24.829c0.867,0,1.669-0.11,2.384-0.326c0.706-0.215,1.311-0.523,1.799-0.917c0.483-0.39,0.862-0.876,1.128-1.447
			c0.266-0.572,0.401-1.221,0.401-1.931c0-0.995-0.297-1.82-0.882-2.452c-0.591-0.639-1.341-1.042-2.229-1.198L15.19,16.38
			l0.982-0.307c0.796-0.249,1.435-0.669,1.9-1.25c0.46-0.574,0.693-1.288,0.693-2.122c0-0.564-0.095-1.099-0.283-1.591
			c-0.184-0.483-0.476-0.907-0.869-1.261c-0.396-0.357-0.916-0.645-1.546-0.858c-0.636-0.214-1.407-0.323-2.289-0.323
			c-1.132,0-2.14,0.13-2.996,0.388c-0.8,0.242-1.509,0.529-2.11,0.853c0.029,0.493,0.139,0.884,0.326,1.164
			c0.188,0.282,0.415,0.413,0.715,0.413c0.202,0,0.409-0.037,0.615-0.11c0.233-0.084,0.501-0.176,0.803-0.276
			c0.305-0.101,0.653-0.196,1.035-0.281c0.392-0.087,0.867-0.131,1.414-0.131c0.542,0,1.003,0.068,1.37,0.202
			c0.37,0.136,0.679,0.317,0.919,0.538c0.245,0.226,0.423,0.495,0.528,0.8c0.1,0.294,0.151,0.598,0.151,0.905
			c0,0.826-0.275,1.462-0.818,1.892c-0.532,0.422-1.358,0.628-2.525,0.628h-2.397c-0.048,0.238-0.072,0.514-0.072,0.823
			c0,0.362,0.068,0.613,0.201,0.746c0.135,0.135,0.297,0.2,0.497,0.2h1.995c1.257,0,2.163,0.259,2.692,0.769
			c0.531,0.513,0.8,1.135,0.8,1.851c0,0.819-0.288,1.494-0.856,2.006c-0.561,0.506-1.406,0.763-2.512,0.763
			c-0.6,0-1.124-0.053-1.555-0.157c-0.434-0.104-0.8-0.208-1.12-0.318c-0.32-0.108-0.607-0.214-0.86-0.316
			c-0.218-0.087-0.439-0.131-0.655-0.131c-0.281,0-0.508,0.128-0.693,0.392c-0.186,0.265-0.294,0.656-0.323,1.165
			c0.66,0.386,1.401,0.713,2.203,0.973C11.396,24.69,12.423,24.829,13.603,24.829z"/>
		<path d="M35.419,19.698c0.385-0.963,0.58-2.014,0.58-3.124c0-1.175-0.199-2.25-0.592-3.196c-0.392-0.943-0.959-1.761-1.685-2.432
			c-0.728-0.672-1.625-1.195-2.668-1.556c-1.05-0.363-2.247-0.547-3.56-0.547h-3.417c-0.692,0-0.912,0.162-0.982,0.258
			c-0.142,0.197-0.215,0.462-0.215,0.789v13.618c0,0.328,0.072,0.593,0.214,0.788c0.07,0.097,0.291,0.258,0.982,0.258h3.342
			c1.342,0,2.557-0.212,3.611-0.631c1.052-0.417,1.96-0.991,2.7-1.705C34.467,21.506,35.035,20.658,35.419,19.698z M33.113,19.139
			c-0.311,0.744-0.743,1.373-1.283,1.871c-0.539,0.495-1.177,0.873-1.895,1.125c-0.715,0.249-1.485,0.375-2.29,0.375h-2.219h-0.25
			v-0.25V11.136v-0.25h0.25h2.17c0.82,0,1.602,0.122,2.324,0.363c0.727,0.242,1.369,0.607,1.908,1.085
			c0.541,0.481,0.973,1.08,1.284,1.782c0.312,0.702,0.471,1.512,0.471,2.409C33.581,17.518,33.424,18.398,33.113,19.139z"/>
		<path style="fill:#121212;" d="M39.479,1.868h-35c-1.93,0-3.5,1.57-3.5,3.5v23c0,1.93,1.57,3.5,3.5,3.5h35
			c1.93,0,3.5-1.57,3.5-3.5v-23C42.978,3.439,41.409,1.868,39.479,1.868z M2.978,28.368v-23c0-0.827,0.673-1.5,1.5-1.5h35.001
			c0.827,0,1.5,0.673,1.5,1.5v23c0,0.827-0.673,1.5-1.5,1.5H4.478C3.651,29.868,2.978,29.195,2.978,28.368z"/>
	</g>
</g>
<g id="TITLES">
</g>
</svg>
