<?xml version="1.0" encoding="iso-8859-1"?>
<!-- Generator: Adobe Illustrator 17.1.0, SVG Export Plug-In . SVG Version: 6.00 Build 0)  -->
<!DOCTYPE svg PUBLIC "-//W3C//DTD SVG 1.1//EN" "http://www.w3.org/Graphics/SVG/1.1/DTD/svg11.dtd">
<svg version="1.1" xmlns="http://www.w3.org/2000/svg" xmlns:xlink="http://www.w3.org/1999/xlink" x="0px" y="0px"
	 viewBox="0 0 44 34" style="enable-background:new 0 0 44 34;" xml:space="preserve">
<g id="BLOCKS" style="display:none;">
	<rect x="-0.016" y="0.05" style="display:inline;fill:#CCCACB;" width="44" height="34"/>
</g>
<g id="INNER_GUDIES">
</g>
<g id="MAIN_GUIDES">
</g>
<g id="ICONS">
	<g>
		<path d="M18.413,21.273v-0.25h0.25h1.578c0.223,0,0.41-0.07,0.574-0.214c0.15-0.131,0.228-0.412,0.228-0.814
			c0-0.351-0.025-0.654-0.073-0.902h-2.307h-0.25v-0.25V8.872h-2.576l-6.742,9.539c-0.22,0.314-0.378,0.605-0.469,0.865
			c-0.091,0.257-0.136,0.524-0.136,0.794c0,0.253,0.016,0.475,0.047,0.66c0.018,0.108,0.036,0.205,0.053,0.292h7.368h0.25v0.25
			v3.453c0.099,0.016,0.216,0.03,0.35,0.043c0.242,0.025,0.495,0.037,0.753,0.037c0.434,0,0.737-0.084,0.878-0.242
			c0.151-0.171,0.224-0.379,0.224-0.635V21.273z M16.208,12.205v6.663v0.25h-0.25h-4.71h-0.483l0.279-0.394l4.71-6.663l0.454-0.642
			V12.205z"/>
		<g>
			<path d="M35.344,9.083c-0.153-0.061-0.325-0.112-0.514-0.154c-0.322-0.071-0.611-0.107-0.86-0.107
				c-0.427,0-0.758,0.055-0.981,0.163c-0.225,0.109-0.445,0.293-0.655,0.547l-5.764,6.792l-0.301,0.355l0.3,0.347l6.062,7.014
				c0.226,0.257,0.467,0.453,0.715,0.58c0.239,0.123,0.584,0.186,1.026,0.186c0.261,0,0.557-0.04,0.88-0.118
				c0.197-0.049,0.378-0.106,0.541-0.17l-6.786-7.815l-0.142-0.164l0.142-0.164L35.344,9.083z"/>
			<path d="M25.001,8.822c-0.453,0-0.775,0.089-0.931,0.257c-0.166,0.179-0.247,0.398-0.247,0.67v14.976
				c0.09,0.014,0.208,0.029,0.363,0.044c0.25,0.025,0.507,0.037,0.765,0.037c0.453,0,0.775-0.089,0.931-0.259
				c0.166-0.179,0.247-0.398,0.247-0.67V17.19v-0.346v-0.681v-7.26c-0.101-0.016-0.222-0.031-0.363-0.045
				C25.513,8.835,25.255,8.822,25.001,8.822z"/>
		</g>
		<path style="fill:#121212;" d="M39.479,1.868h-35c-1.93,0-3.5,1.57-3.5,3.5v23c0,1.93,1.57,3.5,3.5,3.5h35
			c1.93,0,3.5-1.57,3.5-3.5v-23C42.978,3.439,41.409,1.868,39.479,1.868z M2.978,28.368v-23c0-0.827,0.673-1.5,1.5-1.5h35.001
			c0.827,0,1.5,0.673,1.5,1.5v23c0,0.827-0.673,1.5-1.5,1.5H4.478C3.651,29.868,2.978,29.195,2.978,28.368z"/>
	</g>
</g>
<g id="TITLES">
</g>
</svg>
