<?xml version="1.0" encoding="iso-8859-1"?>
<!-- Generator: Adobe Illustrator 17.1.0, SVG Export Plug-In . SVG Version: 6.00 Build 0)  -->
<!DOCTYPE svg PUBLIC "-//W3C//DTD SVG 1.1//EN" "http://www.w3.org/Graphics/SVG/1.1/DTD/svg11.dtd">
<svg version="1.1" xmlns="http://www.w3.org/2000/svg" xmlns:xlink="http://www.w3.org/1999/xlink" x="0px" y="0px"
	 viewBox="0 0 44 34" style="enable-background:new 0 0 44 34;" xml:space="preserve">
<g id="BLOCKS" style="display:none;">
	<rect x="-0.011" y="-0.026" style="display:inline;fill:#CCCACB;" width="44" height="34"/>
</g>
<g id="INNER_GUDIES">
</g>
<g id="MAIN_GUIDES">
</g>
<g id="ICONS">
	<g>
		<polygon style="fill:#121212;" points="11.048,18.641 10.769,19.035 11.252,19.035 15.962,19.035 16.212,19.035 16.212,18.785 
			16.212,12.122 16.212,11.335 15.758,11.978 		"/>
		<path style="fill:#121212;" d="M39.483,1.786h-35c-1.93,0-3.5,1.57-3.5,3.5v23c0,1.93,1.57,3.5,3.5,3.5h35
			c1.93,0,3.5-1.57,3.5-3.5v-23C42.983,3.356,41.413,1.786,39.483,1.786z M20.819,20.727c-0.163,0.144-0.351,0.214-0.574,0.214
			h-1.578h-0.25v0.25v2.656c0,0.256-0.073,0.464-0.224,0.635c-0.141,0.158-0.444,0.242-0.878,0.242
			c-0.258,0-0.511-0.012-0.753-0.037c-0.134-0.013-0.251-0.028-0.35-0.043V21.19v-0.25h-0.25H8.594
			c-0.018-0.087-0.036-0.185-0.053-0.292c-0.031-0.185-0.047-0.407-0.047-0.66c0-0.27,0.046-0.537,0.136-0.794
			c0.092-0.26,0.25-0.552,0.469-0.865l6.742-9.539h2.576v9.971v0.25h0.25h2.307c0.049,0.248,0.073,0.55,0.073,0.902
			C21.048,20.314,20.969,20.596,20.819,20.727z M26.133,16.08v0.681v0.346v6.688c0,0.272-0.081,0.491-0.247,0.67
			c-0.156,0.169-0.479,0.259-0.931,0.259c-0.258,0-0.515-0.012-0.765-0.037c-0.154-0.015-0.272-0.03-0.363-0.044V9.667
			c0-0.272,0.081-0.491,0.247-0.67c0.156-0.168,0.478-0.257,0.931-0.257c0.254,0,0.512,0.012,0.765,0.036
			c0.141,0.014,0.262,0.029,0.363,0.045V16.08z M35.256,24.605c-0.323,0.078-0.619,0.118-0.881,0.118
			c-0.442,0-0.787-0.062-1.026-0.186c-0.248-0.127-0.489-0.323-0.715-0.58l-6.062-7.014l-0.3-0.347l0.301-0.355l5.764-6.792
			c0.209-0.254,0.43-0.438,0.655-0.547c0.224-0.108,0.554-0.163,0.981-0.163c0.249,0,0.538,0.036,0.86,0.107
			C35.023,8.888,35.195,8.939,35.348,9l-6.339,7.292l-0.142,0.164l0.142,0.164l6.786,7.815C35.634,24.5,35.453,24.557,35.256,24.605
			z"/>
	</g>
</g>
<g id="TITLES">
</g>
</svg>
