<?xml version="1.0" encoding="iso-8859-1"?>
<!-- Generator: Adobe Illustrator 17.1.0, SVG Export Plug-In . SVG Version: 6.00 Build 0)  -->
<!DOCTYPE svg PUBLIC "-//W3C//DTD SVG 1.1//EN" "http://www.w3.org/Graphics/SVG/1.1/DTD/svg11.dtd">
<svg version="1.1" xmlns="http://www.w3.org/2000/svg" xmlns:xlink="http://www.w3.org/1999/xlink" x="0px" y="0px"
	 viewBox="0 0 34 34" style="enable-background:new 0 0 34 34;" xml:space="preserve">
<g id="BLOCKS" style="display:none;">
	<rect x="0.025" y="0.021" style="display:inline;fill:#CCCACB;" width="34" height="34"/>
</g>
<g id="INNER_GUDIES">
</g>
<g id="MAIN_GUIDES">
</g>
<g id="ICONS">
	<g>
		<path style="fill:#010101;" d="M30.614,19.979v-6.517c0-0.834-0.677-1.51-1.51-1.51h-1.027V6.511c0-0.833-0.677-1.51-1.511-1.51
			H3.534c-0.834,0-1.51,0.677-1.51,1.51v16.011c0,0.833,0.676,1.51,1.51,1.51h10.388v1.681h-6.18v0.008
			c-0.216,0.01-0.402,0.077-0.551,0.215c-0.16,0.149-0.241,0.414-0.241,0.795c0,0.19,0.009,0.378,0.026,0.562
			c0.018,0.184,0.039,0.324,0.063,0.42h0.703H7.79h9.793v0.781c0,0.834,0.677,1.511,1.51,1.511h5.822v0.499
			c0,0.834,0.677,1.51,1.51,1.51h4.011c0.833,0,1.51-0.676,1.51-1.51v-9.032C31.947,20.699,31.363,20.069,30.614,19.979z
			 M17.583,25.713h-1.66v-1.681h1.66V25.713z M17.583,13.462v8.569H4.025V7.001h22.052v4.952h-6.984
			C18.26,11.953,17.583,12.629,17.583,13.462z M24.915,21.472v6.481h-5.332v-14h9.031v6.009h-2.189
			C25.592,19.962,24.915,20.638,24.915,21.472z M29.947,30.026h-3.031v-8.064h3.031V30.026z"/>
	</g>
</g>
<g id="TITLES">
</g>
</svg>
