<?xml version="1.0" encoding="iso-8859-1"?>
<!-- Generator: Adobe Illustrator 17.1.0, SVG Export Plug-In . SVG Version: 6.00 Build 0)  -->
<!DOCTYPE svg PUBLIC "-//W3C//DTD SVG 1.1//EN" "http://www.w3.org/Graphics/SVG/1.1/DTD/svg11.dtd">
<svg version="1.1" xmlns="http://www.w3.org/2000/svg" xmlns:xlink="http://www.w3.org/1999/xlink" x="0px" y="0px"
	 viewBox="0 0 34 34" style="enable-background:new 0 0 34 34;" xml:space="preserve">
<g id="BLOCKS" style="display:none;">
	<rect x="0.023" y="0.021" style="display:inline;fill:#CCCACB;" width="34" height="34"/>
</g>
<g id="INNER_GUDIES">
</g>
<g id="MAIN_GUIDES">
</g>
<g id="ICONS">
	<g>
		<path d="M30.408,7.438H3.376c-0.834,0-1.51,0.677-1.51,1.51v17.011c0,0.833,0.676,1.51,1.51,1.51h12.518v2.494h-6.18v0.008
			c-0.216,0.01-0.402,0.077-0.551,0.215c-0.16,0.149-0.241,0.414-0.241,0.795c0,0.19,0.009,0.378,0.026,0.562
			c0.018,0.184,0.039,0.324,0.063,0.42h0.703h0.047h14.265h0.029h0.721c0.024-0.096,0.045-0.235,0.063-0.42
			c0.017-0.185,0.026-0.372,0.026-0.562c0-0.381-0.08-0.646-0.241-0.795c-0.154-0.142-0.346-0.212-0.57-0.218v-0.005h-6.161v-2.494
			h12.514c0.834,0,1.511-0.677,1.511-1.51V8.948C31.919,8.115,31.242,7.438,30.408,7.438z M29.919,25.469H3.867V9.438h26.052V25.469
			z"/>
	</g>
</g>
<g id="TITLES">
</g>
</svg>
