<?xml version="1.0" encoding="iso-8859-1"?>
<!-- Generator: Adobe Illustrator 17.1.0, SVG Export Plug-In . SVG Version: 6.00 Build 0)  -->
<!DOCTYPE svg PUBLIC "-//W3C//DTD SVG 1.1//EN" "http://www.w3.org/Graphics/SVG/1.1/DTD/svg11.dtd">
<svg version="1.1" xmlns="http://www.w3.org/2000/svg" xmlns:xlink="http://www.w3.org/1999/xlink" x="0px" y="0px"
	 viewBox="0 0 34 34" style="enable-background:new 0 0 34 34;" xml:space="preserve">
<g id="BLOCKS" style="display:none;">
	<rect x="0.027" y="0.021" style="display:inline;fill:#CCCACB;" width="34" height="34"/>
</g>
<g id="INNER_GUDIES">
</g>
<g id="MAIN_GUIDES">
</g>
<g id="ICONS">
	<g>
		<g>
			<g>
				<path d="M26.733,11.301c-0.911,0.402-1.888,0.678-2.912,0.797c1.045-0.626,1.85-1.621,2.228-2.807
					c-0.979,0.581-2.065,1.004-3.219,1.231c-0.926-0.986-2.247-1.602-3.705-1.602c-2.801,0-5.072,2.272-5.072,5.073
					c0,0.399,0.044,0.786,0.131,1.158C9.97,14.939,6.231,12.921,3.73,9.851c-0.436,0.748-0.687,1.621-0.687,2.551
					c0,1.76,0.896,3.313,2.257,4.223c-0.831-0.027-1.613-0.256-2.298-0.634c-0.001,0.02-0.001,0.043-0.001,0.064
					c0,2.459,1.749,4.509,4.071,4.974c-0.426,0.117-0.875,0.178-1.338,0.178c-0.326,0-0.645-0.032-0.952-0.09
					c0.645,2.016,2.516,3.483,4.736,3.524c-1.733,1.362-3.921,2.172-6.296,2.172c-0.411,0-0.814-0.025-1.211-0.073
					c2.245,1.441,4.91,2.282,7.776,2.282c9.328,0,14.429-7.732,14.429-14.439c0-0.218-0.004-0.436-0.014-0.655
					C25.194,13.212,26.052,12.317,26.733,11.301"/>
				<polygon points="32.011,23.741 28.782,23.741 28.782,20.511 26.733,20.511 26.733,23.741 23.504,23.741 23.504,25.791 
					26.733,25.791 26.733,29.021 28.782,29.021 28.782,25.791 32.011,25.791 				"/>
			</g>
		</g>
	</g>
</g>
<g id="TITLES">
</g>
</svg>
