<?xml version="1.0" encoding="iso-8859-1"?>
<!-- Generator: Adobe Illustrator 17.1.0, SVG Export Plug-In . SVG Version: 6.00 Build 0)  -->
<!DOCTYPE svg PUBLIC "-//W3C//DTD SVG 1.1//EN" "http://www.w3.org/Graphics/SVG/1.1/DTD/svg11.dtd">
<svg version="1.1" xmlns="http://www.w3.org/2000/svg" xmlns:xlink="http://www.w3.org/1999/xlink" x="0px" y="0px"
	 viewBox="0 0 34 34" style="enable-background:new 0 0 34 34;" xml:space="preserve">
<g id="BLOCKS" style="display:none;">
	<rect x="0.027" y="0.021" style="display:inline;fill:#CCCACB;" width="34" height="34"/>
</g>
<g id="INNER_GUDIES">
</g>
<g id="MAIN_GUIDES">
</g>
<g id="ICONS">
	<path d="M32.012,7.563c-1.102,0.489-2.287,0.819-3.53,0.968c1.269-0.761,2.243-1.965,2.702-3.4
		c-1.187,0.704-2.503,1.216-3.903,1.491c-1.121-1.194-2.718-1.941-4.486-1.941c-3.394,0-6.146,2.752-6.146,6.146
		c0,0.482,0.054,0.951,0.159,1.401c-5.108-0.256-9.636-2.703-12.667-6.421C3.612,6.714,3.309,7.77,3.309,8.896
		c0,2.132,1.085,4.013,2.734,5.115c-1.007-0.032-1.955-0.308-2.784-0.769c0,0.026-0.001,0.051-0.001,0.077
		c0,2.978,2.118,5.462,4.93,6.026c-0.516,0.14-1.059,0.216-1.619,0.216c-0.396,0-0.781-0.039-1.156-0.11
		c0.782,2.442,3.052,4.219,5.741,4.268c-2.103,1.648-4.753,2.631-7.633,2.631c-0.496,0-0.985-0.029-1.466-0.086
		c2.72,1.744,5.95,2.761,9.421,2.761c11.304,0,17.486-9.365,17.486-17.486c0-0.266-0.006-0.531-0.018-0.795
		C30.146,9.878,31.188,8.796,32.012,7.563z"/>
</g>
<g id="TITLES">
</g>
</svg>
