<?xml version="1.0" encoding="iso-8859-1"?>
<!-- Generator: Adobe Illustrator 17.1.0, SVG Export Plug-In . SVG Version: 6.00 Build 0)  -->
<!DOCTYPE svg PUBLIC "-//W3C//DTD SVG 1.1//EN" "http://www.w3.org/Graphics/SVG/1.1/DTD/svg11.dtd">
<svg version="1.1" xmlns="http://www.w3.org/2000/svg" xmlns:xlink="http://www.w3.org/1999/xlink" x="0px" y="0px"
	 viewBox="0 0 56.044 34" style="enable-background:new 0 0 56.044 34;" xml:space="preserve">
<g id="BLOCKS" style="display:none;">
	<rect x="-0.011" y="-0.027" style="display:inline;fill:#CCCACB;" width="56.06" height="34"/>
</g>
<g id="INNER_GUDIES">
</g>
<g id="MAIN_GUIDES">
</g>
<g id="ICONS">
	<g>
		<path style="fill:#121212;" d="M46.122,12.287c-0.54-0.479-1.184-0.845-1.914-1.088c-0.724-0.241-1.509-0.364-2.332-0.364h-2.177
			h-0.25v0.25v11.162v0.25h0.25h2.227c0.807,0,1.58-0.127,2.298-0.377c0.722-0.253,1.361-0.632,1.901-1.128
			c0.542-0.499,0.975-1.13,1.287-1.877c0.312-0.745,0.47-1.627,0.47-2.624c0-0.898-0.159-1.711-0.472-2.417
			C47.097,13.37,46.664,12.768,46.122,12.287z"/>
		<path style="fill:#121212;" d="M51.483,1.785h-47c-1.93,0-3.5,1.57-3.5,3.5v23c0,1.93,1.57,3.5,3.5,3.5h47
			c0.95,0,1.81-0.383,2.442-1h0.003v-0.002c0.649-0.636,1.055-1.519,1.055-2.498v-23C54.983,3.355,53.413,1.785,51.483,1.785z
			 M18.678,18.068c0,0.95-0.147,1.848-0.437,2.67c-0.288,0.816-0.709,1.542-1.253,2.157c-0.541,0.611-1.223,1.099-2.027,1.451
			c-0.808,0.351-1.739,0.53-2.767,0.53c-1.043,0-1.973-0.178-2.764-0.529c-0.789-0.351-1.463-0.84-2.004-1.452
			c-0.542-0.613-0.959-1.338-1.24-2.155c-0.282-0.82-0.424-1.719-0.424-2.672V9.658c0-0.27,0.081-0.489,0.246-0.669
			c0.156-0.168,0.477-0.257,0.93-0.257c0.254,0,0.512,0.012,0.764,0.036c0.141,0.014,0.262,0.029,0.362,0.045v9.329
			c0,1.405,0.361,2.55,1.072,3.402c0.722,0.865,1.759,1.303,3.083,1.303c1.272,0,2.299-0.437,3.053-1.298
			c0.747-0.853,1.125-1.999,1.125-3.406V9.658c0-0.27,0.081-0.489,0.246-0.669c0.156-0.168,0.477-0.257,0.93-0.257
			c0.255,0,0.508,0.012,0.751,0.036c0.135,0.014,0.253,0.029,0.351,0.045V18.068z M34.219,23.773c0,0.271-0.08,0.49-0.246,0.669
			c-0.156,0.169-0.478,0.258-0.93,0.258c-0.258,0-0.519-0.012-0.778-0.037c-0.146-0.013-0.271-0.028-0.374-0.044v-6.752v-0.25h-0.25
			h-7.608h-0.25v0.25v5.906c0,0.271-0.081,0.49-0.246,0.668c-0.157,0.169-0.479,0.259-0.93,0.259c-0.258,0-0.515-0.012-0.765-0.037
			c-0.14-0.013-0.261-0.028-0.361-0.044V9.658c0-0.271,0.081-0.49,0.246-0.669c0.156-0.168,0.477-0.257,0.93-0.257
			c0.255,0,0.512,0.012,0.763,0.036c0.141,0.014,0.262,0.029,0.363,0.045v6.627v0.25h0.25h7.608h0.25v-0.25V9.658
			c0-0.27,0.081-0.489,0.246-0.668c0.159-0.171,0.472-0.258,0.931-0.258c0.255,0,0.516,0.012,0.777,0.036
			c0.146,0.014,0.271,0.029,0.374,0.045V23.773z M49.728,19.676c-0.386,0.964-0.956,1.815-1.693,2.529
			c-0.741,0.716-1.653,1.292-2.71,1.711c-1.058,0.42-2.277,0.633-3.624,0.633h-3.354c-0.514,0-0.865-0.092-0.986-0.26
			c-0.142-0.196-0.214-0.463-0.214-0.792V9.833c0-0.328,0.072-0.595,0.214-0.791c0.122-0.168,0.473-0.26,0.987-0.26h3.429
			c1.317,0,2.519,0.185,3.571,0.549c1.047,0.363,1.948,0.888,2.678,1.561c0.729,0.674,1.298,1.495,1.691,2.44
			c0.394,0.949,0.594,2.028,0.594,3.208C50.31,17.653,50.114,18.708,49.728,19.676z"/>
	</g>
</g>
<g id="TITLES">
</g>
</svg>
