<?xml version="1.0" encoding="iso-8859-1"?>
<!-- Generator: Adobe Illustrator 17.1.0, SVG Export Plug-In . SVG Version: 6.00 Build 0)  -->
<!DOCTYPE svg PUBLIC "-//W3C//DTD SVG 1.1//EN" "http://www.w3.org/Graphics/SVG/1.1/DTD/svg11.dtd">
<svg version="1.1" xmlns="http://www.w3.org/2000/svg" xmlns:xlink="http://www.w3.org/1999/xlink" x="0px" y="0px"
	 viewBox="0 0 56.044 34" style="enable-background:new 0 0 56.044 34;" xml:space="preserve">
<g id="BLOCKS" style="display:none;">
	<rect x="-0.016" y="0.05" style="display:inline;fill:#CCCACB;" width="56.06" height="34"/>
</g>
<g id="INNER_GUDIES">
</g>
<g id="MAIN_GUIDES">
</g>
<g id="ICONS">
	<g>
		<path style="fill:#121212;" d="M5.759,18.151c0,0.953,0.143,1.851,0.424,2.672c0.281,0.817,0.698,1.542,1.24,2.155
			c0.54,0.612,1.214,1.1,2.004,1.452c0.79,0.351,1.72,0.529,2.764,0.529c1.028,0,1.959-0.178,2.767-0.53
			c0.804-0.351,1.486-0.839,2.027-1.451c0.543-0.615,0.965-1.341,1.253-2.157c0.29-0.822,0.436-1.72,0.436-2.67V8.896
			c-0.099-0.016-0.216-0.031-0.351-0.045c-0.243-0.024-0.496-0.036-0.751-0.036c-0.453,0-0.774,0.089-0.93,0.257
			c-0.166,0.18-0.246,0.398-0.246,0.669v8.484c0,1.407-0.379,2.553-1.126,3.406c-0.754,0.862-1.782,1.298-3.053,1.298
			c-1.324,0-2.361-0.438-3.083-1.303c-0.711-0.852-1.072-1.997-1.072-3.402V8.896c-0.1-0.016-0.221-0.031-0.362-0.045
			C7.447,8.828,7.19,8.816,6.935,8.816c-0.453,0-0.774,0.089-0.93,0.257C5.84,9.252,5.759,9.471,5.759,9.742V18.151z"/>
		<path style="fill:#121212;" d="M31.886,24.702c0.103,0.016,0.228,0.031,0.374,0.044c0.259,0.025,0.52,0.037,0.778,0.037
			c0.452,0,0.774-0.089,0.93-0.258c0.166-0.179,0.246-0.398,0.246-0.669V8.897c-0.103-0.016-0.228-0.031-0.374-0.045
			c-0.261-0.024-0.522-0.036-0.777-0.036c-0.459,0-0.772,0.087-0.931,0.258c-0.165,0.179-0.246,0.398-0.246,0.668v5.781v0.25h-0.25
			h-7.608h-0.25v-0.25V8.897c-0.101-0.016-0.222-0.031-0.363-0.045c-0.252-0.024-0.509-0.036-0.763-0.036
			c-0.453,0-0.774,0.089-0.93,0.257c-0.166,0.179-0.246,0.398-0.246,0.669v14.961c0.1,0.016,0.221,0.03,0.361,0.044
			c0.25,0.025,0.508,0.037,0.765,0.037c0.451,0,0.773-0.089,0.93-0.259c0.165-0.178,0.246-0.397,0.246-0.668v-5.906v-0.25h0.25
			h7.608h0.25v0.25V24.702z"/>
		<path style="fill:#121212;" d="M48.021,10.976c-0.73-0.673-1.631-1.199-2.678-1.561c-1.053-0.365-2.254-0.549-3.571-0.549h-3.429
			c-0.514,0-0.865,0.092-0.987,0.26c-0.142,0.197-0.214,0.463-0.214,0.791v13.665c0,0.329,0.072,0.595,0.214,0.792
			c0.122,0.167,0.472,0.26,0.986,0.26h3.354c1.346,0,2.565-0.213,3.624-0.633c1.057-0.419,1.968-0.995,2.71-1.711
			c0.738-0.714,1.308-1.565,1.694-2.529c0.386-0.967,0.582-2.022,0.582-3.135c0-1.179-0.2-2.258-0.594-3.208
			C49.32,12.471,48.751,11.65,48.021,10.976z M47.408,19.198c-0.312,0.747-0.745,1.379-1.287,1.877
			c-0.54,0.496-1.179,0.875-1.901,1.128c-0.718,0.25-1.491,0.377-2.298,0.377h-2.227h-0.25v-0.25V11.168v-0.25h0.25h2.177
			c0.823,0,1.607,0.122,2.331,0.364c0.73,0.243,1.374,0.609,1.914,1.088c0.542,0.481,0.975,1.083,1.288,1.787
			c0.313,0.705,0.472,1.518,0.472,2.417C47.878,17.57,47.72,18.453,47.408,19.198z"/>
		<path style="fill:#121212;" d="M51.479,1.868h-47c-1.93,0-3.5,1.57-3.5,3.5v23c0,1.93,1.57,3.5,3.5,3.5h47
			c1.93,0,3.5-1.57,3.5-3.5v-23C54.978,3.439,53.409,1.868,51.479,1.868z M2.978,28.368v-23c0-0.827,0.673-1.5,1.5-1.5h47.001
			c0.827,0,1.5,0.673,1.5,1.5v23c0,0.827-0.673,1.5-1.5,1.5H4.478C3.651,29.868,2.978,29.195,2.978,28.368z"/>
	</g>
</g>
<g id="TITLES">
</g>
</svg>
