<?xml version="1.0" encoding="iso-8859-1"?>
<!-- Generator: Adobe Illustrator 17.1.0, SVG Export Plug-In . SVG Version: 6.00 Build 0)  -->
<!DOCTYPE svg PUBLIC "-//W3C//DTD SVG 1.1//EN" "http://www.w3.org/Graphics/SVG/1.1/DTD/svg11.dtd">
<svg version="1.1" xmlns="http://www.w3.org/2000/svg" xmlns:xlink="http://www.w3.org/1999/xlink" x="0px" y="0px"
	 viewBox="0 0 34 34" style="enable-background:new 0 0 34 34;" xml:space="preserve">
<g id="BLOCKS" style="display:none;">
	<rect x="0.026" y="0.022" style="display:inline;fill:#CCCACB;" width="34" height="34"/>
</g>
<g id="INNER_GUDIES">
</g>
<g id="MAIN_GUIDES">
</g>
<g id="ICONS">
	<g>
		<path d="M16.865,1.014c-8.837,0-16,7.163-16,16s7.163,16,16,16s16-7.163,16-16S25.701,1.014,16.865,1.014z M11.33,10.722
			l4.95-4.949c0.189-0.189,0.44-0.293,0.707-0.293s0.518,0.104,0.707,0.293l4.146,4.146l0.803,0.803l0.171,0.171
			c0.164,0.164,0.244,0.335,0.252,0.537c0.006,0.175-0.154,0.439-0.441,0.726c-0.191,0.191-0.389,0.37-0.589,0.534
			c-0.051,0.042-0.098,0.08-0.14,0.113l-1.47-1.47l-1.588-1.588l-0.854-0.854v1.207v9.622c0,0.232-0.064,0.41-0.202,0.558
			c-0.118,0.127-0.419,0.201-0.825,0.201c-0.265,0-0.533-0.013-0.797-0.037c-0.065-0.006-0.124-0.013-0.176-0.019v-0.702
			l0.004-9.621l0-1.208l-0.854,0.854l-1.587,1.587l-0.804,0.804l-0.17,0.17c-0.164,0.164-0.335,0.244-0.537,0.252c0,0,0,0,0,0
			c-0.113,0-0.342-0.058-0.726-0.441c-0.191-0.191-0.37-0.389-0.534-0.588c-0.042-0.051-0.08-0.098-0.113-0.14L11.33,10.722z
			 M27.906,23.905c0,0.554-0.451,1.004-1.004,1.004h-5.025h-7.467H6.947c-0.554,0-1.005-0.451-1.005-1.004v-4.423l0.004-0.359
			c0.002-0.222,0.058-0.38,0.179-0.511c0.043-0.046,0.281-0.166,0.857-0.166c0.322,0,0.649,0.015,0.969,0.044l0,0.623v2.835v0.652
			v0.3h0.3h1.652h3.055h0.478l6.206,0l3.206,0h0.478h0.618h1.652h0.3v-0.3v-0.652l0-2.835V18.49
			c0.322-0.029,0.648-0.044,0.969-0.044c0.577,0,0.814,0.119,0.856,0.165c0.122,0.132,0.177,0.29,0.18,0.514l0.004,0.222V23.905z"/>
	</g>
</g>
<g id="TITLES">
</g>
</svg>
