<?xml version="1.0" encoding="iso-8859-1"?>
<!-- Generator: Adobe Illustrator 17.1.0, SVG Export Plug-In . SVG Version: 6.00 Build 0)  -->
<!DOCTYPE svg PUBLIC "-//W3C//DTD SVG 1.1//EN" "http://www.w3.org/Graphics/SVG/1.1/DTD/svg11.dtd">
<svg version="1.1" xmlns="http://www.w3.org/2000/svg" xmlns:xlink="http://www.w3.org/1999/xlink" x="0px" y="0px"
	 viewBox="0 0 34 34" style="enable-background:new 0 0 34 34;" xml:space="preserve">
<g id="BLOCKS" style="display:none;">
	<rect x="0.026" y="0.021" style="display:inline;fill:#CCCACB;" width="34" height="34"/>
</g>
<g id="INNER_GUDIES">
</g>
<g id="MAIN_GUIDES">
</g>
<g id="ICONS">
	<path d="M30.021,16.933c-0.773,0.178-1.52,0.257-2.193,0.257c-3.785,0-6.7-2.644-6.7-7.24c0-2.253,0.871-3.425,2.103-3.425
		c1.172,0,1.953,1.051,1.953,3.185c0,1.213-0.325,2.542-0.565,3.328c0,0,1.166,2.035,4.356,1.41
		c0.677-1.504,1.045-3.451,1.045-5.159c0-4.597-2.343-7.27-6.64-7.27c-4.416,0-7,3.395-7,7.871c0,4.435,2.073,8.241,5.491,9.976
		c-1.437,2.875-3.266,5.408-5.174,7.317c-3.461-4.184-6.59-9.765-7.873-20.657H3.719c2.359,18.14,9.389,23.916,11.248,25.026
		c1.052,0.631,1.957,0.601,2.918,0.06c1.509-0.858,6.041-5.389,8.553-10.696c1.054-0.003,2.321-0.124,3.583-0.409V16.933z"/>
</g>
<g id="TITLES">
</g>
</svg>
