<?xml version="1.0" encoding="iso-8859-1"?>
<!-- Generator: Adobe Illustrator 17.1.0, SVG Export Plug-In . SVG Version: 6.00 Build 0)  -->
<!DOCTYPE svg PUBLIC "-//W3C//DTD SVG 1.1//EN" "http://www.w3.org/Graphics/SVG/1.1/DTD/svg11.dtd">
<svg version="1.1" xmlns="http://www.w3.org/2000/svg" xmlns:xlink="http://www.w3.org/1999/xlink" x="0px" y="0px"
	 viewBox="0 0 34 34" style="enable-background:new 0 0 34 34;" xml:space="preserve">
<g id="BLOCKS" style="display:none;">
	<rect x="0.027" y="0.022" style="display:inline;fill:#CCCACB;" width="34" height="34"/>
</g>
<g id="INNER_GUDIES">
</g>
<g id="MAIN_GUIDES">
</g>
<g id="ICONS">
	<g>
		<path d="M23.989,20.471c-0.099-0.021-0.233-0.04-0.399-0.057c-0.189-0.018-0.388-0.027-0.59-0.027
			c-0.387,0-0.658,0.08-0.805,0.238c-0.143,0.154-0.217,0.352-0.221,0.585l-0.002,0.049c-0.032,2.309-2.297,4.178-5.077,4.178
			c-2.783,0-5.05-1.873-5.078-4.185l-0.002-0.042c-0.003-0.233-0.078-0.431-0.22-0.585c-0.146-0.158-0.417-0.238-0.805-0.238
			c-0.202,0-0.401,0.01-0.591,0.027c-0.167,0.017-0.3,0.036-0.399,0.057l0.001,0.754c0.009,3.055,2.606,5.7,6.042,6.152l0.043,0.006
			v2.571h-3.062c-0.021,0.097-0.04,0.23-0.056,0.399c-0.019,0.197-0.028,0.396-0.028,0.591c0,0.387,0.081,0.657,0.239,0.804
			c0.162,0.15,0.357,0.224,0.599,0.224h7.445c0.021-0.097,0.04-0.23,0.056-0.399c0.019-0.193,0.029-0.392,0.029-0.59
			c0-0.386-0.081-0.657-0.24-0.806c-0.16-0.147-0.361-0.223-0.599-0.223h-2.366v-2.571l0.043-0.006
			c3.436-0.452,6.033-3.098,6.042-6.152L23.989,20.471z"/>
		<path d="M16.899,2.022c-2.374,0-4.305,1.932-4.305,4.306v13.209c0,2.374,1.932,4.306,4.305,4.306c2.375,0,4.306-1.932,4.306-4.306
			V6.328C21.205,3.954,19.273,2.022,16.899,2.022z M19.188,6.252v13.359c0,1.262-1.027,2.289-2.289,2.289
			c-1.262,0-2.289-1.027-2.289-2.289V6.252c0-1.263,1.027-2.29,2.289-2.29C18.161,3.962,19.188,4.99,19.188,6.252z"/>
	</g>
</g>
<g id="TITLES">
</g>
</svg>
