<?xml version="1.0" encoding="iso-8859-1"?>
<!-- Generator: Adobe Illustrator 17.1.0, SVG Export Plug-In . SVG Version: 6.00 Build 0)  -->
<!DOCTYPE svg PUBLIC "-//W3C//DTD SVG 1.1//EN" "http://www.w3.org/Graphics/SVG/1.1/DTD/svg11.dtd">
<svg version="1.1" xmlns="http://www.w3.org/2000/svg" xmlns:xlink="http://www.w3.org/1999/xlink" x="0px" y="0px"
	 viewBox="0 0 34 34" style="enable-background:new 0 0 34 34;" xml:space="preserve">
<g id="BLOCKS" style="display:none;">
	<rect x="0.026" y="0.022" style="display:inline;fill:#CCCACB;" width="34" height="34"/>
</g>
<g id="INNER_GUDIES">
</g>
<g id="MAIN_GUIDES">
</g>
<g id="ICONS">
	<g>
		<path d="M16.865,1.014c-8.837,0-16,7.163-16,16s7.163,16,16,16s16-7.163,16-16S25.701,1.014,16.865,1.014z M13.147,8.244
			c0-2.374,1.682-4.306,3.75-4.306c2.068,0,3.75,1.932,3.75,4.306v9.209c0,2.374-1.682,4.306-3.75,4.306
			c-2.067,0-3.75-1.932-3.75-4.306V8.244z M23.987,19.142c-0.009,3.055-2.606,5.7-6.042,6.152L17.901,25.3v2.571h2.366
			c0.238,0,0.439,0.075,0.599,0.223c0.159,0.148,0.24,0.42,0.24,0.806c0,0.198-0.01,0.396-0.029,0.59
			c-0.016,0.169-0.035,0.303-0.056,0.399h-7.445c-0.242,0-0.438-0.073-0.599-0.224c-0.159-0.146-0.239-0.417-0.239-0.804
			c0-0.195,0.01-0.394,0.028-0.591c0.017-0.169,0.036-0.303,0.056-0.399h3.062V25.3l-0.043-0.006
			c-3.436-0.452-6.033-3.098-6.042-6.152l-0.001-0.754c0.099-0.021,0.232-0.04,0.399-0.057c0.19-0.018,0.389-0.027,0.591-0.027
			c0.387,0,0.658,0.08,0.805,0.238c0.143,0.154,0.217,0.352,0.22,0.585l0.002,0.042c0.028,2.312,2.295,4.185,5.078,4.185
			c2.78,0,5.045-1.869,5.077-4.178l0.002-0.049c0.003-0.233,0.078-0.431,0.221-0.585c0.146-0.158,0.417-0.238,0.805-0.238
			c0.203,0,0.401,0.01,0.59,0.027c0.167,0.017,0.3,0.036,0.399,0.057L23.987,19.142z"/>
	</g>
</g>
<g id="TITLES">
</g>
</svg>
