<?xml version="1.0" encoding="iso-8859-1"?>
<!-- Generator: Adobe Illustrator 17.1.0, SVG Export Plug-In . SVG Version: 6.00 Build 0)  -->
<!DOCTYPE svg PUBLIC "-//W3C//DTD SVG 1.1//EN" "http://www.w3.org/Graphics/SVG/1.1/DTD/svg11.dtd">
<svg version="1.1" xmlns="http://www.w3.org/2000/svg" xmlns:xlink="http://www.w3.org/1999/xlink" x="0px" y="0px"
	 viewBox="0 0 34 34" style="enable-background:new 0 0 34 34;" xml:space="preserve">
<g id="BLOCKS" style="display:none;">
	<rect x="0.027" y="0.022" style="display:inline;fill:#CCCACB;" width="34" height="34"/>
</g>
<g id="INNER_GUDIES">
</g>
<g id="MAIN_GUIDES">
</g>
<g id="ICONS">
	<g>
		<path d="M15.312,10.785l-2.264,2.255H8.979c-0.828,0-1.5,0.172-1.5,1v1.26v2.981v1.26c0,0.828,0.672,1.5,1.5,1.5h4.068
			l2.264,2.255c0.851,0.848,2.093,1.852,3.168,0.781V10.005C17.404,8.933,16.162,9.938,15.312,10.785z"/>
		<path d="M21.997,11.881l0.012-0.015l-0.894-0.523l-0.136,0.141c-0.04,0.041-0.092,0.104-0.156,0.192
			c-0.059,0.082-0.115,0.168-0.167,0.257c-0.134,0.229-0.173,0.426-0.119,0.603c0.026,0.085,0.067,0.161,0.123,0.229l-0.022,0.037
			l0.219,0.127c1.097,0.634,1.881,1.658,2.209,2.886s0.16,2.507-0.475,3.604c-0.412,0.713-1.006,1.309-1.719,1.723
			c-0.157,0.09-0.267,0.224-0.32,0.388c-0.055,0.176-0.018,0.373,0.113,0.603c0.051,0.09,0.106,0.177,0.165,0.26
			c0.063,0.089,0.115,0.154,0.156,0.195l0.135,0.139l0.511-0.291c0.936-0.546,1.717-1.329,2.258-2.265
			C25.546,17.305,24.707,13.721,21.997,11.881z"/>
	</g>
</g>
<g id="TITLES">
</g>
</svg>
