<?xml version="1.0" encoding="iso-8859-1"?>
<!-- Generator: Adobe Illustrator 17.1.0, SVG Export Plug-In . SVG Version: 6.00 Build 0)  -->
<!DOCTYPE svg PUBLIC "-//W3C//DTD SVG 1.1//EN" "http://www.w3.org/Graphics/SVG/1.1/DTD/svg11.dtd">
<svg version="1.1" xmlns="http://www.w3.org/2000/svg" xmlns:xlink="http://www.w3.org/1999/xlink" x="0px" y="0px"
	 viewBox="0 0 34 34" style="enable-background:new 0 0 34 34;" xml:space="preserve">
<g id="BLOCKS" style="display:none;">
	<rect x="0.027" y="0.021" style="display:inline;fill:#CCCACB;" width="34" height="34"/>
</g>
<g id="INNER_GUDIES">
</g>
<g id="MAIN_GUIDES">
</g>
<g id="ICONS">
	<g>
		<path d="M16.866,1.013c-8.837,0-16,7.163-16,16s7.163,16,16,16s16-7.163,16-16S25.703,1.013,16.866,1.013z M18.479,24.075
			c-1.075,1.072-2.317,0.067-3.168-0.781l-2.264-2.255H8.979c-0.828,0-1.5-0.672-1.5-1.5v-1.26v-2.981v-1.26c0-0.828,0.672-1,1.5-1
			h4.068l2.264-2.255c0.851-0.848,2.093-1.852,3.168-0.781V24.075z M23.89,20.168c-0.541,0.936-1.322,1.719-2.258,2.265
			l-0.511,0.291l-0.135-0.139c-0.041-0.041-0.093-0.106-0.156-0.195c-0.059-0.083-0.113-0.17-0.165-0.26
			c-0.131-0.229-0.168-0.427-0.113-0.603c0.053-0.164,0.163-0.298,0.32-0.388c0.713-0.414,1.307-1.01,1.719-1.723
			c0.634-1.097,0.803-2.376,0.475-3.604s-1.113-2.252-2.209-2.886l-0.219-0.127l0.022-0.037c-0.056-0.067-0.097-0.144-0.123-0.229
			c-0.054-0.177-0.015-0.373,0.119-0.603c0.052-0.089,0.107-0.175,0.167-0.257c0.064-0.088,0.116-0.151,0.156-0.192l0.136-0.141
			l0.894,0.523l-0.012,0.015C24.707,13.721,25.546,17.304,23.89,20.168z"/>
	</g>
</g>
<g id="TITLES">
</g>
</svg>
