<?xml version="1.0" encoding="iso-8859-1"?>
<!-- Generator: Adobe Illustrator 17.1.0, SVG Export Plug-In . SVG Version: 6.00 Build 0)  -->
<!DOCTYPE svg PUBLIC "-//W3C//DTD SVG 1.1//EN" "http://www.w3.org/Graphics/SVG/1.1/DTD/svg11.dtd">
<svg version="1.1" xmlns="http://www.w3.org/2000/svg" xmlns:xlink="http://www.w3.org/1999/xlink" x="0px" y="0px"
	 viewBox="0 0 34 34" style="enable-background:new 0 0 34 34;" xml:space="preserve">
<g id="BLOCKS" style="display:none;">
	<rect x="0.027" y="0.021" style="display:inline;fill:#CCCACB;" width="34" height="34"/>
</g>
<g id="INNER_GUDIES">
</g>
<g id="MAIN_GUIDES">
</g>
<g id="ICONS">
	<g>
		<path d="M14.106,14.102l-0.439,0.437h-0.62H8.979v0.76v2.981v1.26h4.068h0.619l0.439,0.437l2.264,2.255
			c0.251,0.25,0.452,0.423,0.609,0.543V11.305c-0.157,0.119-0.358,0.292-0.609,0.542L14.106,14.102z"/>
		<path d="M16.866,1.013c-8.837,0-16,7.163-16,16s7.163,16,16,16s16-7.163,16-16S25.703,1.013,16.866,1.013z M18.479,24.075
			c-0.333,0.332-0.682,0.465-1.03,0.465c-0.777,0-1.551-0.66-2.138-1.245l-2.264-2.255H8.979c-0.828,0-1.5-0.672-1.5-1.5v-1.26
			v-2.981v-1.26c0-0.828,0.672-1,1.5-1h4.068l2.264-2.255c0.587-0.585,1.361-1.245,2.138-1.245c0.348,0,0.697,0.133,1.03,0.465
			V24.075z M26.864,19.394c0.128,0.128,0.199,0.287,0.206,0.459c0.007,0.182-0.081,0.362-0.269,0.551
			c-0.072,0.073-0.148,0.142-0.226,0.206c-0.083,0.069-0.15,0.118-0.2,0.147l-0.167,0.102L23.448,18.1l-2.355,2.354
			c-0.129,0.129-0.288,0.2-0.459,0.206c0,0,0,0-0.001,0c-0.195,0-0.369-0.089-0.55-0.27c-0.072-0.071-0.141-0.147-0.205-0.226
			c-0.069-0.084-0.118-0.15-0.148-0.2l-0.102-0.167l2.759-2.759l-2.354-2.355c-0.127-0.127-0.199-0.285-0.206-0.457
			c-0.006-0.185,0.082-0.365,0.269-0.553c0.073-0.073,0.149-0.143,0.227-0.206c0.085-0.07,0.153-0.12,0.204-0.149l0.166-0.096
			l2.755,2.755l2.354-2.354c0.13-0.129,0.283-0.198,0.456-0.206h0.001c0.198,0,0.372,0.089,0.553,0.27
			c0.073,0.073,0.142,0.148,0.206,0.226c0.069,0.083,0.118,0.151,0.147,0.201l0.102,0.167l-2.759,2.759L26.864,19.394z"/>
	</g>
</g>
<g id="TITLES">
</g>
</svg>
