<?xml version="1.0" encoding="iso-8859-1"?>
<!-- Generator: Adobe Illustrator 17.1.0, SVG Export Plug-In . SVG Version: 6.00 Build 0)  -->
<!DOCTYPE svg PUBLIC "-//W3C//DTD SVG 1.1//EN" "http://www.w3.org/Graphics/SVG/1.1/DTD/svg11.dtd">
<svg version="1.1" xmlns="http://www.w3.org/2000/svg" xmlns:xlink="http://www.w3.org/1999/xlink" x="0px" y="0px"
	 viewBox="0 0 34 34" style="enable-background:new 0 0 34 34;" xml:space="preserve">
<g id="BLOCKS" style="display:none;">
	<rect x="0.025" y="0.021" style="display:inline;fill:#CCCACB;" width="34" height="34"/>
</g>
<g id="INNER_GUDIES">
</g>
<g id="MAIN_GUIDES">
</g>
<g id="ICONS">
	<g>
		<path d="M16.864,1.021c-8.837,0-16,7.163-16,16s7.163,16,16,16s16-7.163,16-16S25.7,1.021,16.864,1.021z M16.864,31.021
			c-7.72,0-14-6.28-14-14s6.28-14,14-14c7.72,0,14,6.28,14,14S24.583,31.021,16.864,31.021z"/>
		<path d="M15.309,10.785l-2.264,2.255H8.976c-0.828,0-1.5,0.172-1.5,1v1.26v2.981v1.26c0,0.828,0.672,1.5,1.5,1.5h4.068
			l2.264,2.255c0.851,0.848,2.093,1.852,3.168,0.781V10.004C17.401,8.932,16.159,9.937,15.309,10.785z"/>
		<path d="M23.887,20.168c1.656-2.863,0.817-6.447-1.893-8.287l0.012-0.015l-0.894-0.523l-0.136,0.141
			c-0.04,0.041-0.092,0.104-0.156,0.192c-0.059,0.082-0.115,0.168-0.167,0.257c-0.134,0.229-0.173,0.426-0.119,0.603
			c0.026,0.085,0.067,0.161,0.123,0.229l-0.022,0.037l0.219,0.127c1.097,0.634,1.881,1.658,2.209,2.886s0.16,2.507-0.475,3.604
			c-0.412,0.713-1.006,1.309-1.719,1.723c-0.157,0.09-0.267,0.224-0.32,0.388c-0.055,0.176-0.018,0.373,0.113,0.603
			c0.051,0.09,0.106,0.177,0.165,0.26c0.063,0.089,0.115,0.154,0.156,0.195l0.135,0.139l0.511-0.291
			C22.565,21.887,23.346,21.103,23.887,20.168z"/>
		<path d="M27.42,14.667c-0.637-2.394-2.169-4.395-4.314-5.634l-0.482-0.281l-0.136,0.141c-0.04,0.041-0.092,0.104-0.157,0.193
			c-0.058,0.082-0.113,0.167-0.165,0.256c-0.132,0.226-0.172,0.429-0.119,0.603c0.028,0.091,0.075,0.173,0.139,0.244l-0.014,0.036
			l0.184,0.106c1.789,1.033,3.069,2.706,3.604,4.708c0.535,2.002,0.26,4.091-0.774,5.88c-0.638,1.103-1.521,2.002-2.625,2.677
			l-0.192,0.11c-0.157,0.091-0.267,0.225-0.318,0.389c-0.055,0.175-0.017,0.372,0.114,0.603c0.052,0.09,0.107,0.176,0.165,0.259
			c0.062,0.087,0.113,0.15,0.152,0.192l0.136,0.146l0.959-0.57l-0.01-0.01c1.192-0.793,2.245-1.889,2.917-3.044
			C27.723,19.539,28.055,17.053,27.42,14.667z"/>
	</g>
</g>
<g id="TITLES">
</g>
</svg>
