<?xml version="1.0" encoding="iso-8859-1"?>
<!-- Generator: Adobe Illustrator 17.1.0, SVG Export Plug-In . SVG Version: 6.00 Build 0)  -->
<!DOCTYPE svg PUBLIC "-//W3C//DTD SVG 1.1//EN" "http://www.w3.org/Graphics/SVG/1.1/DTD/svg11.dtd">
<svg version="1.1" xmlns="http://www.w3.org/2000/svg" xmlns:xlink="http://www.w3.org/1999/xlink" x="0px" y="0px"
	 viewBox="0 0 34 34" style="enable-background:new 0 0 34 34;" xml:space="preserve">
<g id="BLOCKS" style="display:none;">
	<rect x="0.027" y="0.022" style="display:inline;fill:#CCCACB;" width="34" height="34"/>
</g>
<g id="INNER_GUDIES">
</g>
<g id="MAIN_GUIDES">
</g>
<g id="ICONS">
	<g>
		<path d="M16.866,1.022c-8.837,0-16,7.163-16,16s7.163,16,16,16s16-7.163,16-16S25.703,1.022,16.866,1.022z M16.866,31.022
			c-7.72,0-14-6.28-14-14s6.28-14,14-14c7.72,0,14,6.28,14,14S24.586,31.022,16.866,31.022z"/>
		<path d="M24.509,17.04l2.759-2.759l-0.102-0.167c-0.03-0.05-0.079-0.118-0.147-0.201c-0.064-0.077-0.132-0.152-0.206-0.226
			c-0.181-0.181-0.355-0.27-0.553-0.27h-0.001c-0.173,0.008-0.326,0.077-0.456,0.206l-2.354,2.354l-2.755-2.755l-0.166,0.096
			c-0.051,0.029-0.119,0.079-0.204,0.149c-0.078,0.063-0.154,0.133-0.227,0.206c-0.188,0.188-0.275,0.368-0.269,0.553
			c0.007,0.172,0.079,0.33,0.206,0.457l2.354,2.355l-2.759,2.759l0.102,0.167c0.03,0.05,0.079,0.116,0.148,0.2
			c0.064,0.078,0.133,0.154,0.205,0.226c0.181,0.181,0.355,0.27,0.55,0.27c0,0,0,0,0,0c0.171-0.006,0.33-0.077,0.459-0.206
			l2.355-2.354l2.759,2.759l0.167-0.102c0.049-0.029,0.116-0.078,0.2-0.147c0.078-0.064,0.154-0.133,0.226-0.206
			c0.188-0.188,0.276-0.369,0.269-0.551c-0.006-0.172-0.077-0.331-0.206-0.459L24.509,17.04z"/>
		<path d="M15.312,10.785l-2.264,2.255H8.979c-0.828,0-1.5,0.172-1.5,1v1.26v2.981v1.26c0,0.828,0.672,1.5,1.5,1.5h4.068
			l2.264,2.255c0.587,0.585,1.361,1.245,2.138,1.245c0.348,0,0.697-0.133,1.03-0.465V10.005c-0.333-0.332-0.682-0.465-1.03-0.465
			C16.673,9.54,15.899,10.2,15.312,10.785z M16.979,22.774c-0.157-0.119-0.358-0.292-0.609-0.543l-2.264-2.255l-0.439-0.437h-0.619
			H8.979v-1.26V15.3v-0.76h4.068h0.619l0.439-0.437l2.265-2.255c0.251-0.25,0.451-0.423,0.609-0.542V22.774z"/>
	</g>
</g>
<g id="TITLES">
</g>
</svg>
