<?xml version="1.0" encoding="iso-8859-1"?>
<!-- Generator: Adobe Illustrator 17.1.0, SVG Export Plug-In . SVG Version: 6.00 Build 0)  -->
<!DOCTYPE svg PUBLIC "-//W3C//DTD SVG 1.1//EN" "http://www.w3.org/Graphics/SVG/1.1/DTD/svg11.dtd">
<svg version="1.1" xmlns="http://www.w3.org/2000/svg" xmlns:xlink="http://www.w3.org/1999/xlink" x="0px" y="0px"
	 viewBox="0 0 34 34" style="enable-background:new 0 0 34 34;" xml:space="preserve">
<g id="BLOCKS" style="display:none;">
	<rect x="0.026" y="0.021" style="display:inline;fill:#CCCACB;" width="34" height="34"/>
</g>
<g id="INNER_GUDIES">
</g>
<g id="MAIN_GUIDES">
</g>
<g id="ICONS">
	<g>
		<path d="M32.341,14.911c-0.077-1.187-0.326-2.339-0.688-3.469c-0.528-1.649-1.331-3.154-2.397-4.515
			c-1.58-2.016-3.55-3.534-5.904-4.548c-0.989-0.426-2.011-0.75-3.071-0.936c-0.61-0.107-1.23-0.16-1.846-0.234
			c-0.171-0.021-0.342-0.033-0.514-0.049c-0.329,0-0.658,0-0.986,0c-0.18,0.016-0.359,0.035-0.539,0.047
			c-2.892,0.202-5.507,1.16-7.841,2.88C6.364,5.701,4.741,7.769,3.673,10.27c-0.472,1.106-0.798,2.258-0.997,3.444
			c-0.168,0.995-0.221,2-0.176,3.006c0.112,2.506,0.799,4.846,2.073,7.01c0.048,0.082,0.05,0.15,0.021,0.235
			C3.728,26.54,2.864,29.117,2,31.693c-0.018,0.055-0.025,0.113-0.038,0.17c0.008,0,0.017,0,0.025,0
			c0.042-0.023,0.081-0.053,0.125-0.067c2.467-0.789,4.934-1.576,7.4-2.363c0.204-0.065,0.406-0.135,0.611-0.194
			c0.049-0.014,0.118-0.008,0.162,0.017c1.222,0.67,2.513,1.162,3.876,1.448c0.581,0.122,1.174,0.196,1.763,0.273
			c0.682,0.09,1.37,0.1,2.055,0.069c0.519-0.023,1.037-0.086,1.555-0.143c0.765-0.084,1.511-0.262,2.245-0.486
			c1.868-0.571,3.568-1.461,5.081-2.702c2.592-2.126,4.289-4.818,5.097-8.07c0.172-0.693,0.299-1.394,0.356-2.106
			c0.02-0.256,0.034-0.512,0.052-0.767c0.004-0.053,0.015-0.106,0.023-0.159c0-0.371,0-0.742,0-1.113
			C32.372,15.303,32.353,15.107,32.341,14.911z M25.238,20.517c-0.059,0.329-0.132,0.656-0.21,0.982
			c-0.103,0.428-0.342,0.77-0.682,1.048c-0.497,0.406-1.044,0.73-1.663,0.895c-0.374,0.1-0.767,0.148-1.154,0.168
			c-0.469,0.024-0.919-0.119-1.362-0.268c-0.99-0.335-1.963-0.713-2.898-1.181c-1.164-0.582-2.175-1.375-3.091-2.291
			c-1.388-1.387-2.527-2.961-3.443-4.695c-0.315-0.597-0.537-1.229-0.644-1.897c-0.046-0.286-0.059-0.577-0.08-0.792
			c0.023-1.308,0.495-2.338,1.382-3.19c0.253-0.243,0.53-0.422,0.877-0.486c0.021-0.004,0.041-0.011,0.062-0.011
			c0.415,0.016,0.831,0.027,1.245,0.054c0.074,0.005,0.17,0.057,0.212,0.117c0.116,0.168,0.234,0.341,0.305,0.53
			c0.347,0.93,0.659,1.874,1.026,2.796c0.136,0.343,0.131,0.63-0.083,0.905c-0.278,0.358-0.581,0.697-0.873,1.043
			c-0.062,0.074-0.137,0.138-0.193,0.216c-0.133,0.187-0.156,0.388-0.039,0.591c0.6,1.039,1.27,2.024,2.149,2.854
			c0.832,0.785,1.776,1.396,2.815,1.866c0.099,0.045,0.199,0.089,0.3,0.13c0.247,0.1,0.462,0.048,0.639-0.149
			c0.237-0.263,0.472-0.527,0.703-0.796c0.195-0.227,0.385-0.458,0.573-0.69c0.158-0.196,0.354-0.259,0.594-0.183
			c0.076,0.024,0.153,0.048,0.223,0.085c0.987,0.531,1.976,1.06,2.958,1.6C25.235,19.959,25.307,20.124,25.238,20.517z"/>
	</g>
</g>
<g id="TITLES">
</g>
</svg>
