<?xml version="1.0" encoding="iso-8859-1"?>
<!-- Generator: Adobe Illustrator 17.1.0, SVG Export Plug-In . SVG Version: 6.00 Build 0)  -->
<!DOCTYPE svg PUBLIC "-//W3C//DTD SVG 1.1//EN" "http://www.w3.org/Graphics/SVG/1.1/DTD/svg11.dtd">
<svg version="1.1" xmlns="http://www.w3.org/2000/svg" xmlns:xlink="http://www.w3.org/1999/xlink" x="0px" y="0px"
	 viewBox="0 0 34 34" style="enable-background:new 0 0 34 34;" xml:space="preserve">
<g id="BLOCKS" style="display:none;">
	<rect x="0.027" y="0.022" style="display:inline;fill:#CCCACB;" width="34" height="34"/>
</g>
<g id="INNER_GUDIES">
</g>
<g id="MAIN_GUIDES">
</g>
<g id="ICONS">
	<g>
		<path d="M16.866,3.022c7.72,0,14,6.28,14,14s-6.28,14-14,14s-14-6.28-14-14S9.147,3.022,16.866,3.022 M16.866,1.022
			c-8.837,0-16,7.163-16,16s7.163,16,16,16c8.837,0,16-7.163,16-16S25.703,1.022,16.866,1.022L16.866,1.022z"/>
		<path d="M16.877,21.186c-0.753,0.058-1.743-0.715-1.715-1.769c0.027-1.011,0.837-1.732,1.75-1.727
			c0.996,0.005,1.752,0.797,1.749,1.78C18.659,20.403,17.833,21.224,16.877,21.186z"/>
		<path d="M25.676,12.015l-0.243-0.253l-0.585-0.599c-1.98-1.904-4.803-3.096-7.938-3.111V8.051c-0.009,0-0.018,0.001-0.028,0.001
			c-0.009,0-0.018-0.001-0.028-0.001v0.003c-3.135,0.014-5.959,1.207-7.938,3.111L8.33,11.763l-0.243,0.253
			c-0.179,0.194-0.265,0.425-0.248,0.665c0.018,0.263,0.174,0.498,0.478,0.72c0.101,0.074,0.203,0.142,0.315,0.209
			c0.118,0.07,0.215,0.12,0.289,0.151l0.388,0.165l0.238-0.259l0.004,0.004l0.348-0.381l0.319-0.311
			c1.574-1.783,3.925-2.883,6.663-2.89c2.738,0.008,5.089,1.107,6.663,2.89l0.319,0.311l0.348,0.381l0.004-0.004l0.238,0.259
			l0.388-0.165c0.073-0.031,0.171-0.082,0.289-0.151c0.112-0.066,0.214-0.135,0.315-0.209c0.304-0.222,0.46-0.457,0.478-0.72
			C25.94,12.44,25.854,12.209,25.676,12.015z"/>
		<path d="M22.492,15.313l-0.505-0.52c-1.309-1.258-3.167-1.984-5.095-1.993h-0.077c-1.906,0.021-3.745,0.75-5.049,2.004
			l-0.501,0.515c-0.187,0.201-0.279,0.452-0.261,0.706c0.02,0.282,0.177,0.533,0.466,0.744c0.073,0.054,0.148,0.104,0.227,0.15
			c0.097,0.057,0.178,0.098,0.233,0.121l0.581,0.247l0.059-0.064l0.003,0.002l0.732-0.776c0.879-0.996,2.148-1.547,3.574-1.551
			c1.428,0.004,2.705,0.562,3.598,1.573l0.617,0.648l0.156,0.168l0.576-0.245c0.061-0.025,0.143-0.066,0.235-0.122
			c0.082-0.047,0.156-0.097,0.233-0.151c0.289-0.213,0.445-0.463,0.464-0.744C22.776,15.772,22.683,15.52,22.492,15.313z"/>
	</g>
</g>
<g id="TITLES">
</g>
</svg>
