<?xml version="1.0" encoding="iso-8859-1"?>
<!-- Generator: Adobe Illustrator 17.1.0, SVG Export Plug-In . SVG Version: 6.00 Build 0)  -->
<!DOCTYPE svg PUBLIC "-//W3C//DTD SVG 1.1//EN" "http://www.w3.org/Graphics/SVG/1.1/DTD/svg11.dtd">
<svg version="1.1" xmlns="http://www.w3.org/2000/svg" xmlns:xlink="http://www.w3.org/1999/xlink" x="0px" y="0px"
	 viewBox="0 0 34 34" style="enable-background:new 0 0 34 34;" xml:space="preserve">
<g id="BLOCKS" style="display:none;">
	<rect x="0.026" y="0.022" style="display:inline;fill:#CCCACB;" width="34" height="34"/>
</g>
<g id="INNER_GUDIES">
</g>
<g id="MAIN_GUIDES">
</g>
<g id="ICONS">
	<g>
		<path d="M16.865,1.014c-8.837,0-16,7.163-16,16s7.163,16,16,16s16-7.163,16-16S25.701,1.014,16.865,1.014z M16.875,21.103
			c-0.753,0.058-1.743-0.715-1.715-1.769c0.027-1.011,0.837-1.732,1.75-1.727c0.996,0.005,1.752,0.797,1.749,1.78
			C18.657,20.32,17.831,21.141,16.875,21.103z M22.292,16.686c-0.077,0.055-0.151,0.104-0.233,0.151
			c-0.092,0.056-0.173,0.097-0.235,0.122l-0.576,0.245l-0.156-0.168l-0.617-0.648c-0.893-1.012-2.17-1.569-3.598-1.573
			c-1.425,0.004-2.695,0.555-3.573,1.551l-0.732,0.776l-0.003-0.002l-0.059,0.064l-0.581-0.247
			c-0.055-0.023-0.136-0.064-0.233-0.121c-0.079-0.046-0.154-0.097-0.227-0.15c-0.289-0.211-0.446-0.462-0.466-0.744
			c-0.018-0.254,0.074-0.505,0.261-0.706l0.501-0.515c1.304-1.254,3.143-1.983,5.049-2.004h0.077
			c1.928,0.009,3.786,0.735,5.095,1.993l0.505,0.52c0.191,0.207,0.284,0.459,0.266,0.712C22.738,16.223,22.581,16.473,22.292,16.686
			z M25.444,13.317c-0.101,0.074-0.203,0.142-0.315,0.209c-0.118,0.07-0.215,0.12-0.289,0.151l-0.388,0.165l-0.238-0.259
			l-0.004,0.003l-0.348-0.381l-0.319-0.311c-1.574-1.783-3.925-2.883-6.663-2.89c-2.738,0.008-5.089,1.107-6.663,2.89l-0.319,0.311
			L9.55,13.586l-0.004-0.003l-0.238,0.259L8.92,13.677c-0.073-0.031-0.171-0.081-0.289-0.151c-0.112-0.066-0.214-0.135-0.315-0.209
			c-0.304-0.222-0.46-0.457-0.478-0.72c-0.017-0.24,0.069-0.471,0.248-0.665l0.243-0.253l0.585-0.599
			c1.98-1.904,4.803-3.096,7.938-3.111V7.967c0.009,0,0.018,0.001,0.028,0.001s0.018-0.001,0.028-0.001V7.97
			c3.135,0.014,5.958,1.207,7.938,3.111l0.585,0.599l0.243,0.253c0.179,0.194,0.265,0.425,0.248,0.665
			C25.904,12.86,25.747,13.095,25.444,13.317z"/>
	</g>
</g>
<g id="TITLES">
</g>
</svg>
