<?xml version="1.0" encoding="iso-8859-1"?>
<!-- Generator: Adobe Illustrator 17.1.0, SVG Export Plug-In . SVG Version: 6.00 Build 0)  -->
<!DOCTYPE svg PUBLIC "-//W3C//DTD SVG 1.1//EN" "http://www.w3.org/Graphics/SVG/1.1/DTD/svg11.dtd">
<svg version="1.1" xmlns="http://www.w3.org/2000/svg" xmlns:xlink="http://www.w3.org/1999/xlink" x="0px" y="0px"
	 viewBox="0 0 34 34" style="enable-background:new 0 0 34 34;" xml:space="preserve">
<g id="BLOCKS" style="display:none;">
	<rect x="0.026" y="0.022" style="display:inline;fill:#CCCACB;" width="34" height="34"/>
</g>
<g id="INNER_GUDIES">
</g>
<g id="MAIN_GUIDES">
</g>
<g id="ICONS">
	<g>
		<path d="M16.865,1.014c-8.837,0-16,7.163-16,16s7.163,16,16,16s16-7.163,16-16S25.701,1.014,16.865,1.014z M13.463,26.357
			c-4.986-0.414-6.656-5.126-6.656-5.126l-0.2-0.619l2.483-0.802c-0.834-3.319-0.332-6.367,2.021-9.055
			c1.284-1.467,2.9-2.443,4.775-3.158c-2.732,1.394-3.682,5.367-2.693,10.887c0.172-0.056,2.467-0.797,2.467-0.797l0.2,0.619
			C15.861,18.305,17.264,23.103,13.463,26.357z M22.94,23.123c-1.284,1.467-2.901,2.443-4.775,3.158
			c2.547-3.217,3.538-6.781,2.693-10.887c0.249-0.081-2.467,0.797-2.467,0.797l-0.2-0.619c0,0-1.404-4.798,2.398-8.052
			c4.986,0.414,6.656,5.126,6.656,5.126l0.2,0.619l-2.483,0.802C25.795,17.387,25.293,20.435,22.94,23.123z"/>
	</g>
</g>
<g id="TITLES">
</g>
</svg>
