<?xml version="1.0" encoding="iso-8859-1"?>
<!-- Generator: Adobe Illustrator 17.1.0, SVG Export Plug-In . SVG Version: 6.00 Build 0)  -->
<!DOCTYPE svg PUBLIC "-//W3C//DTD SVG 1.1//EN" "http://www.w3.org/Graphics/SVG/1.1/DTD/svg11.dtd">
<svg version="1.1" xmlns="http://www.w3.org/2000/svg" xmlns:xlink="http://www.w3.org/1999/xlink" x="0px" y="0px"
	 viewBox="0 0 34 34" style="enable-background:new 0 0 34 34;" xml:space="preserve">
<g id="BLOCKS" style="display:none;">
	<rect x="0.026" y="0.021" style="display:inline;fill:#CCCACB;" width="34" height="34"/>
</g>
<g id="INNER_GUDIES">
</g>
<g id="MAIN_GUIDES">
</g>
<g id="ICONS">
	<g>
		<path d="M31.592,11.006c0,0-0.294-2.074-1.196-2.987c-1.144-1.199-2.427-1.205-3.015-1.275C23.17,6.44,16.853,6.44,16.853,6.44
			H16.84c0,0-6.317,0-10.528,0.304c-0.588,0.07-1.87,0.076-3.015,1.275c-0.902,0.913-1.196,2.987-1.196,2.987S1.8,13.441,1.8,15.876
			v2.283c0,2.435,0.301,4.87,0.301,4.87s0.294,2.074,1.196,2.987c1.145,1.199,2.648,1.161,3.318,1.286
			c2.407,0.231,10.231,0.302,10.231,0.302s6.323-0.01,10.534-0.314c0.588-0.07,1.871-0.076,3.015-1.275
			c0.902-0.913,1.196-2.987,1.196-2.987s0.301-2.435,0.301-4.87v-2.283C31.893,13.441,31.592,11.006,31.592,11.006 M13.74,20.926
			l-0.001-8.455l8.131,4.242L13.74,20.926z"/>
	</g>
</g>
<g id="TITLES">
</g>
</svg>
